<?xml version="1.0" encoding="utf-8" standalone="no"?>
<!DOCTYPE svg PUBLIC "-//W3C//DTD SVG 1.1//EN"
  "http://www.w3.org/Graphics/SVG/1.1/DTD/svg11.dtd">
<svg height="386.03625pt" version="1.1" viewBox="0 0 735.345312 386.03625" width="735.345312pt" xmlns="http://www.w3.org/2000/svg" xmlns:xlink="http://www.w3.org/1999/xlink">
 <metadata>
  <rdf:RDF xmlns:cc="http://creativecommons.org/ns#" xmlns:dc="http://purl.org/dc/elements/1.1/" xmlns:rdf="http://www.w3.org/1999/02/22-rdf-syntax-ns#">
   <cc:Work>
    <dc:type rdf:resource="http://purl.org/dc/dcmitype/StillImage"/>
    <dc:date>2021-10-23T22:20:57.836727</dc:date>
    <dc:format>image/svg+xml</dc:format>
    <dc:creator>
     <cc:Agent>
      <dc:title>Matplotlib v3.4.3, https://matplotlib.org/</dc:title>
     </cc:Agent>
    </dc:creator>
   </cc:Work>
  </rdf:RDF>
 </metadata>
 <defs>
  <style type="text/css">*{stroke-linecap:butt;stroke-linejoin:round;}</style>
 </defs>
 <g id="figure_1">
  <g id="patch_1">
   <path d="M 0 386.03625 
L 735.345312 386.03625 
L 735.345312 0 
L 0 0 
z
" style="fill:none;"/>
  </g>
  <g id="axes_1">
   <g id="patch_2">
    <path d="M 58.545313 348.48 
L 362.908949 348.48 
L 362.908949 22.32 
L 58.545313 22.32 
z
" style="fill:#ffffff;"/>
   </g>
   <g id="matplotlib.axis_1">
    <g id="xtick_1">
     <g id="line2d_1">
      <defs>
       <path d="M 0 0 
L 0 3.5 
" id="m70884e0110" style="stroke:#000000;stroke-width:0.8;"/>
      </defs>
      <g>
       <use style="stroke:#000000;stroke-width:0.8;" x="72.380023" xlink:href="#m70884e0110" y="348.48"/>
      </g>
     </g>
     <g id="text_1">
      <!-- 0.0 -->
      <g transform="translate(64.428461 363.078438)scale(0.1 -0.1)">
       <defs>
        <path d="M 2034 4250 
Q 1547 4250 1301 3770 
Q 1056 3291 1056 2328 
Q 1056 1369 1301 889 
Q 1547 409 2034 409 
Q 2525 409 2770 889 
Q 3016 1369 3016 2328 
Q 3016 3291 2770 3770 
Q 2525 4250 2034 4250 
z
M 2034 4750 
Q 2819 4750 3233 4129 
Q 3647 3509 3647 2328 
Q 3647 1150 3233 529 
Q 2819 -91 2034 -91 
Q 1250 -91 836 529 
Q 422 1150 422 2328 
Q 422 3509 836 4129 
Q 1250 4750 2034 4750 
z
" id="DejaVuSans-30" transform="scale(0.015625)"/>
        <path d="M 684 794 
L 1344 794 
L 1344 0 
L 684 0 
L 684 794 
z
" id="DejaVuSans-2e" transform="scale(0.015625)"/>
       </defs>
       <use xlink:href="#DejaVuSans-30"/>
       <use x="63.623047" xlink:href="#DejaVuSans-2e"/>
       <use x="95.410156" xlink:href="#DejaVuSans-30"/>
      </g>
     </g>
    </g>
    <g id="xtick_2">
     <g id="line2d_2">
      <g>
       <use style="stroke:#000000;stroke-width:0.8;" x="127.996951" xlink:href="#m70884e0110" y="348.48"/>
      </g>
     </g>
     <g id="text_2">
      <!-- 0.2 -->
      <g transform="translate(120.045388 363.078438)scale(0.1 -0.1)">
       <defs>
        <path d="M 1228 531 
L 3431 531 
L 3431 0 
L 469 0 
L 469 531 
Q 828 903 1448 1529 
Q 2069 2156 2228 2338 
Q 2531 2678 2651 2914 
Q 2772 3150 2772 3378 
Q 2772 3750 2511 3984 
Q 2250 4219 1831 4219 
Q 1534 4219 1204 4116 
Q 875 4013 500 3803 
L 500 4441 
Q 881 4594 1212 4672 
Q 1544 4750 1819 4750 
Q 2544 4750 2975 4387 
Q 3406 4025 3406 3419 
Q 3406 3131 3298 2873 
Q 3191 2616 2906 2266 
Q 2828 2175 2409 1742 
Q 1991 1309 1228 531 
z
" id="DejaVuSans-32" transform="scale(0.015625)"/>
       </defs>
       <use xlink:href="#DejaVuSans-30"/>
       <use x="63.623047" xlink:href="#DejaVuSans-2e"/>
       <use x="95.410156" xlink:href="#DejaVuSans-32"/>
      </g>
     </g>
    </g>
    <g id="xtick_3">
     <g id="line2d_3">
      <g>
       <use style="stroke:#000000;stroke-width:0.8;" x="183.613878" xlink:href="#m70884e0110" y="348.48"/>
      </g>
     </g>
     <g id="text_3">
      <!-- 0.4 -->
      <g transform="translate(175.662316 363.078438)scale(0.1 -0.1)">
       <defs>
        <path d="M 2419 4116 
L 825 1625 
L 2419 1625 
L 2419 4116 
z
M 2253 4666 
L 3047 4666 
L 3047 1625 
L 3713 1625 
L 3713 1100 
L 3047 1100 
L 3047 0 
L 2419 0 
L 2419 1100 
L 313 1100 
L 313 1709 
L 2253 4666 
z
" id="DejaVuSans-34" transform="scale(0.015625)"/>
       </defs>
       <use xlink:href="#DejaVuSans-30"/>
       <use x="63.623047" xlink:href="#DejaVuSans-2e"/>
       <use x="95.410156" xlink:href="#DejaVuSans-34"/>
      </g>
     </g>
    </g>
    <g id="xtick_4">
     <g id="line2d_4">
      <g>
       <use style="stroke:#000000;stroke-width:0.8;" x="239.230806" xlink:href="#m70884e0110" y="348.48"/>
      </g>
     </g>
     <g id="text_4">
      <!-- 0.6 -->
      <g transform="translate(231.279244 363.078438)scale(0.1 -0.1)">
       <defs>
        <path d="M 2113 2584 
Q 1688 2584 1439 2293 
Q 1191 2003 1191 1497 
Q 1191 994 1439 701 
Q 1688 409 2113 409 
Q 2538 409 2786 701 
Q 3034 994 3034 1497 
Q 3034 2003 2786 2293 
Q 2538 2584 2113 2584 
z
M 3366 4563 
L 3366 3988 
Q 3128 4100 2886 4159 
Q 2644 4219 2406 4219 
Q 1781 4219 1451 3797 
Q 1122 3375 1075 2522 
Q 1259 2794 1537 2939 
Q 1816 3084 2150 3084 
Q 2853 3084 3261 2657 
Q 3669 2231 3669 1497 
Q 3669 778 3244 343 
Q 2819 -91 2113 -91 
Q 1303 -91 875 529 
Q 447 1150 447 2328 
Q 447 3434 972 4092 
Q 1497 4750 2381 4750 
Q 2619 4750 2861 4703 
Q 3103 4656 3366 4563 
z
" id="DejaVuSans-36" transform="scale(0.015625)"/>
       </defs>
       <use xlink:href="#DejaVuSans-30"/>
       <use x="63.623047" xlink:href="#DejaVuSans-2e"/>
       <use x="95.410156" xlink:href="#DejaVuSans-36"/>
      </g>
     </g>
    </g>
    <g id="xtick_5">
     <g id="line2d_5">
      <g>
       <use style="stroke:#000000;stroke-width:0.8;" x="294.847734" xlink:href="#m70884e0110" y="348.48"/>
      </g>
     </g>
     <g id="text_5">
      <!-- 0.8 -->
      <g transform="translate(286.896171 363.078438)scale(0.1 -0.1)">
       <defs>
        <path d="M 2034 2216 
Q 1584 2216 1326 1975 
Q 1069 1734 1069 1313 
Q 1069 891 1326 650 
Q 1584 409 2034 409 
Q 2484 409 2743 651 
Q 3003 894 3003 1313 
Q 3003 1734 2745 1975 
Q 2488 2216 2034 2216 
z
M 1403 2484 
Q 997 2584 770 2862 
Q 544 3141 544 3541 
Q 544 4100 942 4425 
Q 1341 4750 2034 4750 
Q 2731 4750 3128 4425 
Q 3525 4100 3525 3541 
Q 3525 3141 3298 2862 
Q 3072 2584 2669 2484 
Q 3125 2378 3379 2068 
Q 3634 1759 3634 1313 
Q 3634 634 3220 271 
Q 2806 -91 2034 -91 
Q 1263 -91 848 271 
Q 434 634 434 1313 
Q 434 1759 690 2068 
Q 947 2378 1403 2484 
z
M 1172 3481 
Q 1172 3119 1398 2916 
Q 1625 2713 2034 2713 
Q 2441 2713 2670 2916 
Q 2900 3119 2900 3481 
Q 2900 3844 2670 4047 
Q 2441 4250 2034 4250 
Q 1625 4250 1398 4047 
Q 1172 3844 1172 3481 
z
" id="DejaVuSans-38" transform="scale(0.015625)"/>
       </defs>
       <use xlink:href="#DejaVuSans-30"/>
       <use x="63.623047" xlink:href="#DejaVuSans-2e"/>
       <use x="95.410156" xlink:href="#DejaVuSans-38"/>
      </g>
     </g>
    </g>
    <g id="xtick_6">
     <g id="line2d_6">
      <g>
       <use style="stroke:#000000;stroke-width:0.8;" x="350.464661" xlink:href="#m70884e0110" y="348.48"/>
      </g>
     </g>
     <g id="text_6">
      <!-- 1.0 -->
      <g transform="translate(342.513099 363.078438)scale(0.1 -0.1)">
       <defs>
        <path d="M 794 531 
L 1825 531 
L 1825 4091 
L 703 3866 
L 703 4441 
L 1819 4666 
L 2450 4666 
L 2450 531 
L 3481 531 
L 3481 0 
L 794 0 
L 794 531 
z
" id="DejaVuSans-31" transform="scale(0.015625)"/>
       </defs>
       <use xlink:href="#DejaVuSans-31"/>
       <use x="63.623047" xlink:href="#DejaVuSans-2e"/>
       <use x="95.410156" xlink:href="#DejaVuSans-30"/>
      </g>
     </g>
    </g>
    <g id="text_7">
     <!-- Scaled x -->
     <g transform="translate(189.551349 376.756562)scale(0.1 -0.1)">
      <defs>
       <path d="M 3425 4513 
L 3425 3897 
Q 3066 4069 2747 4153 
Q 2428 4238 2131 4238 
Q 1616 4238 1336 4038 
Q 1056 3838 1056 3469 
Q 1056 3159 1242 3001 
Q 1428 2844 1947 2747 
L 2328 2669 
Q 3034 2534 3370 2195 
Q 3706 1856 3706 1288 
Q 3706 609 3251 259 
Q 2797 -91 1919 -91 
Q 1588 -91 1214 -16 
Q 841 59 441 206 
L 441 856 
Q 825 641 1194 531 
Q 1563 422 1919 422 
Q 2459 422 2753 634 
Q 3047 847 3047 1241 
Q 3047 1584 2836 1778 
Q 2625 1972 2144 2069 
L 1759 2144 
Q 1053 2284 737 2584 
Q 422 2884 422 3419 
Q 422 4038 858 4394 
Q 1294 4750 2059 4750 
Q 2388 4750 2728 4690 
Q 3069 4631 3425 4513 
z
" id="DejaVuSans-53" transform="scale(0.015625)"/>
       <path d="M 3122 3366 
L 3122 2828 
Q 2878 2963 2633 3030 
Q 2388 3097 2138 3097 
Q 1578 3097 1268 2742 
Q 959 2388 959 1747 
Q 959 1106 1268 751 
Q 1578 397 2138 397 
Q 2388 397 2633 464 
Q 2878 531 3122 666 
L 3122 134 
Q 2881 22 2623 -34 
Q 2366 -91 2075 -91 
Q 1284 -91 818 406 
Q 353 903 353 1747 
Q 353 2603 823 3093 
Q 1294 3584 2113 3584 
Q 2378 3584 2631 3529 
Q 2884 3475 3122 3366 
z
" id="DejaVuSans-63" transform="scale(0.015625)"/>
       <path d="M 2194 1759 
Q 1497 1759 1228 1600 
Q 959 1441 959 1056 
Q 959 750 1161 570 
Q 1363 391 1709 391 
Q 2188 391 2477 730 
Q 2766 1069 2766 1631 
L 2766 1759 
L 2194 1759 
z
M 3341 1997 
L 3341 0 
L 2766 0 
L 2766 531 
Q 2569 213 2275 61 
Q 1981 -91 1556 -91 
Q 1019 -91 701 211 
Q 384 513 384 1019 
Q 384 1609 779 1909 
Q 1175 2209 1959 2209 
L 2766 2209 
L 2766 2266 
Q 2766 2663 2505 2880 
Q 2244 3097 1772 3097 
Q 1472 3097 1187 3025 
Q 903 2953 641 2809 
L 641 3341 
Q 956 3463 1253 3523 
Q 1550 3584 1831 3584 
Q 2591 3584 2966 3190 
Q 3341 2797 3341 1997 
z
" id="DejaVuSans-61" transform="scale(0.015625)"/>
       <path d="M 603 4863 
L 1178 4863 
L 1178 0 
L 603 0 
L 603 4863 
z
" id="DejaVuSans-6c" transform="scale(0.015625)"/>
       <path d="M 3597 1894 
L 3597 1613 
L 953 1613 
Q 991 1019 1311 708 
Q 1631 397 2203 397 
Q 2534 397 2845 478 
Q 3156 559 3463 722 
L 3463 178 
Q 3153 47 2828 -22 
Q 2503 -91 2169 -91 
Q 1331 -91 842 396 
Q 353 884 353 1716 
Q 353 2575 817 3079 
Q 1281 3584 2069 3584 
Q 2775 3584 3186 3129 
Q 3597 2675 3597 1894 
z
M 3022 2063 
Q 3016 2534 2758 2815 
Q 2500 3097 2075 3097 
Q 1594 3097 1305 2825 
Q 1016 2553 972 2059 
L 3022 2063 
z
" id="DejaVuSans-65" transform="scale(0.015625)"/>
       <path d="M 2906 2969 
L 2906 4863 
L 3481 4863 
L 3481 0 
L 2906 0 
L 2906 525 
Q 2725 213 2448 61 
Q 2172 -91 1784 -91 
Q 1150 -91 751 415 
Q 353 922 353 1747 
Q 353 2572 751 3078 
Q 1150 3584 1784 3584 
Q 2172 3584 2448 3432 
Q 2725 3281 2906 2969 
z
M 947 1747 
Q 947 1113 1208 752 
Q 1469 391 1925 391 
Q 2381 391 2643 752 
Q 2906 1113 2906 1747 
Q 2906 2381 2643 2742 
Q 2381 3103 1925 3103 
Q 1469 3103 1208 2742 
Q 947 2381 947 1747 
z
" id="DejaVuSans-64" transform="scale(0.015625)"/>
       <path id="DejaVuSans-20" transform="scale(0.015625)"/>
       <path d="M 3513 3500 
L 2247 1797 
L 3578 0 
L 2900 0 
L 1881 1375 
L 863 0 
L 184 0 
L 1544 1831 
L 300 3500 
L 978 3500 
L 1906 2253 
L 2834 3500 
L 3513 3500 
z
" id="DejaVuSans-78" transform="scale(0.015625)"/>
      </defs>
      <use xlink:href="#DejaVuSans-53"/>
      <use x="63.476562" xlink:href="#DejaVuSans-63"/>
      <use x="118.457031" xlink:href="#DejaVuSans-61"/>
      <use x="179.736328" xlink:href="#DejaVuSans-6c"/>
      <use x="207.519531" xlink:href="#DejaVuSans-65"/>
      <use x="269.042969" xlink:href="#DejaVuSans-64"/>
      <use x="332.519531" xlink:href="#DejaVuSans-20"/>
      <use x="364.306641" xlink:href="#DejaVuSans-78"/>
     </g>
    </g>
   </g>
   <g id="matplotlib.axis_2">
    <g id="ytick_1">
     <g id="line2d_7">
      <defs>
       <path d="M 0 0 
L -3.5 0 
" id="me719bdedfa" style="stroke:#000000;stroke-width:0.8;"/>
      </defs>
      <g>
       <use style="stroke:#000000;stroke-width:0.8;" x="58.545313" xlink:href="#me719bdedfa" y="325.826633"/>
      </g>
     </g>
     <g id="text_8">
      <!-- −0.20 -->
      <g transform="translate(20.9 329.625851)scale(0.1 -0.1)">
       <defs>
        <path d="M 678 2272 
L 4684 2272 
L 4684 1741 
L 678 1741 
L 678 2272 
z
" id="DejaVuSans-2212" transform="scale(0.015625)"/>
       </defs>
       <use xlink:href="#DejaVuSans-2212"/>
       <use x="83.789062" xlink:href="#DejaVuSans-30"/>
       <use x="147.412109" xlink:href="#DejaVuSans-2e"/>
       <use x="179.199219" xlink:href="#DejaVuSans-32"/>
       <use x="242.822266" xlink:href="#DejaVuSans-30"/>
      </g>
     </g>
    </g>
    <g id="ytick_2">
     <g id="line2d_8">
      <g>
       <use style="stroke:#000000;stroke-width:0.8;" x="58.545313" xlink:href="#me719bdedfa" y="285.401848"/>
      </g>
     </g>
     <g id="text_9">
      <!-- −0.15 -->
      <g transform="translate(20.9 289.201066)scale(0.1 -0.1)">
       <defs>
        <path d="M 691 4666 
L 3169 4666 
L 3169 4134 
L 1269 4134 
L 1269 2991 
Q 1406 3038 1543 3061 
Q 1681 3084 1819 3084 
Q 2600 3084 3056 2656 
Q 3513 2228 3513 1497 
Q 3513 744 3044 326 
Q 2575 -91 1722 -91 
Q 1428 -91 1123 -41 
Q 819 9 494 109 
L 494 744 
Q 775 591 1075 516 
Q 1375 441 1709 441 
Q 2250 441 2565 725 
Q 2881 1009 2881 1497 
Q 2881 1984 2565 2268 
Q 2250 2553 1709 2553 
Q 1456 2553 1204 2497 
Q 953 2441 691 2322 
L 691 4666 
z
" id="DejaVuSans-35" transform="scale(0.015625)"/>
       </defs>
       <use xlink:href="#DejaVuSans-2212"/>
       <use x="83.789062" xlink:href="#DejaVuSans-30"/>
       <use x="147.412109" xlink:href="#DejaVuSans-2e"/>
       <use x="179.199219" xlink:href="#DejaVuSans-31"/>
       <use x="242.822266" xlink:href="#DejaVuSans-35"/>
      </g>
     </g>
    </g>
    <g id="ytick_3">
     <g id="line2d_9">
      <g>
       <use style="stroke:#000000;stroke-width:0.8;" x="58.545313" xlink:href="#me719bdedfa" y="244.977063"/>
      </g>
     </g>
     <g id="text_10">
      <!-- −0.10 -->
      <g transform="translate(20.9 248.776282)scale(0.1 -0.1)">
       <use xlink:href="#DejaVuSans-2212"/>
       <use x="83.789062" xlink:href="#DejaVuSans-30"/>
       <use x="147.412109" xlink:href="#DejaVuSans-2e"/>
       <use x="179.199219" xlink:href="#DejaVuSans-31"/>
       <use x="242.822266" xlink:href="#DejaVuSans-30"/>
      </g>
     </g>
    </g>
    <g id="ytick_4">
     <g id="line2d_10">
      <g>
       <use style="stroke:#000000;stroke-width:0.8;" x="58.545313" xlink:href="#me719bdedfa" y="204.552278"/>
      </g>
     </g>
     <g id="text_11">
      <!-- −0.05 -->
      <g transform="translate(20.9 208.351497)scale(0.1 -0.1)">
       <use xlink:href="#DejaVuSans-2212"/>
       <use x="83.789062" xlink:href="#DejaVuSans-30"/>
       <use x="147.412109" xlink:href="#DejaVuSans-2e"/>
       <use x="179.199219" xlink:href="#DejaVuSans-30"/>
       <use x="242.822266" xlink:href="#DejaVuSans-35"/>
      </g>
     </g>
    </g>
    <g id="ytick_5">
     <g id="line2d_11">
      <g>
       <use style="stroke:#000000;stroke-width:0.8;" x="58.545313" xlink:href="#me719bdedfa" y="164.127493"/>
      </g>
     </g>
     <g id="text_12">
      <!-- 0.00 -->
      <g transform="translate(29.279688 167.926712)scale(0.1 -0.1)">
       <use xlink:href="#DejaVuSans-30"/>
       <use x="63.623047" xlink:href="#DejaVuSans-2e"/>
       <use x="95.410156" xlink:href="#DejaVuSans-30"/>
       <use x="159.033203" xlink:href="#DejaVuSans-30"/>
      </g>
     </g>
    </g>
    <g id="ytick_6">
     <g id="line2d_12">
      <g>
       <use style="stroke:#000000;stroke-width:0.8;" x="58.545313" xlink:href="#me719bdedfa" y="123.702709"/>
      </g>
     </g>
     <g id="text_13">
      <!-- 0.05 -->
      <g transform="translate(29.279688 127.501927)scale(0.1 -0.1)">
       <use xlink:href="#DejaVuSans-30"/>
       <use x="63.623047" xlink:href="#DejaVuSans-2e"/>
       <use x="95.410156" xlink:href="#DejaVuSans-30"/>
       <use x="159.033203" xlink:href="#DejaVuSans-35"/>
      </g>
     </g>
    </g>
    <g id="ytick_7">
     <g id="line2d_13">
      <g>
       <use style="stroke:#000000;stroke-width:0.8;" x="58.545313" xlink:href="#me719bdedfa" y="83.277924"/>
      </g>
     </g>
     <g id="text_14">
      <!-- 0.10 -->
      <g transform="translate(29.279688 87.077142)scale(0.1 -0.1)">
       <use xlink:href="#DejaVuSans-30"/>
       <use x="63.623047" xlink:href="#DejaVuSans-2e"/>
       <use x="95.410156" xlink:href="#DejaVuSans-31"/>
       <use x="159.033203" xlink:href="#DejaVuSans-30"/>
      </g>
     </g>
    </g>
    <g id="ytick_8">
     <g id="line2d_14">
      <g>
       <use style="stroke:#000000;stroke-width:0.8;" x="58.545313" xlink:href="#me719bdedfa" y="42.853139"/>
      </g>
     </g>
     <g id="text_15">
      <!-- 0.15 -->
      <g transform="translate(29.279688 46.652358)scale(0.1 -0.1)">
       <use xlink:href="#DejaVuSans-30"/>
       <use x="63.623047" xlink:href="#DejaVuSans-2e"/>
       <use x="95.410156" xlink:href="#DejaVuSans-31"/>
       <use x="159.033203" xlink:href="#DejaVuSans-35"/>
      </g>
     </g>
    </g>
    <g id="text_16">
     <!-- $\phi(x)$ -->
     <g transform="translate(14.8 195.6)rotate(-90)scale(0.1 -0.1)">
      <defs>
       <path d="M 2991 4863 
L 2738 3572 
Q 3363 3572 3684 3094 
Q 4016 2606 3850 1747 
Q 3681 888 3159 400 
Q 2653 -78 2028 -78 
L 1784 -1331 
L 1213 -1331 
L 1456 -78 
Q 834 -78 509 400 
Q 178 888 347 1747 
Q 513 2606 1034 3094 
Q 1544 3572 2166 3572 
L 2419 4863 
L 2991 4863 
z
M 2128 434 
Q 2481 434 2784 756 
Q 3116 1116 3244 1747 
Q 3369 2372 3169 2738 
Q 2991 3059 2638 3059 
L 2128 434 
z
M 1556 434 
L 2066 3059 
Q 1716 3059 1413 2738 
Q 1072 2372 953 1747 
Q 834 1116 1028 756 
Q 1203 434 1556 434 
z
" id="DejaVuSans-Oblique-3d5" transform="scale(0.015625)"/>
       <path d="M 1984 4856 
Q 1566 4138 1362 3434 
Q 1159 2731 1159 2009 
Q 1159 1288 1364 580 
Q 1569 -128 1984 -844 
L 1484 -844 
Q 1016 -109 783 600 
Q 550 1309 550 2009 
Q 550 2706 781 3412 
Q 1013 4119 1484 4856 
L 1984 4856 
z
" id="DejaVuSans-28" transform="scale(0.015625)"/>
       <path d="M 3841 3500 
L 2234 1784 
L 3219 0 
L 2559 0 
L 1819 1388 
L 531 0 
L -166 0 
L 1556 1844 
L 641 3500 
L 1300 3500 
L 1972 2234 
L 3144 3500 
L 3841 3500 
z
" id="DejaVuSans-Oblique-78" transform="scale(0.015625)"/>
       <path d="M 513 4856 
L 1013 4856 
Q 1481 4119 1714 3412 
Q 1947 2706 1947 2009 
Q 1947 1309 1714 600 
Q 1481 -109 1013 -844 
L 513 -844 
Q 928 -128 1133 580 
Q 1338 1288 1338 2009 
Q 1338 2731 1133 3434 
Q 928 4138 513 4856 
z
" id="DejaVuSans-29" transform="scale(0.015625)"/>
      </defs>
      <use transform="translate(0 0.015625)" xlink:href="#DejaVuSans-Oblique-3d5"/>
      <use transform="translate(65.966797 0.015625)" xlink:href="#DejaVuSans-28"/>
      <use transform="translate(104.980469 0.015625)" xlink:href="#DejaVuSans-Oblique-78"/>
      <use transform="translate(164.160156 0.015625)" xlink:href="#DejaVuSans-29"/>
     </g>
    </g>
   </g>
   <g id="line2d_15">
    <path clip-path="url(#pab834631c5)" d="M 72.380023 171.260618 
L 75.16087 184.944291 
L 76.551293 191.22755 
L 77.941716 196.980844 
L 79.332139 202.104142 
L 80.722562 206.513478 
L 82.112986 210.141722 
L 83.503409 212.938952 
L 84.893832 214.872423 
L 86.284255 215.926199 
L 87.674678 216.100467 
L 89.065102 215.410579 
L 90.455525 213.885872 
L 91.845948 211.568307 
L 93.236371 208.510967 
L 94.626794 204.776464 
L 96.017217 200.435299 
L 97.407641 195.564195 
L 100.188487 184.560391 
L 102.969333 172.442373 
L 109.921449 141.627615 
L 112.702296 130.634149 
L 115.483142 121.102025 
L 116.873565 116.989151 
L 118.263989 113.35414 
L 119.654412 110.220352 
L 121.044835 107.604608 
L 122.435258 105.517474 
L 123.825681 103.963584 
L 125.216104 102.942038 
L 126.606528 102.446821 
L 127.996951 102.467259 
L 129.387374 102.988495 
L 130.777797 103.991977 
L 132.16822 105.455939 
L 133.558644 107.355892 
L 134.949067 109.665089 
L 136.33949 112.354985 
L 137.729913 115.39567 
L 140.51076 122.405369 
L 143.291606 130.44246 
L 146.072452 139.256554 
L 150.243722 153.413311 
L 159.976684 187.245139 
L 164.147954 200.804809 
L 166.9288 209.256799 
L 169.709647 217.159211 
L 172.490493 224.467196 
L 175.271339 231.153623 
L 178.052186 237.206333 
L 180.833032 242.625402 
L 183.613878 247.420504 
L 186.394725 251.60844 
L 189.175571 255.210888 
L 191.956418 258.252384 
L 194.737264 260.758565 
L 197.51811 262.754661 
L 200.298957 264.264243 
L 203.079803 265.308197 
L 205.86065 265.903943 
L 208.641496 266.064844 
L 211.422342 265.799833 
L 214.203189 265.113219 
L 216.984035 264.004676 
L 219.764881 262.469418 
L 222.545728 260.498549 
L 225.326574 258.079595 
L 228.107421 255.197224 
L 230.888267 251.834174 
L 233.669113 247.972367 
L 236.44996 243.594255 
L 239.230806 238.68437 
L 242.011652 233.231093 
L 244.792499 227.228629 
L 247.573345 220.679163 
L 250.354192 213.595161 
L 253.135038 206.00177 
L 257.306308 193.749311 
L 261.477577 180.656915 
L 275.381809 135.842315 
L 278.162655 127.882176 
L 280.943502 120.730174 
L 282.333925 117.527735 
L 283.724348 114.612144 
L 285.114771 112.011386 
L 286.505195 109.752768 
L 287.895618 107.862571 
L 289.286041 106.365672 
L 290.676464 105.285156 
L 292.066887 104.6419 
L 293.457311 104.454147 
L 294.847734 104.737079 
L 296.238157 105.502374 
L 297.62858 106.75778 
L 299.019003 108.506691 
L 300.409426 110.747747 
L 301.79985 113.474462 
L 303.190273 116.67489 
L 304.580696 120.331336 
L 305.971119 124.420126 
L 308.751966 133.769269 
L 311.532812 144.409293 
L 315.704082 161.868481 
L 319.875351 179.550941 
L 322.656198 190.464166 
L 324.046621 195.421728 
L 325.437044 199.942733 
L 326.827467 203.952621 
L 328.21789 207.381232 
L 329.608313 210.164306 
L 330.998737 212.244993 
L 332.38916 213.575353 
L 333.779583 214.117801 
L 335.170006 213.846476 
L 336.560429 212.748473 
L 337.950853 210.824916 
L 339.341276 208.091831 
L 340.731699 204.580761 
L 342.122122 200.339107 
L 343.512545 195.430143 
L 344.902969 189.932688 
L 347.683815 177.56064 
L 349.074238 170.913033 
L 349.074238 170.913033 
" style="fill:none;stroke:#1f77b4;stroke-linecap:square;stroke-width:1.5;"/>
   </g>
   <g id="line2d_16">
    <path clip-path="url(#pab834631c5)" d="M 72.380023 156.990579 
L 75.16087 143.369356 
L 76.551293 137.18269 
L 77.941716 131.585569 
L 79.332139 126.68624 
L 80.722562 122.573568 
L 82.112986 119.316185 
L 83.503409 116.962167 
L 84.893832 115.539217 
L 86.284255 115.055297 
L 87.674678 115.499652 
L 89.065102 116.844172 
L 90.455525 119.045024 
L 91.845948 122.044489 
L 93.236371 125.772953 
L 94.626794 130.15098 
L 96.017217 135.091428 
L 98.798064 146.284979 
L 102.969333 164.898084 
L 107.140603 183.439135 
L 109.921449 194.652191 
L 111.311873 199.710039 
L 112.702296 204.32967 
L 114.092719 208.467203 
L 115.483142 212.087175 
L 116.873565 215.162421 
L 118.263989 217.673841 
L 119.654412 219.610052 
L 121.044835 220.966961 
L 122.435258 221.747253 
L 123.825681 221.959841 
L 125.216104 221.619254 
L 126.606528 220.745021 
L 127.996951 219.361019 
L 129.387374 217.494838 
L 130.777797 215.177147 
L 132.16822 212.441075 
L 133.558644 209.321622 
L 134.949067 205.855104 
L 137.729913 198.029603 
L 140.51076 189.262567 
L 144.682029 174.976292 
L 154.414991 140.672234 
L 158.586261 127.092555 
L 161.367107 118.730297 
L 164.147954 111.004513 
L 166.9288 103.956687 
L 169.709647 97.605274 
L 172.490493 91.949453 
L 175.271339 86.972857 
L 178.052186 82.647124 
L 180.833032 78.93518 
L 183.613878 75.794198 
L 186.394725 73.178186 
L 189.175571 71.040223 
L 191.956418 69.334323 
L 194.737264 68.016979 
L 197.51811 67.048393 
L 200.298957 66.393444 
L 203.079803 66.02242 
L 205.86065 65.911547 
L 208.641496 66.043345 
L 211.422342 66.406835 
L 214.203189 66.997618 
L 216.984035 67.81783 
L 219.764881 68.875986 
L 222.545728 70.186699 
L 225.326574 71.770284 
L 228.107421 73.652207 
L 230.888267 75.862387 
L 233.669113 78.434302 
L 236.44996 81.403887 
L 239.230806 84.808202 
L 242.011652 88.683821 
L 244.792499 93.064957 
L 247.573345 97.981281 
L 250.354192 103.455459 
L 253.135038 109.500423 
L 255.915884 116.116407 
L 258.696731 123.287842 
L 261.477577 130.980205 
L 265.648847 143.365113 
L 271.210539 160.960061 
L 278.162655 183.07139 
L 280.943502 191.333876 
L 283.724348 198.916456 
L 286.505195 205.566203 
L 287.895618 208.460787 
L 289.286041 211.026055 
L 290.676464 213.231168 
L 292.066887 215.046632 
L 293.457311 216.444783 
L 294.847734 217.400308 
L 296.238157 217.890772 
L 297.62858 217.897166 
L 299.019003 217.404461 
L 300.409426 216.402155 
L 301.79985 214.884808 
L 303.190273 212.852546 
L 304.580696 210.311537 
L 305.971119 207.274407 
L 307.361542 203.760597 
L 308.751966 199.796634 
L 310.142389 195.416319 
L 312.923235 185.578496 
L 315.704082 174.662568 
L 322.656198 146.298343 
L 325.437044 136.235517 
L 326.827467 131.822615 
L 328.21789 127.93225 
L 329.608313 124.641032 
L 330.998737 122.018548 
L 332.38916 120.125512 
L 333.779583 119.011949 
L 335.170006 118.715457 
L 336.560429 119.259602 
L 337.950853 120.652492 
L 339.341276 122.885591 
L 340.731699 125.932826 
L 342.122122 129.75004 
L 343.512545 134.274831 
L 344.902969 139.426841 
L 347.683815 151.206294 
L 349.074238 157.592502 
L 349.074238 157.592502 
" style="fill:none;stroke:#ff7f0e;stroke-linecap:square;stroke-width:1.5;"/>
   </g>
   <g id="line2d_17">
    <path clip-path="url(#pab834631c5)" d="M 72.380023 171.764345 
L 75.16087 186.236938 
L 76.551293 192.71012 
L 77.941716 198.4662 
L 79.332139 203.378437 
L 80.722562 207.346106 
L 82.112986 210.295508 
L 83.503409 212.180172 
L 84.893832 212.980338 
L 86.284255 212.701786 
L 87.674678 211.37411 
L 89.065102 209.048535 
L 90.455525 205.795382 
L 91.845948 201.701269 
L 93.236371 196.866158 
L 94.626794 191.40033 
L 97.407641 179.051268 
L 105.75018 139.346004 
L 108.531026 128.105424 
L 109.921449 123.24083 
L 111.311873 118.957219 
L 112.702296 115.297994 
L 114.092719 112.295117 
L 115.483142 109.969465 
L 116.873565 108.33135 
L 118.263989 107.381186 
L 119.654412 107.110262 
L 121.044835 107.501598 
L 122.435258 108.530871 
L 123.825681 110.167361 
L 125.216104 112.374921 
L 126.606528 115.112939 
L 127.996951 118.337275 
L 129.387374 122.001163 
L 132.16822 130.452468 
L 134.949067 140.071139 
L 139.120336 155.841566 
L 147.462876 188.04448 
L 150.243722 198.002246 
L 153.024568 207.263511 
L 155.805415 215.715902 
L 158.586261 223.290293 
L 161.367107 229.955495 
L 164.147954 235.712388 
L 166.9288 240.587921 
L 169.709647 244.629289 
L 171.10007 246.356101 
L 172.490493 247.898517 
L 173.880916 249.265808 
L 175.271339 250.467604 
L 176.661763 251.513769 
L 178.052186 252.414301 
L 180.833032 253.818556 
L 183.613878 254.75961 
L 186.394725 255.313695 
L 189.175571 255.552284 
L 191.956418 255.540805 
L 194.737264 255.337756 
L 198.908534 254.783395 
L 204.470226 253.783654 
L 219.764881 250.699121 
L 225.326574 249.416041 
L 229.497844 248.226179 
L 232.27869 247.251893 
L 235.059537 246.077797 
L 237.840383 244.650823 
L 240.621229 242.91361 
L 243.402076 240.805718 
L 246.182922 238.265218 
L 248.963768 235.230686 
L 251.744615 231.643664 
L 254.525461 227.451603 
L 257.306308 222.611302 
L 260.087154 217.092798 
L 262.868 210.883644 
L 265.648847 203.993446 
L 268.429693 196.458456 
L 271.210539 188.345986 
L 275.381809 175.328462 
L 285.114771 144.043983 
L 287.895618 135.949429 
L 290.676464 128.764587 
L 292.066887 125.611917 
L 293.457311 122.804731 
L 294.847734 120.381101 
L 296.238157 118.377404 
L 297.62858 116.827635 
L 299.019003 115.762684 
L 300.409426 115.209587 
L 301.79985 115.190763 
L 303.190273 115.723251 
L 304.580696 116.817959 
L 305.971119 118.478951 
L 307.361542 120.702776 
L 308.751966 123.47788 
L 310.142389 126.784097 
L 311.532812 130.592271 
L 312.923235 134.864001 
L 315.704082 144.59795 
L 318.484928 155.495138 
L 324.046621 178.177126 
L 326.827467 188.439129 
L 328.21789 192.950041 
L 329.608313 196.91867 
L 330.998737 200.25557 
L 332.38916 202.879983 
L 333.779583 204.722275 
L 335.170006 205.726323 
L 336.560429 205.851759 
L 337.950853 205.076021 
L 339.341276 203.396099 
L 340.731699 200.829926 
L 342.122122 197.417314 
L 343.512545 193.220364 
L 344.902969 188.3233 
L 346.293392 182.831645 
L 349.074238 170.58347 
L 349.074238 170.58347 
" style="fill:none;stroke:#2ca02c;stroke-linecap:square;stroke-width:1.5;"/>
   </g>
   <g id="line2d_18">
    <path clip-path="url(#pab834631c5)" d="M 72.380023 161.036511 
L 75.16087 155.088418 
L 77.941716 149.798911 
L 79.332139 147.511047 
L 80.722562 145.507534 
L 82.112986 143.815049 
L 83.503409 142.45365 
L 84.893832 141.436855 
L 86.284255 140.771854 
L 87.674678 140.459815 
L 89.065102 140.496292 
L 90.455525 140.871704 
L 91.845948 141.571867 
L 93.236371 142.578565 
L 94.626794 143.870149 
L 96.017217 145.422142 
L 97.407641 147.207836 
L 100.188487 151.365864 
L 102.969333 156.107619 
L 107.140603 163.797104 
L 112.702296 173.9998 
L 115.483142 178.680113 
L 118.263989 182.903183 
L 121.044835 186.579755 
L 123.825681 189.653483 
L 125.216104 190.954933 
L 126.606528 192.097847 
L 127.996951 193.08291 
L 129.387374 193.912138 
L 130.777797 194.588733 
L 132.16822 195.116934 
L 133.558644 195.501875 
L 134.949067 195.749442 
L 136.33949 195.866141 
L 137.729913 195.85897 
L 140.51076 195.502757 
L 143.291606 194.742285 
L 146.072452 193.640157 
L 148.853299 192.257557 
L 151.634145 190.652296 
L 155.805415 187.941317 
L 161.367107 183.992462 
L 176.661763 172.914409 
L 185.004302 167.247099 
L 200.298957 157.038239 
L 205.86065 152.996025 
L 210.031919 149.696461 
L 214.203189 146.084943 
L 218.374458 142.084666 
L 221.155305 139.163756 
L 223.936151 136.01358 
L 226.716997 132.613022 
L 229.497844 128.942737 
L 232.27869 124.985961 
L 235.059537 120.729482 
L 237.840383 116.164784 
L 240.621229 111.289371 
L 244.792499 103.407145 
L 248.963768 94.897079 
L 253.135038 85.87781 
L 265.648847 58.172559 
L 268.429693 52.606718 
L 271.210539 47.591842 
L 272.600963 45.350895 
L 273.991386 43.32181 
L 275.381809 41.531456 
L 276.772232 40.007495 
L 278.162655 38.778199 
L 279.553079 37.872235 
L 280.943502 37.318423 
L 282.333925 37.145455 
L 283.724348 37.381581 
L 285.114771 38.05427 
L 286.505195 39.189831 
L 287.895618 40.813001 
L 289.286041 42.94651 
L 290.676464 45.610615 
L 292.066887 48.822609 
L 293.457311 52.596318 
L 294.847734 56.941574 
L 296.238157 61.863692 
L 297.62858 67.362937 
L 299.019003 73.434011 
L 300.409426 80.065551 
L 303.190273 94.931484 
L 305.971119 111.731867 
L 308.751966 130.116279 
L 312.923235 159.584396 
L 318.484928 198.946818 
L 321.265774 216.870464 
L 322.656198 225.010561 
L 324.046621 232.45437 
L 325.437044 239.092972 
L 326.827467 244.821713 
L 328.21789 249.542269 
L 329.608313 253.16482 
L 330.998737 255.610258 
L 332.38916 256.812429 
L 333.779583 256.720321 
L 335.170006 255.300182 
L 336.560429 252.537487 
L 337.950853 248.438696 
L 339.341276 243.032754 
L 340.731699 236.37225 
L 342.122122 228.534184 
L 343.512545 219.620269 
L 344.902969 209.756724 
L 347.683815 187.802871 
L 349.074238 176.077456 
L 349.074238 176.077456 
" style="fill:none;stroke:#d62728;stroke-linecap:square;stroke-width:1.5;"/>
   </g>
   <g id="line2d_19">
    <path clip-path="url(#pab834631c5)" d="M 72.380023 181.495975 
L 75.16087 215.257698 
L 77.941716 246.339672 
L 80.722562 273.463933 
L 82.112986 285.263108 
L 83.503409 295.791631 
L 84.893832 305.009082 
L 86.284255 312.897789 
L 87.674678 319.460753 
L 89.065102 324.719419 
L 90.455525 328.711341 
L 91.845948 331.487826 
L 93.236371 333.1116 
L 94.626794 333.654545 
L 96.017217 333.195547 
L 97.407641 331.818482 
L 98.798064 329.610364 
L 100.188487 326.659678 
L 101.57891 323.054885 
L 102.969333 318.883132 
L 104.359757 314.229147 
L 107.140603 303.79592 
L 109.921449 292.353858 
L 119.654412 251.049668 
L 122.435258 240.219518 
L 125.216104 230.176547 
L 127.996951 221.00844 
L 130.777797 212.753585 
L 133.558644 205.411656 
L 136.33949 198.953307 
L 139.120336 193.328659 
L 141.901183 188.474478 
L 144.682029 184.320006 
L 147.462876 180.79154 
L 150.243722 177.815872 
L 153.024568 175.322759 
L 155.805415 173.246566 
L 158.586261 171.527266 
L 161.367107 170.110922 
L 164.147954 168.949793 
L 166.9288 168.002166 
L 169.709647 167.232008 
L 173.880916 166.343414 
L 178.052186 165.701133 
L 183.613878 165.117877 
L 190.565994 164.677989 
L 198.908534 164.397317 
L 211.422342 164.219521 
L 236.44996 164.138689 
L 349.074238 164.12761 
L 349.074238 164.12761 
" style="fill:none;stroke:#9467bd;stroke-linecap:square;stroke-width:1.5;"/>
   </g>
   <g id="patch_3">
    <path d="M 58.545313 348.48 
L 58.545313 22.32 
" style="fill:none;stroke:#000000;stroke-linecap:square;stroke-linejoin:miter;stroke-width:0.8;"/>
   </g>
   <g id="patch_4">
    <path d="M 362.908949 348.48 
L 362.908949 22.32 
" style="fill:none;stroke:#000000;stroke-linecap:square;stroke-linejoin:miter;stroke-width:0.8;"/>
   </g>
   <g id="patch_5">
    <path d="M 58.545312 348.48 
L 362.908949 348.48 
" style="fill:none;stroke:#000000;stroke-linecap:square;stroke-linejoin:miter;stroke-width:0.8;"/>
   </g>
   <g id="patch_6">
    <path d="M 58.545312 22.32 
L 362.908949 22.32 
" style="fill:none;stroke:#000000;stroke-linecap:square;stroke-linejoin:miter;stroke-width:0.8;"/>
   </g>
   <g id="text_17">
    <!-- Eigenfunction $\lambda_5 \Rightarrow \phi(x)$ -->
    <g transform="translate(141.547131 16.32)scale(0.12 -0.12)">
     <defs>
      <path d="M 628 4666 
L 3578 4666 
L 3578 4134 
L 1259 4134 
L 1259 2753 
L 3481 2753 
L 3481 2222 
L 1259 2222 
L 1259 531 
L 3634 531 
L 3634 0 
L 628 0 
L 628 4666 
z
" id="DejaVuSans-45" transform="scale(0.015625)"/>
      <path d="M 603 3500 
L 1178 3500 
L 1178 0 
L 603 0 
L 603 3500 
z
M 603 4863 
L 1178 4863 
L 1178 4134 
L 603 4134 
L 603 4863 
z
" id="DejaVuSans-69" transform="scale(0.015625)"/>
      <path d="M 2906 1791 
Q 2906 2416 2648 2759 
Q 2391 3103 1925 3103 
Q 1463 3103 1205 2759 
Q 947 2416 947 1791 
Q 947 1169 1205 825 
Q 1463 481 1925 481 
Q 2391 481 2648 825 
Q 2906 1169 2906 1791 
z
M 3481 434 
Q 3481 -459 3084 -895 
Q 2688 -1331 1869 -1331 
Q 1566 -1331 1297 -1286 
Q 1028 -1241 775 -1147 
L 775 -588 
Q 1028 -725 1275 -790 
Q 1522 -856 1778 -856 
Q 2344 -856 2625 -561 
Q 2906 -266 2906 331 
L 2906 616 
Q 2728 306 2450 153 
Q 2172 0 1784 0 
Q 1141 0 747 490 
Q 353 981 353 1791 
Q 353 2603 747 3093 
Q 1141 3584 1784 3584 
Q 2172 3584 2450 3431 
Q 2728 3278 2906 2969 
L 2906 3500 
L 3481 3500 
L 3481 434 
z
" id="DejaVuSans-67" transform="scale(0.015625)"/>
      <path d="M 3513 2113 
L 3513 0 
L 2938 0 
L 2938 2094 
Q 2938 2591 2744 2837 
Q 2550 3084 2163 3084 
Q 1697 3084 1428 2787 
Q 1159 2491 1159 1978 
L 1159 0 
L 581 0 
L 581 3500 
L 1159 3500 
L 1159 2956 
Q 1366 3272 1645 3428 
Q 1925 3584 2291 3584 
Q 2894 3584 3203 3211 
Q 3513 2838 3513 2113 
z
" id="DejaVuSans-6e" transform="scale(0.015625)"/>
      <path d="M 2375 4863 
L 2375 4384 
L 1825 4384 
Q 1516 4384 1395 4259 
Q 1275 4134 1275 3809 
L 1275 3500 
L 2222 3500 
L 2222 3053 
L 1275 3053 
L 1275 0 
L 697 0 
L 697 3053 
L 147 3053 
L 147 3500 
L 697 3500 
L 697 3744 
Q 697 4328 969 4595 
Q 1241 4863 1831 4863 
L 2375 4863 
z
" id="DejaVuSans-66" transform="scale(0.015625)"/>
      <path d="M 544 1381 
L 544 3500 
L 1119 3500 
L 1119 1403 
Q 1119 906 1312 657 
Q 1506 409 1894 409 
Q 2359 409 2629 706 
Q 2900 1003 2900 1516 
L 2900 3500 
L 3475 3500 
L 3475 0 
L 2900 0 
L 2900 538 
Q 2691 219 2414 64 
Q 2138 -91 1772 -91 
Q 1169 -91 856 284 
Q 544 659 544 1381 
z
M 1991 3584 
L 1991 3584 
z
" id="DejaVuSans-75" transform="scale(0.015625)"/>
      <path d="M 1172 4494 
L 1172 3500 
L 2356 3500 
L 2356 3053 
L 1172 3053 
L 1172 1153 
Q 1172 725 1289 603 
Q 1406 481 1766 481 
L 2356 481 
L 2356 0 
L 1766 0 
Q 1100 0 847 248 
Q 594 497 594 1153 
L 594 3053 
L 172 3053 
L 172 3500 
L 594 3500 
L 594 4494 
L 1172 4494 
z
" id="DejaVuSans-74" transform="scale(0.015625)"/>
      <path d="M 1959 3097 
Q 1497 3097 1228 2736 
Q 959 2375 959 1747 
Q 959 1119 1226 758 
Q 1494 397 1959 397 
Q 2419 397 2687 759 
Q 2956 1122 2956 1747 
Q 2956 2369 2687 2733 
Q 2419 3097 1959 3097 
z
M 1959 3584 
Q 2709 3584 3137 3096 
Q 3566 2609 3566 1747 
Q 3566 888 3137 398 
Q 2709 -91 1959 -91 
Q 1206 -91 779 398 
Q 353 888 353 1747 
Q 353 2609 779 3096 
Q 1206 3584 1959 3584 
z
" id="DejaVuSans-6f" transform="scale(0.015625)"/>
      <path d="M 2350 4316 
L 3125 0 
L 2516 0 
L 2038 2588 
L 328 0 
L -281 0 
L 1903 3356 
L 1794 3975 
Q 1725 4369 1391 4369 
L 1091 4369 
L 1184 4863 
L 1550 4856 
Q 2253 4847 2350 4316 
z
" id="DejaVuSans-Oblique-3bb" transform="scale(0.015625)"/>
      <path d="M 4113 1678 
L 4441 2006 
L 4113 2334 
L 366 2334 
L 366 2709 
L 3738 2709 
L 3447 3000 
L 3822 3375 
L 5050 2147 
L 5050 1866 
L 3822 638 
L 3447 1013 
L 3738 1303 
L 366 1303 
L 366 1678 
L 4113 1678 
z
" id="DejaVuSans-21d2" transform="scale(0.015625)"/>
     </defs>
     <use transform="translate(0 0.015625)" xlink:href="#DejaVuSans-45"/>
     <use transform="translate(63.183594 0.015625)" xlink:href="#DejaVuSans-69"/>
     <use transform="translate(90.966797 0.015625)" xlink:href="#DejaVuSans-67"/>
     <use transform="translate(154.443359 0.015625)" xlink:href="#DejaVuSans-65"/>
     <use transform="translate(215.966797 0.015625)" xlink:href="#DejaVuSans-6e"/>
     <use transform="translate(279.345703 0.015625)" xlink:href="#DejaVuSans-66"/>
     <use transform="translate(314.550781 0.015625)" xlink:href="#DejaVuSans-75"/>
     <use transform="translate(377.929688 0.015625)" xlink:href="#DejaVuSans-6e"/>
     <use transform="translate(441.308594 0.015625)" xlink:href="#DejaVuSans-63"/>
     <use transform="translate(496.289062 0.015625)" xlink:href="#DejaVuSans-74"/>
     <use transform="translate(535.498047 0.015625)" xlink:href="#DejaVuSans-69"/>
     <use transform="translate(563.28125 0.015625)" xlink:href="#DejaVuSans-6f"/>
     <use transform="translate(624.462891 0.015625)" xlink:href="#DejaVuSans-6e"/>
     <use transform="translate(687.841797 0.015625)" xlink:href="#DejaVuSans-20"/>
     <use transform="translate(719.628906 0.015625)" xlink:href="#DejaVuSans-Oblique-3bb"/>
     <use transform="translate(778.808594 -16.390625)scale(0.7)" xlink:href="#DejaVuSans-35"/>
     <use transform="translate(845.561523 0.015625)" xlink:href="#DejaVuSans-21d2"/>
     <use transform="translate(948.833008 0.015625)" xlink:href="#DejaVuSans-Oblique-3d5"/>
     <use transform="translate(1014.799805 0.015625)" xlink:href="#DejaVuSans-28"/>
     <use transform="translate(1053.813477 0.015625)" xlink:href="#DejaVuSans-Oblique-78"/>
     <use transform="translate(1112.993164 0.015625)" xlink:href="#DejaVuSans-29"/>
    </g>
   </g>
   <g id="legend_1">
    <g id="patch_7">
     <path d="M 290.308949 343.48 
L 355.908949 343.48 
Q 357.908949 343.48 357.908949 341.48 
L 357.908949 269.089375 
Q 357.908949 267.089375 355.908949 267.089375 
L 290.308949 267.089375 
Q 288.308949 267.089375 288.308949 269.089375 
L 288.308949 341.48 
Q 288.308949 343.48 290.308949 343.48 
z
" style="fill:#ffffff;opacity:0.8;stroke:#cccccc;stroke-linejoin:miter;"/>
    </g>
    <g id="line2d_20">
     <path d="M 292.308949 275.187813 
L 312.308949 275.187813 
" style="fill:none;stroke:#1f77b4;stroke-linecap:square;stroke-width:1.5;"/>
    </g>
    <g id="line2d_21"/>
    <g id="text_18">
     <!-- $\epsilon = 3.8$ -->
     <g transform="translate(320.308949 278.687813)scale(0.1 -0.1)">
      <defs>
       <path d="M 1263 1888 
Q 925 1963 778 2166 
Q 669 2309 669 2503 
Q 669 3034 1175 3344 
Q 1575 3588 2188 3588 
Q 2425 3588 2684 3550 
Q 2944 3513 3234 3438 
L 3134 2916 
Q 2847 3006 2606 3047 
Q 2359 3088 2138 3088 
Q 1766 3088 1522 2944 
Q 1228 2772 1228 2522 
Q 1228 2356 1381 2241 
Q 1563 2103 1925 2103 
L 2409 2103 
L 2319 1628 
L 1856 1628 
Q 1425 1628 1172 1469 
Q 828 1253 828 916 
Q 828 703 1013 563 
Q 1244 388 1716 388 
Q 2006 388 2284 444 
Q 2563 503 2806 619 
L 2700 84 
Q 2403 -3 2131 -47 
Q 1859 -91 1609 -91 
Q 866 -91 516 194 
Q 250 413 250 781 
Q 250 1278 600 1584 
Q 859 1813 1263 1888 
z
" id="DejaVuSans-Oblique-3b5" transform="scale(0.015625)"/>
       <path d="M 678 2906 
L 4684 2906 
L 4684 2381 
L 678 2381 
L 678 2906 
z
M 678 1631 
L 4684 1631 
L 4684 1100 
L 678 1100 
L 678 1631 
z
" id="DejaVuSans-3d" transform="scale(0.015625)"/>
       <path d="M 2597 2516 
Q 3050 2419 3304 2112 
Q 3559 1806 3559 1356 
Q 3559 666 3084 287 
Q 2609 -91 1734 -91 
Q 1441 -91 1130 -33 
Q 819 25 488 141 
L 488 750 
Q 750 597 1062 519 
Q 1375 441 1716 441 
Q 2309 441 2620 675 
Q 2931 909 2931 1356 
Q 2931 1769 2642 2001 
Q 2353 2234 1838 2234 
L 1294 2234 
L 1294 2753 
L 1863 2753 
Q 2328 2753 2575 2939 
Q 2822 3125 2822 3475 
Q 2822 3834 2567 4026 
Q 2313 4219 1838 4219 
Q 1578 4219 1281 4162 
Q 984 4106 628 3988 
L 628 4550 
Q 988 4650 1302 4700 
Q 1616 4750 1894 4750 
Q 2613 4750 3031 4423 
Q 3450 4097 3450 3541 
Q 3450 3153 3228 2886 
Q 3006 2619 2597 2516 
z
" id="DejaVuSans-33" transform="scale(0.015625)"/>
      </defs>
      <use transform="translate(0 0.78125)" xlink:href="#DejaVuSans-Oblique-3b5"/>
      <use transform="translate(73.535156 0.78125)" xlink:href="#DejaVuSans-3d"/>
      <use transform="translate(176.806641 0.78125)" xlink:href="#DejaVuSans-33"/>
      <use transform="translate(240.429688 0.78125)" xlink:href="#DejaVuSans-2e"/>
      <use transform="translate(269.591797 0.78125)" xlink:href="#DejaVuSans-38"/>
     </g>
    </g>
    <g id="line2d_22">
     <path d="M 292.308949 289.865937 
L 312.308949 289.865937 
" style="fill:none;stroke:#ff7f0e;stroke-linecap:square;stroke-width:1.5;"/>
    </g>
    <g id="line2d_23"/>
    <g id="text_19">
     <!-- $\epsilon = 3.9$ -->
     <g transform="translate(320.308949 293.365937)scale(0.1 -0.1)">
      <defs>
       <path d="M 703 97 
L 703 672 
Q 941 559 1184 500 
Q 1428 441 1663 441 
Q 2288 441 2617 861 
Q 2947 1281 2994 2138 
Q 2813 1869 2534 1725 
Q 2256 1581 1919 1581 
Q 1219 1581 811 2004 
Q 403 2428 403 3163 
Q 403 3881 828 4315 
Q 1253 4750 1959 4750 
Q 2769 4750 3195 4129 
Q 3622 3509 3622 2328 
Q 3622 1225 3098 567 
Q 2575 -91 1691 -91 
Q 1453 -91 1209 -44 
Q 966 3 703 97 
z
M 1959 2075 
Q 2384 2075 2632 2365 
Q 2881 2656 2881 3163 
Q 2881 3666 2632 3958 
Q 2384 4250 1959 4250 
Q 1534 4250 1286 3958 
Q 1038 3666 1038 3163 
Q 1038 2656 1286 2365 
Q 1534 2075 1959 2075 
z
" id="DejaVuSans-39" transform="scale(0.015625)"/>
      </defs>
      <use transform="translate(0 0.78125)" xlink:href="#DejaVuSans-Oblique-3b5"/>
      <use transform="translate(73.535156 0.78125)" xlink:href="#DejaVuSans-3d"/>
      <use transform="translate(176.806641 0.78125)" xlink:href="#DejaVuSans-33"/>
      <use transform="translate(240.429688 0.78125)" xlink:href="#DejaVuSans-2e"/>
      <use transform="translate(272.216797 0.78125)" xlink:href="#DejaVuSans-39"/>
     </g>
    </g>
    <g id="line2d_24">
     <path d="M 292.308949 304.544062 
L 312.308949 304.544062 
" style="fill:none;stroke:#2ca02c;stroke-linecap:square;stroke-width:1.5;"/>
    </g>
    <g id="line2d_25"/>
    <g id="text_20">
     <!-- $\epsilon = 4.0$ -->
     <g transform="translate(320.308949 308.044062)scale(0.1 -0.1)">
      <use transform="translate(0 0.78125)" xlink:href="#DejaVuSans-Oblique-3b5"/>
      <use transform="translate(73.535156 0.78125)" xlink:href="#DejaVuSans-3d"/>
      <use transform="translate(176.806641 0.78125)" xlink:href="#DejaVuSans-34"/>
      <use transform="translate(240.429688 0.78125)" xlink:href="#DejaVuSans-2e"/>
      <use transform="translate(272.216797 0.78125)" xlink:href="#DejaVuSans-30"/>
     </g>
    </g>
    <g id="line2d_26">
     <path d="M 292.308949 319.222188 
L 312.308949 319.222188 
" style="fill:none;stroke:#d62728;stroke-linecap:square;stroke-width:1.5;"/>
    </g>
    <g id="line2d_27"/>
    <g id="text_21">
     <!-- $\epsilon = 4.5$ -->
     <g transform="translate(320.308949 322.722188)scale(0.1 -0.1)">
      <use transform="translate(0 0.09375)" xlink:href="#DejaVuSans-Oblique-3b5"/>
      <use transform="translate(73.535156 0.09375)" xlink:href="#DejaVuSans-3d"/>
      <use transform="translate(176.806641 0.09375)" xlink:href="#DejaVuSans-34"/>
      <use transform="translate(240.429688 0.09375)" xlink:href="#DejaVuSans-2e"/>
      <use transform="translate(272.216797 0.09375)" xlink:href="#DejaVuSans-35"/>
     </g>
    </g>
    <g id="line2d_28">
     <path d="M 292.308949 333.900312 
L 312.308949 333.900312 
" style="fill:none;stroke:#9467bd;stroke-linecap:square;stroke-width:1.5;"/>
    </g>
    <g id="line2d_29"/>
    <g id="text_22">
     <!-- $\epsilon = 8.0$ -->
     <g transform="translate(320.308949 337.400312)scale(0.1 -0.1)">
      <use transform="translate(0 0.78125)" xlink:href="#DejaVuSans-Oblique-3b5"/>
      <use transform="translate(73.535156 0.78125)" xlink:href="#DejaVuSans-3d"/>
      <use transform="translate(176.806641 0.78125)" xlink:href="#DejaVuSans-38"/>
      <use transform="translate(240.429688 0.78125)" xlink:href="#DejaVuSans-2e"/>
      <use transform="translate(272.216797 0.78125)" xlink:href="#DejaVuSans-30"/>
     </g>
    </g>
   </g>
  </g>
  <g id="axes_2">
   <g id="patch_8">
    <path d="M 423.781676 348.48 
L 728.145312 348.48 
L 728.145312 22.32 
L 423.781676 22.32 
z
" style="fill:#ffffff;"/>
   </g>
   <g id="matplotlib.axis_3">
    <g id="xtick_7">
     <g id="line2d_30">
      <g>
       <use style="stroke:#000000;stroke-width:0.8;" x="450.792302" xlink:href="#m70884e0110" y="348.48"/>
      </g>
     </g>
     <g id="text_23">
      <!-- 4 -->
      <g transform="translate(447.611052 363.078438)scale(0.1 -0.1)">
       <use xlink:href="#DejaVuSans-34"/>
      </g>
     </g>
    </g>
    <g id="xtick_8">
     <g id="line2d_31">
      <g>
       <use style="stroke:#000000;stroke-width:0.8;" x="516.671877" xlink:href="#m70884e0110" y="348.48"/>
      </g>
     </g>
     <g id="text_24">
      <!-- 5 -->
      <g transform="translate(513.490627 363.078438)scale(0.1 -0.1)">
       <use xlink:href="#DejaVuSans-35"/>
      </g>
     </g>
    </g>
    <g id="xtick_9">
     <g id="line2d_32">
      <g>
       <use style="stroke:#000000;stroke-width:0.8;" x="582.551452" xlink:href="#m70884e0110" y="348.48"/>
      </g>
     </g>
     <g id="text_25">
      <!-- 6 -->
      <g transform="translate(579.370202 363.078438)scale(0.1 -0.1)">
       <use xlink:href="#DejaVuSans-36"/>
      </g>
     </g>
    </g>
    <g id="xtick_10">
     <g id="line2d_33">
      <g>
       <use style="stroke:#000000;stroke-width:0.8;" x="648.431027" xlink:href="#m70884e0110" y="348.48"/>
      </g>
     </g>
     <g id="text_26">
      <!-- 7 -->
      <g transform="translate(645.249777 363.078438)scale(0.1 -0.1)">
       <defs>
        <path d="M 525 4666 
L 3525 4666 
L 3525 4397 
L 1831 0 
L 1172 0 
L 2766 4134 
L 525 4134 
L 525 4666 
z
" id="DejaVuSans-37" transform="scale(0.015625)"/>
       </defs>
       <use xlink:href="#DejaVuSans-37"/>
      </g>
     </g>
    </g>
    <g id="xtick_11">
     <g id="line2d_34">
      <g>
       <use style="stroke:#000000;stroke-width:0.8;" x="714.310602" xlink:href="#m70884e0110" y="348.48"/>
      </g>
     </g>
     <g id="text_27">
      <!-- 8 -->
      <g transform="translate(711.129352 363.078438)scale(0.1 -0.1)">
       <use xlink:href="#DejaVuSans-38"/>
      </g>
     </g>
    </g>
    <g id="text_28">
     <!-- $\epsilon$ -->
     <g transform="translate(573.213494 376.756562)scale(0.1 -0.1)">
      <use transform="translate(0 0.9375)" xlink:href="#DejaVuSans-Oblique-3b5"/>
     </g>
    </g>
   </g>
   <g id="matplotlib.axis_4">
    <g id="ytick_9">
     <g id="line2d_35">
      <g>
       <use style="stroke:#000000;stroke-width:0.8;" x="423.781676" xlink:href="#me719bdedfa" y="319.442521"/>
      </g>
     </g>
     <g id="text_29">
      <!-- 5 -->
      <g transform="translate(410.419176 323.241739)scale(0.1 -0.1)">
       <use xlink:href="#DejaVuSans-35"/>
      </g>
     </g>
    </g>
    <g id="ytick_10">
     <g id="line2d_36">
      <g>
       <use style="stroke:#000000;stroke-width:0.8;" x="423.781676" xlink:href="#me719bdedfa" y="268.410121"/>
      </g>
     </g>
     <g id="text_30">
      <!-- 10 -->
      <g transform="translate(404.056676 272.20934)scale(0.1 -0.1)">
       <use xlink:href="#DejaVuSans-31"/>
       <use x="63.623047" xlink:href="#DejaVuSans-30"/>
      </g>
     </g>
    </g>
    <g id="ytick_11">
     <g id="line2d_37">
      <g>
       <use style="stroke:#000000;stroke-width:0.8;" x="423.781676" xlink:href="#me719bdedfa" y="217.377722"/>
      </g>
     </g>
     <g id="text_31">
      <!-- 15 -->
      <g transform="translate(404.056676 221.176941)scale(0.1 -0.1)">
       <use xlink:href="#DejaVuSans-31"/>
       <use x="63.623047" xlink:href="#DejaVuSans-35"/>
      </g>
     </g>
    </g>
    <g id="ytick_12">
     <g id="line2d_38">
      <g>
       <use style="stroke:#000000;stroke-width:0.8;" x="423.781676" xlink:href="#me719bdedfa" y="166.345323"/>
      </g>
     </g>
     <g id="text_32">
      <!-- 20 -->
      <g transform="translate(404.056676 170.144542)scale(0.1 -0.1)">
       <use xlink:href="#DejaVuSans-32"/>
       <use x="63.623047" xlink:href="#DejaVuSans-30"/>
      </g>
     </g>
    </g>
    <g id="ytick_13">
     <g id="line2d_39">
      <g>
       <use style="stroke:#000000;stroke-width:0.8;" x="423.781676" xlink:href="#me719bdedfa" y="115.312924"/>
      </g>
     </g>
     <g id="text_33">
      <!-- 25 -->
      <g transform="translate(404.056676 119.112142)scale(0.1 -0.1)">
       <use xlink:href="#DejaVuSans-32"/>
       <use x="63.623047" xlink:href="#DejaVuSans-35"/>
      </g>
     </g>
    </g>
    <g id="ytick_14">
     <g id="line2d_40">
      <g>
       <use style="stroke:#000000;stroke-width:0.8;" x="423.781676" xlink:href="#me719bdedfa" y="64.280524"/>
      </g>
     </g>
     <g id="text_34">
      <!-- 30 -->
      <g transform="translate(404.056676 68.079743)scale(0.1 -0.1)">
       <use xlink:href="#DejaVuSans-33"/>
       <use x="63.623047" xlink:href="#DejaVuSans-30"/>
      </g>
     </g>
    </g>
    <g id="text_35">
     <!-- $\lambda$ -->
     <g transform="translate(397.976989 188.4)rotate(-90)scale(0.1 -0.1)">
      <use transform="translate(0 0.015625)" xlink:href="#DejaVuSans-Oblique-3bb"/>
     </g>
    </g>
   </g>
   <g id="line2d_41">
    <path clip-path="url(#pc7f757c7f8)" d="M 437.616387 297.558496 
L 444.204344 293.717259 
L 450.792302 289.399149 
L 483.732089 261.241633 
L 714.310602 333.654545 
" style="fill:none;"/>
    <defs>
     <path d="M 0 1.5 
C 0.397805 1.5 0.77937 1.341951 1.06066 1.06066 
C 1.341951 0.77937 1.5 0.397805 1.5 0 
C 1.5 -0.397805 1.341951 -0.77937 1.06066 -1.06066 
C 0.77937 -1.341951 0.397805 -1.5 0 -1.5 
C -0.397805 -1.5 -0.77937 -1.341951 -1.06066 -1.06066 
C -1.341951 -0.77937 -1.5 -0.397805 -1.5 0 
C -1.5 0.397805 -1.341951 0.77937 -1.06066 1.06066 
C -0.77937 1.341951 -0.397805 1.5 0 1.5 
z
" id="me4a44d20fa" style="stroke:#1f77b4;"/>
    </defs>
    <g clip-path="url(#pc7f757c7f8)">
     <use style="fill:#1f77b4;stroke:#1f77b4;" x="437.616387" xlink:href="#me4a44d20fa" y="297.558496"/>
     <use style="fill:#1f77b4;stroke:#1f77b4;" x="444.204344" xlink:href="#me4a44d20fa" y="293.717259"/>
     <use style="fill:#1f77b4;stroke:#1f77b4;" x="450.792302" xlink:href="#me4a44d20fa" y="289.399149"/>
     <use style="fill:#1f77b4;stroke:#1f77b4;" x="483.732089" xlink:href="#me4a44d20fa" y="261.241633"/>
     <use style="fill:#1f77b4;stroke:#1f77b4;" x="714.310602" xlink:href="#me4a44d20fa" y="333.654545"/>
    </g>
   </g>
   <g id="line2d_42">
    <path clip-path="url(#pc7f757c7f8)" d="M 437.616387 262.838385 
L 444.204344 260.497184 
L 450.792302 258.047594 
L 483.732089 244.079991 
L 714.310602 280.938698 
" style="fill:none;"/>
    <defs>
     <path d="M 0 1.5 
C 0.397805 1.5 0.77937 1.341951 1.06066 1.06066 
C 1.341951 0.77937 1.5 0.397805 1.5 0 
C 1.5 -0.397805 1.341951 -0.77937 1.06066 -1.06066 
C 0.77937 -1.341951 0.397805 -1.5 0 -1.5 
C -0.397805 -1.5 -0.77937 -1.341951 -1.06066 -1.06066 
C -1.341951 -0.77937 -1.5 -0.397805 -1.5 0 
C -1.5 0.397805 -1.341951 0.77937 -1.06066 1.06066 
C -0.77937 1.341951 -0.397805 1.5 0 1.5 
z
" id="m3c7eab562b" style="stroke:#ff7f0e;"/>
    </defs>
    <g clip-path="url(#pc7f757c7f8)">
     <use style="fill:#ff7f0e;stroke:#ff7f0e;" x="437.616387" xlink:href="#m3c7eab562b" y="262.838385"/>
     <use style="fill:#ff7f0e;stroke:#ff7f0e;" x="444.204344" xlink:href="#m3c7eab562b" y="260.497184"/>
     <use style="fill:#ff7f0e;stroke:#ff7f0e;" x="450.792302" xlink:href="#m3c7eab562b" y="258.047594"/>
     <use style="fill:#ff7f0e;stroke:#ff7f0e;" x="483.732089" xlink:href="#m3c7eab562b" y="244.079991"/>
     <use style="fill:#ff7f0e;stroke:#ff7f0e;" x="714.310602" xlink:href="#m3c7eab562b" y="280.938698"/>
    </g>
   </g>
   <g id="line2d_43">
    <path clip-path="url(#pc7f757c7f8)" d="M 437.616387 187.440915 
L 444.204344 176.602813 
L 450.792302 163.549833 
L 483.732089 197.150623 
L 714.310602 225.099954 
" style="fill:none;"/>
    <defs>
     <path d="M 0 1.5 
C 0.397805 1.5 0.77937 1.341951 1.06066 1.06066 
C 1.341951 0.77937 1.5 0.397805 1.5 0 
C 1.5 -0.397805 1.341951 -0.77937 1.06066 -1.06066 
C 0.77937 -1.341951 0.397805 -1.5 0 -1.5 
C -0.397805 -1.5 -0.77937 -1.341951 -1.06066 -1.06066 
C -1.341951 -0.77937 -1.5 -0.397805 -1.5 0 
C -1.5 0.397805 -1.341951 0.77937 -1.06066 1.06066 
C -0.77937 1.341951 -0.397805 1.5 0 1.5 
z
" id="m76c00241ce" style="stroke:#2ca02c;"/>
    </defs>
    <g clip-path="url(#pc7f757c7f8)">
     <use style="fill:#2ca02c;stroke:#2ca02c;" x="437.616387" xlink:href="#m76c00241ce" y="187.440915"/>
     <use style="fill:#2ca02c;stroke:#2ca02c;" x="444.204344" xlink:href="#m76c00241ce" y="176.602813"/>
     <use style="fill:#2ca02c;stroke:#2ca02c;" x="450.792302" xlink:href="#m76c00241ce" y="163.549833"/>
     <use style="fill:#2ca02c;stroke:#2ca02c;" x="483.732089" xlink:href="#m76c00241ce" y="197.150623"/>
     <use style="fill:#2ca02c;stroke:#2ca02c;" x="714.310602" xlink:href="#m76c00241ce" y="225.099954"/>
    </g>
   </g>
   <g id="line2d_44">
    <path clip-path="url(#pc7f757c7f8)" d="M 437.616387 145.829454 
L 444.204344 139.008118 
L 450.792302 131.6783 
L 483.732089 95.583612 
L 714.310602 168.090328 
" style="fill:none;"/>
    <defs>
     <path d="M 0 1.5 
C 0.397805 1.5 0.77937 1.341951 1.06066 1.06066 
C 1.341951 0.77937 1.5 0.397805 1.5 0 
C 1.5 -0.397805 1.341951 -0.77937 1.06066 -1.06066 
C 0.77937 -1.341951 0.397805 -1.5 0 -1.5 
C -0.397805 -1.5 -0.77937 -1.341951 -1.06066 -1.06066 
C -1.341951 -0.77937 -1.5 -0.397805 -1.5 0 
C -1.5 0.397805 -1.341951 0.77937 -1.06066 1.06066 
C -0.77937 1.341951 -0.397805 1.5 0 1.5 
z
" id="m459f34e6c3" style="stroke:#d62728;"/>
    </defs>
    <g clip-path="url(#pc7f757c7f8)">
     <use style="fill:#d62728;stroke:#d62728;" x="437.616387" xlink:href="#m459f34e6c3" y="145.829454"/>
     <use style="fill:#d62728;stroke:#d62728;" x="444.204344" xlink:href="#m459f34e6c3" y="139.008118"/>
     <use style="fill:#d62728;stroke:#d62728;" x="450.792302" xlink:href="#m459f34e6c3" y="131.6783"/>
     <use style="fill:#d62728;stroke:#d62728;" x="483.732089" xlink:href="#m459f34e6c3" y="95.583612"/>
     <use style="fill:#d62728;stroke:#d62728;" x="714.310602" xlink:href="#m459f34e6c3" y="168.090328"/>
    </g>
   </g>
   <g id="line2d_45">
    <path clip-path="url(#pc7f757c7f8)" d="M 437.616387 76.647682 
L 444.204344 59.436177 
L 450.792302 37.145455 
L 483.732089 87.470177 
L 714.310602 125.74813 
" style="fill:none;"/>
    <defs>
     <path d="M 0 1.5 
C 0.397805 1.5 0.77937 1.341951 1.06066 1.06066 
C 1.341951 0.77937 1.5 0.397805 1.5 0 
C 1.5 -0.397805 1.341951 -0.77937 1.06066 -1.06066 
C 0.77937 -1.341951 0.397805 -1.5 0 -1.5 
C -0.397805 -1.5 -0.77937 -1.341951 -1.06066 -1.06066 
C -1.341951 -0.77937 -1.5 -0.397805 -1.5 0 
C -1.5 0.397805 -1.341951 0.77937 -1.06066 1.06066 
C -0.77937 1.341951 -0.397805 1.5 0 1.5 
z
" id="m86bd96c526" style="stroke:#9467bd;"/>
    </defs>
    <g clip-path="url(#pc7f757c7f8)">
     <use style="fill:#9467bd;stroke:#9467bd;" x="437.616387" xlink:href="#m86bd96c526" y="76.647682"/>
     <use style="fill:#9467bd;stroke:#9467bd;" x="444.204344" xlink:href="#m86bd96c526" y="59.436177"/>
     <use style="fill:#9467bd;stroke:#9467bd;" x="450.792302" xlink:href="#m86bd96c526" y="37.145455"/>
     <use style="fill:#9467bd;stroke:#9467bd;" x="483.732089" xlink:href="#m86bd96c526" y="87.470177"/>
     <use style="fill:#9467bd;stroke:#9467bd;" x="714.310602" xlink:href="#m86bd96c526" y="125.74813"/>
    </g>
   </g>
   <g id="patch_9">
    <path d="M 423.781676 348.48 
L 423.781676 22.32 
" style="fill:none;stroke:#000000;stroke-linecap:square;stroke-linejoin:miter;stroke-width:0.8;"/>
   </g>
   <g id="patch_10">
    <path d="M 728.145312 348.48 
L 728.145312 22.32 
" style="fill:none;stroke:#000000;stroke-linecap:square;stroke-linejoin:miter;stroke-width:0.8;"/>
   </g>
   <g id="patch_11">
    <path d="M 423.781676 348.48 
L 728.145312 348.48 
" style="fill:none;stroke:#000000;stroke-linecap:square;stroke-linejoin:miter;stroke-width:0.8;"/>
   </g>
   <g id="patch_12">
    <path d="M 423.781676 22.32 
L 728.145312 22.32 
" style="fill:none;stroke:#000000;stroke-linecap:square;stroke-linejoin:miter;stroke-width:0.8;"/>
   </g>
   <g id="text_36">
    <!-- Eigenvalues -->
    <g transform="translate(539.686932 16.32)scale(0.12 -0.12)">
     <defs>
      <path d="M 191 3500 
L 800 3500 
L 1894 563 
L 2988 3500 
L 3597 3500 
L 2284 0 
L 1503 0 
L 191 3500 
z
" id="DejaVuSans-76" transform="scale(0.015625)"/>
      <path d="M 2834 3397 
L 2834 2853 
Q 2591 2978 2328 3040 
Q 2066 3103 1784 3103 
Q 1356 3103 1142 2972 
Q 928 2841 928 2578 
Q 928 2378 1081 2264 
Q 1234 2150 1697 2047 
L 1894 2003 
Q 2506 1872 2764 1633 
Q 3022 1394 3022 966 
Q 3022 478 2636 193 
Q 2250 -91 1575 -91 
Q 1294 -91 989 -36 
Q 684 19 347 128 
L 347 722 
Q 666 556 975 473 
Q 1284 391 1588 391 
Q 1994 391 2212 530 
Q 2431 669 2431 922 
Q 2431 1156 2273 1281 
Q 2116 1406 1581 1522 
L 1381 1569 
Q 847 1681 609 1914 
Q 372 2147 372 2553 
Q 372 3047 722 3315 
Q 1072 3584 1716 3584 
Q 2034 3584 2315 3537 
Q 2597 3491 2834 3397 
z
" id="DejaVuSans-73" transform="scale(0.015625)"/>
     </defs>
     <use xlink:href="#DejaVuSans-45"/>
     <use x="63.183594" xlink:href="#DejaVuSans-69"/>
     <use x="90.966797" xlink:href="#DejaVuSans-67"/>
     <use x="154.443359" xlink:href="#DejaVuSans-65"/>
     <use x="215.966797" xlink:href="#DejaVuSans-6e"/>
     <use x="279.345703" xlink:href="#DejaVuSans-76"/>
     <use x="338.525391" xlink:href="#DejaVuSans-61"/>
     <use x="399.804688" xlink:href="#DejaVuSans-6c"/>
     <use x="427.587891" xlink:href="#DejaVuSans-75"/>
     <use x="490.966797" xlink:href="#DejaVuSans-65"/>
     <use x="552.490234" xlink:href="#DejaVuSans-73"/>
    </g>
   </g>
   <g id="legend_2">
    <g id="patch_13">
     <path d="M 678.445312 103.710625 
L 721.145313 103.710625 
Q 723.145313 103.710625 723.145313 101.710625 
L 723.145313 29.32 
Q 723.145313 27.32 721.145313 27.32 
L 678.445312 27.32 
Q 676.445312 27.32 676.445312 29.32 
L 676.445312 101.710625 
Q 676.445312 103.710625 678.445312 103.710625 
z
" style="fill:#ffffff;opacity:0.8;stroke:#cccccc;stroke-linejoin:miter;"/>
    </g>
    <g id="line2d_46">
     <path d="M 680.445312 35.418437 
L 700.445312 35.418437 
" style="fill:none;"/>
    </g>
    <g id="line2d_47">
     <g>
      <use style="fill:#1f77b4;stroke:#1f77b4;" x="690.445312" xlink:href="#me4a44d20fa" y="35.418437"/>
     </g>
    </g>
    <g id="text_37">
     <!-- $\lambda_{1}$ -->
     <g transform="translate(708.445312 38.918437)scale(0.1 -0.1)">
      <use transform="translate(0 0.015625)" xlink:href="#DejaVuSans-Oblique-3bb"/>
      <use transform="translate(59.179688 -16.390625)scale(0.7)" xlink:href="#DejaVuSans-31"/>
     </g>
    </g>
    <g id="line2d_48">
     <path d="M 680.445312 50.096562 
L 700.445312 50.096562 
" style="fill:none;"/>
    </g>
    <g id="line2d_49">
     <g>
      <use style="fill:#ff7f0e;stroke:#ff7f0e;" x="690.445312" xlink:href="#m3c7eab562b" y="50.096562"/>
     </g>
    </g>
    <g id="text_38">
     <!-- $\lambda_{2}$ -->
     <g transform="translate(708.445312 53.596562)scale(0.1 -0.1)">
      <use transform="translate(0 0.015625)" xlink:href="#DejaVuSans-Oblique-3bb"/>
      <use transform="translate(59.179688 -16.390625)scale(0.7)" xlink:href="#DejaVuSans-32"/>
     </g>
    </g>
    <g id="line2d_50">
     <path d="M 680.445312 64.774687 
L 700.445312 64.774687 
" style="fill:none;"/>
    </g>
    <g id="line2d_51">
     <g>
      <use style="fill:#2ca02c;stroke:#2ca02c;" x="690.445312" xlink:href="#m76c00241ce" y="64.774687"/>
     </g>
    </g>
    <g id="text_39">
     <!-- $\lambda_{3}$ -->
     <g transform="translate(708.445312 68.274687)scale(0.1 -0.1)">
      <use transform="translate(0 0.015625)" xlink:href="#DejaVuSans-Oblique-3bb"/>
      <use transform="translate(59.179688 -16.390625)scale(0.7)" xlink:href="#DejaVuSans-33"/>
     </g>
    </g>
    <g id="line2d_52">
     <path d="M 680.445312 79.452812 
L 700.445312 79.452812 
" style="fill:none;"/>
    </g>
    <g id="line2d_53">
     <g>
      <use style="fill:#d62728;stroke:#d62728;" x="690.445312" xlink:href="#m459f34e6c3" y="79.452812"/>
     </g>
    </g>
    <g id="text_40">
     <!-- $\lambda_{4}$ -->
     <g transform="translate(708.445312 82.952812)scale(0.1 -0.1)">
      <use transform="translate(0 0.015625)" xlink:href="#DejaVuSans-Oblique-3bb"/>
      <use transform="translate(59.179688 -16.390625)scale(0.7)" xlink:href="#DejaVuSans-34"/>
     </g>
    </g>
    <g id="line2d_54">
     <path d="M 680.445312 94.130937 
L 700.445312 94.130937 
" style="fill:none;"/>
    </g>
    <g id="line2d_55">
     <g>
      <use style="fill:#9467bd;stroke:#9467bd;" x="690.445312" xlink:href="#m86bd96c526" y="94.130937"/>
     </g>
    </g>
    <g id="text_41">
     <!-- $\lambda_{5}$ -->
     <g transform="translate(708.445312 97.630937)scale(0.1 -0.1)">
      <use transform="translate(0 0.015625)" xlink:href="#DejaVuSans-Oblique-3bb"/>
      <use transform="translate(59.179688 -16.390625)scale(0.7)" xlink:href="#DejaVuSans-35"/>
     </g>
    </g>
   </g>
  </g>
 </g>
 <defs>
  <clipPath id="pab834631c5">
   <rect height="326.16" width="304.363636" x="58.545313" y="22.32"/>
  </clipPath>
  <clipPath id="pc7f757c7f8">
   <rect height="326.16" width="304.363636" x="423.781676" y="22.32"/>
  </clipPath>
 </defs>
</svg>
