<?xml version="1.0" encoding="utf-8" standalone="no"?>
<!DOCTYPE svg PUBLIC "-//W3C//DTD SVG 1.1//EN"
  "http://www.w3.org/Graphics/SVG/1.1/DTD/svg11.dtd">
<svg height="386.03625pt" version="1.1" viewBox="0 0 735.345312 386.03625" width="735.345312pt" xmlns="http://www.w3.org/2000/svg" xmlns:xlink="http://www.w3.org/1999/xlink">
 <metadata>
  <rdf:RDF xmlns:cc="http://creativecommons.org/ns#" xmlns:dc="http://purl.org/dc/elements/1.1/" xmlns:rdf="http://www.w3.org/1999/02/22-rdf-syntax-ns#">
   <cc:Work>
    <dc:type rdf:resource="http://purl.org/dc/dcmitype/StillImage"/>
    <dc:date>2021-10-23T22:19:19.128792</dc:date>
    <dc:format>image/svg+xml</dc:format>
    <dc:creator>
     <cc:Agent>
      <dc:title>Matplotlib v3.4.3, https://matplotlib.org/</dc:title>
     </cc:Agent>
    </dc:creator>
   </cc:Work>
  </rdf:RDF>
 </metadata>
 <defs>
  <style type="text/css">*{stroke-linecap:butt;stroke-linejoin:round;}</style>
 </defs>
 <g id="figure_1">
  <g id="patch_1">
   <path d="M 0 386.03625 
L 735.345312 386.03625 
L 735.345312 0 
L 0 0 
z
" style="fill:none;"/>
  </g>
  <g id="axes_1">
   <g id="patch_2">
    <path d="M 58.545313 348.48 
L 362.908949 348.48 
L 362.908949 22.32 
L 58.545313 22.32 
z
" style="fill:#ffffff;"/>
   </g>
   <g id="matplotlib.axis_1">
    <g id="xtick_1">
     <g id="line2d_1">
      <defs>
       <path d="M 0 0 
L 0 3.5 
" id="mb672067a10" style="stroke:#000000;stroke-width:0.8;"/>
      </defs>
      <g>
       <use style="stroke:#000000;stroke-width:0.8;" x="72.380023" xlink:href="#mb672067a10" y="348.48"/>
      </g>
     </g>
     <g id="text_1">
      <!-- 0.0 -->
      <g transform="translate(64.428461 363.078438)scale(0.1 -0.1)">
       <defs>
        <path d="M 2034 4250 
Q 1547 4250 1301 3770 
Q 1056 3291 1056 2328 
Q 1056 1369 1301 889 
Q 1547 409 2034 409 
Q 2525 409 2770 889 
Q 3016 1369 3016 2328 
Q 3016 3291 2770 3770 
Q 2525 4250 2034 4250 
z
M 2034 4750 
Q 2819 4750 3233 4129 
Q 3647 3509 3647 2328 
Q 3647 1150 3233 529 
Q 2819 -91 2034 -91 
Q 1250 -91 836 529 
Q 422 1150 422 2328 
Q 422 3509 836 4129 
Q 1250 4750 2034 4750 
z
" id="DejaVuSans-30" transform="scale(0.015625)"/>
        <path d="M 684 794 
L 1344 794 
L 1344 0 
L 684 0 
L 684 794 
z
" id="DejaVuSans-2e" transform="scale(0.015625)"/>
       </defs>
       <use xlink:href="#DejaVuSans-30"/>
       <use x="63.623047" xlink:href="#DejaVuSans-2e"/>
       <use x="95.410156" xlink:href="#DejaVuSans-30"/>
      </g>
     </g>
    </g>
    <g id="xtick_2">
     <g id="line2d_2">
      <g>
       <use style="stroke:#000000;stroke-width:0.8;" x="127.996951" xlink:href="#mb672067a10" y="348.48"/>
      </g>
     </g>
     <g id="text_2">
      <!-- 0.2 -->
      <g transform="translate(120.045388 363.078438)scale(0.1 -0.1)">
       <defs>
        <path d="M 1228 531 
L 3431 531 
L 3431 0 
L 469 0 
L 469 531 
Q 828 903 1448 1529 
Q 2069 2156 2228 2338 
Q 2531 2678 2651 2914 
Q 2772 3150 2772 3378 
Q 2772 3750 2511 3984 
Q 2250 4219 1831 4219 
Q 1534 4219 1204 4116 
Q 875 4013 500 3803 
L 500 4441 
Q 881 4594 1212 4672 
Q 1544 4750 1819 4750 
Q 2544 4750 2975 4387 
Q 3406 4025 3406 3419 
Q 3406 3131 3298 2873 
Q 3191 2616 2906 2266 
Q 2828 2175 2409 1742 
Q 1991 1309 1228 531 
z
" id="DejaVuSans-32" transform="scale(0.015625)"/>
       </defs>
       <use xlink:href="#DejaVuSans-30"/>
       <use x="63.623047" xlink:href="#DejaVuSans-2e"/>
       <use x="95.410156" xlink:href="#DejaVuSans-32"/>
      </g>
     </g>
    </g>
    <g id="xtick_3">
     <g id="line2d_3">
      <g>
       <use style="stroke:#000000;stroke-width:0.8;" x="183.613878" xlink:href="#mb672067a10" y="348.48"/>
      </g>
     </g>
     <g id="text_3">
      <!-- 0.4 -->
      <g transform="translate(175.662316 363.078438)scale(0.1 -0.1)">
       <defs>
        <path d="M 2419 4116 
L 825 1625 
L 2419 1625 
L 2419 4116 
z
M 2253 4666 
L 3047 4666 
L 3047 1625 
L 3713 1625 
L 3713 1100 
L 3047 1100 
L 3047 0 
L 2419 0 
L 2419 1100 
L 313 1100 
L 313 1709 
L 2253 4666 
z
" id="DejaVuSans-34" transform="scale(0.015625)"/>
       </defs>
       <use xlink:href="#DejaVuSans-30"/>
       <use x="63.623047" xlink:href="#DejaVuSans-2e"/>
       <use x="95.410156" xlink:href="#DejaVuSans-34"/>
      </g>
     </g>
    </g>
    <g id="xtick_4">
     <g id="line2d_4">
      <g>
       <use style="stroke:#000000;stroke-width:0.8;" x="239.230806" xlink:href="#mb672067a10" y="348.48"/>
      </g>
     </g>
     <g id="text_4">
      <!-- 0.6 -->
      <g transform="translate(231.279244 363.078438)scale(0.1 -0.1)">
       <defs>
        <path d="M 2113 2584 
Q 1688 2584 1439 2293 
Q 1191 2003 1191 1497 
Q 1191 994 1439 701 
Q 1688 409 2113 409 
Q 2538 409 2786 701 
Q 3034 994 3034 1497 
Q 3034 2003 2786 2293 
Q 2538 2584 2113 2584 
z
M 3366 4563 
L 3366 3988 
Q 3128 4100 2886 4159 
Q 2644 4219 2406 4219 
Q 1781 4219 1451 3797 
Q 1122 3375 1075 2522 
Q 1259 2794 1537 2939 
Q 1816 3084 2150 3084 
Q 2853 3084 3261 2657 
Q 3669 2231 3669 1497 
Q 3669 778 3244 343 
Q 2819 -91 2113 -91 
Q 1303 -91 875 529 
Q 447 1150 447 2328 
Q 447 3434 972 4092 
Q 1497 4750 2381 4750 
Q 2619 4750 2861 4703 
Q 3103 4656 3366 4563 
z
" id="DejaVuSans-36" transform="scale(0.015625)"/>
       </defs>
       <use xlink:href="#DejaVuSans-30"/>
       <use x="63.623047" xlink:href="#DejaVuSans-2e"/>
       <use x="95.410156" xlink:href="#DejaVuSans-36"/>
      </g>
     </g>
    </g>
    <g id="xtick_5">
     <g id="line2d_5">
      <g>
       <use style="stroke:#000000;stroke-width:0.8;" x="294.847734" xlink:href="#mb672067a10" y="348.48"/>
      </g>
     </g>
     <g id="text_5">
      <!-- 0.8 -->
      <g transform="translate(286.896171 363.078438)scale(0.1 -0.1)">
       <defs>
        <path d="M 2034 2216 
Q 1584 2216 1326 1975 
Q 1069 1734 1069 1313 
Q 1069 891 1326 650 
Q 1584 409 2034 409 
Q 2484 409 2743 651 
Q 3003 894 3003 1313 
Q 3003 1734 2745 1975 
Q 2488 2216 2034 2216 
z
M 1403 2484 
Q 997 2584 770 2862 
Q 544 3141 544 3541 
Q 544 4100 942 4425 
Q 1341 4750 2034 4750 
Q 2731 4750 3128 4425 
Q 3525 4100 3525 3541 
Q 3525 3141 3298 2862 
Q 3072 2584 2669 2484 
Q 3125 2378 3379 2068 
Q 3634 1759 3634 1313 
Q 3634 634 3220 271 
Q 2806 -91 2034 -91 
Q 1263 -91 848 271 
Q 434 634 434 1313 
Q 434 1759 690 2068 
Q 947 2378 1403 2484 
z
M 1172 3481 
Q 1172 3119 1398 2916 
Q 1625 2713 2034 2713 
Q 2441 2713 2670 2916 
Q 2900 3119 2900 3481 
Q 2900 3844 2670 4047 
Q 2441 4250 2034 4250 
Q 1625 4250 1398 4047 
Q 1172 3844 1172 3481 
z
" id="DejaVuSans-38" transform="scale(0.015625)"/>
       </defs>
       <use xlink:href="#DejaVuSans-30"/>
       <use x="63.623047" xlink:href="#DejaVuSans-2e"/>
       <use x="95.410156" xlink:href="#DejaVuSans-38"/>
      </g>
     </g>
    </g>
    <g id="xtick_6">
     <g id="line2d_6">
      <g>
       <use style="stroke:#000000;stroke-width:0.8;" x="350.464661" xlink:href="#mb672067a10" y="348.48"/>
      </g>
     </g>
     <g id="text_6">
      <!-- 1.0 -->
      <g transform="translate(342.513099 363.078438)scale(0.1 -0.1)">
       <defs>
        <path d="M 794 531 
L 1825 531 
L 1825 4091 
L 703 3866 
L 703 4441 
L 1819 4666 
L 2450 4666 
L 2450 531 
L 3481 531 
L 3481 0 
L 794 0 
L 794 531 
z
" id="DejaVuSans-31" transform="scale(0.015625)"/>
       </defs>
       <use xlink:href="#DejaVuSans-31"/>
       <use x="63.623047" xlink:href="#DejaVuSans-2e"/>
       <use x="95.410156" xlink:href="#DejaVuSans-30"/>
      </g>
     </g>
    </g>
    <g id="text_7">
     <!-- Scaled $x$ -->
     <g transform="translate(189.527131 376.756562)scale(0.1 -0.1)">
      <defs>
       <path d="M 3425 4513 
L 3425 3897 
Q 3066 4069 2747 4153 
Q 2428 4238 2131 4238 
Q 1616 4238 1336 4038 
Q 1056 3838 1056 3469 
Q 1056 3159 1242 3001 
Q 1428 2844 1947 2747 
L 2328 2669 
Q 3034 2534 3370 2195 
Q 3706 1856 3706 1288 
Q 3706 609 3251 259 
Q 2797 -91 1919 -91 
Q 1588 -91 1214 -16 
Q 841 59 441 206 
L 441 856 
Q 825 641 1194 531 
Q 1563 422 1919 422 
Q 2459 422 2753 634 
Q 3047 847 3047 1241 
Q 3047 1584 2836 1778 
Q 2625 1972 2144 2069 
L 1759 2144 
Q 1053 2284 737 2584 
Q 422 2884 422 3419 
Q 422 4038 858 4394 
Q 1294 4750 2059 4750 
Q 2388 4750 2728 4690 
Q 3069 4631 3425 4513 
z
" id="DejaVuSans-53" transform="scale(0.015625)"/>
       <path d="M 3122 3366 
L 3122 2828 
Q 2878 2963 2633 3030 
Q 2388 3097 2138 3097 
Q 1578 3097 1268 2742 
Q 959 2388 959 1747 
Q 959 1106 1268 751 
Q 1578 397 2138 397 
Q 2388 397 2633 464 
Q 2878 531 3122 666 
L 3122 134 
Q 2881 22 2623 -34 
Q 2366 -91 2075 -91 
Q 1284 -91 818 406 
Q 353 903 353 1747 
Q 353 2603 823 3093 
Q 1294 3584 2113 3584 
Q 2378 3584 2631 3529 
Q 2884 3475 3122 3366 
z
" id="DejaVuSans-63" transform="scale(0.015625)"/>
       <path d="M 2194 1759 
Q 1497 1759 1228 1600 
Q 959 1441 959 1056 
Q 959 750 1161 570 
Q 1363 391 1709 391 
Q 2188 391 2477 730 
Q 2766 1069 2766 1631 
L 2766 1759 
L 2194 1759 
z
M 3341 1997 
L 3341 0 
L 2766 0 
L 2766 531 
Q 2569 213 2275 61 
Q 1981 -91 1556 -91 
Q 1019 -91 701 211 
Q 384 513 384 1019 
Q 384 1609 779 1909 
Q 1175 2209 1959 2209 
L 2766 2209 
L 2766 2266 
Q 2766 2663 2505 2880 
Q 2244 3097 1772 3097 
Q 1472 3097 1187 3025 
Q 903 2953 641 2809 
L 641 3341 
Q 956 3463 1253 3523 
Q 1550 3584 1831 3584 
Q 2591 3584 2966 3190 
Q 3341 2797 3341 1997 
z
" id="DejaVuSans-61" transform="scale(0.015625)"/>
       <path d="M 603 4863 
L 1178 4863 
L 1178 0 
L 603 0 
L 603 4863 
z
" id="DejaVuSans-6c" transform="scale(0.015625)"/>
       <path d="M 3597 1894 
L 3597 1613 
L 953 1613 
Q 991 1019 1311 708 
Q 1631 397 2203 397 
Q 2534 397 2845 478 
Q 3156 559 3463 722 
L 3463 178 
Q 3153 47 2828 -22 
Q 2503 -91 2169 -91 
Q 1331 -91 842 396 
Q 353 884 353 1716 
Q 353 2575 817 3079 
Q 1281 3584 2069 3584 
Q 2775 3584 3186 3129 
Q 3597 2675 3597 1894 
z
M 3022 2063 
Q 3016 2534 2758 2815 
Q 2500 3097 2075 3097 
Q 1594 3097 1305 2825 
Q 1016 2553 972 2059 
L 3022 2063 
z
" id="DejaVuSans-65" transform="scale(0.015625)"/>
       <path d="M 2906 2969 
L 2906 4863 
L 3481 4863 
L 3481 0 
L 2906 0 
L 2906 525 
Q 2725 213 2448 61 
Q 2172 -91 1784 -91 
Q 1150 -91 751 415 
Q 353 922 353 1747 
Q 353 2572 751 3078 
Q 1150 3584 1784 3584 
Q 2172 3584 2448 3432 
Q 2725 3281 2906 2969 
z
M 947 1747 
Q 947 1113 1208 752 
Q 1469 391 1925 391 
Q 2381 391 2643 752 
Q 2906 1113 2906 1747 
Q 2906 2381 2643 2742 
Q 2381 3103 1925 3103 
Q 1469 3103 1208 2742 
Q 947 2381 947 1747 
z
" id="DejaVuSans-64" transform="scale(0.015625)"/>
       <path id="DejaVuSans-20" transform="scale(0.015625)"/>
       <path d="M 3841 3500 
L 2234 1784 
L 3219 0 
L 2559 0 
L 1819 1388 
L 531 0 
L -166 0 
L 1556 1844 
L 641 3500 
L 1300 3500 
L 1972 2234 
L 3144 3500 
L 3841 3500 
z
" id="DejaVuSans-Oblique-78" transform="scale(0.015625)"/>
      </defs>
      <use transform="translate(0 0.015625)" xlink:href="#DejaVuSans-53"/>
      <use transform="translate(63.476562 0.015625)" xlink:href="#DejaVuSans-63"/>
      <use transform="translate(118.457031 0.015625)" xlink:href="#DejaVuSans-61"/>
      <use transform="translate(179.736328 0.015625)" xlink:href="#DejaVuSans-6c"/>
      <use transform="translate(207.519531 0.015625)" xlink:href="#DejaVuSans-65"/>
      <use transform="translate(269.042969 0.015625)" xlink:href="#DejaVuSans-64"/>
      <use transform="translate(332.519531 0.015625)" xlink:href="#DejaVuSans-20"/>
      <use transform="translate(364.306641 0.015625)" xlink:href="#DejaVuSans-Oblique-78"/>
     </g>
    </g>
   </g>
   <g id="matplotlib.axis_2">
    <g id="ytick_1">
     <g id="line2d_7">
      <defs>
       <path d="M 0 0 
L -3.5 0 
" id="me8bbee32b3" style="stroke:#000000;stroke-width:0.8;"/>
      </defs>
      <g>
       <use style="stroke:#000000;stroke-width:0.8;" x="58.545313" xlink:href="#me8bbee32b3" y="324.572657"/>
      </g>
     </g>
     <g id="text_8">
      <!-- −0.10 -->
      <g transform="translate(20.9 328.371876)scale(0.1 -0.1)">
       <defs>
        <path d="M 678 2272 
L 4684 2272 
L 4684 1741 
L 678 1741 
L 678 2272 
z
" id="DejaVuSans-2212" transform="scale(0.015625)"/>
       </defs>
       <use xlink:href="#DejaVuSans-2212"/>
       <use x="83.789062" xlink:href="#DejaVuSans-30"/>
       <use x="147.412109" xlink:href="#DejaVuSans-2e"/>
       <use x="179.199219" xlink:href="#DejaVuSans-31"/>
       <use x="242.822266" xlink:href="#DejaVuSans-30"/>
      </g>
     </g>
    </g>
    <g id="ytick_2">
     <g id="line2d_8">
      <g>
       <use style="stroke:#000000;stroke-width:0.8;" x="58.545313" xlink:href="#me8bbee32b3" y="257.813129"/>
      </g>
     </g>
     <g id="text_9">
      <!-- −0.05 -->
      <g transform="translate(20.9 261.612348)scale(0.1 -0.1)">
       <defs>
        <path d="M 691 4666 
L 3169 4666 
L 3169 4134 
L 1269 4134 
L 1269 2991 
Q 1406 3038 1543 3061 
Q 1681 3084 1819 3084 
Q 2600 3084 3056 2656 
Q 3513 2228 3513 1497 
Q 3513 744 3044 326 
Q 2575 -91 1722 -91 
Q 1428 -91 1123 -41 
Q 819 9 494 109 
L 494 744 
Q 775 591 1075 516 
Q 1375 441 1709 441 
Q 2250 441 2565 725 
Q 2881 1009 2881 1497 
Q 2881 1984 2565 2268 
Q 2250 2553 1709 2553 
Q 1456 2553 1204 2497 
Q 953 2441 691 2322 
L 691 4666 
z
" id="DejaVuSans-35" transform="scale(0.015625)"/>
       </defs>
       <use xlink:href="#DejaVuSans-2212"/>
       <use x="83.789062" xlink:href="#DejaVuSans-30"/>
       <use x="147.412109" xlink:href="#DejaVuSans-2e"/>
       <use x="179.199219" xlink:href="#DejaVuSans-30"/>
       <use x="242.822266" xlink:href="#DejaVuSans-35"/>
      </g>
     </g>
    </g>
    <g id="ytick_3">
     <g id="line2d_9">
      <g>
       <use style="stroke:#000000;stroke-width:0.8;" x="58.545313" xlink:href="#me8bbee32b3" y="191.053601"/>
      </g>
     </g>
     <g id="text_10">
      <!-- 0.00 -->
      <g transform="translate(29.279688 194.85282)scale(0.1 -0.1)">
       <use xlink:href="#DejaVuSans-30"/>
       <use x="63.623047" xlink:href="#DejaVuSans-2e"/>
       <use x="95.410156" xlink:href="#DejaVuSans-30"/>
       <use x="159.033203" xlink:href="#DejaVuSans-30"/>
      </g>
     </g>
    </g>
    <g id="ytick_4">
     <g id="line2d_10">
      <g>
       <use style="stroke:#000000;stroke-width:0.8;" x="58.545313" xlink:href="#me8bbee32b3" y="124.294073"/>
      </g>
     </g>
     <g id="text_11">
      <!-- 0.05 -->
      <g transform="translate(29.279688 128.093291)scale(0.1 -0.1)">
       <use xlink:href="#DejaVuSans-30"/>
       <use x="63.623047" xlink:href="#DejaVuSans-2e"/>
       <use x="95.410156" xlink:href="#DejaVuSans-30"/>
       <use x="159.033203" xlink:href="#DejaVuSans-35"/>
      </g>
     </g>
    </g>
    <g id="ytick_5">
     <g id="line2d_11">
      <g>
       <use style="stroke:#000000;stroke-width:0.8;" x="58.545313" xlink:href="#me8bbee32b3" y="57.534545"/>
      </g>
     </g>
     <g id="text_12">
      <!-- 0.10 -->
      <g transform="translate(29.279688 61.333763)scale(0.1 -0.1)">
       <use xlink:href="#DejaVuSans-30"/>
       <use x="63.623047" xlink:href="#DejaVuSans-2e"/>
       <use x="95.410156" xlink:href="#DejaVuSans-31"/>
       <use x="159.033203" xlink:href="#DejaVuSans-30"/>
      </g>
     </g>
    </g>
    <g id="text_13">
     <!-- $\phi(x)$ -->
     <g transform="translate(14.8 195.6)rotate(-90)scale(0.1 -0.1)">
      <defs>
       <path d="M 2991 4863 
L 2738 3572 
Q 3363 3572 3684 3094 
Q 4016 2606 3850 1747 
Q 3681 888 3159 400 
Q 2653 -78 2028 -78 
L 1784 -1331 
L 1213 -1331 
L 1456 -78 
Q 834 -78 509 400 
Q 178 888 347 1747 
Q 513 2606 1034 3094 
Q 1544 3572 2166 3572 
L 2419 4863 
L 2991 4863 
z
M 2128 434 
Q 2481 434 2784 756 
Q 3116 1116 3244 1747 
Q 3369 2372 3169 2738 
Q 2991 3059 2638 3059 
L 2128 434 
z
M 1556 434 
L 2066 3059 
Q 1716 3059 1413 2738 
Q 1072 2372 953 1747 
Q 834 1116 1028 756 
Q 1203 434 1556 434 
z
" id="DejaVuSans-Oblique-3d5" transform="scale(0.015625)"/>
       <path d="M 1984 4856 
Q 1566 4138 1362 3434 
Q 1159 2731 1159 2009 
Q 1159 1288 1364 580 
Q 1569 -128 1984 -844 
L 1484 -844 
Q 1016 -109 783 600 
Q 550 1309 550 2009 
Q 550 2706 781 3412 
Q 1013 4119 1484 4856 
L 1984 4856 
z
" id="DejaVuSans-28" transform="scale(0.015625)"/>
       <path d="M 513 4856 
L 1013 4856 
Q 1481 4119 1714 3412 
Q 1947 2706 1947 2009 
Q 1947 1309 1714 600 
Q 1481 -109 1013 -844 
L 513 -844 
Q 928 -128 1133 580 
Q 1338 1288 1338 2009 
Q 1338 2731 1133 3434 
Q 928 4138 513 4856 
z
" id="DejaVuSans-29" transform="scale(0.015625)"/>
      </defs>
      <use transform="translate(0 0.015625)" xlink:href="#DejaVuSans-Oblique-3d5"/>
      <use transform="translate(65.966797 0.015625)" xlink:href="#DejaVuSans-28"/>
      <use transform="translate(104.980469 0.015625)" xlink:href="#DejaVuSans-Oblique-78"/>
      <use transform="translate(164.160156 0.015625)" xlink:href="#DejaVuSans-29"/>
     </g>
    </g>
   </g>
   <g id="line2d_12">
    <path clip-path="url(#p1dd75cfe5f)" d="M 72.380023 193.462401 
L 83.503409 212.544058 
L 90.455525 224.090194 
L 97.407641 235.17274 
L 102.969333 243.631285 
L 108.531026 251.680654 
L 114.092719 259.288522 
L 119.654412 266.431853 
L 123.825681 271.475301 
L 127.996951 276.245373 
L 132.16822 280.740467 
L 136.33949 284.960713 
L 140.51076 288.907718 
L 144.682029 292.584335 
L 148.853299 295.994429 
L 153.024568 299.142669 
L 157.195838 302.034324 
L 161.367107 304.675076 
L 165.538377 307.07085 
L 169.709647 309.227656 
L 173.880916 311.151444 
L 178.052186 312.847977 
L 182.223455 314.322718 
L 186.394725 315.580725 
L 190.565994 316.626568 
L 194.737264 317.46425 
L 198.908534 318.097148 
L 203.079803 318.527962 
L 207.251073 318.758678 
L 211.422342 318.790537 
L 215.593612 318.624025 
L 219.764881 318.258867 
L 223.936151 317.694033 
L 228.107421 316.927756 
L 232.27869 315.957566 
L 236.44996 314.780325 
L 240.621229 313.392284 
L 244.792499 311.789147 
L 248.963768 309.966146 
L 253.135038 307.918135 
L 257.306308 305.639691 
L 261.477577 303.125228 
L 265.648847 300.36913 
L 269.820116 297.365898 
L 273.991386 294.1103 
L 278.162655 290.597553 
L 282.333925 286.823503 
L 286.505195 282.784826 
L 290.676464 278.479244 
L 294.847734 273.905747 
L 299.019003 269.064831 
L 303.190273 263.958737 
L 308.751966 256.745772 
L 314.313658 249.085606 
L 319.875351 241.002865 
L 325.437044 232.53144 
L 332.38916 221.463876 
L 339.341276 209.969734 
L 349.074238 193.434324 
L 349.074238 193.434324 
" style="fill:none;stroke:#1f77b4;stroke-linecap:square;stroke-width:1.5;"/>
   </g>
   <g id="line2d_13">
    <path clip-path="url(#p1dd75cfe5f)" d="M 72.380023 196.205236 
L 79.332139 221.606722 
L 83.503409 236.227863 
L 87.674678 250.115754 
L 91.845948 263.088503 
L 94.626794 271.153497 
L 97.407641 278.708316 
L 100.188487 285.722646 
L 102.969333 292.172008 
L 105.75018 298.037471 
L 108.531026 303.305342 
L 111.311873 307.966819 
L 114.092719 312.017629 
L 116.873565 315.457657 
L 119.654412 318.290568 
L 121.044835 319.481441 
L 122.435258 320.52343 
L 123.825681 321.417889 
L 125.216104 322.166338 
L 126.606528 322.770452 
L 127.996951 323.232052 
L 129.387374 323.553091 
L 130.777797 323.735646 
L 132.16822 323.781907 
L 133.558644 323.694168 
L 134.949067 323.474817 
L 136.33949 323.126324 
L 137.729913 322.651239 
L 139.120336 322.052176 
L 141.901183 320.492865 
L 144.682029 318.470351 
L 147.462876 316.007181 
L 150.243722 313.126275 
L 153.024568 309.850734 
L 155.805415 306.203674 
L 158.586261 302.208079 
L 161.367107 297.886673 
L 164.147954 293.261817 
L 168.319223 285.803352 
L 172.490493 277.782999 
L 176.661763 269.269478 
L 180.833032 260.32834 
L 186.394725 247.848949 
L 193.346841 231.547357 
L 201.68938 211.286846 
L 228.107421 146.464806 
L 235.059537 130.32113 
L 240.621229 118.002102 
L 244.792499 109.199522 
L 248.963768 100.83889 
L 253.135038 92.984375 
L 257.306308 85.703156 
L 260.087154 81.201974 
L 262.868 77.008028 
L 265.648847 73.143117 
L 268.429693 69.62938 
L 271.210539 66.489193 
L 273.991386 63.745047 
L 276.772232 61.419403 
L 279.553079 59.534527 
L 282.333925 58.112309 
L 283.724348 57.581382 
L 285.114771 57.174049 
L 286.505195 56.892844 
L 287.895618 56.740233 
L 289.286041 56.718608 
L 290.676464 56.830277 
L 292.066887 57.077455 
L 293.457311 57.462257 
L 294.847734 57.986684 
L 296.238157 58.652616 
L 297.62858 59.461804 
L 299.019003 60.415853 
L 300.409426 61.516218 
L 303.190273 64.160887 
L 305.971119 67.403972 
L 308.751966 71.250484 
L 311.532812 75.701906 
L 314.313658 80.755829 
L 317.094505 86.405581 
L 319.875351 92.639865 
L 322.656198 99.442416 
L 325.437044 106.791675 
L 328.21789 114.660486 
L 332.38916 127.364011 
L 336.560429 141.023677 
L 340.731699 155.470558 
L 346.293392 175.605665 
L 349.074238 185.890532 
L 349.074238 185.890532 
" style="fill:none;stroke:#ff7f0e;stroke-linecap:square;stroke-width:1.5;"/>
   </g>
   <g id="line2d_14">
    <path clip-path="url(#p1dd75cfe5f)" d="M 72.380023 198.253762 
L 77.941716 226.392852 
L 80.722562 239.639861 
L 83.503409 252.051115 
L 86.284255 263.444895 
L 89.065102 273.668163 
L 91.845948 282.596999 
L 93.236371 286.545202 
L 94.626794 290.136382 
L 96.017217 293.363044 
L 97.407641 296.219367 
L 98.798064 298.701156 
L 100.188487 300.805785 
L 101.57891 302.532139 
L 102.969333 303.880544 
L 104.359757 304.8527 
L 105.75018 305.451612 
L 107.140603 305.681513 
L 108.531026 305.547791 
L 109.921449 305.056911 
L 111.311873 304.216339 
L 112.702296 303.034462 
L 114.092719 301.520518 
L 115.483142 299.684509 
L 116.873565 297.537137 
L 118.263989 295.089721 
L 119.654412 292.354132 
L 122.435258 286.068235 
L 125.216104 278.782773 
L 127.996951 270.605606 
L 130.777797 261.647253 
L 133.558644 252.019194 
L 137.729913 236.563619 
L 141.901183 220.215875 
L 148.853299 191.922649 
L 157.195838 158.005905 
L 162.757531 136.399048 
L 166.9288 121.091483 
L 171.10007 106.753408 
L 173.880916 97.808497 
L 176.661763 89.399824 
L 179.442609 81.56082 
L 182.223455 74.320569 
L 185.004302 67.704151 
L 187.785148 61.732982 
L 190.565994 56.425137 
L 193.346841 51.795664 
L 196.127687 47.856867 
L 197.51811 46.14963 
L 198.908534 44.618562 
L 200.298957 43.26454 
L 201.68938 42.088311 
L 203.079803 41.090498 
L 204.470226 40.271607 
L 205.86065 39.632027 
L 207.251073 39.172036 
L 208.641496 38.891803 
L 210.031919 38.79139 
L 211.422342 38.870755 
L 212.812765 39.12975 
L 214.203189 39.568123 
L 215.593612 40.185516 
L 216.984035 40.981469 
L 218.374458 41.95541 
L 219.764881 43.10666 
L 221.155305 44.434426 
L 222.545728 45.937798 
L 225.326574 49.467119 
L 228.107421 53.684846 
L 230.888267 58.579018 
L 233.669113 64.135271 
L 236.44996 70.336598 
L 239.230806 77.16308 
L 242.011652 84.591595 
L 244.792499 92.595507 
L 247.573345 101.144349 
L 251.744615 114.912405 
L 255.915884 129.691552 
L 260.087154 145.320815 
L 265.648847 167.153493 
L 283.724348 239.270355 
L 287.895618 254.402903 
L 290.676464 263.800131 
L 293.457311 272.519092 
L 296.238157 280.451817 
L 299.019003 287.491451 
L 301.79985 293.533892 
L 303.190273 296.149829 
L 304.580696 298.479605 
L 305.971119 300.511818 
L 307.361542 302.235606 
L 308.751966 303.640717 
L 310.142389 304.717584 
L 311.532812 305.457391 
L 312.923235 305.852151 
L 314.313658 305.894779 
L 315.704082 305.579167 
L 317.094505 304.900256 
L 318.484928 303.854114 
L 319.875351 302.438002 
L 321.265774 300.650452 
L 322.656198 298.491333 
L 324.046621 295.961914 
L 325.437044 293.064934 
L 326.827467 289.804654 
L 328.21789 286.186916 
L 329.608313 282.219188 
L 332.38916 273.272041 
L 335.170006 263.057006 
L 337.950853 251.695943 
L 340.731699 239.339011 
L 344.902969 219.333186 
L 349.074238 198.205183 
L 349.074238 198.205183 
" style="fill:none;stroke:#2ca02c;stroke-linecap:square;stroke-width:1.5;"/>
   </g>
   <g id="line2d_15">
    <path clip-path="url(#p1dd75cfe5f)" d="M 72.380023 181.189586 
L 76.551293 152.393239 
L 79.332139 134.591244 
L 82.112986 118.506539 
L 84.893832 104.562085 
L 86.284255 98.500325 
L 87.674678 93.091612 
L 89.065102 88.363288 
L 90.455525 84.336975 
L 91.845948 81.028675 
L 93.236371 78.448898 
L 94.626794 76.602843 
L 96.017217 75.490603 
L 97.407641 75.107398 
L 98.798064 75.44384 
L 100.188487 76.48621 
L 101.57891 78.216761 
L 102.969333 80.614026 
L 104.359757 83.653139 
L 105.75018 87.306165 
L 107.140603 91.542426 
L 108.531026 96.328834 
L 109.921449 101.630217 
L 112.702296 113.628729 
L 115.483142 127.226948 
L 118.263989 142.1002 
L 122.435258 166.080454 
L 134.949067 240.216035 
L 137.729913 255.36689 
L 140.51076 269.544394 
L 143.291606 282.57389 
L 146.072452 294.309662 
L 148.853299 304.634461 
L 151.634145 313.458532 
L 153.024568 317.28693 
L 154.414991 320.718231 
L 155.805415 323.748282 
L 157.195838 326.37434 
L 158.586261 328.595008 
L 159.976684 330.410168 
L 161.367107 331.820919 
L 162.757531 332.829509 
L 164.147954 333.439269 
L 165.538377 333.654545 
L 166.9288 333.480639 
L 168.319223 332.923738 
L 169.709647 331.990856 
L 171.10007 330.689769 
L 172.490493 329.028963 
L 173.880916 327.017568 
L 175.271339 324.665311 
L 176.661763 321.982458 
L 178.052186 318.979769 
L 179.442609 315.668448 
L 182.223455 308.166678 
L 185.004302 299.574038 
L 187.785148 289.991951 
L 190.565994 279.525333 
L 193.346841 268.281705 
L 197.51811 250.199055 
L 201.68938 230.988767 
L 207.251073 204.273563 
L 218.374458 150.428345 
L 222.545728 131.243511 
L 226.716997 113.186866 
L 229.497844 101.956507 
L 232.27869 91.496316 
L 235.059537 81.910454 
L 237.840383 73.300316 
L 240.621229 65.763763 
L 242.011652 62.427474 
L 243.402076 59.394202 
L 244.792499 56.674751 
L 246.182922 54.279501 
L 247.573345 52.218366 
L 248.963768 50.50075 
L 250.354192 49.135502 
L 251.744615 48.13086 
L 253.135038 47.494404 
L 254.525461 47.233003 
L 255.915884 47.352752 
L 257.306308 47.858921 
L 258.696731 48.755894 
L 260.087154 50.047106 
L 261.477577 51.734983 
L 262.868 53.820884 
L 264.258424 56.305029 
L 265.648847 59.186448 
L 267.03927 62.462912 
L 268.429693 66.130874 
L 269.820116 70.185412 
L 271.210539 74.620169 
L 273.991386 84.597434 
L 276.772232 95.981195 
L 279.553079 108.663992 
L 282.333925 122.511314 
L 285.114771 137.360981 
L 289.286041 161.091941 
L 297.62858 210.875925 
L 301.79985 235.066164 
L 304.580696 250.232081 
L 307.361542 264.255374 
L 310.142389 276.816611 
L 311.532812 282.451556 
L 312.923235 287.606083 
L 314.313658 292.244456 
L 315.704082 296.332702 
L 317.094505 299.838912 
L 318.484928 302.733565 
L 319.875351 304.989844 
L 321.265774 306.583952 
L 322.656198 307.495432 
L 324.046621 307.707472 
L 325.437044 307.207208 
L 326.827467 305.98601 
L 328.21789 304.039755 
L 329.608313 301.369075 
L 330.998737 297.97959 
L 332.38916 293.8821 
L 333.779583 289.092759 
L 335.170006 283.633203 
L 336.560429 277.53064 
L 337.950853 270.817904 
L 340.731699 255.7213 
L 343.512545 238.717206 
L 346.293392 220.263837 
L 349.074238 200.895705 
L 349.074238 200.895705 
" style="fill:none;stroke:#d62728;stroke-linecap:square;stroke-width:1.5;"/>
   </g>
   <g id="line2d_16">
    <path clip-path="url(#p1dd75cfe5f)" d="M 72.380023 178.850862 
L 75.16087 155.065942 
L 77.941716 133.065981 
L 79.332139 123.057627 
L 80.722562 113.859131 
L 82.112986 105.565991 
L 83.503409 98.260063 
L 84.893832 92.009172 
L 86.284255 86.86692 
L 87.674678 82.872693 
L 89.065102 80.051839 
L 90.455525 78.416021 
L 91.845948 77.963703 
L 93.236371 78.680784 
L 94.626794 80.54133 
L 96.017217 83.508408 
L 97.407641 87.535001 
L 98.798064 92.564978 
L 100.188487 98.534113 
L 101.57891 105.371131 
L 102.969333 112.998766 
L 105.75018 130.293237 
L 108.531026 149.719544 
L 112.702296 181.262455 
L 118.263989 224.050131 
L 121.044835 244.271359 
L 123.825681 262.947123 
L 126.606528 279.604615 
L 127.996951 287.052915 
L 129.387374 293.859746 
L 130.777797 299.991414 
L 132.16822 305.419935 
L 133.558644 310.122944 
L 134.949067 314.083575 
L 136.33949 317.290294 
L 137.729913 319.736713 
L 139.120336 321.421367 
L 140.51076 322.347476 
L 141.901183 322.522684 
L 143.291606 321.958787 
L 144.682029 320.671444 
L 146.072452 318.679888 
L 147.462876 316.006623 
L 148.853299 312.677128 
L 150.243722 308.719555 
L 151.634145 304.164435 
L 153.024568 299.044383 
L 154.414991 293.393819 
L 157.195838 280.646195 
L 159.976684 266.222741 
L 162.757531 250.436974 
L 166.9288 224.901083 
L 173.880916 179.998875 
L 179.442609 144.616185 
L 183.613878 119.775923 
L 186.394725 104.451557 
L 189.175571 90.346779 
L 191.956418 77.634049 
L 194.737264 66.463047 
L 196.127687 61.496269 
L 197.51811 56.960803 
L 198.908534 52.869036 
L 200.298957 49.231975 
L 201.68938 46.059266 
L 203.079803 43.3592 
L 204.470226 41.138728 
L 205.86065 39.403471 
L 207.251073 38.157731 
L 208.641496 37.404497 
L 210.031919 37.145455 
L 211.422342 37.380992 
L 212.812765 38.110205 
L 214.203189 39.330898 
L 215.593612 41.039587 
L 216.984035 43.231498 
L 218.374458 45.90057 
L 219.764881 49.039444 
L 221.155305 52.639468 
L 222.545728 56.690685 
L 223.936151 61.181833 
L 225.326574 66.100333 
L 228.107421 77.162481 
L 230.888267 89.750024 
L 233.669113 103.714531 
L 236.44996 118.886215 
L 239.230806 135.07409 
L 243.402076 160.792458 
L 257.306308 248.656871 
L 260.087154 264.485115 
L 262.868 279.023237 
L 265.648847 291.96734 
L 267.03927 297.749363 
L 268.429693 303.0241 
L 269.820116 307.75773 
L 271.210539 311.918043 
L 272.600963 315.474699 
L 273.991386 318.399502 
L 275.381809 320.666677 
L 276.772232 322.253148 
L 278.162655 323.138824 
L 279.553079 323.306881 
L 280.943502 322.744043 
L 282.333925 321.440854 
L 283.724348 319.39195 
L 285.114771 316.596309 
L 286.505195 313.057494 
L 287.895618 308.783871 
L 289.286041 303.788813 
L 290.676464 298.090869 
L 292.066887 291.713907 
L 293.457311 284.687225 
L 296.238157 268.829414 
L 299.019003 250.861963 
L 301.79985 231.216009 
L 305.971119 199.742078 
L 311.532812 157.264906 
L 314.313658 137.339842 
L 317.094505 119.237859 
L 318.484928 111.089467 
L 319.875351 103.654883 
L 321.265774 97.01353 
L 322.656198 91.239912 
L 324.046621 86.4026 
L 325.437044 82.563208 
L 326.827467 79.775391 
L 328.21789 78.083866 
L 329.608313 77.523479 
L 330.998737 78.118333 
L 332.38916 79.880987 
L 333.779583 82.811749 
L 335.170006 86.898082 
L 336.560429 92.114128 
L 337.950853 98.42038 
L 339.341276 105.763508 
L 340.731699 114.076361 
L 342.122122 123.278148 
L 344.902969 143.959663 
L 347.683815 166.908625 
L 349.074238 178.904218 
L 349.074238 178.904218 
" style="fill:none;stroke:#9467bd;stroke-linecap:square;stroke-width:1.5;"/>
   </g>
   <g id="patch_3">
    <path d="M 58.545313 348.48 
L 58.545313 22.32 
" style="fill:none;stroke:#000000;stroke-linecap:square;stroke-linejoin:miter;stroke-width:0.8;"/>
   </g>
   <g id="patch_4">
    <path d="M 362.908949 348.48 
L 362.908949 22.32 
" style="fill:none;stroke:#000000;stroke-linecap:square;stroke-linejoin:miter;stroke-width:0.8;"/>
   </g>
   <g id="patch_5">
    <path d="M 58.545312 348.48 
L 362.908949 348.48 
" style="fill:none;stroke:#000000;stroke-linecap:square;stroke-linejoin:miter;stroke-width:0.8;"/>
   </g>
   <g id="patch_6">
    <path d="M 58.545312 22.32 
L 362.908949 22.32 
" style="fill:none;stroke:#000000;stroke-linecap:square;stroke-linejoin:miter;stroke-width:0.8;"/>
   </g>
   <g id="text_14">
    <!-- Eigenfunctions for $\epsilon = 3$ -->
    <g transform="translate(139.807131 16.32)scale(0.12 -0.12)">
     <defs>
      <path d="M 628 4666 
L 3578 4666 
L 3578 4134 
L 1259 4134 
L 1259 2753 
L 3481 2753 
L 3481 2222 
L 1259 2222 
L 1259 531 
L 3634 531 
L 3634 0 
L 628 0 
L 628 4666 
z
" id="DejaVuSans-45" transform="scale(0.015625)"/>
      <path d="M 603 3500 
L 1178 3500 
L 1178 0 
L 603 0 
L 603 3500 
z
M 603 4863 
L 1178 4863 
L 1178 4134 
L 603 4134 
L 603 4863 
z
" id="DejaVuSans-69" transform="scale(0.015625)"/>
      <path d="M 2906 1791 
Q 2906 2416 2648 2759 
Q 2391 3103 1925 3103 
Q 1463 3103 1205 2759 
Q 947 2416 947 1791 
Q 947 1169 1205 825 
Q 1463 481 1925 481 
Q 2391 481 2648 825 
Q 2906 1169 2906 1791 
z
M 3481 434 
Q 3481 -459 3084 -895 
Q 2688 -1331 1869 -1331 
Q 1566 -1331 1297 -1286 
Q 1028 -1241 775 -1147 
L 775 -588 
Q 1028 -725 1275 -790 
Q 1522 -856 1778 -856 
Q 2344 -856 2625 -561 
Q 2906 -266 2906 331 
L 2906 616 
Q 2728 306 2450 153 
Q 2172 0 1784 0 
Q 1141 0 747 490 
Q 353 981 353 1791 
Q 353 2603 747 3093 
Q 1141 3584 1784 3584 
Q 2172 3584 2450 3431 
Q 2728 3278 2906 2969 
L 2906 3500 
L 3481 3500 
L 3481 434 
z
" id="DejaVuSans-67" transform="scale(0.015625)"/>
      <path d="M 3513 2113 
L 3513 0 
L 2938 0 
L 2938 2094 
Q 2938 2591 2744 2837 
Q 2550 3084 2163 3084 
Q 1697 3084 1428 2787 
Q 1159 2491 1159 1978 
L 1159 0 
L 581 0 
L 581 3500 
L 1159 3500 
L 1159 2956 
Q 1366 3272 1645 3428 
Q 1925 3584 2291 3584 
Q 2894 3584 3203 3211 
Q 3513 2838 3513 2113 
z
" id="DejaVuSans-6e" transform="scale(0.015625)"/>
      <path d="M 2375 4863 
L 2375 4384 
L 1825 4384 
Q 1516 4384 1395 4259 
Q 1275 4134 1275 3809 
L 1275 3500 
L 2222 3500 
L 2222 3053 
L 1275 3053 
L 1275 0 
L 697 0 
L 697 3053 
L 147 3053 
L 147 3500 
L 697 3500 
L 697 3744 
Q 697 4328 969 4595 
Q 1241 4863 1831 4863 
L 2375 4863 
z
" id="DejaVuSans-66" transform="scale(0.015625)"/>
      <path d="M 544 1381 
L 544 3500 
L 1119 3500 
L 1119 1403 
Q 1119 906 1312 657 
Q 1506 409 1894 409 
Q 2359 409 2629 706 
Q 2900 1003 2900 1516 
L 2900 3500 
L 3475 3500 
L 3475 0 
L 2900 0 
L 2900 538 
Q 2691 219 2414 64 
Q 2138 -91 1772 -91 
Q 1169 -91 856 284 
Q 544 659 544 1381 
z
M 1991 3584 
L 1991 3584 
z
" id="DejaVuSans-75" transform="scale(0.015625)"/>
      <path d="M 1172 4494 
L 1172 3500 
L 2356 3500 
L 2356 3053 
L 1172 3053 
L 1172 1153 
Q 1172 725 1289 603 
Q 1406 481 1766 481 
L 2356 481 
L 2356 0 
L 1766 0 
Q 1100 0 847 248 
Q 594 497 594 1153 
L 594 3053 
L 172 3053 
L 172 3500 
L 594 3500 
L 594 4494 
L 1172 4494 
z
" id="DejaVuSans-74" transform="scale(0.015625)"/>
      <path d="M 1959 3097 
Q 1497 3097 1228 2736 
Q 959 2375 959 1747 
Q 959 1119 1226 758 
Q 1494 397 1959 397 
Q 2419 397 2687 759 
Q 2956 1122 2956 1747 
Q 2956 2369 2687 2733 
Q 2419 3097 1959 3097 
z
M 1959 3584 
Q 2709 3584 3137 3096 
Q 3566 2609 3566 1747 
Q 3566 888 3137 398 
Q 2709 -91 1959 -91 
Q 1206 -91 779 398 
Q 353 888 353 1747 
Q 353 2609 779 3096 
Q 1206 3584 1959 3584 
z
" id="DejaVuSans-6f" transform="scale(0.015625)"/>
      <path d="M 2834 3397 
L 2834 2853 
Q 2591 2978 2328 3040 
Q 2066 3103 1784 3103 
Q 1356 3103 1142 2972 
Q 928 2841 928 2578 
Q 928 2378 1081 2264 
Q 1234 2150 1697 2047 
L 1894 2003 
Q 2506 1872 2764 1633 
Q 3022 1394 3022 966 
Q 3022 478 2636 193 
Q 2250 -91 1575 -91 
Q 1294 -91 989 -36 
Q 684 19 347 128 
L 347 722 
Q 666 556 975 473 
Q 1284 391 1588 391 
Q 1994 391 2212 530 
Q 2431 669 2431 922 
Q 2431 1156 2273 1281 
Q 2116 1406 1581 1522 
L 1381 1569 
Q 847 1681 609 1914 
Q 372 2147 372 2553 
Q 372 3047 722 3315 
Q 1072 3584 1716 3584 
Q 2034 3584 2315 3537 
Q 2597 3491 2834 3397 
z
" id="DejaVuSans-73" transform="scale(0.015625)"/>
      <path d="M 2631 2963 
Q 2534 3019 2420 3045 
Q 2306 3072 2169 3072 
Q 1681 3072 1420 2755 
Q 1159 2438 1159 1844 
L 1159 0 
L 581 0 
L 581 3500 
L 1159 3500 
L 1159 2956 
Q 1341 3275 1631 3429 
Q 1922 3584 2338 3584 
Q 2397 3584 2469 3576 
Q 2541 3569 2628 3553 
L 2631 2963 
z
" id="DejaVuSans-72" transform="scale(0.015625)"/>
      <path d="M 1263 1888 
Q 925 1963 778 2166 
Q 669 2309 669 2503 
Q 669 3034 1175 3344 
Q 1575 3588 2188 3588 
Q 2425 3588 2684 3550 
Q 2944 3513 3234 3438 
L 3134 2916 
Q 2847 3006 2606 3047 
Q 2359 3088 2138 3088 
Q 1766 3088 1522 2944 
Q 1228 2772 1228 2522 
Q 1228 2356 1381 2241 
Q 1563 2103 1925 2103 
L 2409 2103 
L 2319 1628 
L 1856 1628 
Q 1425 1628 1172 1469 
Q 828 1253 828 916 
Q 828 703 1013 563 
Q 1244 388 1716 388 
Q 2006 388 2284 444 
Q 2563 503 2806 619 
L 2700 84 
Q 2403 -3 2131 -47 
Q 1859 -91 1609 -91 
Q 866 -91 516 194 
Q 250 413 250 781 
Q 250 1278 600 1584 
Q 859 1813 1263 1888 
z
" id="DejaVuSans-Oblique-3b5" transform="scale(0.015625)"/>
      <path d="M 678 2906 
L 4684 2906 
L 4684 2381 
L 678 2381 
L 678 2906 
z
M 678 1631 
L 4684 1631 
L 4684 1100 
L 678 1100 
L 678 1631 
z
" id="DejaVuSans-3d" transform="scale(0.015625)"/>
      <path d="M 2597 2516 
Q 3050 2419 3304 2112 
Q 3559 1806 3559 1356 
Q 3559 666 3084 287 
Q 2609 -91 1734 -91 
Q 1441 -91 1130 -33 
Q 819 25 488 141 
L 488 750 
Q 750 597 1062 519 
Q 1375 441 1716 441 
Q 2309 441 2620 675 
Q 2931 909 2931 1356 
Q 2931 1769 2642 2001 
Q 2353 2234 1838 2234 
L 1294 2234 
L 1294 2753 
L 1863 2753 
Q 2328 2753 2575 2939 
Q 2822 3125 2822 3475 
Q 2822 3834 2567 4026 
Q 2313 4219 1838 4219 
Q 1578 4219 1281 4162 
Q 984 4106 628 3988 
L 628 4550 
Q 988 4650 1302 4700 
Q 1616 4750 1894 4750 
Q 2613 4750 3031 4423 
Q 3450 4097 3450 3541 
Q 3450 3153 3228 2886 
Q 3006 2619 2597 2516 
z
" id="DejaVuSans-33" transform="scale(0.015625)"/>
     </defs>
     <use transform="translate(0 0.015625)" xlink:href="#DejaVuSans-45"/>
     <use transform="translate(63.183594 0.015625)" xlink:href="#DejaVuSans-69"/>
     <use transform="translate(90.966797 0.015625)" xlink:href="#DejaVuSans-67"/>
     <use transform="translate(154.443359 0.015625)" xlink:href="#DejaVuSans-65"/>
     <use transform="translate(215.966797 0.015625)" xlink:href="#DejaVuSans-6e"/>
     <use transform="translate(279.345703 0.015625)" xlink:href="#DejaVuSans-66"/>
     <use transform="translate(314.550781 0.015625)" xlink:href="#DejaVuSans-75"/>
     <use transform="translate(377.929688 0.015625)" xlink:href="#DejaVuSans-6e"/>
     <use transform="translate(441.308594 0.015625)" xlink:href="#DejaVuSans-63"/>
     <use transform="translate(496.289062 0.015625)" xlink:href="#DejaVuSans-74"/>
     <use transform="translate(535.498047 0.015625)" xlink:href="#DejaVuSans-69"/>
     <use transform="translate(563.28125 0.015625)" xlink:href="#DejaVuSans-6f"/>
     <use transform="translate(624.462891 0.015625)" xlink:href="#DejaVuSans-6e"/>
     <use transform="translate(687.841797 0.015625)" xlink:href="#DejaVuSans-73"/>
     <use transform="translate(739.941406 0.015625)" xlink:href="#DejaVuSans-20"/>
     <use transform="translate(771.728516 0.015625)" xlink:href="#DejaVuSans-66"/>
     <use transform="translate(806.933594 0.015625)" xlink:href="#DejaVuSans-6f"/>
     <use transform="translate(868.115234 0.015625)" xlink:href="#DejaVuSans-72"/>
     <use transform="translate(909.228516 0.015625)" xlink:href="#DejaVuSans-20"/>
     <use transform="translate(941.015625 0.015625)" xlink:href="#DejaVuSans-Oblique-3b5"/>
     <use transform="translate(1014.550781 0.015625)" xlink:href="#DejaVuSans-3d"/>
     <use transform="translate(1117.822266 0.015625)" xlink:href="#DejaVuSans-33"/>
    </g>
   </g>
  </g>
  <g id="axes_2">
   <g id="patch_7">
    <path d="M 423.781676 348.48 
L 728.145312 348.48 
L 728.145312 22.32 
L 423.781676 22.32 
z
" style="fill:#ffffff;"/>
   </g>
   <g id="matplotlib.axis_3">
    <g id="xtick_7">
     <g id="line2d_17">
      <g>
       <use style="stroke:#000000;stroke-width:0.8;" x="437.616387" xlink:href="#mb672067a10" y="348.48"/>
      </g>
     </g>
     <g id="text_15">
      <!-- 0 -->
      <g transform="translate(434.435137 363.078438)scale(0.1 -0.1)">
       <use xlink:href="#DejaVuSans-30"/>
      </g>
     </g>
    </g>
    <g id="xtick_8">
     <g id="line2d_18">
      <g>
       <use style="stroke:#000000;stroke-width:0.8;" x="499.10399" xlink:href="#mb672067a10" y="348.48"/>
      </g>
     </g>
     <g id="text_16">
      <!-- 2 -->
      <g transform="translate(495.92274 363.078438)scale(0.1 -0.1)">
       <use xlink:href="#DejaVuSans-32"/>
      </g>
     </g>
    </g>
    <g id="xtick_9">
     <g id="line2d_19">
      <g>
       <use style="stroke:#000000;stroke-width:0.8;" x="560.591593" xlink:href="#mb672067a10" y="348.48"/>
      </g>
     </g>
     <g id="text_17">
      <!-- 4 -->
      <g transform="translate(557.410343 363.078438)scale(0.1 -0.1)">
       <use xlink:href="#DejaVuSans-34"/>
      </g>
     </g>
    </g>
    <g id="xtick_10">
     <g id="line2d_20">
      <g>
       <use style="stroke:#000000;stroke-width:0.8;" x="622.079197" xlink:href="#mb672067a10" y="348.48"/>
      </g>
     </g>
     <g id="text_18">
      <!-- 6 -->
      <g transform="translate(618.897947 363.078438)scale(0.1 -0.1)">
       <use xlink:href="#DejaVuSans-36"/>
      </g>
     </g>
    </g>
    <g id="xtick_11">
     <g id="line2d_21">
      <g>
       <use style="stroke:#000000;stroke-width:0.8;" x="683.5668" xlink:href="#mb672067a10" y="348.48"/>
      </g>
     </g>
     <g id="text_19">
      <!-- 8 -->
      <g transform="translate(680.38555 363.078438)scale(0.1 -0.1)">
       <use xlink:href="#DejaVuSans-38"/>
      </g>
     </g>
    </g>
    <g id="text_20">
     <!-- $i$ -->
     <g transform="translate(574.563494 376.756562)scale(0.1 -0.1)">
      <defs>
       <path d="M 1172 4863 
L 1747 4863 
L 1606 4134 
L 1031 4134 
L 1172 4863 
z
M 909 3500 
L 1484 3500 
L 800 0 
L 225 0 
L 909 3500 
z
" id="DejaVuSans-Oblique-69" transform="scale(0.015625)"/>
      </defs>
      <use transform="translate(0 0.015625)" xlink:href="#DejaVuSans-Oblique-69"/>
     </g>
    </g>
   </g>
   <g id="matplotlib.axis_4">
    <g id="ytick_6">
     <g id="line2d_22">
      <g>
       <use style="stroke:#000000;stroke-width:0.8;" x="423.781676" xlink:href="#me8bbee32b3" y="335.537991"/>
      </g>
     </g>
     <g id="text_21">
      <!-- 5 -->
      <g transform="translate(410.419176 339.33721)scale(0.1 -0.1)">
       <use xlink:href="#DejaVuSans-35"/>
      </g>
     </g>
    </g>
    <g id="ytick_7">
     <g id="line2d_23">
      <g>
       <use style="stroke:#000000;stroke-width:0.8;" x="423.781676" xlink:href="#me8bbee32b3" y="298.404585"/>
      </g>
     </g>
     <g id="text_22">
      <!-- 10 -->
      <g transform="translate(404.056676 302.203804)scale(0.1 -0.1)">
       <use xlink:href="#DejaVuSans-31"/>
       <use x="63.623047" xlink:href="#DejaVuSans-30"/>
      </g>
     </g>
    </g>
    <g id="ytick_8">
     <g id="line2d_24">
      <g>
       <use style="stroke:#000000;stroke-width:0.8;" x="423.781676" xlink:href="#me8bbee32b3" y="261.271179"/>
      </g>
     </g>
     <g id="text_23">
      <!-- 15 -->
      <g transform="translate(404.056676 265.070398)scale(0.1 -0.1)">
       <use xlink:href="#DejaVuSans-31"/>
       <use x="63.623047" xlink:href="#DejaVuSans-35"/>
      </g>
     </g>
    </g>
    <g id="ytick_9">
     <g id="line2d_25">
      <g>
       <use style="stroke:#000000;stroke-width:0.8;" x="423.781676" xlink:href="#me8bbee32b3" y="224.137772"/>
      </g>
     </g>
     <g id="text_24">
      <!-- 20 -->
      <g transform="translate(404.056676 227.936991)scale(0.1 -0.1)">
       <use xlink:href="#DejaVuSans-32"/>
       <use x="63.623047" xlink:href="#DejaVuSans-30"/>
      </g>
     </g>
    </g>
    <g id="ytick_10">
     <g id="line2d_26">
      <g>
       <use style="stroke:#000000;stroke-width:0.8;" x="423.781676" xlink:href="#me8bbee32b3" y="187.004366"/>
      </g>
     </g>
     <g id="text_25">
      <!-- 25 -->
      <g transform="translate(404.056676 190.803585)scale(0.1 -0.1)">
       <use xlink:href="#DejaVuSans-32"/>
       <use x="63.623047" xlink:href="#DejaVuSans-35"/>
      </g>
     </g>
    </g>
    <g id="ytick_11">
     <g id="line2d_27">
      <g>
       <use style="stroke:#000000;stroke-width:0.8;" x="423.781676" xlink:href="#me8bbee32b3" y="149.87096"/>
      </g>
     </g>
     <g id="text_26">
      <!-- 30 -->
      <g transform="translate(404.056676 153.670179)scale(0.1 -0.1)">
       <use xlink:href="#DejaVuSans-33"/>
       <use x="63.623047" xlink:href="#DejaVuSans-30"/>
      </g>
     </g>
    </g>
    <g id="ytick_12">
     <g id="line2d_28">
      <g>
       <use style="stroke:#000000;stroke-width:0.8;" x="423.781676" xlink:href="#me8bbee32b3" y="112.737554"/>
      </g>
     </g>
     <g id="text_27">
      <!-- 35 -->
      <g transform="translate(404.056676 116.536772)scale(0.1 -0.1)">
       <use xlink:href="#DejaVuSans-33"/>
       <use x="63.623047" xlink:href="#DejaVuSans-35"/>
      </g>
     </g>
    </g>
    <g id="ytick_13">
     <g id="line2d_29">
      <g>
       <use style="stroke:#000000;stroke-width:0.8;" x="423.781676" xlink:href="#me8bbee32b3" y="75.604147"/>
      </g>
     </g>
     <g id="text_28">
      <!-- 40 -->
      <g transform="translate(404.056676 79.403366)scale(0.1 -0.1)">
       <use xlink:href="#DejaVuSans-34"/>
       <use x="63.623047" xlink:href="#DejaVuSans-30"/>
      </g>
     </g>
    </g>
    <g id="ytick_14">
     <g id="line2d_30">
      <g>
       <use style="stroke:#000000;stroke-width:0.8;" x="423.781676" xlink:href="#me8bbee32b3" y="38.470741"/>
      </g>
     </g>
     <g id="text_29">
      <!-- 45 -->
      <g transform="translate(404.056676 42.26996)scale(0.1 -0.1)">
       <use xlink:href="#DejaVuSans-34"/>
       <use x="63.623047" xlink:href="#DejaVuSans-35"/>
      </g>
     </g>
    </g>
    <g id="text_30">
     <!-- $\lambda_i$ -->
     <g transform="translate(397.976989 189.5)rotate(-90)scale(0.1 -0.1)">
      <defs>
       <path d="M 2350 4316 
L 3125 0 
L 2516 0 
L 2038 2588 
L 328 0 
L -281 0 
L 1903 3356 
L 1794 3975 
Q 1725 4369 1391 4369 
L 1091 4369 
L 1184 4863 
L 1550 4856 
Q 2253 4847 2350 4316 
z
" id="DejaVuSans-Oblique-3bb" transform="scale(0.015625)"/>
      </defs>
      <use transform="translate(0 0.015625)" xlink:href="#DejaVuSans-Oblique-3bb"/>
      <use transform="translate(59.179688 -16.390625)scale(0.7)" xlink:href="#DejaVuSans-Oblique-69"/>
     </g>
    </g>
   </g>
   <g id="line2d_31">
    <path clip-path="url(#pdfce2789dd)" d="M 437.616387 333.654545 
L 468.360189 305.501424 
L 499.10399 270.610099 
L 529.847792 237.935266 
L 560.591593 204.296574 
L 591.335395 170.941433 
L 622.079197 137.459742 
L 652.822998 104.019589 
L 683.5668 70.57294 
L 714.310602 37.145455 
" style="fill:none;"/>
    <defs>
     <path d="M 0 1.5 
C 0.397805 1.5 0.77937 1.341951 1.06066 1.06066 
C 1.341951 0.77937 1.5 0.397805 1.5 0 
C 1.5 -0.397805 1.341951 -0.77937 1.06066 -1.06066 
C 0.77937 -1.341951 0.397805 -1.5 0 -1.5 
C -0.397805 -1.5 -0.77937 -1.341951 -1.06066 -1.06066 
C -1.341951 -0.77937 -1.5 -0.397805 -1.5 0 
C -1.5 0.397805 -1.341951 0.77937 -1.06066 1.06066 
C -0.77937 1.341951 -0.397805 1.5 0 1.5 
z
" id="m55fd5f5248" style="stroke:#1f77b4;"/>
    </defs>
    <g clip-path="url(#pdfce2789dd)">
     <use style="fill:#1f77b4;stroke:#1f77b4;" x="437.616387" xlink:href="#m55fd5f5248" y="333.654545"/>
     <use style="fill:#1f77b4;stroke:#1f77b4;" x="468.360189" xlink:href="#m55fd5f5248" y="305.501424"/>
     <use style="fill:#1f77b4;stroke:#1f77b4;" x="499.10399" xlink:href="#m55fd5f5248" y="270.610099"/>
     <use style="fill:#1f77b4;stroke:#1f77b4;" x="529.847792" xlink:href="#m55fd5f5248" y="237.935266"/>
     <use style="fill:#1f77b4;stroke:#1f77b4;" x="560.591593" xlink:href="#m55fd5f5248" y="204.296574"/>
     <use style="fill:#1f77b4;stroke:#1f77b4;" x="591.335395" xlink:href="#m55fd5f5248" y="170.941433"/>
     <use style="fill:#1f77b4;stroke:#1f77b4;" x="622.079197" xlink:href="#m55fd5f5248" y="137.459742"/>
     <use style="fill:#1f77b4;stroke:#1f77b4;" x="652.822998" xlink:href="#m55fd5f5248" y="104.019589"/>
     <use style="fill:#1f77b4;stroke:#1f77b4;" x="683.5668" xlink:href="#m55fd5f5248" y="70.57294"/>
     <use style="fill:#1f77b4;stroke:#1f77b4;" x="714.310602" xlink:href="#m55fd5f5248" y="37.145455"/>
    </g>
   </g>
   <g id="patch_8">
    <path d="M 423.781676 348.48 
L 423.781676 22.32 
" style="fill:none;stroke:#000000;stroke-linecap:square;stroke-linejoin:miter;stroke-width:0.8;"/>
   </g>
   <g id="patch_9">
    <path d="M 728.145312 348.48 
L 728.145312 22.32 
" style="fill:none;stroke:#000000;stroke-linecap:square;stroke-linejoin:miter;stroke-width:0.8;"/>
   </g>
   <g id="patch_10">
    <path d="M 423.781676 348.48 
L 728.145313 348.48 
" style="fill:none;stroke:#000000;stroke-linecap:square;stroke-linejoin:miter;stroke-width:0.8;"/>
   </g>
   <g id="patch_11">
    <path d="M 423.781676 22.32 
L 728.145313 22.32 
" style="fill:none;stroke:#000000;stroke-linecap:square;stroke-linejoin:miter;stroke-width:0.8;"/>
   </g>
   <g id="text_31">
    <!-- Eigenvalues -->
    <g transform="translate(539.686932 16.32)scale(0.12 -0.12)">
     <defs>
      <path d="M 191 3500 
L 800 3500 
L 1894 563 
L 2988 3500 
L 3597 3500 
L 2284 0 
L 1503 0 
L 191 3500 
z
" id="DejaVuSans-76" transform="scale(0.015625)"/>
     </defs>
     <use xlink:href="#DejaVuSans-45"/>
     <use x="63.183594" xlink:href="#DejaVuSans-69"/>
     <use x="90.966797" xlink:href="#DejaVuSans-67"/>
     <use x="154.443359" xlink:href="#DejaVuSans-65"/>
     <use x="215.966797" xlink:href="#DejaVuSans-6e"/>
     <use x="279.345703" xlink:href="#DejaVuSans-76"/>
     <use x="338.525391" xlink:href="#DejaVuSans-61"/>
     <use x="399.804688" xlink:href="#DejaVuSans-6c"/>
     <use x="427.587891" xlink:href="#DejaVuSans-75"/>
     <use x="490.966797" xlink:href="#DejaVuSans-65"/>
     <use x="552.490234" xlink:href="#DejaVuSans-73"/>
    </g>
   </g>
  </g>
 </g>
 <defs>
  <clipPath id="p1dd75cfe5f">
   <rect height="326.16" width="304.363636" x="58.545313" y="22.32"/>
  </clipPath>
  <clipPath id="pdfce2789dd">
   <rect height="326.16" width="304.363636" x="423.781676" y="22.32"/>
  </clipPath>
 </defs>
</svg>
