<?xml version="1.0" encoding="utf-8" standalone="no"?>
<!DOCTYPE svg PUBLIC "-//W3C//DTD SVG 1.1//EN"
  "http://www.w3.org/Graphics/SVG/1.1/DTD/svg11.dtd">
<svg height="352.55625pt" version="1.1" viewBox="0 0 618.528125 352.55625" width="618.528125pt" xmlns="http://www.w3.org/2000/svg" xmlns:xlink="http://www.w3.org/1999/xlink">
 <metadata>
  <rdf:RDF xmlns:cc="http://creativecommons.org/ns#" xmlns:dc="http://purl.org/dc/elements/1.1/" xmlns:rdf="http://www.w3.org/1999/02/22-rdf-syntax-ns#">
   <cc:Work>
    <dc:type rdf:resource="http://purl.org/dc/dcmitype/StillImage"/>
    <dc:date>2021-11-13T23:00:41.880028</dc:date>
    <dc:format>image/svg+xml</dc:format>
    <dc:creator>
     <cc:Agent>
      <dc:title>Matplotlib v3.4.3, https://matplotlib.org/</dc:title>
     </cc:Agent>
    </dc:creator>
   </cc:Work>
  </rdf:RDF>
 </metadata>
 <defs>
  <style type="text/css">*{stroke-linecap:butt;stroke-linejoin:round;}</style>
 </defs>
 <g id="figure_1">
  <g id="patch_1">
   <path d="M 0 352.55625 
L 618.528125 352.55625 
L 618.528125 0 
L 0 0 
z
" style="fill:none;"/>
  </g>
  <g id="axes_1">
   <g id="patch_2">
    <path d="M 53.328125 315 
L 306.964489 315 
L 306.964489 43.2 
L 53.328125 43.2 
z
" style="fill:#ffffff;"/>
   </g>
   <g id="matplotlib.axis_1">
    <g id="xtick_1">
     <g id="line2d_1">
      <path clip-path="url(#pd60ccebb53)" d="M 64.857051 315 
L 64.857051 43.2 
" style="fill:none;stroke:#b0b0b0;stroke-linecap:square;stroke-width:0.8;"/>
     </g>
     <g id="line2d_2">
      <defs>
       <path d="M 0 0 
L 0 3.5 
" id="m23a59253fe" style="stroke:#000000;stroke-width:0.8;"/>
      </defs>
      <g>
       <use style="stroke:#000000;stroke-width:0.8;" x="64.857051" xlink:href="#m23a59253fe" y="315"/>
      </g>
     </g>
     <g id="text_1">
      <!-- 0 -->
      <g transform="translate(61.675801 329.598437)scale(0.1 -0.1)">
       <defs>
        <path d="M 2034 4250 
Q 1547 4250 1301 3770 
Q 1056 3291 1056 2328 
Q 1056 1369 1301 889 
Q 1547 409 2034 409 
Q 2525 409 2770 889 
Q 3016 1369 3016 2328 
Q 3016 3291 2770 3770 
Q 2525 4250 2034 4250 
z
M 2034 4750 
Q 2819 4750 3233 4129 
Q 3647 3509 3647 2328 
Q 3647 1150 3233 529 
Q 2819 -91 2034 -91 
Q 1250 -91 836 529 
Q 422 1150 422 2328 
Q 422 3509 836 4129 
Q 1250 4750 2034 4750 
z
" id="DejaVuSans-30" transform="scale(0.015625)"/>
       </defs>
       <use xlink:href="#DejaVuSans-30"/>
      </g>
     </g>
    </g>
    <g id="xtick_2">
     <g id="line2d_3">
      <path clip-path="url(#pd60ccebb53)" d="M 111.91389 315 
L 111.91389 43.2 
" style="fill:none;stroke:#b0b0b0;stroke-linecap:square;stroke-width:0.8;"/>
     </g>
     <g id="line2d_4">
      <g>
       <use style="stroke:#000000;stroke-width:0.8;" x="111.91389" xlink:href="#m23a59253fe" y="315"/>
      </g>
     </g>
     <g id="text_2">
      <!-- 20 -->
      <g transform="translate(105.55139 329.598437)scale(0.1 -0.1)">
       <defs>
        <path d="M 1228 531 
L 3431 531 
L 3431 0 
L 469 0 
L 469 531 
Q 828 903 1448 1529 
Q 2069 2156 2228 2338 
Q 2531 2678 2651 2914 
Q 2772 3150 2772 3378 
Q 2772 3750 2511 3984 
Q 2250 4219 1831 4219 
Q 1534 4219 1204 4116 
Q 875 4013 500 3803 
L 500 4441 
Q 881 4594 1212 4672 
Q 1544 4750 1819 4750 
Q 2544 4750 2975 4387 
Q 3406 4025 3406 3419 
Q 3406 3131 3298 2873 
Q 3191 2616 2906 2266 
Q 2828 2175 2409 1742 
Q 1991 1309 1228 531 
z
" id="DejaVuSans-32" transform="scale(0.015625)"/>
       </defs>
       <use xlink:href="#DejaVuSans-32"/>
       <use x="63.623047" xlink:href="#DejaVuSans-30"/>
      </g>
     </g>
    </g>
    <g id="xtick_3">
     <g id="line2d_5">
      <path clip-path="url(#pd60ccebb53)" d="M 158.970729 315 
L 158.970729 43.2 
" style="fill:none;stroke:#b0b0b0;stroke-linecap:square;stroke-width:0.8;"/>
     </g>
     <g id="line2d_6">
      <g>
       <use style="stroke:#000000;stroke-width:0.8;" x="158.970729" xlink:href="#m23a59253fe" y="315"/>
      </g>
     </g>
     <g id="text_3">
      <!-- 40 -->
      <g transform="translate(152.608229 329.598437)scale(0.1 -0.1)">
       <defs>
        <path d="M 2419 4116 
L 825 1625 
L 2419 1625 
L 2419 4116 
z
M 2253 4666 
L 3047 4666 
L 3047 1625 
L 3713 1625 
L 3713 1100 
L 3047 1100 
L 3047 0 
L 2419 0 
L 2419 1100 
L 313 1100 
L 313 1709 
L 2253 4666 
z
" id="DejaVuSans-34" transform="scale(0.015625)"/>
       </defs>
       <use xlink:href="#DejaVuSans-34"/>
       <use x="63.623047" xlink:href="#DejaVuSans-30"/>
      </g>
     </g>
    </g>
    <g id="xtick_4">
     <g id="line2d_7">
      <path clip-path="url(#pd60ccebb53)" d="M 206.027568 315 
L 206.027568 43.2 
" style="fill:none;stroke:#b0b0b0;stroke-linecap:square;stroke-width:0.8;"/>
     </g>
     <g id="line2d_8">
      <g>
       <use style="stroke:#000000;stroke-width:0.8;" x="206.027568" xlink:href="#m23a59253fe" y="315"/>
      </g>
     </g>
     <g id="text_4">
      <!-- 60 -->
      <g transform="translate(199.665068 329.598437)scale(0.1 -0.1)">
       <defs>
        <path d="M 2113 2584 
Q 1688 2584 1439 2293 
Q 1191 2003 1191 1497 
Q 1191 994 1439 701 
Q 1688 409 2113 409 
Q 2538 409 2786 701 
Q 3034 994 3034 1497 
Q 3034 2003 2786 2293 
Q 2538 2584 2113 2584 
z
M 3366 4563 
L 3366 3988 
Q 3128 4100 2886 4159 
Q 2644 4219 2406 4219 
Q 1781 4219 1451 3797 
Q 1122 3375 1075 2522 
Q 1259 2794 1537 2939 
Q 1816 3084 2150 3084 
Q 2853 3084 3261 2657 
Q 3669 2231 3669 1497 
Q 3669 778 3244 343 
Q 2819 -91 2113 -91 
Q 1303 -91 875 529 
Q 447 1150 447 2328 
Q 447 3434 972 4092 
Q 1497 4750 2381 4750 
Q 2619 4750 2861 4703 
Q 3103 4656 3366 4563 
z
" id="DejaVuSans-36" transform="scale(0.015625)"/>
       </defs>
       <use xlink:href="#DejaVuSans-36"/>
       <use x="63.623047" xlink:href="#DejaVuSans-30"/>
      </g>
     </g>
    </g>
    <g id="xtick_5">
     <g id="line2d_9">
      <path clip-path="url(#pd60ccebb53)" d="M 253.084408 315 
L 253.084408 43.2 
" style="fill:none;stroke:#b0b0b0;stroke-linecap:square;stroke-width:0.8;"/>
     </g>
     <g id="line2d_10">
      <g>
       <use style="stroke:#000000;stroke-width:0.8;" x="253.084408" xlink:href="#m23a59253fe" y="315"/>
      </g>
     </g>
     <g id="text_5">
      <!-- 80 -->
      <g transform="translate(246.721908 329.598437)scale(0.1 -0.1)">
       <defs>
        <path d="M 2034 2216 
Q 1584 2216 1326 1975 
Q 1069 1734 1069 1313 
Q 1069 891 1326 650 
Q 1584 409 2034 409 
Q 2484 409 2743 651 
Q 3003 894 3003 1313 
Q 3003 1734 2745 1975 
Q 2488 2216 2034 2216 
z
M 1403 2484 
Q 997 2584 770 2862 
Q 544 3141 544 3541 
Q 544 4100 942 4425 
Q 1341 4750 2034 4750 
Q 2731 4750 3128 4425 
Q 3525 4100 3525 3541 
Q 3525 3141 3298 2862 
Q 3072 2584 2669 2484 
Q 3125 2378 3379 2068 
Q 3634 1759 3634 1313 
Q 3634 634 3220 271 
Q 2806 -91 2034 -91 
Q 1263 -91 848 271 
Q 434 634 434 1313 
Q 434 1759 690 2068 
Q 947 2378 1403 2484 
z
M 1172 3481 
Q 1172 3119 1398 2916 
Q 1625 2713 2034 2713 
Q 2441 2713 2670 2916 
Q 2900 3119 2900 3481 
Q 2900 3844 2670 4047 
Q 2441 4250 2034 4250 
Q 1625 4250 1398 4047 
Q 1172 3844 1172 3481 
z
" id="DejaVuSans-38" transform="scale(0.015625)"/>
       </defs>
       <use xlink:href="#DejaVuSans-38"/>
       <use x="63.623047" xlink:href="#DejaVuSans-30"/>
      </g>
     </g>
    </g>
    <g id="xtick_6">
     <g id="line2d_11">
      <path clip-path="url(#pd60ccebb53)" d="M 300.141247 315 
L 300.141247 43.2 
" style="fill:none;stroke:#b0b0b0;stroke-linecap:square;stroke-width:0.8;"/>
     </g>
     <g id="line2d_12">
      <g>
       <use style="stroke:#000000;stroke-width:0.8;" x="300.141247" xlink:href="#m23a59253fe" y="315"/>
      </g>
     </g>
     <g id="text_6">
      <!-- 100 -->
      <g transform="translate(290.597497 329.598437)scale(0.1 -0.1)">
       <defs>
        <path d="M 794 531 
L 1825 531 
L 1825 4091 
L 703 3866 
L 703 4441 
L 1819 4666 
L 2450 4666 
L 2450 531 
L 3481 531 
L 3481 0 
L 794 0 
L 794 531 
z
" id="DejaVuSans-31" transform="scale(0.015625)"/>
       </defs>
       <use xlink:href="#DejaVuSans-31"/>
       <use x="63.623047" xlink:href="#DejaVuSans-30"/>
       <use x="127.246094" xlink:href="#DejaVuSans-30"/>
      </g>
     </g>
    </g>
    <g id="text_7">
     <!-- Number of iteration $i$ -->
     <g transform="translate(127.946307 343.276562)scale(0.1 -0.1)">
      <defs>
       <path d="M 628 4666 
L 1478 4666 
L 3547 763 
L 3547 4666 
L 4159 4666 
L 4159 0 
L 3309 0 
L 1241 3903 
L 1241 0 
L 628 0 
L 628 4666 
z
" id="DejaVuSans-4e" transform="scale(0.015625)"/>
       <path d="M 544 1381 
L 544 3500 
L 1119 3500 
L 1119 1403 
Q 1119 906 1312 657 
Q 1506 409 1894 409 
Q 2359 409 2629 706 
Q 2900 1003 2900 1516 
L 2900 3500 
L 3475 3500 
L 3475 0 
L 2900 0 
L 2900 538 
Q 2691 219 2414 64 
Q 2138 -91 1772 -91 
Q 1169 -91 856 284 
Q 544 659 544 1381 
z
M 1991 3584 
L 1991 3584 
z
" id="DejaVuSans-75" transform="scale(0.015625)"/>
       <path d="M 3328 2828 
Q 3544 3216 3844 3400 
Q 4144 3584 4550 3584 
Q 5097 3584 5394 3201 
Q 5691 2819 5691 2113 
L 5691 0 
L 5113 0 
L 5113 2094 
Q 5113 2597 4934 2840 
Q 4756 3084 4391 3084 
Q 3944 3084 3684 2787 
Q 3425 2491 3425 1978 
L 3425 0 
L 2847 0 
L 2847 2094 
Q 2847 2600 2669 2842 
Q 2491 3084 2119 3084 
Q 1678 3084 1418 2786 
Q 1159 2488 1159 1978 
L 1159 0 
L 581 0 
L 581 3500 
L 1159 3500 
L 1159 2956 
Q 1356 3278 1631 3431 
Q 1906 3584 2284 3584 
Q 2666 3584 2933 3390 
Q 3200 3197 3328 2828 
z
" id="DejaVuSans-6d" transform="scale(0.015625)"/>
       <path d="M 3116 1747 
Q 3116 2381 2855 2742 
Q 2594 3103 2138 3103 
Q 1681 3103 1420 2742 
Q 1159 2381 1159 1747 
Q 1159 1113 1420 752 
Q 1681 391 2138 391 
Q 2594 391 2855 752 
Q 3116 1113 3116 1747 
z
M 1159 2969 
Q 1341 3281 1617 3432 
Q 1894 3584 2278 3584 
Q 2916 3584 3314 3078 
Q 3713 2572 3713 1747 
Q 3713 922 3314 415 
Q 2916 -91 2278 -91 
Q 1894 -91 1617 61 
Q 1341 213 1159 525 
L 1159 0 
L 581 0 
L 581 4863 
L 1159 4863 
L 1159 2969 
z
" id="DejaVuSans-62" transform="scale(0.015625)"/>
       <path d="M 3597 1894 
L 3597 1613 
L 953 1613 
Q 991 1019 1311 708 
Q 1631 397 2203 397 
Q 2534 397 2845 478 
Q 3156 559 3463 722 
L 3463 178 
Q 3153 47 2828 -22 
Q 2503 -91 2169 -91 
Q 1331 -91 842 396 
Q 353 884 353 1716 
Q 353 2575 817 3079 
Q 1281 3584 2069 3584 
Q 2775 3584 3186 3129 
Q 3597 2675 3597 1894 
z
M 3022 2063 
Q 3016 2534 2758 2815 
Q 2500 3097 2075 3097 
Q 1594 3097 1305 2825 
Q 1016 2553 972 2059 
L 3022 2063 
z
" id="DejaVuSans-65" transform="scale(0.015625)"/>
       <path d="M 2631 2963 
Q 2534 3019 2420 3045 
Q 2306 3072 2169 3072 
Q 1681 3072 1420 2755 
Q 1159 2438 1159 1844 
L 1159 0 
L 581 0 
L 581 3500 
L 1159 3500 
L 1159 2956 
Q 1341 3275 1631 3429 
Q 1922 3584 2338 3584 
Q 2397 3584 2469 3576 
Q 2541 3569 2628 3553 
L 2631 2963 
z
" id="DejaVuSans-72" transform="scale(0.015625)"/>
       <path id="DejaVuSans-20" transform="scale(0.015625)"/>
       <path d="M 1959 3097 
Q 1497 3097 1228 2736 
Q 959 2375 959 1747 
Q 959 1119 1226 758 
Q 1494 397 1959 397 
Q 2419 397 2687 759 
Q 2956 1122 2956 1747 
Q 2956 2369 2687 2733 
Q 2419 3097 1959 3097 
z
M 1959 3584 
Q 2709 3584 3137 3096 
Q 3566 2609 3566 1747 
Q 3566 888 3137 398 
Q 2709 -91 1959 -91 
Q 1206 -91 779 398 
Q 353 888 353 1747 
Q 353 2609 779 3096 
Q 1206 3584 1959 3584 
z
" id="DejaVuSans-6f" transform="scale(0.015625)"/>
       <path d="M 2375 4863 
L 2375 4384 
L 1825 4384 
Q 1516 4384 1395 4259 
Q 1275 4134 1275 3809 
L 1275 3500 
L 2222 3500 
L 2222 3053 
L 1275 3053 
L 1275 0 
L 697 0 
L 697 3053 
L 147 3053 
L 147 3500 
L 697 3500 
L 697 3744 
Q 697 4328 969 4595 
Q 1241 4863 1831 4863 
L 2375 4863 
z
" id="DejaVuSans-66" transform="scale(0.015625)"/>
       <path d="M 603 3500 
L 1178 3500 
L 1178 0 
L 603 0 
L 603 3500 
z
M 603 4863 
L 1178 4863 
L 1178 4134 
L 603 4134 
L 603 4863 
z
" id="DejaVuSans-69" transform="scale(0.015625)"/>
       <path d="M 1172 4494 
L 1172 3500 
L 2356 3500 
L 2356 3053 
L 1172 3053 
L 1172 1153 
Q 1172 725 1289 603 
Q 1406 481 1766 481 
L 2356 481 
L 2356 0 
L 1766 0 
Q 1100 0 847 248 
Q 594 497 594 1153 
L 594 3053 
L 172 3053 
L 172 3500 
L 594 3500 
L 594 4494 
L 1172 4494 
z
" id="DejaVuSans-74" transform="scale(0.015625)"/>
       <path d="M 2194 1759 
Q 1497 1759 1228 1600 
Q 959 1441 959 1056 
Q 959 750 1161 570 
Q 1363 391 1709 391 
Q 2188 391 2477 730 
Q 2766 1069 2766 1631 
L 2766 1759 
L 2194 1759 
z
M 3341 1997 
L 3341 0 
L 2766 0 
L 2766 531 
Q 2569 213 2275 61 
Q 1981 -91 1556 -91 
Q 1019 -91 701 211 
Q 384 513 384 1019 
Q 384 1609 779 1909 
Q 1175 2209 1959 2209 
L 2766 2209 
L 2766 2266 
Q 2766 2663 2505 2880 
Q 2244 3097 1772 3097 
Q 1472 3097 1187 3025 
Q 903 2953 641 2809 
L 641 3341 
Q 956 3463 1253 3523 
Q 1550 3584 1831 3584 
Q 2591 3584 2966 3190 
Q 3341 2797 3341 1997 
z
" id="DejaVuSans-61" transform="scale(0.015625)"/>
       <path d="M 3513 2113 
L 3513 0 
L 2938 0 
L 2938 2094 
Q 2938 2591 2744 2837 
Q 2550 3084 2163 3084 
Q 1697 3084 1428 2787 
Q 1159 2491 1159 1978 
L 1159 0 
L 581 0 
L 581 3500 
L 1159 3500 
L 1159 2956 
Q 1366 3272 1645 3428 
Q 1925 3584 2291 3584 
Q 2894 3584 3203 3211 
Q 3513 2838 3513 2113 
z
" id="DejaVuSans-6e" transform="scale(0.015625)"/>
       <path d="M 1172 4863 
L 1747 4863 
L 1606 4134 
L 1031 4134 
L 1172 4863 
z
M 909 3500 
L 1484 3500 
L 800 0 
L 225 0 
L 909 3500 
z
" id="DejaVuSans-Oblique-69" transform="scale(0.015625)"/>
      </defs>
      <use transform="translate(0 0.015625)" xlink:href="#DejaVuSans-4e"/>
      <use transform="translate(74.804688 0.015625)" xlink:href="#DejaVuSans-75"/>
      <use transform="translate(138.183594 0.015625)" xlink:href="#DejaVuSans-6d"/>
      <use transform="translate(235.595703 0.015625)" xlink:href="#DejaVuSans-62"/>
      <use transform="translate(299.072266 0.015625)" xlink:href="#DejaVuSans-65"/>
      <use transform="translate(360.595703 0.015625)" xlink:href="#DejaVuSans-72"/>
      <use transform="translate(401.708984 0.015625)" xlink:href="#DejaVuSans-20"/>
      <use transform="translate(433.496094 0.015625)" xlink:href="#DejaVuSans-6f"/>
      <use transform="translate(494.677734 0.015625)" xlink:href="#DejaVuSans-66"/>
      <use transform="translate(529.882812 0.015625)" xlink:href="#DejaVuSans-20"/>
      <use transform="translate(561.669922 0.015625)" xlink:href="#DejaVuSans-69"/>
      <use transform="translate(589.453125 0.015625)" xlink:href="#DejaVuSans-74"/>
      <use transform="translate(628.662109 0.015625)" xlink:href="#DejaVuSans-65"/>
      <use transform="translate(690.185547 0.015625)" xlink:href="#DejaVuSans-72"/>
      <use transform="translate(731.298828 0.015625)" xlink:href="#DejaVuSans-61"/>
      <use transform="translate(792.578125 0.015625)" xlink:href="#DejaVuSans-74"/>
      <use transform="translate(831.787109 0.015625)" xlink:href="#DejaVuSans-69"/>
      <use transform="translate(859.570312 0.015625)" xlink:href="#DejaVuSans-6f"/>
      <use transform="translate(920.751953 0.015625)" xlink:href="#DejaVuSans-6e"/>
      <use transform="translate(984.130859 0.015625)" xlink:href="#DejaVuSans-20"/>
      <use transform="translate(1015.917969 0.015625)" xlink:href="#DejaVuSans-Oblique-69"/>
     </g>
    </g>
   </g>
   <g id="matplotlib.axis_2">
    <g id="ytick_1">
     <g id="line2d_13">
      <path clip-path="url(#pd60ccebb53)" d="M 53.328125 288.496637 
L 306.964489 288.496637 
" style="fill:none;stroke:#b0b0b0;stroke-linecap:square;stroke-width:0.8;"/>
     </g>
     <g id="line2d_14">
      <defs>
       <path d="M 0 0 
L -3.5 0 
" id="m775de40783" style="stroke:#000000;stroke-width:0.8;"/>
      </defs>
      <g>
       <use style="stroke:#000000;stroke-width:0.8;" x="53.328125" xlink:href="#m775de40783" y="288.496637"/>
      </g>
     </g>
     <g id="text_8">
      <!-- 0 -->
      <g transform="translate(39.965625 292.295856)scale(0.1 -0.1)">
       <use xlink:href="#DejaVuSans-30"/>
      </g>
     </g>
    </g>
    <g id="ytick_2">
     <g id="line2d_15">
      <path clip-path="url(#pd60ccebb53)" d="M 53.328125 247.22096 
L 306.964489 247.22096 
" style="fill:none;stroke:#b0b0b0;stroke-linecap:square;stroke-width:0.8;"/>
     </g>
     <g id="line2d_16">
      <g>
       <use style="stroke:#000000;stroke-width:0.8;" x="53.328125" xlink:href="#m775de40783" y="247.22096"/>
      </g>
     </g>
     <g id="text_9">
      <!-- 200 -->
      <g transform="translate(27.240625 251.020179)scale(0.1 -0.1)">
       <use xlink:href="#DejaVuSans-32"/>
       <use x="63.623047" xlink:href="#DejaVuSans-30"/>
       <use x="127.246094" xlink:href="#DejaVuSans-30"/>
      </g>
     </g>
    </g>
    <g id="ytick_3">
     <g id="line2d_17">
      <path clip-path="url(#pd60ccebb53)" d="M 53.328125 205.945282 
L 306.964489 205.945282 
" style="fill:none;stroke:#b0b0b0;stroke-linecap:square;stroke-width:0.8;"/>
     </g>
     <g id="line2d_18">
      <g>
       <use style="stroke:#000000;stroke-width:0.8;" x="53.328125" xlink:href="#m775de40783" y="205.945282"/>
      </g>
     </g>
     <g id="text_10">
      <!-- 400 -->
      <g transform="translate(27.240625 209.744501)scale(0.1 -0.1)">
       <use xlink:href="#DejaVuSans-34"/>
       <use x="63.623047" xlink:href="#DejaVuSans-30"/>
       <use x="127.246094" xlink:href="#DejaVuSans-30"/>
      </g>
     </g>
    </g>
    <g id="ytick_4">
     <g id="line2d_19">
      <path clip-path="url(#pd60ccebb53)" d="M 53.328125 164.669605 
L 306.964489 164.669605 
" style="fill:none;stroke:#b0b0b0;stroke-linecap:square;stroke-width:0.8;"/>
     </g>
     <g id="line2d_20">
      <g>
       <use style="stroke:#000000;stroke-width:0.8;" x="53.328125" xlink:href="#m775de40783" y="164.669605"/>
      </g>
     </g>
     <g id="text_11">
      <!-- 600 -->
      <g transform="translate(27.240625 168.468824)scale(0.1 -0.1)">
       <use xlink:href="#DejaVuSans-36"/>
       <use x="63.623047" xlink:href="#DejaVuSans-30"/>
       <use x="127.246094" xlink:href="#DejaVuSans-30"/>
      </g>
     </g>
    </g>
    <g id="ytick_5">
     <g id="line2d_21">
      <path clip-path="url(#pd60ccebb53)" d="M 53.328125 123.393927 
L 306.964489 123.393927 
" style="fill:none;stroke:#b0b0b0;stroke-linecap:square;stroke-width:0.8;"/>
     </g>
     <g id="line2d_22">
      <g>
       <use style="stroke:#000000;stroke-width:0.8;" x="53.328125" xlink:href="#m775de40783" y="123.393927"/>
      </g>
     </g>
     <g id="text_12">
      <!-- 800 -->
      <g transform="translate(27.240625 127.193146)scale(0.1 -0.1)">
       <use xlink:href="#DejaVuSans-38"/>
       <use x="63.623047" xlink:href="#DejaVuSans-30"/>
       <use x="127.246094" xlink:href="#DejaVuSans-30"/>
      </g>
     </g>
    </g>
    <g id="ytick_6">
     <g id="line2d_23">
      <path clip-path="url(#pd60ccebb53)" d="M 53.328125 82.11825 
L 306.964489 82.11825 
" style="fill:none;stroke:#b0b0b0;stroke-linecap:square;stroke-width:0.8;"/>
     </g>
     <g id="line2d_24">
      <g>
       <use style="stroke:#000000;stroke-width:0.8;" x="53.328125" xlink:href="#m775de40783" y="82.11825"/>
      </g>
     </g>
     <g id="text_13">
      <!-- 1000 -->
      <g transform="translate(20.878125 85.917469)scale(0.1 -0.1)">
       <use xlink:href="#DejaVuSans-31"/>
       <use x="63.623047" xlink:href="#DejaVuSans-30"/>
       <use x="127.246094" xlink:href="#DejaVuSans-30"/>
       <use x="190.869141" xlink:href="#DejaVuSans-30"/>
      </g>
     </g>
    </g>
    <g id="text_14">
     <!-- $x_i$ -->
     <g transform="translate(14.798438 183.2)rotate(-90)scale(0.1 -0.1)">
      <defs>
       <path d="M 3841 3500 
L 2234 1784 
L 3219 0 
L 2559 0 
L 1819 1388 
L 531 0 
L -166 0 
L 1556 1844 
L 641 3500 
L 1300 3500 
L 1972 2234 
L 3144 3500 
L 3841 3500 
z
" id="DejaVuSans-Oblique-78" transform="scale(0.015625)"/>
      </defs>
      <use transform="translate(0 0.3125)" xlink:href="#DejaVuSans-Oblique-78"/>
      <use transform="translate(59.179688 -16.09375)scale(0.7)" xlink:href="#DejaVuSans-Oblique-69"/>
     </g>
    </g>
   </g>
   <g id="line2d_25">
    <path clip-path="url(#pd60ccebb53)" d="M 64.857051 82.11825 
L 67.209893 185.307547 
L 69.562735 236.902298 
L 71.915577 262.699881 
L 74.268418 275.599085 
L 76.62126 282.049512 
L 78.974102 285.276378 
L 81.326944 286.893121 
L 83.679786 287.70816 
L 86.032628 288.129408 
L 88.38547 288.371014 
L 90.738312 288.603348 
L 93.091154 288.350424 
L 95.443996 288.569181 
L 97.796838 288.239346 
L 100.14968 288.450762 
L 102.502522 288.937909 
L 104.855364 288.669012 
L 107.208206 288.45928 
L 109.561048 289.048024 
L 111.91389 288.733708 
L 114.266732 288.525343 
L 116.619574 287.76911 
L 118.972416 288.162145 
L 121.325258 288.393058 
L 123.6781 288.650449 
L 126.030942 288.435088 
L 128.383784 288.811859 
L 130.736626 288.586689 
L 133.089468 288.305177 
L 135.44231 288.512137 
L 137.795151 287.13039 
L 140.147993 287.829101 
L 142.500835 288.194771 
L 144.853677 288.416252 
L 147.206519 288.72137 
L 149.559361 288.514242 
L 151.912203 287.295763 
L 154.265045 287.913934 
L 156.617887 288.241833 
L 158.970729 288.452813 
L 161.323571 288.960662 
L 163.676413 288.682756 
L 166.029255 288.475275 
L 168.382097 289.482831 
L 170.734939 288.96814 
L 173.087781 288.687222 
L 175.440623 288.48019 
L 177.793465 289.783177 
L 180.146307 289.123355 
L 182.499149 288.776016 
L 184.851991 288.5601 
L 187.204833 288.192801 
L 189.557675 288.41481 
L 191.910517 288.715978 
L 194.263359 288.509216 
L 196.616201 286.809924 
L 198.969043 287.665906 
L 201.321884 288.106907 
L 203.674726 288.356415 
L 206.027568 288.5784 
L 208.38041 288.277056 
L 210.733252 288.483831 
L 213.086094 290.153193 
L 215.438936 289.31206 
L 217.791778 288.878232 
L 220.14462 288.631627 
L 222.497462 288.406371 
L 224.850304 288.687429 
L 227.203146 288.480414 
L 229.555988 289.801218 
L 231.90883 289.132604 
L 234.261672 288.781135 
L 236.614514 288.564031 
L 238.967356 288.21434 
L 241.320198 288.430927 
L 243.67304 288.787869 
L 246.025882 288.569129 
L 248.378724 288.239112 
L 250.731566 288.45057 
L 253.084408 288.935881 
L 255.43725 288.667776 
L 257.790092 288.457769 
L 260.142934 289.025103 
L 262.495776 288.720573 
L 264.848617 288.513506 
L 267.201459 287.242601 
L 269.554301 287.886601 
L 271.907143 288.226529 
L 274.259985 288.440425 
L 276.612827 288.847383 
L 278.965669 288.611294 
L 281.318511 288.368228 
L 283.671353 288.598278 
L 286.024195 288.337935 
L 288.377037 288.551475 
L 290.729879 288.135706 
L 293.082721 288.375174 
L 295.435563 288.611235 
" style="fill:none;stroke:#1f77b4;stroke-linecap:square;stroke-width:1.5;"/>
   </g>
   <g id="line2d_26">
    <path clip-path="url(#pd60ccebb53)" d="M 64.857051 185.307444 
L 67.209893 236.902247 
L 69.562735 262.699855 
L 71.915577 275.599072 
L 74.268418 282.049506 
L 76.62126 285.276375 
L 78.974102 286.893119 
L 81.326944 287.708159 
L 83.679786 288.129407 
L 86.032628 288.371013 
L 88.38547 288.603347 
L 90.738312 288.350423 
L 93.091154 288.569179 
L 95.443996 288.239337 
L 97.796838 288.450754 
L 100.14968 288.937833 
L 102.502522 288.668967 
L 104.855364 288.459224 
L 107.208206 289.047145 
L 109.561048 288.733207 
L 111.91389 288.524902 
L 114.266732 287.757312 
L 116.619574 288.15578 
L 118.972416 288.388686 
L 121.325258 288.639936 
L 123.6781 288.419674 
L 126.030942 288.73486 
L 128.383784 288.526353 
L 130.736626 287.794841 
L 133.089468 288.176084 
L 135.44231 288.402796 
L 137.795151 288.676654 
L 140.147993 288.468345 
L 142.500835 289.235199 
L 144.853677 288.837084 
L 147.206519 288.604307 
L 149.559361 288.352682 
L 151.912203 288.572595 
L 154.265045 288.254249 
L 156.617887 288.463302 
L 158.970729 289.118807 
L 161.323571 288.773494 
L 163.676413 288.558145 
L 166.029255 288.181155 
L 168.382097 288.4064 
L 170.734939 288.687517 
L 173.087781 288.480509 
L 175.440623 289.809015 
L 177.793465 289.136599 
L 180.146307 288.783341 
L 182.499149 288.565711 
L 184.851991 288.222863 
L 187.204833 288.437537 
L 189.557675 288.827421 
L 191.910517 288.597649 
L 194.263359 288.336315 
L 196.616201 288.549309 
L 198.969043 288.118653 
L 201.321884 288.363986 
L 203.674726 288.590853 
L 206.027568 288.317711 
L 208.38041 288.526195 
L 210.733252 287.790923 
L 213.086094 288.173957 
L 215.438936 288.401294 
L 217.791778 288.672328 
L 220.14462 288.463269 
L 222.497462 289.118167 
L 224.850304 288.773138 
L 227.203146 288.557868 
L 229.555988 288.179453 
L 231.90883 288.405186 
L 234.261672 288.683779 
L 236.614514 288.476411 
L 238.967356 289.539425 
L 241.320198 288.997609 
L 243.67304 288.704614 
L 246.025882 288.498229 
L 248.378724 275.120012 
L 250.731566 281.809917 
L 253.084408 285.156462 
L 255.43725 286.832925 
L 257.790092 287.677582 
L 260.142934 288.11311 
L 262.495776 288.360401 
L 264.848617 288.584835 
L 267.201459 288.299279 
L 269.554301 288.505863 
L 271.907143 286.192945 
L 274.259985 287.354036 
L 276.612827 287.943975 
L 278.965669 288.25884 
L 281.318511 288.467294 
L 283.671353 289.207707 
L 286.024195 288.822223 
L 288.377037 288.594022 
L 290.729879 288.32665 
L 293.082721 288.536923 
L 295.435563 287.988159 
" style="fill:none;stroke:#ff7f0e;stroke-linecap:square;stroke-width:1.5;"/>
   </g>
   <g id="line2d_27">
    <path clip-path="url(#pd60ccebb53)" d="M 64.857051 278.177718 
L 67.209893 283.339242 
L 69.562735 285.922069 
L 71.915577 287.217625 
L 74.268418 287.873781 
L 76.62126 288.2194 
L 78.974102 288.434834 
L 81.326944 288.810313 
L 83.679786 288.585583 
L 86.032628 288.301684 
L 88.38547 288.508397 
L 90.738312 286.691522 
L 93.091154 287.605877 
L 95.443996 288.075165 
L 97.796838 288.336429 
L 100.14968 288.54946 
L 102.502522 288.119888 
L 104.855364 288.364789 
L 107.208206 288.592231 
L 109.561048 288.321659 
L 111.91389 288.530854 
L 114.266732 287.891361 
L 116.619574 288.229183 
L 118.972416 288.442535 
L 121.325258 288.863212 
L 123.6781 288.62183 
L 126.030942 288.389127 
L 128.383784 288.640966 
L 130.736626 288.42125 
L 133.089468 288.741431 
L 135.44231 288.532039 
L 137.795151 287.912778 
L 140.147993 288.241182 
L 142.500835 288.452275 
L 144.853677 288.9545 
L 147.206519 288.679057 
L 149.559361 288.471105 
L 151.912203 289.317944 
L 154.265045 288.881361 
L 156.617887 288.633645 
L 158.970729 288.409705 
L 161.323571 288.698143 
L 163.676413 288.491706 
L 166.029255 292.812655 
L 168.382097 290.649712 
L 170.734939 289.563284 
L 173.087781 289.009995 
L 175.440623 288.711833 
L 177.793465 288.505274 
L 180.146307 286.035031 
L 182.499149 287.274485 
L 184.851991 287.902986 
L 187.204833 288.235685 
L 189.557675 288.44777 
L 191.910517 288.907995 
L 194.263359 288.650546 
L 196.616201 288.435224 
L 198.969043 288.812693 
L 201.321884 288.587284 
L 203.674726 288.307027 
L 206.027568 288.514147 
L 208.38041 287.289136 
L 210.733252 287.910523 
L 213.086094 288.239915 
L 215.438936 288.451229 
L 217.791778 288.942924 
L 220.14462 288.672063 
L 222.497462 288.462954 
L 224.850304 289.112028 
L 227.203146 288.769727 
L 229.555988 288.5552 
L 231.90883 288.162275 
L 234.261672 288.393148 
L 236.614514 288.650672 
L 238.967356 288.4354 
L 241.320198 288.81378 
L 243.67304 288.588059 
L 246.025882 288.309405 
L 248.378724 288.516762 
L 250.731566 287.448486 
L 253.084408 287.992879 
L 255.43725 288.287033 
L 257.790092 288.493436 
L 260.142934 295.146812 
L 262.495776 291.818523 
L 264.848617 290.151169 
L 267.201459 289.311032 
L 269.554301 288.877685 
L 271.907143 288.631273 
L 274.259985 288.40578 
L 276.612827 288.685599 
L 278.965669 288.478418 
L 281.318511 289.656401 
L 283.671353 289.058157 
L 286.024195 288.739472 
L 288.377037 288.530357 
L 290.729879 287.881928 
L 293.082721 288.223927 
L 295.435563 288.438372 
" style="fill:none;stroke:#2ca02c;stroke-linecap:square;stroke-width:1.5;"/>
   </g>
   <g id="line2d_28">
    <path clip-path="url(#pd60ccebb53)" d="M 64.857051 284.36907 
L 67.209893 286.438013 
L 69.562735 287.47767 
L 71.915577 288.008053 
L 74.268418 288.295933 
L 76.62126 288.502391 
L 78.974102 284.798265 
L 81.326944 286.653209 
L 83.679786 287.586476 
L 86.032628 288.064955 
L 88.38547 288.330129 
L 90.738312 288.54128 
L 93.091154 288.041928 
L 95.443996 288.316117 
L 97.796838 288.524347 
L 100.14968 287.741958 
L 102.502522 288.147516 
L 104.855364 288.383076 
L 107.208206 288.627385 
L 109.561048 288.399132 
L 111.91389 288.666294 
L 114.266732 288.455941 
L 116.619574 288.999577 
L 118.972416 288.705764 
L 121.325258 288.499368 
L 123.6781 280.698641 
L 126.030942 284.60037 
L 128.383784 286.553969 
L 130.736626 287.536266 
L 133.089468 288.038626 
L 135.44231 288.314129 
L 137.795151 288.522068 
L 140.147993 287.671931 
L 142.500835 288.110107 
L 144.853677 288.358468 
L 147.206519 288.581682 
L 149.559361 288.288748 
L 151.912203 288.495132 
L 154.265045 302.645455 
L 156.617887 295.569541 
L 158.970729 292.030078 
L 161.323571 290.257331 
L 163.676413 289.364889 
L 166.029255 288.906236 
L 168.382097 288.649444 
L 170.734939 288.433675 
L 173.087781 288.80339 
L 175.440623 288.58059 
L 177.793465 288.284945 
L 180.146307 288.49139 
L 182.499149 292.552342 
L 184.851991 290.519239 
L 187.204833 289.497409 
L 189.557675 288.975744 
L 191.910517 288.691741 
L 194.263359 288.485037 
L 196.616201 290.326617 
L 198.969043 289.39999 
L 201.321884 288.924739 
L 203.674726 288.660943 
L 206.027568 288.449178 
L 208.38041 288.921629 
L 210.733252 288.659024 
L 213.086094 288.446687 
L 215.438936 288.898005 
L 217.791778 288.644263 
L 220.14462 288.426193 
L 222.497462 288.763722 
L 224.850304 288.550445 
L 227.203146 288.127759 
L 229.555988 288.36993 
L 231.90883 288.601356 
L 234.261672 288.345633 
L 236.614514 288.562165 
L 238.967356 288.204406 
L 241.320198 288.423395 
L 243.67304 288.750778 
L 246.025882 288.539911 
L 248.378724 288.026151 
L 250.731566 288.306658 
L 253.084408 288.513745 
L 255.43725 287.260324 
L 257.790092 287.895706 
L 260.142934 288.23161 
L 262.495776 288.444478 
L 264.848617 288.878843 
L 267.201459 288.632022 
L 269.554301 288.407029 
L 271.907143 288.689489 
L 274.259985 288.482636 
L 276.612827 290.010637 
L 278.965669 289.239571 
L 281.318511 288.839439 
L 283.671353 288.605915 
L 286.024195 288.356396 
L 288.377037 288.57837 
L 290.729879 288.276945 
L 293.082721 288.483727 
L 295.435563 290.139731 
" style="fill:none;stroke:#d62728;stroke-linecap:square;stroke-width:1.5;"/>
   </g>
   <g id="line2d_29">
    <path clip-path="url(#pd60ccebb53)" d="M 64.857051 287.464746 
L 67.209893 288.001329 
L 69.562735 288.291979 
L 71.915577 288.498364 
L 74.268418 276.166608 
L 76.62126 282.33335 
L 78.974102 285.418449 
L 81.326944 286.964462 
L 83.679786 287.744449 
L 86.032628 288.148855 
L 88.38547 288.38398 
L 90.738312 288.629342 
L 93.091154 288.402513 
L 95.443996 288.67583 
L 97.796838 288.467389 
L 100.14968 289.210124 
L 102.502522 288.823533 
L 104.855364 288.594939 
L 107.208206 288.329148 
L 109.561048 288.540041 
L 111.91389 288.027693 
L 114.266732 288.307578 
L 116.619574 288.51475 
L 118.972416 287.329902 
L 121.325258 287.931523 
L 123.6781 288.251764 
L 126.030942 288.461168 
L 128.383784 289.079316 
L 130.736626 288.751428 
L 133.089468 288.54045 
L 135.44231 288.032478 
L 137.795151 288.310439 
L 140.147993 288.517911 
L 142.500835 287.506202 
L 144.853677 288.022922 
L 147.206519 288.304735 
L 149.559361 288.511659 
L 151.912203 287.086463 
L 154.265045 287.806652 
L 156.617887 288.182509 
L 158.970729 288.407367 
L 161.323571 288.690559 
L 163.676413 288.483781 
L 166.029255 290.146659 
L 168.382097 289.308742 
L 170.734939 288.876466 
L 173.087781 288.630485 
L 175.440623 288.404454 
L 177.793465 288.681563 
L 180.146307 288.473941 
L 182.499149 289.423568 
L 184.851991 288.937128 
L 187.204833 288.668537 
L 189.557675 288.4587 
L 191.910517 289.039019 
L 194.263359 288.728565 
L 196.616201 288.520779 
L 198.969043 287.626575 
L 201.321884 288.086083 
L 203.674726 288.343231 
L 206.027568 288.558756 
L 208.38041 288.184867 
L 210.733252 288.409059 
L 213.086094 288.696013 
L 215.438936 288.489512 
L 217.791778 291.481635 
L 220.14462 289.982002 
L 222.497462 289.224982 
L 224.850304 288.831571 
L 227.203146 288.600521 
L 229.555988 288.343581 
L 231.90883 288.559248 
L 234.261672 288.187807 
L 236.614514 288.411179 
L 238.967356 288.703107 
L 241.320198 288.496729 
L 243.67304 55.554545 
L 246.025882 172.025683 
L 248.378724 230.261343 
L 250.731566 259.379356 
L 253.084408 273.938728 
L 255.43725 281.219146 
L 257.790092 284.860818 
L 260.142934 286.684585 
L 262.495776 287.602364 
L 264.848617 288.073314 
L 267.201459 288.335283 
L 269.554301 288.547943 
L 271.907143 288.107205 
L 274.259985 288.356606 
L 276.612827 288.578701 
L 278.965669 288.278165 
L 281.318511 288.484878 
L 283.671353 290.301679 
L 286.024195 289.38736 
L 288.377037 288.91809 
L 290.729879 288.656834 
L 293.082721 288.443799 
L 295.435563 288.873255 
" style="fill:none;stroke:#9467bd;stroke-linecap:square;stroke-width:1.5;"/>
   </g>
   <g id="line2d_30">
    <path clip-path="url(#pd60ccebb53)" d="M 64.857051 288.290259 
" style="fill:none;stroke:#8c564b;stroke-linecap:square;stroke-width:1.5;"/>
   </g>
   <g id="line2d_31">
    <path clip-path="url(#pd60ccebb53)" d="M 64.857051 288.476 
L 67.209893 289.51821 
L 69.562735 288.986578 
L 71.915577 288.698141 
L 74.268418 288.491704 
L 76.62126 292.810506 
L 78.974102 290.648635 
L 81.326944 289.56274 
L 83.679786 289.009713 
L 86.032628 288.711669 
L 88.38547 288.505116 
L 90.738312 285.989224 
L 93.091154 287.251424 
L 95.443996 287.891133 
L 97.796838 288.229056 
L 100.14968 288.442434 
L 102.502522 288.862424 
L 104.855364 288.621311 
L 107.208206 288.38816 
L 109.561048 288.638717 
L 111.91389 288.417789 
L 114.266732 288.727301 
L 116.619574 288.519644 
L 118.972416 287.582503 
L 121.325258 288.062867 
L 123.6781 288.328847 
L 126.030942 288.539663 
L 128.383784 288.023184 
L 130.736626 288.304891 
L 133.089468 288.511828 
L 135.44231 287.102288 
L 137.795151 287.814736 
L 140.147993 288.186917 
L 142.500835 288.410536 
L 144.853677 288.700923 
L 147.206519 288.494534 
L 149.559361 298.619922 
L 151.912203 293.556176 
L 154.265045 291.022198 
L 156.617887 289.750985 
L 158.970729 289.106834 
L 161.323571 288.766835 
L 163.676413 288.55292 
L 166.029255 288.146401 
L 168.382097 288.382324 
L 170.734939 288.625776 
L 173.087781 288.396299 
L 175.440623 288.658709 
L 177.793465 288.446275 
L 180.146307 288.894309 
L 182.499149 288.641921 
L 184.851991 288.422697 
L 187.204833 288.747685 
L 189.557675 288.537332 
L 191.910517 287.993676 
L 194.263359 288.287498 
L 196.616201 288.493895 
L 198.969043 296.259454 
L 201.321884 292.375303 
L 203.674726 290.430479 
L 206.027568 289.452546 
L 208.38041 288.952313 
L 210.733252 288.67774 
L 213.086094 288.469598 
L 215.438936 289.270718 
L 217.791778 288.856167 
L 220.14462 288.617169 
L 222.497462 288.380219 
L 224.850304 288.621355 
L 227.203146 288.388241 
L 229.555988 288.638904 
L 231.90883 288.41808 
L 234.261672 288.728447 
L 236.614514 288.520674 
L 238.967356 287.62266 
L 241.320198 288.084015 
L 243.67304 288.341938 
L 246.025882 288.556948 
L 248.378724 288.173687 
L 250.731566 288.401104 
L 253.084408 288.671789 
L 255.43725 288.462627 
L 257.790092 289.105791 
L 260.142934 288.766254 
L 262.495776 288.55246 
L 264.848617 288.143051 
L 267.201459 288.380073 
L 269.554301 288.621052 
L 271.907143 288.387675 
L 274.259985 288.6376 
L 276.612827 288.416043 
L 278.965669 288.720579 
L 281.318511 288.513512 
L 283.671353 287.243036 
L 286.024195 287.886824 
L 288.377037 288.226653 
L 290.729879 288.440524 
L 293.082721 288.848098 
L 295.435563 288.611775 
" style="fill:none;stroke:#e377c2;stroke-linecap:square;stroke-width:1.5;"/>
   </g>
   <g id="line2d_32"/>
   <g id="patch_3">
    <path d="M 53.328125 315 
L 53.328125 43.2 
" style="fill:none;stroke:#000000;stroke-linecap:square;stroke-linejoin:miter;stroke-width:0.8;"/>
   </g>
   <g id="patch_4">
    <path d="M 306.964489 315 
L 306.964489 43.2 
" style="fill:none;stroke:#000000;stroke-linecap:square;stroke-linejoin:miter;stroke-width:0.8;"/>
   </g>
   <g id="patch_5">
    <path d="M 53.328125 315 
L 306.964489 315 
" style="fill:none;stroke:#000000;stroke-linecap:square;stroke-linejoin:miter;stroke-width:0.8;"/>
   </g>
   <g id="patch_6">
    <path d="M 53.328125 43.2 
L 306.964489 43.2 
" style="fill:none;stroke:#000000;stroke-linecap:square;stroke-linejoin:miter;stroke-width:0.8;"/>
   </g>
   <g id="legend_1">
    <g id="patch_7">
     <path d="M 135.146307 168.625 
L 225.146307 168.625 
Q 227.146307 168.625 227.146307 166.625 
L 227.146307 50.2 
Q 227.146307 48.2 225.146307 48.2 
L 135.146307 48.2 
Q 133.146307 48.2 133.146307 50.2 
L 133.146307 166.625 
Q 133.146307 168.625 135.146307 168.625 
z
" style="fill:#ffffff;opacity:0.8;stroke:#cccccc;stroke-linejoin:miter;"/>
    </g>
    <g id="line2d_33">
     <path d="M 137.146307 56.298437 
L 157.146307 56.298437 
" style="fill:none;stroke:#1f77b4;stroke-linecap:square;stroke-width:1.5;"/>
    </g>
    <g id="line2d_34"/>
    <g id="text_15">
     <!-- $x_0 = 1000.0$ -->
     <g transform="translate(165.146307 59.798437)scale(0.1 -0.1)">
      <defs>
       <path d="M 678 2906 
L 4684 2906 
L 4684 2381 
L 678 2381 
L 678 2906 
z
M 678 1631 
L 4684 1631 
L 4684 1100 
L 678 1100 
L 678 1631 
z
" id="DejaVuSans-3d" transform="scale(0.015625)"/>
       <path d="M 684 794 
L 1344 794 
L 1344 0 
L 684 0 
L 684 794 
z
" id="DejaVuSans-2e" transform="scale(0.015625)"/>
      </defs>
      <use transform="translate(0 0.78125)" xlink:href="#DejaVuSans-Oblique-78"/>
      <use transform="translate(59.179688 -15.625)scale(0.7)" xlink:href="#DejaVuSans-30"/>
      <use transform="translate(125.932617 0.78125)" xlink:href="#DejaVuSans-3d"/>
      <use transform="translate(229.204102 0.78125)" xlink:href="#DejaVuSans-31"/>
      <use transform="translate(292.827148 0.78125)" xlink:href="#DejaVuSans-30"/>
      <use transform="translate(356.450195 0.78125)" xlink:href="#DejaVuSans-30"/>
      <use transform="translate(420.073242 0.78125)" xlink:href="#DejaVuSans-30"/>
      <use transform="translate(483.696289 0.78125)" xlink:href="#DejaVuSans-2e"/>
      <use transform="translate(515.483398 0.78125)" xlink:href="#DejaVuSans-30"/>
     </g>
    </g>
    <g id="line2d_35">
     <path d="M 137.146307 70.976562 
L 157.146307 70.976562 
" style="fill:none;stroke:#ff7f0e;stroke-linecap:square;stroke-width:1.5;"/>
    </g>
    <g id="line2d_36"/>
    <g id="text_16">
     <!-- $x_0 = 500.0$ -->
     <g transform="translate(165.146307 74.476562)scale(0.1 -0.1)">
      <defs>
       <path d="M 691 4666 
L 3169 4666 
L 3169 4134 
L 1269 4134 
L 1269 2991 
Q 1406 3038 1543 3061 
Q 1681 3084 1819 3084 
Q 2600 3084 3056 2656 
Q 3513 2228 3513 1497 
Q 3513 744 3044 326 
Q 2575 -91 1722 -91 
Q 1428 -91 1123 -41 
Q 819 9 494 109 
L 494 744 
Q 775 591 1075 516 
Q 1375 441 1709 441 
Q 2250 441 2565 725 
Q 2881 1009 2881 1497 
Q 2881 1984 2565 2268 
Q 2250 2553 1709 2553 
Q 1456 2553 1204 2497 
Q 953 2441 691 2322 
L 691 4666 
z
" id="DejaVuSans-35" transform="scale(0.015625)"/>
      </defs>
      <use transform="translate(0 0.78125)" xlink:href="#DejaVuSans-Oblique-78"/>
      <use transform="translate(59.179688 -15.625)scale(0.7)" xlink:href="#DejaVuSans-30"/>
      <use transform="translate(125.932617 0.78125)" xlink:href="#DejaVuSans-3d"/>
      <use transform="translate(229.204102 0.78125)" xlink:href="#DejaVuSans-35"/>
      <use transform="translate(292.827148 0.78125)" xlink:href="#DejaVuSans-30"/>
      <use transform="translate(356.450195 0.78125)" xlink:href="#DejaVuSans-30"/>
      <use transform="translate(420.073242 0.78125)" xlink:href="#DejaVuSans-2e"/>
      <use transform="translate(451.860352 0.78125)" xlink:href="#DejaVuSans-30"/>
     </g>
    </g>
    <g id="line2d_37">
     <path d="M 137.146307 85.654687 
L 157.146307 85.654687 
" style="fill:none;stroke:#2ca02c;stroke-linecap:square;stroke-width:1.5;"/>
    </g>
    <g id="line2d_38"/>
    <g id="text_17">
     <!-- $x_0 = 50.0$ -->
     <g transform="translate(165.146307 89.154687)scale(0.1 -0.1)">
      <use transform="translate(0 0.78125)" xlink:href="#DejaVuSans-Oblique-78"/>
      <use transform="translate(59.179688 -15.625)scale(0.7)" xlink:href="#DejaVuSans-30"/>
      <use transform="translate(125.932617 0.78125)" xlink:href="#DejaVuSans-3d"/>
      <use transform="translate(229.204102 0.78125)" xlink:href="#DejaVuSans-35"/>
      <use transform="translate(292.827148 0.78125)" xlink:href="#DejaVuSans-30"/>
      <use transform="translate(356.450195 0.78125)" xlink:href="#DejaVuSans-2e"/>
      <use transform="translate(388.237305 0.78125)" xlink:href="#DejaVuSans-30"/>
     </g>
    </g>
    <g id="line2d_39">
     <path d="M 137.146307 100.332812 
L 157.146307 100.332812 
" style="fill:none;stroke:#d62728;stroke-linecap:square;stroke-width:1.5;"/>
    </g>
    <g id="line2d_40"/>
    <g id="text_18">
     <!-- $x_0 = 20.0$ -->
     <g transform="translate(165.146307 103.832812)scale(0.1 -0.1)">
      <use transform="translate(0 0.78125)" xlink:href="#DejaVuSans-Oblique-78"/>
      <use transform="translate(59.179688 -15.625)scale(0.7)" xlink:href="#DejaVuSans-30"/>
      <use transform="translate(125.932617 0.78125)" xlink:href="#DejaVuSans-3d"/>
      <use transform="translate(229.204102 0.78125)" xlink:href="#DejaVuSans-32"/>
      <use transform="translate(292.827148 0.78125)" xlink:href="#DejaVuSans-30"/>
      <use transform="translate(356.450195 0.78125)" xlink:href="#DejaVuSans-2e"/>
      <use transform="translate(388.237305 0.78125)" xlink:href="#DejaVuSans-30"/>
     </g>
    </g>
    <g id="line2d_41">
     <path d="M 137.146307 115.010937 
L 157.146307 115.010937 
" style="fill:none;stroke:#9467bd;stroke-linecap:square;stroke-width:1.5;"/>
    </g>
    <g id="line2d_42"/>
    <g id="text_19">
     <!-- $x_0 = 5.0$ -->
     <g transform="translate(165.146307 118.510937)scale(0.1 -0.1)">
      <use transform="translate(0 0.78125)" xlink:href="#DejaVuSans-Oblique-78"/>
      <use transform="translate(59.179688 -15.625)scale(0.7)" xlink:href="#DejaVuSans-30"/>
      <use transform="translate(125.932617 0.78125)" xlink:href="#DejaVuSans-3d"/>
      <use transform="translate(229.204102 0.78125)" xlink:href="#DejaVuSans-35"/>
      <use transform="translate(292.827148 0.78125)" xlink:href="#DejaVuSans-2e"/>
      <use transform="translate(324.614258 0.78125)" xlink:href="#DejaVuSans-30"/>
     </g>
    </g>
    <g id="line2d_43">
     <path d="M 137.146307 129.689062 
L 157.146307 129.689062 
" style="fill:none;stroke:#8c564b;stroke-linecap:square;stroke-width:1.5;"/>
    </g>
    <g id="line2d_44"/>
    <g id="text_20">
     <!-- $x_0 = 1.0$ -->
     <g transform="translate(165.146307 133.189062)scale(0.1 -0.1)">
      <use transform="translate(0 0.78125)" xlink:href="#DejaVuSans-Oblique-78"/>
      <use transform="translate(59.179688 -15.625)scale(0.7)" xlink:href="#DejaVuSans-30"/>
      <use transform="translate(125.932617 0.78125)" xlink:href="#DejaVuSans-3d"/>
      <use transform="translate(229.204102 0.78125)" xlink:href="#DejaVuSans-31"/>
      <use transform="translate(292.827148 0.78125)" xlink:href="#DejaVuSans-2e"/>
      <use transform="translate(324.614258 0.78125)" xlink:href="#DejaVuSans-30"/>
     </g>
    </g>
    <g id="line2d_45">
     <path d="M 137.146307 144.367187 
L 157.146307 144.367187 
" style="fill:none;stroke:#e377c2;stroke-linecap:square;stroke-width:1.5;"/>
    </g>
    <g id="line2d_46"/>
    <g id="text_21">
     <!-- $x_0 = 0.1$ -->
     <g transform="translate(165.146307 147.867187)scale(0.1 -0.1)">
      <use transform="translate(0 0.78125)" xlink:href="#DejaVuSans-Oblique-78"/>
      <use transform="translate(59.179688 -15.625)scale(0.7)" xlink:href="#DejaVuSans-30"/>
      <use transform="translate(125.932617 0.78125)" xlink:href="#DejaVuSans-3d"/>
      <use transform="translate(229.204102 0.78125)" xlink:href="#DejaVuSans-30"/>
      <use transform="translate(292.827148 0.78125)" xlink:href="#DejaVuSans-2e"/>
      <use transform="translate(324.614258 0.78125)" xlink:href="#DejaVuSans-31"/>
     </g>
    </g>
    <g id="line2d_47">
     <path d="M 137.146307 159.045312 
L 157.146307 159.045312 
" style="fill:none;stroke:#7f7f7f;stroke-linecap:square;stroke-width:1.5;"/>
    </g>
    <g id="line2d_48"/>
    <g id="text_22">
     <!-- $x_0 = -0.0$ -->
     <g transform="translate(165.146307 162.545312)scale(0.1 -0.1)">
      <defs>
       <path d="M 678 2272 
L 4684 2272 
L 4684 1741 
L 678 1741 
L 678 2272 
z
" id="DejaVuSans-2212" transform="scale(0.015625)"/>
      </defs>
      <use transform="translate(0 0.78125)" xlink:href="#DejaVuSans-Oblique-78"/>
      <use transform="translate(59.179688 -15.625)scale(0.7)" xlink:href="#DejaVuSans-30"/>
      <use transform="translate(125.932617 0.78125)" xlink:href="#DejaVuSans-3d"/>
      <use transform="translate(248.686523 0.78125)" xlink:href="#DejaVuSans-2212"/>
      <use transform="translate(351.958008 0.78125)" xlink:href="#DejaVuSans-30"/>
      <use transform="translate(415.581055 0.78125)" xlink:href="#DejaVuSans-2e"/>
      <use transform="translate(447.368164 0.78125)" xlink:href="#DejaVuSans-30"/>
     </g>
    </g>
   </g>
  </g>
  <g id="axes_2">
   <g id="patch_8">
    <path d="M 357.691761 315 
L 611.328125 315 
L 611.328125 43.2 
L 357.691761 43.2 
z
" style="fill:#ffffff;"/>
   </g>
   <g id="matplotlib.axis_3">
    <g id="xtick_7">
     <g id="line2d_49">
      <path clip-path="url(#pa8486887e8)" d="M 369.220687 315 
L 369.220687 43.2 
" style="fill:none;stroke:#b0b0b0;stroke-linecap:square;stroke-width:0.8;"/>
     </g>
     <g id="line2d_50">
      <g>
       <use style="stroke:#000000;stroke-width:0.8;" x="369.220687" xlink:href="#m23a59253fe" y="315"/>
      </g>
     </g>
     <g id="text_23">
      <!-- 0 -->
      <g transform="translate(366.039437 329.598437)scale(0.1 -0.1)">
       <use xlink:href="#DejaVuSans-30"/>
      </g>
     </g>
    </g>
    <g id="xtick_8">
     <g id="line2d_51">
      <path clip-path="url(#pa8486887e8)" d="M 426.865315 315 
L 426.865315 43.2 
" style="fill:none;stroke:#b0b0b0;stroke-linecap:square;stroke-width:0.8;"/>
     </g>
     <g id="line2d_52">
      <g>
       <use style="stroke:#000000;stroke-width:0.8;" x="426.865315" xlink:href="#m23a59253fe" y="315"/>
      </g>
     </g>
     <g id="text_24">
      <!-- 2 -->
      <g transform="translate(423.684065 329.598437)scale(0.1 -0.1)">
       <use xlink:href="#DejaVuSans-32"/>
      </g>
     </g>
    </g>
    <g id="xtick_9">
     <g id="line2d_53">
      <path clip-path="url(#pa8486887e8)" d="M 484.509943 315 
L 484.509943 43.2 
" style="fill:none;stroke:#b0b0b0;stroke-linecap:square;stroke-width:0.8;"/>
     </g>
     <g id="line2d_54">
      <g>
       <use style="stroke:#000000;stroke-width:0.8;" x="484.509943" xlink:href="#m23a59253fe" y="315"/>
      </g>
     </g>
     <g id="text_25">
      <!-- 4 -->
      <g transform="translate(481.328693 329.598437)scale(0.1 -0.1)">
       <use xlink:href="#DejaVuSans-34"/>
      </g>
     </g>
    </g>
    <g id="xtick_10">
     <g id="line2d_55">
      <path clip-path="url(#pa8486887e8)" d="M 542.154571 315 
L 542.154571 43.2 
" style="fill:none;stroke:#b0b0b0;stroke-linecap:square;stroke-width:0.8;"/>
     </g>
     <g id="line2d_56">
      <g>
       <use style="stroke:#000000;stroke-width:0.8;" x="542.154571" xlink:href="#m23a59253fe" y="315"/>
      </g>
     </g>
     <g id="text_26">
      <!-- 6 -->
      <g transform="translate(538.973321 329.598437)scale(0.1 -0.1)">
       <use xlink:href="#DejaVuSans-36"/>
      </g>
     </g>
    </g>
    <g id="xtick_11">
     <g id="line2d_57">
      <path clip-path="url(#pa8486887e8)" d="M 599.799199 315 
L 599.799199 43.2 
" style="fill:none;stroke:#b0b0b0;stroke-linecap:square;stroke-width:0.8;"/>
     </g>
     <g id="line2d_58">
      <g>
       <use style="stroke:#000000;stroke-width:0.8;" x="599.799199" xlink:href="#m23a59253fe" y="315"/>
      </g>
     </g>
     <g id="text_27">
      <!-- 8 -->
      <g transform="translate(596.617949 329.598437)scale(0.1 -0.1)">
       <use xlink:href="#DejaVuSans-38"/>
      </g>
     </g>
    </g>
    <g id="text_28">
     <!-- Number of iteration $i$ -->
     <g transform="translate(432.309943 343.276562)scale(0.1 -0.1)">
      <use transform="translate(0 0.015625)" xlink:href="#DejaVuSans-4e"/>
      <use transform="translate(74.804688 0.015625)" xlink:href="#DejaVuSans-75"/>
      <use transform="translate(138.183594 0.015625)" xlink:href="#DejaVuSans-6d"/>
      <use transform="translate(235.595703 0.015625)" xlink:href="#DejaVuSans-62"/>
      <use transform="translate(299.072266 0.015625)" xlink:href="#DejaVuSans-65"/>
      <use transform="translate(360.595703 0.015625)" xlink:href="#DejaVuSans-72"/>
      <use transform="translate(401.708984 0.015625)" xlink:href="#DejaVuSans-20"/>
      <use transform="translate(433.496094 0.015625)" xlink:href="#DejaVuSans-6f"/>
      <use transform="translate(494.677734 0.015625)" xlink:href="#DejaVuSans-66"/>
      <use transform="translate(529.882812 0.015625)" xlink:href="#DejaVuSans-20"/>
      <use transform="translate(561.669922 0.015625)" xlink:href="#DejaVuSans-69"/>
      <use transform="translate(589.453125 0.015625)" xlink:href="#DejaVuSans-74"/>
      <use transform="translate(628.662109 0.015625)" xlink:href="#DejaVuSans-65"/>
      <use transform="translate(690.185547 0.015625)" xlink:href="#DejaVuSans-72"/>
      <use transform="translate(731.298828 0.015625)" xlink:href="#DejaVuSans-61"/>
      <use transform="translate(792.578125 0.015625)" xlink:href="#DejaVuSans-74"/>
      <use transform="translate(831.787109 0.015625)" xlink:href="#DejaVuSans-69"/>
      <use transform="translate(859.570312 0.015625)" xlink:href="#DejaVuSans-6f"/>
      <use transform="translate(920.751953 0.015625)" xlink:href="#DejaVuSans-6e"/>
      <use transform="translate(984.130859 0.015625)" xlink:href="#DejaVuSans-20"/>
      <use transform="translate(1015.917969 0.015625)" xlink:href="#DejaVuSans-Oblique-69"/>
     </g>
    </g>
   </g>
   <g id="matplotlib.axis_4">
    <g id="ytick_7">
     <g id="line2d_59">
      <path clip-path="url(#pa8486887e8)" d="M 357.691761 269.417513 
L 611.328125 269.417513 
" style="fill:none;stroke:#b0b0b0;stroke-linecap:square;stroke-width:0.8;"/>
     </g>
     <g id="line2d_60">
      <g>
       <use style="stroke:#000000;stroke-width:0.8;" x="357.691761" xlink:href="#m775de40783" y="269.417513"/>
      </g>
     </g>
     <g id="text_29">
      <!-- $\mathdefault{10^{-1}}$ -->
      <g transform="translate(327.191761 273.216731)scale(0.1 -0.1)">
       <use transform="translate(0 0.684375)" xlink:href="#DejaVuSans-31"/>
       <use transform="translate(63.623047 0.684375)" xlink:href="#DejaVuSans-30"/>
       <use transform="translate(128.203125 38.965625)scale(0.7)" xlink:href="#DejaVuSans-2212"/>
       <use transform="translate(186.855469 38.965625)scale(0.7)" xlink:href="#DejaVuSans-31"/>
      </g>
     </g>
    </g>
    <g id="ytick_8">
     <g id="line2d_61">
      <path clip-path="url(#pa8486887e8)" d="M 357.691761 215.951771 
L 611.328125 215.951771 
" style="fill:none;stroke:#b0b0b0;stroke-linecap:square;stroke-width:0.8;"/>
     </g>
     <g id="line2d_62">
      <g>
       <use style="stroke:#000000;stroke-width:0.8;" x="357.691761" xlink:href="#m775de40783" y="215.951771"/>
      </g>
     </g>
     <g id="text_30">
      <!-- $\mathdefault{10^{0}}$ -->
      <g transform="translate(333.091761 219.75099)scale(0.1 -0.1)">
       <use transform="translate(0 0.765625)" xlink:href="#DejaVuSans-31"/>
       <use transform="translate(63.623047 0.765625)" xlink:href="#DejaVuSans-30"/>
       <use transform="translate(128.203125 39.046875)scale(0.7)" xlink:href="#DejaVuSans-30"/>
      </g>
     </g>
    </g>
    <g id="ytick_9">
     <g id="line2d_63">
      <path clip-path="url(#pa8486887e8)" d="M 357.691761 162.486029 
L 611.328125 162.486029 
" style="fill:none;stroke:#b0b0b0;stroke-linecap:square;stroke-width:0.8;"/>
     </g>
     <g id="line2d_64">
      <g>
       <use style="stroke:#000000;stroke-width:0.8;" x="357.691761" xlink:href="#m775de40783" y="162.486029"/>
      </g>
     </g>
     <g id="text_31">
      <!-- $\mathdefault{10^{1}}$ -->
      <g transform="translate(333.091761 166.285248)scale(0.1 -0.1)">
       <use transform="translate(0 0.684375)" xlink:href="#DejaVuSans-31"/>
       <use transform="translate(63.623047 0.684375)" xlink:href="#DejaVuSans-30"/>
       <use transform="translate(128.203125 38.965625)scale(0.7)" xlink:href="#DejaVuSans-31"/>
      </g>
     </g>
    </g>
    <g id="ytick_10">
     <g id="line2d_65">
      <path clip-path="url(#pa8486887e8)" d="M 357.691761 109.020287 
L 611.328125 109.020287 
" style="fill:none;stroke:#b0b0b0;stroke-linecap:square;stroke-width:0.8;"/>
     </g>
     <g id="line2d_66">
      <g>
       <use style="stroke:#000000;stroke-width:0.8;" x="357.691761" xlink:href="#m775de40783" y="109.020287"/>
      </g>
     </g>
     <g id="text_32">
      <!-- $\mathdefault{10^{2}}$ -->
      <g transform="translate(333.091761 112.819506)scale(0.1 -0.1)">
       <use transform="translate(0 0.765625)" xlink:href="#DejaVuSans-31"/>
       <use transform="translate(63.623047 0.765625)" xlink:href="#DejaVuSans-30"/>
       <use transform="translate(128.203125 39.046875)scale(0.7)" xlink:href="#DejaVuSans-32"/>
      </g>
     </g>
    </g>
    <g id="ytick_11">
     <g id="line2d_67">
      <path clip-path="url(#pa8486887e8)" d="M 357.691761 55.554545 
L 611.328125 55.554545 
" style="fill:none;stroke:#b0b0b0;stroke-linecap:square;stroke-width:0.8;"/>
     </g>
     <g id="line2d_68">
      <g>
       <use style="stroke:#000000;stroke-width:0.8;" x="357.691761" xlink:href="#m775de40783" y="55.554545"/>
      </g>
     </g>
     <g id="text_33">
      <!-- $\mathdefault{10^{3}}$ -->
      <g transform="translate(333.091761 59.353764)scale(0.1 -0.1)">
       <defs>
        <path d="M 2597 2516 
Q 3050 2419 3304 2112 
Q 3559 1806 3559 1356 
Q 3559 666 3084 287 
Q 2609 -91 1734 -91 
Q 1441 -91 1130 -33 
Q 819 25 488 141 
L 488 750 
Q 750 597 1062 519 
Q 1375 441 1716 441 
Q 2309 441 2620 675 
Q 2931 909 2931 1356 
Q 2931 1769 2642 2001 
Q 2353 2234 1838 2234 
L 1294 2234 
L 1294 2753 
L 1863 2753 
Q 2328 2753 2575 2939 
Q 2822 3125 2822 3475 
Q 2822 3834 2567 4026 
Q 2313 4219 1838 4219 
Q 1578 4219 1281 4162 
Q 984 4106 628 3988 
L 628 4550 
Q 988 4650 1302 4700 
Q 1616 4750 1894 4750 
Q 2613 4750 3031 4423 
Q 3450 4097 3450 3541 
Q 3450 3153 3228 2886 
Q 3006 2619 2597 2516 
z
" id="DejaVuSans-33" transform="scale(0.015625)"/>
       </defs>
       <use transform="translate(0 0.765625)" xlink:href="#DejaVuSans-31"/>
       <use transform="translate(63.623047 0.765625)" xlink:href="#DejaVuSans-30"/>
       <use transform="translate(128.203125 39.046875)scale(0.7)" xlink:href="#DejaVuSans-33"/>
      </g>
     </g>
    </g>
    <g id="ytick_12">
     <g id="line2d_69">
      <defs>
       <path d="M 0 0 
L -2 0 
" id="m18441b7021" style="stroke:#000000;stroke-width:0.6;"/>
      </defs>
      <g>
       <use style="stroke:#000000;stroke-width:0.6;" x="357.691761" xlink:href="#m18441b7021" y="306.788462"/>
      </g>
     </g>
    </g>
    <g id="ytick_13">
     <g id="line2d_70">
      <g>
       <use style="stroke:#000000;stroke-width:0.6;" x="357.691761" xlink:href="#m18441b7021" y="297.373613"/>
      </g>
     </g>
    </g>
    <g id="ytick_14">
     <g id="line2d_71">
      <g>
       <use style="stroke:#000000;stroke-width:0.6;" x="357.691761" xlink:href="#m18441b7021" y="290.69367"/>
      </g>
     </g>
    </g>
    <g id="ytick_15">
     <g id="line2d_72">
      <g>
       <use style="stroke:#000000;stroke-width:0.6;" x="357.691761" xlink:href="#m18441b7021" y="285.512305"/>
      </g>
     </g>
    </g>
    <g id="ytick_16">
     <g id="line2d_73">
      <g>
       <use style="stroke:#000000;stroke-width:0.6;" x="357.691761" xlink:href="#m18441b7021" y="281.278821"/>
      </g>
     </g>
    </g>
    <g id="ytick_17">
     <g id="line2d_74">
      <g>
       <use style="stroke:#000000;stroke-width:0.6;" x="357.691761" xlink:href="#m18441b7021" y="277.699461"/>
      </g>
     </g>
    </g>
    <g id="ytick_18">
     <g id="line2d_75">
      <g>
       <use style="stroke:#000000;stroke-width:0.6;" x="357.691761" xlink:href="#m18441b7021" y="274.598878"/>
      </g>
     </g>
    </g>
    <g id="ytick_19">
     <g id="line2d_76">
      <g>
       <use style="stroke:#000000;stroke-width:0.6;" x="357.691761" xlink:href="#m18441b7021" y="271.863971"/>
      </g>
     </g>
    </g>
    <g id="ytick_20">
     <g id="line2d_77">
      <g>
       <use style="stroke:#000000;stroke-width:0.6;" x="357.691761" xlink:href="#m18441b7021" y="253.322721"/>
      </g>
     </g>
    </g>
    <g id="ytick_21">
     <g id="line2d_78">
      <g>
       <use style="stroke:#000000;stroke-width:0.6;" x="357.691761" xlink:href="#m18441b7021" y="243.907871"/>
      </g>
     </g>
    </g>
    <g id="ytick_22">
     <g id="line2d_79">
      <g>
       <use style="stroke:#000000;stroke-width:0.6;" x="357.691761" xlink:href="#m18441b7021" y="237.227929"/>
      </g>
     </g>
    </g>
    <g id="ytick_23">
     <g id="line2d_80">
      <g>
       <use style="stroke:#000000;stroke-width:0.6;" x="357.691761" xlink:href="#m18441b7021" y="232.046563"/>
      </g>
     </g>
    </g>
    <g id="ytick_24">
     <g id="line2d_81">
      <g>
       <use style="stroke:#000000;stroke-width:0.6;" x="357.691761" xlink:href="#m18441b7021" y="227.813079"/>
      </g>
     </g>
    </g>
    <g id="ytick_25">
     <g id="line2d_82">
      <g>
       <use style="stroke:#000000;stroke-width:0.6;" x="357.691761" xlink:href="#m18441b7021" y="224.233719"/>
      </g>
     </g>
    </g>
    <g id="ytick_26">
     <g id="line2d_83">
      <g>
       <use style="stroke:#000000;stroke-width:0.6;" x="357.691761" xlink:href="#m18441b7021" y="221.133137"/>
      </g>
     </g>
    </g>
    <g id="ytick_27">
     <g id="line2d_84">
      <g>
       <use style="stroke:#000000;stroke-width:0.6;" x="357.691761" xlink:href="#m18441b7021" y="218.398229"/>
      </g>
     </g>
    </g>
    <g id="ytick_28">
     <g id="line2d_85">
      <g>
       <use style="stroke:#000000;stroke-width:0.6;" x="357.691761" xlink:href="#m18441b7021" y="199.856979"/>
      </g>
     </g>
    </g>
    <g id="ytick_29">
     <g id="line2d_86">
      <g>
       <use style="stroke:#000000;stroke-width:0.6;" x="357.691761" xlink:href="#m18441b7021" y="190.442129"/>
      </g>
     </g>
    </g>
    <g id="ytick_30">
     <g id="line2d_87">
      <g>
       <use style="stroke:#000000;stroke-width:0.6;" x="357.691761" xlink:href="#m18441b7021" y="183.762187"/>
      </g>
     </g>
    </g>
    <g id="ytick_31">
     <g id="line2d_88">
      <g>
       <use style="stroke:#000000;stroke-width:0.6;" x="357.691761" xlink:href="#m18441b7021" y="178.580821"/>
      </g>
     </g>
    </g>
    <g id="ytick_32">
     <g id="line2d_89">
      <g>
       <use style="stroke:#000000;stroke-width:0.6;" x="357.691761" xlink:href="#m18441b7021" y="174.347337"/>
      </g>
     </g>
    </g>
    <g id="ytick_33">
     <g id="line2d_90">
      <g>
       <use style="stroke:#000000;stroke-width:0.6;" x="357.691761" xlink:href="#m18441b7021" y="170.767977"/>
      </g>
     </g>
    </g>
    <g id="ytick_34">
     <g id="line2d_91">
      <g>
       <use style="stroke:#000000;stroke-width:0.6;" x="357.691761" xlink:href="#m18441b7021" y="167.667395"/>
      </g>
     </g>
    </g>
    <g id="ytick_35">
     <g id="line2d_92">
      <g>
       <use style="stroke:#000000;stroke-width:0.6;" x="357.691761" xlink:href="#m18441b7021" y="164.932487"/>
      </g>
     </g>
    </g>
    <g id="ytick_36">
     <g id="line2d_93">
      <g>
       <use style="stroke:#000000;stroke-width:0.6;" x="357.691761" xlink:href="#m18441b7021" y="146.391237"/>
      </g>
     </g>
    </g>
    <g id="ytick_37">
     <g id="line2d_94">
      <g>
       <use style="stroke:#000000;stroke-width:0.6;" x="357.691761" xlink:href="#m18441b7021" y="136.976387"/>
      </g>
     </g>
    </g>
    <g id="ytick_38">
     <g id="line2d_95">
      <g>
       <use style="stroke:#000000;stroke-width:0.6;" x="357.691761" xlink:href="#m18441b7021" y="130.296445"/>
      </g>
     </g>
    </g>
    <g id="ytick_39">
     <g id="line2d_96">
      <g>
       <use style="stroke:#000000;stroke-width:0.6;" x="357.691761" xlink:href="#m18441b7021" y="125.115079"/>
      </g>
     </g>
    </g>
    <g id="ytick_40">
     <g id="line2d_97">
      <g>
       <use style="stroke:#000000;stroke-width:0.6;" x="357.691761" xlink:href="#m18441b7021" y="120.881595"/>
      </g>
     </g>
    </g>
    <g id="ytick_41">
     <g id="line2d_98">
      <g>
       <use style="stroke:#000000;stroke-width:0.6;" x="357.691761" xlink:href="#m18441b7021" y="117.302235"/>
      </g>
     </g>
    </g>
    <g id="ytick_42">
     <g id="line2d_99">
      <g>
       <use style="stroke:#000000;stroke-width:0.6;" x="357.691761" xlink:href="#m18441b7021" y="114.201653"/>
      </g>
     </g>
    </g>
    <g id="ytick_43">
     <g id="line2d_100">
      <g>
       <use style="stroke:#000000;stroke-width:0.6;" x="357.691761" xlink:href="#m18441b7021" y="111.466745"/>
      </g>
     </g>
    </g>
    <g id="ytick_44">
     <g id="line2d_101">
      <g>
       <use style="stroke:#000000;stroke-width:0.6;" x="357.691761" xlink:href="#m18441b7021" y="92.925495"/>
      </g>
     </g>
    </g>
    <g id="ytick_45">
     <g id="line2d_102">
      <g>
       <use style="stroke:#000000;stroke-width:0.6;" x="357.691761" xlink:href="#m18441b7021" y="83.510645"/>
      </g>
     </g>
    </g>
    <g id="ytick_46">
     <g id="line2d_103">
      <g>
       <use style="stroke:#000000;stroke-width:0.6;" x="357.691761" xlink:href="#m18441b7021" y="76.830703"/>
      </g>
     </g>
    </g>
    <g id="ytick_47">
     <g id="line2d_104">
      <g>
       <use style="stroke:#000000;stroke-width:0.6;" x="357.691761" xlink:href="#m18441b7021" y="71.649337"/>
      </g>
     </g>
    </g>
    <g id="ytick_48">
     <g id="line2d_105">
      <g>
       <use style="stroke:#000000;stroke-width:0.6;" x="357.691761" xlink:href="#m18441b7021" y="67.415853"/>
      </g>
     </g>
    </g>
    <g id="ytick_49">
     <g id="line2d_106">
      <g>
       <use style="stroke:#000000;stroke-width:0.6;" x="357.691761" xlink:href="#m18441b7021" y="63.836494"/>
      </g>
     </g>
    </g>
    <g id="ytick_50">
     <g id="line2d_107">
      <g>
       <use style="stroke:#000000;stroke-width:0.6;" x="357.691761" xlink:href="#m18441b7021" y="60.735911"/>
      </g>
     </g>
    </g>
    <g id="ytick_51">
     <g id="line2d_108">
      <g>
       <use style="stroke:#000000;stroke-width:0.6;" x="357.691761" xlink:href="#m18441b7021" y="58.001004"/>
      </g>
     </g>
    </g>
    <g id="text_34">
     <!-- $x_i$ -->
     <g transform="translate(321.112074 183.2)rotate(-90)scale(0.1 -0.1)">
      <use transform="translate(0 0.3125)" xlink:href="#DejaVuSans-Oblique-78"/>
      <use transform="translate(59.179688 -16.09375)scale(0.7)" xlink:href="#DejaVuSans-Oblique-69"/>
     </g>
    </g>
   </g>
   <g id="line2d_109">
    <path clip-path="url(#pa8486887e8)" d="M 369.220687 55.554545 
L 398.043001 71.649361 
L 426.865315 87.744246 
L 455.687629 103.839409 
L 484.509943 119.935687 
L 513.332257 136.036425 
L 542.154571 152.155023 
L 570.976885 168.34538 
L 599.799199 184.828022 
" style="fill:none;stroke:#1f77b4;stroke-linecap:square;stroke-width:1.5;"/>
   </g>
   <g id="line2d_110">
    <path clip-path="url(#pa8486887e8)" d="M 369.220687 71.649337 
L 398.043001 87.744222 
L 426.865315 103.839386 
L 455.687629 119.935664 
L 484.509943 136.036402 
L 513.332257 152.155 
L 542.154571 168.345357 
L 570.976885 184.827998 
L 599.799199 202.570681 
" style="fill:none;stroke:#ff7f0e;stroke-linecap:square;stroke-width:1.5;"/>
   </g>
   <g id="line2d_111">
    <path clip-path="url(#pa8486887e8)" d="M 369.220687 125.115079 
L 398.043001 141.219161 
L 426.865315 157.351164 
L 455.687629 173.595642 
L 484.509943 190.303002 
L 513.332257 209.098153 
L 542.154571 243.949227 
L 542.213689 353.55625 
" style="fill:none;stroke:#2ca02c;stroke-linecap:square;stroke-width:1.5;"/>
   </g>
   <g id="line2d_112">
    <path clip-path="url(#pa8486887e8)" d="M 369.220687 146.391237 
L 398.043001 162.544151 
L 426.865315 178.873488 
L 455.687629 195.940874 
L 484.509943 216.599047 
L 484.583775 353.55625 
M 542.044405 353.55625 
L 542.154571 148.940673 
L 570.976885 165.107883 
L 599.799199 181.495543 
" style="fill:none;stroke:#d62728;stroke-linecap:square;stroke-width:1.5;"/>
   </g>
   <g id="line2d_113">
    <path clip-path="url(#pa8486887e8)" d="M 369.220687 178.580821 
L 398.043001 195.623495 
L 426.865315 216.146081 
L 426.93939 353.55625 
M 484.384789 353.55625 
L 484.509943 120.980579 
L 513.332257 137.081878 
L 542.154571 153.20272 
L 570.976885 169.402122 
L 599.799199 185.922063 
" style="fill:none;stroke:#9467bd;stroke-linecap:square;stroke-width:1.5;"/>
   </g>
   <g id="line2d_114">
    <path clip-path="url(#pa8486887e8)" d="M 369.220687 215.951771 
" style="fill:none;stroke:#8c564b;stroke-linecap:square;stroke-width:1.5;"/>
   </g>
   <g id="line2d_115">
    <path clip-path="url(#pa8486887e8)" d="M 369.220687 269.417513 
L 369.26609 353.55625 
M 484.482454 353.55625 
L 484.509943 302.645455 
L 484.537433 353.55625 
" style="fill:none;stroke:#e377c2;stroke-linecap:square;stroke-width:1.5;"/>
   </g>
   <g id="line2d_116"/>
   <g id="patch_9">
    <path d="M 357.691761 315 
L 357.691761 43.2 
" style="fill:none;stroke:#000000;stroke-linecap:square;stroke-linejoin:miter;stroke-width:0.8;"/>
   </g>
   <g id="patch_10">
    <path d="M 611.328125 315 
L 611.328125 43.2 
" style="fill:none;stroke:#000000;stroke-linecap:square;stroke-linejoin:miter;stroke-width:0.8;"/>
   </g>
   <g id="patch_11">
    <path d="M 357.691761 315 
L 611.328125 315 
" style="fill:none;stroke:#000000;stroke-linecap:square;stroke-linejoin:miter;stroke-width:0.8;"/>
   </g>
   <g id="patch_12">
    <path d="M 357.691761 43.2 
L 611.328125 43.2 
" style="fill:none;stroke:#000000;stroke-linecap:square;stroke-linejoin:miter;stroke-width:0.8;"/>
   </g>
   <g id="legend_2">
    <g id="patch_13">
     <path d="M 514.328125 310 
L 604.328125 310 
Q 606.328125 310 606.328125 308 
L 606.328125 191.575 
Q 606.328125 189.575 604.328125 189.575 
L 514.328125 189.575 
Q 512.328125 189.575 512.328125 191.575 
L 512.328125 308 
Q 512.328125 310 514.328125 310 
z
" style="fill:#ffffff;opacity:0.8;stroke:#cccccc;stroke-linejoin:miter;"/>
    </g>
    <g id="line2d_117">
     <path d="M 516.328125 197.673437 
L 536.328125 197.673437 
" style="fill:none;stroke:#1f77b4;stroke-linecap:square;stroke-width:1.5;"/>
    </g>
    <g id="line2d_118"/>
    <g id="text_35">
     <!-- $x_0 = 1000.0$ -->
     <g transform="translate(544.328125 201.173437)scale(0.1 -0.1)">
      <use transform="translate(0 0.78125)" xlink:href="#DejaVuSans-Oblique-78"/>
      <use transform="translate(59.179688 -15.625)scale(0.7)" xlink:href="#DejaVuSans-30"/>
      <use transform="translate(125.932617 0.78125)" xlink:href="#DejaVuSans-3d"/>
      <use transform="translate(229.204102 0.78125)" xlink:href="#DejaVuSans-31"/>
      <use transform="translate(292.827148 0.78125)" xlink:href="#DejaVuSans-30"/>
      <use transform="translate(356.450195 0.78125)" xlink:href="#DejaVuSans-30"/>
      <use transform="translate(420.073242 0.78125)" xlink:href="#DejaVuSans-30"/>
      <use transform="translate(483.696289 0.78125)" xlink:href="#DejaVuSans-2e"/>
      <use transform="translate(515.483398 0.78125)" xlink:href="#DejaVuSans-30"/>
     </g>
    </g>
    <g id="line2d_119">
     <path d="M 516.328125 212.351562 
L 536.328125 212.351562 
" style="fill:none;stroke:#ff7f0e;stroke-linecap:square;stroke-width:1.5;"/>
    </g>
    <g id="line2d_120"/>
    <g id="text_36">
     <!-- $x_0 = 500.0$ -->
     <g transform="translate(544.328125 215.851562)scale(0.1 -0.1)">
      <use transform="translate(0 0.78125)" xlink:href="#DejaVuSans-Oblique-78"/>
      <use transform="translate(59.179688 -15.625)scale(0.7)" xlink:href="#DejaVuSans-30"/>
      <use transform="translate(125.932617 0.78125)" xlink:href="#DejaVuSans-3d"/>
      <use transform="translate(229.204102 0.78125)" xlink:href="#DejaVuSans-35"/>
      <use transform="translate(292.827148 0.78125)" xlink:href="#DejaVuSans-30"/>
      <use transform="translate(356.450195 0.78125)" xlink:href="#DejaVuSans-30"/>
      <use transform="translate(420.073242 0.78125)" xlink:href="#DejaVuSans-2e"/>
      <use transform="translate(451.860352 0.78125)" xlink:href="#DejaVuSans-30"/>
     </g>
    </g>
    <g id="line2d_121">
     <path d="M 516.328125 227.029687 
L 536.328125 227.029687 
" style="fill:none;stroke:#2ca02c;stroke-linecap:square;stroke-width:1.5;"/>
    </g>
    <g id="line2d_122"/>
    <g id="text_37">
     <!-- $x_0 = 50.0$ -->
     <g transform="translate(544.328125 230.529687)scale(0.1 -0.1)">
      <use transform="translate(0 0.78125)" xlink:href="#DejaVuSans-Oblique-78"/>
      <use transform="translate(59.179688 -15.625)scale(0.7)" xlink:href="#DejaVuSans-30"/>
      <use transform="translate(125.932617 0.78125)" xlink:href="#DejaVuSans-3d"/>
      <use transform="translate(229.204102 0.78125)" xlink:href="#DejaVuSans-35"/>
      <use transform="translate(292.827148 0.78125)" xlink:href="#DejaVuSans-30"/>
      <use transform="translate(356.450195 0.78125)" xlink:href="#DejaVuSans-2e"/>
      <use transform="translate(388.237305 0.78125)" xlink:href="#DejaVuSans-30"/>
     </g>
    </g>
    <g id="line2d_123">
     <path d="M 516.328125 241.707812 
L 536.328125 241.707812 
" style="fill:none;stroke:#d62728;stroke-linecap:square;stroke-width:1.5;"/>
    </g>
    <g id="line2d_124"/>
    <g id="text_38">
     <!-- $x_0 = 20.0$ -->
     <g transform="translate(544.328125 245.207812)scale(0.1 -0.1)">
      <use transform="translate(0 0.78125)" xlink:href="#DejaVuSans-Oblique-78"/>
      <use transform="translate(59.179688 -15.625)scale(0.7)" xlink:href="#DejaVuSans-30"/>
      <use transform="translate(125.932617 0.78125)" xlink:href="#DejaVuSans-3d"/>
      <use transform="translate(229.204102 0.78125)" xlink:href="#DejaVuSans-32"/>
      <use transform="translate(292.827148 0.78125)" xlink:href="#DejaVuSans-30"/>
      <use transform="translate(356.450195 0.78125)" xlink:href="#DejaVuSans-2e"/>
      <use transform="translate(388.237305 0.78125)" xlink:href="#DejaVuSans-30"/>
     </g>
    </g>
    <g id="line2d_125">
     <path d="M 516.328125 256.385937 
L 536.328125 256.385937 
" style="fill:none;stroke:#9467bd;stroke-linecap:square;stroke-width:1.5;"/>
    </g>
    <g id="line2d_126"/>
    <g id="text_39">
     <!-- $x_0 = 5.0$ -->
     <g transform="translate(544.328125 259.885937)scale(0.1 -0.1)">
      <use transform="translate(0 0.78125)" xlink:href="#DejaVuSans-Oblique-78"/>
      <use transform="translate(59.179688 -15.625)scale(0.7)" xlink:href="#DejaVuSans-30"/>
      <use transform="translate(125.932617 0.78125)" xlink:href="#DejaVuSans-3d"/>
      <use transform="translate(229.204102 0.78125)" xlink:href="#DejaVuSans-35"/>
      <use transform="translate(292.827148 0.78125)" xlink:href="#DejaVuSans-2e"/>
      <use transform="translate(324.614258 0.78125)" xlink:href="#DejaVuSans-30"/>
     </g>
    </g>
    <g id="line2d_127">
     <path d="M 516.328125 271.064062 
L 536.328125 271.064062 
" style="fill:none;stroke:#8c564b;stroke-linecap:square;stroke-width:1.5;"/>
    </g>
    <g id="line2d_128"/>
    <g id="text_40">
     <!-- $x_0 = 1.0$ -->
     <g transform="translate(544.328125 274.564062)scale(0.1 -0.1)">
      <use transform="translate(0 0.78125)" xlink:href="#DejaVuSans-Oblique-78"/>
      <use transform="translate(59.179688 -15.625)scale(0.7)" xlink:href="#DejaVuSans-30"/>
      <use transform="translate(125.932617 0.78125)" xlink:href="#DejaVuSans-3d"/>
      <use transform="translate(229.204102 0.78125)" xlink:href="#DejaVuSans-31"/>
      <use transform="translate(292.827148 0.78125)" xlink:href="#DejaVuSans-2e"/>
      <use transform="translate(324.614258 0.78125)" xlink:href="#DejaVuSans-30"/>
     </g>
    </g>
    <g id="line2d_129">
     <path d="M 516.328125 285.742187 
L 536.328125 285.742187 
" style="fill:none;stroke:#e377c2;stroke-linecap:square;stroke-width:1.5;"/>
    </g>
    <g id="line2d_130"/>
    <g id="text_41">
     <!-- $x_0 = 0.1$ -->
     <g transform="translate(544.328125 289.242187)scale(0.1 -0.1)">
      <use transform="translate(0 0.78125)" xlink:href="#DejaVuSans-Oblique-78"/>
      <use transform="translate(59.179688 -15.625)scale(0.7)" xlink:href="#DejaVuSans-30"/>
      <use transform="translate(125.932617 0.78125)" xlink:href="#DejaVuSans-3d"/>
      <use transform="translate(229.204102 0.78125)" xlink:href="#DejaVuSans-30"/>
      <use transform="translate(292.827148 0.78125)" xlink:href="#DejaVuSans-2e"/>
      <use transform="translate(324.614258 0.78125)" xlink:href="#DejaVuSans-31"/>
     </g>
    </g>
    <g id="line2d_131">
     <path d="M 516.328125 300.420312 
L 536.328125 300.420312 
" style="fill:none;stroke:#7f7f7f;stroke-linecap:square;stroke-width:1.5;"/>
    </g>
    <g id="line2d_132"/>
    <g id="text_42">
     <!-- $x_0 = -0.0$ -->
     <g transform="translate(544.328125 303.920312)scale(0.1 -0.1)">
      <use transform="translate(0 0.78125)" xlink:href="#DejaVuSans-Oblique-78"/>
      <use transform="translate(59.179688 -15.625)scale(0.7)" xlink:href="#DejaVuSans-30"/>
      <use transform="translate(125.932617 0.78125)" xlink:href="#DejaVuSans-3d"/>
      <use transform="translate(248.686523 0.78125)" xlink:href="#DejaVuSans-2212"/>
      <use transform="translate(351.958008 0.78125)" xlink:href="#DejaVuSans-30"/>
      <use transform="translate(415.581055 0.78125)" xlink:href="#DejaVuSans-2e"/>
      <use transform="translate(447.368164 0.78125)" xlink:href="#DejaVuSans-30"/>
     </g>
    </g>
   </g>
  </g>
  <g id="text_43">
   <!-- Behaviour of the iterations wrt different $x_0$ -->
   <g transform="translate(195.468125 16.318125)scale(0.12 -0.12)">
    <defs>
     <path d="M 1259 2228 
L 1259 519 
L 2272 519 
Q 2781 519 3026 730 
Q 3272 941 3272 1375 
Q 3272 1813 3026 2020 
Q 2781 2228 2272 2228 
L 1259 2228 
z
M 1259 4147 
L 1259 2741 
L 2194 2741 
Q 2656 2741 2882 2914 
Q 3109 3088 3109 3444 
Q 3109 3797 2882 3972 
Q 2656 4147 2194 4147 
L 1259 4147 
z
M 628 4666 
L 2241 4666 
Q 2963 4666 3353 4366 
Q 3744 4066 3744 3513 
Q 3744 3084 3544 2831 
Q 3344 2578 2956 2516 
Q 3422 2416 3680 2098 
Q 3938 1781 3938 1306 
Q 3938 681 3513 340 
Q 3088 0 2303 0 
L 628 0 
L 628 4666 
z
" id="DejaVuSans-42" transform="scale(0.015625)"/>
     <path d="M 3513 2113 
L 3513 0 
L 2938 0 
L 2938 2094 
Q 2938 2591 2744 2837 
Q 2550 3084 2163 3084 
Q 1697 3084 1428 2787 
Q 1159 2491 1159 1978 
L 1159 0 
L 581 0 
L 581 4863 
L 1159 4863 
L 1159 2956 
Q 1366 3272 1645 3428 
Q 1925 3584 2291 3584 
Q 2894 3584 3203 3211 
Q 3513 2838 3513 2113 
z
" id="DejaVuSans-68" transform="scale(0.015625)"/>
     <path d="M 191 3500 
L 800 3500 
L 1894 563 
L 2988 3500 
L 3597 3500 
L 2284 0 
L 1503 0 
L 191 3500 
z
" id="DejaVuSans-76" transform="scale(0.015625)"/>
     <path d="M 2834 3397 
L 2834 2853 
Q 2591 2978 2328 3040 
Q 2066 3103 1784 3103 
Q 1356 3103 1142 2972 
Q 928 2841 928 2578 
Q 928 2378 1081 2264 
Q 1234 2150 1697 2047 
L 1894 2003 
Q 2506 1872 2764 1633 
Q 3022 1394 3022 966 
Q 3022 478 2636 193 
Q 2250 -91 1575 -91 
Q 1294 -91 989 -36 
Q 684 19 347 128 
L 347 722 
Q 666 556 975 473 
Q 1284 391 1588 391 
Q 1994 391 2212 530 
Q 2431 669 2431 922 
Q 2431 1156 2273 1281 
Q 2116 1406 1581 1522 
L 1381 1569 
Q 847 1681 609 1914 
Q 372 2147 372 2553 
Q 372 3047 722 3315 
Q 1072 3584 1716 3584 
Q 2034 3584 2315 3537 
Q 2597 3491 2834 3397 
z
" id="DejaVuSans-73" transform="scale(0.015625)"/>
     <path d="M 269 3500 
L 844 3500 
L 1563 769 
L 2278 3500 
L 2956 3500 
L 3675 769 
L 4391 3500 
L 4966 3500 
L 4050 0 
L 3372 0 
L 2619 2869 
L 1863 0 
L 1184 0 
L 269 3500 
z
" id="DejaVuSans-77" transform="scale(0.015625)"/>
     <path d="M 2906 2969 
L 2906 4863 
L 3481 4863 
L 3481 0 
L 2906 0 
L 2906 525 
Q 2725 213 2448 61 
Q 2172 -91 1784 -91 
Q 1150 -91 751 415 
Q 353 922 353 1747 
Q 353 2572 751 3078 
Q 1150 3584 1784 3584 
Q 2172 3584 2448 3432 
Q 2725 3281 2906 2969 
z
M 947 1747 
Q 947 1113 1208 752 
Q 1469 391 1925 391 
Q 2381 391 2643 752 
Q 2906 1113 2906 1747 
Q 2906 2381 2643 2742 
Q 2381 3103 1925 3103 
Q 1469 3103 1208 2742 
Q 947 2381 947 1747 
z
" id="DejaVuSans-64" transform="scale(0.015625)"/>
    </defs>
    <use transform="translate(0 0.015625)" xlink:href="#DejaVuSans-42"/>
    <use transform="translate(68.603516 0.015625)" xlink:href="#DejaVuSans-65"/>
    <use transform="translate(130.126953 0.015625)" xlink:href="#DejaVuSans-68"/>
    <use transform="translate(193.505859 0.015625)" xlink:href="#DejaVuSans-61"/>
    <use transform="translate(254.785156 0.015625)" xlink:href="#DejaVuSans-76"/>
    <use transform="translate(313.964844 0.015625)" xlink:href="#DejaVuSans-69"/>
    <use transform="translate(341.748047 0.015625)" xlink:href="#DejaVuSans-6f"/>
    <use transform="translate(402.929688 0.015625)" xlink:href="#DejaVuSans-75"/>
    <use transform="translate(466.308594 0.015625)" xlink:href="#DejaVuSans-72"/>
    <use transform="translate(507.421875 0.015625)" xlink:href="#DejaVuSans-20"/>
    <use transform="translate(539.208984 0.015625)" xlink:href="#DejaVuSans-6f"/>
    <use transform="translate(600.390625 0.015625)" xlink:href="#DejaVuSans-66"/>
    <use transform="translate(635.595703 0.015625)" xlink:href="#DejaVuSans-20"/>
    <use transform="translate(667.382812 0.015625)" xlink:href="#DejaVuSans-74"/>
    <use transform="translate(706.591797 0.015625)" xlink:href="#DejaVuSans-68"/>
    <use transform="translate(769.970703 0.015625)" xlink:href="#DejaVuSans-65"/>
    <use transform="translate(831.494141 0.015625)" xlink:href="#DejaVuSans-20"/>
    <use transform="translate(863.28125 0.015625)" xlink:href="#DejaVuSans-69"/>
    <use transform="translate(891.064453 0.015625)" xlink:href="#DejaVuSans-74"/>
    <use transform="translate(930.273438 0.015625)" xlink:href="#DejaVuSans-65"/>
    <use transform="translate(991.796875 0.015625)" xlink:href="#DejaVuSans-72"/>
    <use transform="translate(1032.910156 0.015625)" xlink:href="#DejaVuSans-61"/>
    <use transform="translate(1094.189453 0.015625)" xlink:href="#DejaVuSans-74"/>
    <use transform="translate(1133.398438 0.015625)" xlink:href="#DejaVuSans-69"/>
    <use transform="translate(1161.181641 0.015625)" xlink:href="#DejaVuSans-6f"/>
    <use transform="translate(1222.363281 0.015625)" xlink:href="#DejaVuSans-6e"/>
    <use transform="translate(1285.742188 0.015625)" xlink:href="#DejaVuSans-73"/>
    <use transform="translate(1337.841797 0.015625)" xlink:href="#DejaVuSans-20"/>
    <use transform="translate(1369.628906 0.015625)" xlink:href="#DejaVuSans-77"/>
    <use transform="translate(1451.416016 0.015625)" xlink:href="#DejaVuSans-72"/>
    <use transform="translate(1492.529297 0.015625)" xlink:href="#DejaVuSans-74"/>
    <use transform="translate(1531.738281 0.015625)" xlink:href="#DejaVuSans-20"/>
    <use transform="translate(1563.525391 0.015625)" xlink:href="#DejaVuSans-64"/>
    <use transform="translate(1627.001953 0.015625)" xlink:href="#DejaVuSans-69"/>
    <use transform="translate(1654.785156 0.015625)" xlink:href="#DejaVuSans-66"/>
    <use transform="translate(1689.990234 0.015625)" xlink:href="#DejaVuSans-66"/>
    <use transform="translate(1725.195312 0.015625)" xlink:href="#DejaVuSans-65"/>
    <use transform="translate(1786.71875 0.015625)" xlink:href="#DejaVuSans-72"/>
    <use transform="translate(1827.832031 0.015625)" xlink:href="#DejaVuSans-65"/>
    <use transform="translate(1889.355469 0.015625)" xlink:href="#DejaVuSans-6e"/>
    <use transform="translate(1952.734375 0.015625)" xlink:href="#DejaVuSans-74"/>
    <use transform="translate(1991.943359 0.015625)" xlink:href="#DejaVuSans-20"/>
    <use transform="translate(2023.730469 0.015625)" xlink:href="#DejaVuSans-Oblique-78"/>
    <use transform="translate(2082.910156 -16.390625)scale(0.7)" xlink:href="#DejaVuSans-30"/>
   </g>
  </g>
 </g>
 <defs>
  <clipPath id="pd60ccebb53">
   <rect height="271.8" width="253.636364" x="53.328125" y="43.2"/>
  </clipPath>
  <clipPath id="pa8486887e8">
   <rect height="271.8" width="253.636364" x="357.691761" y="43.2"/>
  </clipPath>
 </defs>
</svg>
