<?xml version="1.0" encoding="utf-8" standalone="no"?>
<!DOCTYPE svg PUBLIC "-//W3C//DTD SVG 1.1//EN"
  "http://www.w3.org/Graphics/SVG/1.1/DTD/svg11.dtd">
<svg height="246.958125pt" version="1.1" viewBox="0 0 374.759943 246.958125" width="374.759943pt" xmlns="http://www.w3.org/2000/svg" xmlns:xlink="http://www.w3.org/1999/xlink">
 <metadata>
  <rdf:RDF xmlns:cc="http://creativecommons.org/ns#" xmlns:dc="http://purl.org/dc/elements/1.1/" xmlns:rdf="http://www.w3.org/1999/02/22-rdf-syntax-ns#">
   <cc:Work>
    <dc:type rdf:resource="http://purl.org/dc/dcmitype/StillImage"/>
    <dc:date>2021-10-23T22:18:09.672841</dc:date>
    <dc:format>image/svg+xml</dc:format>
    <dc:creator>
     <cc:Agent>
      <dc:title>Matplotlib v3.4.3, https://matplotlib.org/</dc:title>
     </cc:Agent>
    </dc:creator>
   </cc:Work>
  </rdf:RDF>
 </metadata>
 <defs>
  <style type="text/css">*{stroke-linecap:butt;stroke-linejoin:round;}</style>
 </defs>
 <g id="figure_1">
  <g id="patch_1">
   <path d="M 0 246.958125 
L 374.759943 246.958125 
L 374.759943 0 
L 0 0 
z
" style="fill:none;"/>
  </g>
  <g id="axes_1">
   <g id="patch_2">
    <path d="M 32.759943 239.758125 
L 367.559943 239.758125 
L 367.559943 22.318125 
L 32.759943 22.318125 
z
" style="fill:#ffffff;"/>
   </g>
   <g id="matplotlib.axis_1">
    <g id="xtick_1">
     <g id="line2d_1">
      <defs>
       <path d="M 0 0 
L 0 3.5 
" id="m1eb328b8fb" style="stroke:#000000;stroke-width:0.8;"/>
      </defs>
      <g>
       <use style="stroke:#000000;stroke-width:0.8;" x="47.978125" xlink:href="#m1eb328b8fb" y="131.038125"/>
      </g>
     </g>
     <g id="text_1">
      <!-- $0$ -->
      <g transform="translate(44.778125 145.636563)scale(0.1 -0.1)">
       <defs>
        <path d="M 2034 4250 
Q 1547 4250 1301 3770 
Q 1056 3291 1056 2328 
Q 1056 1369 1301 889 
Q 1547 409 2034 409 
Q 2525 409 2770 889 
Q 3016 1369 3016 2328 
Q 3016 3291 2770 3770 
Q 2525 4250 2034 4250 
z
M 2034 4750 
Q 2819 4750 3233 4129 
Q 3647 3509 3647 2328 
Q 3647 1150 3233 529 
Q 2819 -91 2034 -91 
Q 1250 -91 836 529 
Q 422 1150 422 2328 
Q 422 3509 836 4129 
Q 1250 4750 2034 4750 
z
" id="DejaVuSans-30" transform="scale(0.015625)"/>
       </defs>
       <use transform="translate(0 0.78125)" xlink:href="#DejaVuSans-30"/>
      </g>
     </g>
    </g>
    <g id="xtick_2">
     <g id="line2d_2">
      <g>
       <use style="stroke:#000000;stroke-width:0.8;" x="169.72358" xlink:href="#m1eb328b8fb" y="131.038125"/>
      </g>
     </g>
     <g id="text_2">
      <!-- $\frac{2}{5}l$ -->
      <g transform="translate(165.47358 147.638125)scale(0.1 -0.1)">
       <defs>
        <path d="M 1228 531 
L 3431 531 
L 3431 0 
L 469 0 
L 469 531 
Q 828 903 1448 1529 
Q 2069 2156 2228 2338 
Q 2531 2678 2651 2914 
Q 2772 3150 2772 3378 
Q 2772 3750 2511 3984 
Q 2250 4219 1831 4219 
Q 1534 4219 1204 4116 
Q 875 4013 500 3803 
L 500 4441 
Q 881 4594 1212 4672 
Q 1544 4750 1819 4750 
Q 2544 4750 2975 4387 
Q 3406 4025 3406 3419 
Q 3406 3131 3298 2873 
Q 3191 2616 2906 2266 
Q 2828 2175 2409 1742 
Q 1991 1309 1228 531 
z
" id="DejaVuSans-32" transform="scale(0.015625)"/>
        <path d="M 691 4666 
L 3169 4666 
L 3169 4134 
L 1269 4134 
L 1269 2991 
Q 1406 3038 1543 3061 
Q 1681 3084 1819 3084 
Q 2600 3084 3056 2656 
Q 3513 2228 3513 1497 
Q 3513 744 3044 326 
Q 2575 -91 1722 -91 
Q 1428 -91 1123 -41 
Q 819 9 494 109 
L 494 744 
Q 775 591 1075 516 
Q 1375 441 1709 441 
Q 2250 441 2565 725 
Q 2881 1009 2881 1497 
Q 2881 1984 2565 2268 
Q 2250 2553 1709 2553 
Q 1456 2553 1204 2497 
Q 953 2441 691 2322 
L 691 4666 
z
" id="DejaVuSans-35" transform="scale(0.015625)"/>
        <path d="M 1172 4863 
L 1747 4863 
L 800 0 
L 225 0 
L 1172 4863 
z
" id="DejaVuSans-Oblique-6c" transform="scale(0.015625)"/>
       </defs>
       <use transform="translate(0 44.046875)scale(0.7)" xlink:href="#DejaVuSans-32"/>
       <use transform="translate(0 -38.2375)scale(0.7)" xlink:href="#DejaVuSans-35"/>
       <use transform="translate(57.036133 0.25)" xlink:href="#DejaVuSans-Oblique-6c"/>
       <path d="M 0 19.046875 
L 0 25.296875 
L 44.536133 25.296875 
L 44.536133 19.046875 
L 0 19.046875 
z
"/>
      </g>
     </g>
    </g>
    <g id="xtick_3">
     <g id="line2d_3">
      <g>
       <use style="stroke:#000000;stroke-width:0.8;" x="200.159943" xlink:href="#m1eb328b8fb" y="131.038125"/>
      </g>
     </g>
     <g id="text_3">
      <!-- $\frac{1}{2}l$ -->
      <g transform="translate(195.909943 147.538125)scale(0.1 -0.1)">
       <defs>
        <path d="M 794 531 
L 1825 531 
L 1825 4091 
L 703 3866 
L 703 4441 
L 1819 4666 
L 2450 4666 
L 2450 531 
L 3481 531 
L 3481 0 
L 794 0 
L 794 531 
z
" id="DejaVuSans-31" transform="scale(0.015625)"/>
       </defs>
       <use transform="translate(0 43.965625)scale(0.7)" xlink:href="#DejaVuSans-31"/>
       <use transform="translate(0 -39.2375)scale(0.7)" xlink:href="#DejaVuSans-32"/>
       <use transform="translate(57.036133 0.16875)" xlink:href="#DejaVuSans-Oblique-6c"/>
       <path d="M 0 18.965625 
L 0 25.215625 
L 44.536133 25.215625 
L 44.536133 18.965625 
L 0 18.965625 
z
"/>
      </g>
     </g>
    </g>
    <g id="xtick_4">
     <g id="line2d_4">
      <g>
       <use style="stroke:#000000;stroke-width:0.8;" x="250.887216" xlink:href="#m1eb328b8fb" y="131.038125"/>
      </g>
     </g>
     <g id="text_4">
      <!-- $\frac{2}{3}l$ -->
      <g transform="translate(246.637216 147.638125)scale(0.1 -0.1)">
       <defs>
        <path d="M 2597 2516 
Q 3050 2419 3304 2112 
Q 3559 1806 3559 1356 
Q 3559 666 3084 287 
Q 2609 -91 1734 -91 
Q 1441 -91 1130 -33 
Q 819 25 488 141 
L 488 750 
Q 750 597 1062 519 
Q 1375 441 1716 441 
Q 2309 441 2620 675 
Q 2931 909 2931 1356 
Q 2931 1769 2642 2001 
Q 2353 2234 1838 2234 
L 1294 2234 
L 1294 2753 
L 1863 2753 
Q 2328 2753 2575 2939 
Q 2822 3125 2822 3475 
Q 2822 3834 2567 4026 
Q 2313 4219 1838 4219 
Q 1578 4219 1281 4162 
Q 984 4106 628 3988 
L 628 4550 
Q 988 4650 1302 4700 
Q 1616 4750 1894 4750 
Q 2613 4750 3031 4423 
Q 3450 4097 3450 3541 
Q 3450 3153 3228 2886 
Q 3006 2619 2597 2516 
z
" id="DejaVuSans-33" transform="scale(0.015625)"/>
       </defs>
       <use transform="translate(0 44.046875)scale(0.7)" xlink:href="#DejaVuSans-32"/>
       <use transform="translate(0 -39.15625)scale(0.7)" xlink:href="#DejaVuSans-33"/>
       <use transform="translate(57.036133 0.25)" xlink:href="#DejaVuSans-Oblique-6c"/>
       <path d="M 0 19.046875 
L 0 25.296875 
L 44.536133 25.296875 
L 44.536133 19.046875 
L 0 19.046875 
z
"/>
      </g>
     </g>
    </g>
    <g id="xtick_5">
     <g id="line2d_5">
      <g>
       <use style="stroke:#000000;stroke-width:0.8;" x="352.341761" xlink:href="#m1eb328b8fb" y="131.038125"/>
      </g>
     </g>
     <g id="text_5">
      <!-- $l\hspace{1}$ -->
      <g transform="translate(346.041761 145.636563)scale(0.1 -0.1)">
       <use transform="translate(0 0.015625)" xlink:href="#DejaVuSans-Oblique-6c"/>
      </g>
     </g>
    </g>
    <g id="text_6">
     <!-- $x$ -->
     <g transform="translate(197.159943 163.336563)scale(0.1 -0.1)">
      <defs>
       <path d="M 3841 3500 
L 2234 1784 
L 3219 0 
L 2559 0 
L 1819 1388 
L 531 0 
L -166 0 
L 1556 1844 
L 641 3500 
L 1300 3500 
L 1972 2234 
L 3144 3500 
L 3841 3500 
z
" id="DejaVuSans-Oblique-78" transform="scale(0.015625)"/>
      </defs>
      <use transform="translate(0 0.3125)" xlink:href="#DejaVuSans-Oblique-78"/>
     </g>
    </g>
   </g>
   <g id="matplotlib.axis_2">
    <g id="ytick_1">
     <g id="line2d_6">
      <defs>
       <path d="M 0 0 
L -3.5 0 
" id="m3a356cb82d" style="stroke:#000000;stroke-width:0.8;"/>
      </defs>
      <g>
       <use style="stroke:#000000;stroke-width:0.8;" x="47.978125" xlink:href="#m3a356cb82d" y="229.874489"/>
      </g>
     </g>
     <g id="text_7">
      <!-- $-C_2$ -->
      <g transform="translate(20.878125 233.673707)scale(0.1 -0.1)">
       <defs>
        <path d="M 678 2272 
L 4684 2272 
L 4684 1741 
L 678 1741 
L 678 2272 
z
" id="DejaVuSans-2212" transform="scale(0.015625)"/>
        <path d="M 4447 4306 
L 4319 3641 
Q 4019 3944 3683 4091 
Q 3347 4238 2956 4238 
Q 2422 4238 2017 3981 
Q 1613 3725 1319 3200 
Q 1131 2863 1032 2486 
Q 934 2109 934 1728 
Q 934 1091 1264 756 
Q 1594 422 2222 422 
Q 2656 422 3056 561 
Q 3456 700 3834 978 
L 3688 231 
Q 3316 72 2936 -9 
Q 2556 -91 2175 -91 
Q 1278 -91 773 396 
Q 269 884 269 1753 
Q 269 2309 461 2846 
Q 653 3384 1013 3828 
Q 1394 4300 1883 4525 
Q 2372 4750 3022 4750 
Q 3422 4750 3780 4639 
Q 4138 4528 4447 4306 
z
" id="DejaVuSans-Oblique-43" transform="scale(0.015625)"/>
       </defs>
       <use transform="translate(0 0.78125)" xlink:href="#DejaVuSans-2212"/>
       <use transform="translate(83.789062 0.78125)" xlink:href="#DejaVuSans-Oblique-43"/>
       <use transform="translate(153.613281 -15.625)scale(0.7)" xlink:href="#DejaVuSans-32"/>
      </g>
     </g>
    </g>
    <g id="ytick_2">
     <g id="line2d_7">
      <g>
       <use style="stroke:#000000;stroke-width:0.8;" x="47.978125" xlink:href="#m3a356cb82d" y="131.038125"/>
      </g>
     </g>
     <g id="text_8">
      <!-- $0$ -->
      <g transform="translate(34.578125 134.837344)scale(0.1 -0.1)">
       <use transform="translate(0 0.78125)" xlink:href="#DejaVuSans-30"/>
      </g>
     </g>
    </g>
    <g id="ytick_3">
     <g id="line2d_8">
      <g>
       <use style="stroke:#000000;stroke-width:0.8;" x="47.978125" xlink:href="#m3a356cb82d" y="32.201761"/>
      </g>
     </g>
     <g id="text_9">
      <!-- $C_2$ -->
      <g transform="translate(29.178125 36.00098)scale(0.1 -0.1)">
       <use transform="translate(0 0.78125)" xlink:href="#DejaVuSans-Oblique-43"/>
       <use transform="translate(69.824219 -15.625)scale(0.7)" xlink:href="#DejaVuSans-32"/>
      </g>
     </g>
    </g>
    <g id="text_10">
     <!-- $u(x)$ -->
     <g transform="translate(14.798438 141.088125)rotate(-90)scale(0.1 -0.1)">
      <defs>
       <path d="M 428 1388 
L 838 3500 
L 1416 3500 
L 1006 1409 
Q 975 1256 961 1147 
Q 947 1038 947 966 
Q 947 700 1109 554 
Q 1272 409 1569 409 
Q 2031 409 2368 721 
Q 2706 1034 2809 1563 
L 3194 3500 
L 3769 3500 
L 3091 0 
L 2516 0 
L 2631 550 
Q 2388 244 2052 76 
Q 1716 -91 1338 -91 
Q 878 -91 622 161 
Q 366 413 366 863 
Q 366 956 381 1097 
Q 397 1238 428 1388 
z
" id="DejaVuSans-Oblique-75" transform="scale(0.015625)"/>
       <path d="M 1984 4856 
Q 1566 4138 1362 3434 
Q 1159 2731 1159 2009 
Q 1159 1288 1364 580 
Q 1569 -128 1984 -844 
L 1484 -844 
Q 1016 -109 783 600 
Q 550 1309 550 2009 
Q 550 2706 781 3412 
Q 1013 4119 1484 4856 
L 1984 4856 
z
" id="DejaVuSans-28" transform="scale(0.015625)"/>
       <path d="M 513 4856 
L 1013 4856 
Q 1481 4119 1714 3412 
Q 1947 2706 1947 2009 
Q 1947 1309 1714 600 
Q 1481 -109 1013 -844 
L 513 -844 
Q 928 -128 1133 580 
Q 1338 1288 1338 2009 
Q 1338 2731 1133 3434 
Q 928 4138 513 4856 
z
" id="DejaVuSans-29" transform="scale(0.015625)"/>
      </defs>
      <use transform="translate(0 0.125)" xlink:href="#DejaVuSans-Oblique-75"/>
      <use transform="translate(63.378906 0.125)" xlink:href="#DejaVuSans-28"/>
      <use transform="translate(102.392578 0.125)" xlink:href="#DejaVuSans-Oblique-78"/>
      <use transform="translate(161.572266 0.125)" xlink:href="#DejaVuSans-29"/>
     </g>
    </g>
   </g>
   <g id="line2d_9">
    <path clip-path="url(#pafe7f874d9)" d="M 47.978125 131.038125 
L 51.021761 129.485671 
L 54.065398 127.9336 
L 57.109034 126.382295 
L 60.15267 124.832138 
L 63.196307 123.283513 
L 66.239943 121.736802 
L 69.28358 120.192385 
L 72.327216 118.650644 
L 75.370852 117.11196 
L 78.414489 115.576711 
L 81.458125 114.045278 
L 84.501761 112.518037 
L 87.545398 110.995366 
L 90.589034 109.47764 
L 93.63267 107.965234 
L 96.676307 106.458521 
L 99.719943 104.957872 
L 102.76358 103.463659 
L 105.807216 101.976248 
L 108.850852 100.496009 
L 111.894489 99.023305 
L 114.938125 97.558501 
L 117.981761 96.101957 
L 121.025398 94.654033 
L 124.069034 93.215086 
L 127.11267 91.785472 
L 130.156307 90.365542 
L 133.199943 88.955648 
L 136.24358 87.556137 
L 139.287216 86.167355 
L 142.330852 84.789644 
L 145.374489 83.423344 
L 148.418125 82.068792 
L 151.461761 80.726323 
L 154.505398 79.396267 
L 157.549034 78.078953 
L 160.59267 76.774706 
L 163.636307 75.483848 
L 166.679943 74.206697 
L 169.72358 72.943568 
L 172.767216 71.694773 
L 175.810852 70.460621 
L 178.854489 69.241414 
L 181.898125 68.037456 
L 184.941761 66.849042 
L 187.985398 65.676465 
L 191.029034 64.520015 
L 194.07267 63.379978 
L 197.116307 62.256635 
L 200.159943 61.150262 
L 203.20358 60.061133 
L 206.247216 58.989517 
L 209.290852 57.935677 
L 212.334489 56.899875 
L 215.378125 55.882364 
L 218.421761 54.883398 
L 221.465398 53.903221 
L 224.509034 52.942077 
L 227.55267 52.000201 
L 230.596307 51.077827 
L 233.639943 50.175182 
L 236.68358 49.292489 
L 239.727216 48.429965 
L 242.770852 47.587823 
L 245.814489 46.766272 
L 248.858125 45.965513 
L 251.901761 45.185745 
L 254.945398 44.427159 
L 257.989034 43.689944 
L 261.03267 42.97428 
L 264.076307 42.280345 
L 267.119943 41.608309 
L 270.16358 40.958339 
L 273.207216 40.330595 
L 276.250852 39.725232 
L 279.294489 39.142398 
L 282.338125 38.582239 
L 285.381761 38.044891 
L 288.425398 37.530488 
L 291.469034 37.039157 
L 294.51267 36.571019 
L 297.556307 36.126189 
L 300.599943 35.704777 
L 303.64358 35.306887 
L 306.687216 34.932618 
L 309.730852 34.582061 
L 312.774489 34.255303 
L 315.818125 33.952425 
L 318.861761 33.673501 
L 321.905398 33.418601 
L 324.949034 33.187787 
L 327.99267 32.981116 
L 331.036307 32.798639 
L 334.079943 32.640401 
L 337.12358 32.506441 
L 340.167216 32.396792 
L 343.210852 32.311482 
L 346.254489 32.250531 
L 349.298125 32.213955 
L 352.341761 32.201761 
" style="fill:none;stroke:#1f77b4;stroke-linecap:square;stroke-width:1.5;"/>
   </g>
   <g id="line2d_10">
    <path clip-path="url(#pafe7f874d9)" d="M 47.978125 131.038125 
L 51.021761 126.382295 
L 54.065398 121.736802 
L 57.109034 117.11196 
L 60.15267 112.518037 
L 63.196307 107.965234 
L 66.239943 103.463659 
L 69.28358 99.023305 
L 72.327216 94.654033 
L 75.370852 90.365542 
L 78.414489 86.167355 
L 81.458125 82.068792 
L 84.501761 78.078953 
L 87.545398 74.206697 
L 90.589034 70.460621 
L 93.63267 66.849042 
L 96.676307 63.379978 
L 99.719943 60.061133 
L 102.76358 56.899875 
L 105.807216 53.903221 
L 108.850852 51.077827 
L 111.894489 48.429965 
L 114.938125 45.965513 
L 117.981761 43.689944 
L 121.025398 41.608309 
L 124.069034 39.725232 
L 127.11267 38.044891 
L 130.156307 36.571019 
L 133.199943 35.306887 
L 136.24358 34.255303 
L 139.287216 33.418601 
L 142.330852 32.798639 
L 145.374489 32.396792 
L 148.418125 32.213955 
L 151.461761 32.250531 
L 154.505398 32.506441 
L 157.549034 32.981116 
L 160.59267 33.673501 
L 163.636307 34.582061 
L 166.679943 35.704777 
L 169.72358 37.039157 
L 172.767216 38.582239 
L 175.810852 40.330595 
L 178.854489 42.280345 
L 181.898125 44.427159 
L 184.941761 46.766272 
L 187.985398 49.292489 
L 191.029034 52.000201 
L 194.07267 54.883398 
L 197.116307 57.935677 
L 200.159943 61.150262 
L 203.20358 64.520015 
L 206.247216 68.037456 
L 209.290852 71.694773 
L 212.334489 75.483848 
L 215.378125 79.396267 
L 218.421761 83.423344 
L 221.465398 87.556137 
L 224.509034 91.785472 
L 227.55267 96.101957 
L 230.596307 100.496009 
L 233.639943 104.957872 
L 236.68358 109.47764 
L 239.727216 114.045278 
L 242.770852 118.650644 
L 245.814489 123.283513 
L 248.858125 127.9336 
L 251.901761 132.590579 
L 254.945398 137.244112 
L 257.989034 141.883865 
L 261.03267 146.499539 
L 264.076307 151.080884 
L 267.119943 155.617729 
L 270.16358 160.100002 
L 273.207216 164.517749 
L 276.250852 168.861164 
L 279.294489 173.120602 
L 282.338125 177.286606 
L 285.381761 181.349927 
L 288.425398 185.301544 
L 291.469034 189.132682 
L 294.51267 192.834836 
L 297.556307 196.399785 
L 300.599943 199.819615 
L 303.64358 203.086733 
L 306.687216 206.193886 
L 309.730852 209.134173 
L 312.774489 211.901068 
L 315.818125 214.488427 
L 318.861761 216.890505 
L 321.905398 219.10197 
L 324.949034 221.117911 
L 327.99267 222.933852 
L 331.036307 224.545762 
L 334.079943 225.950061 
L 337.12358 227.143632 
L 340.167216 228.123825 
L 343.210852 228.888463 
L 346.254489 229.435849 
L 349.298125 229.764768 
L 352.341761 229.874489 
" style="fill:none;stroke:#ff7f0e;stroke-linecap:square;stroke-width:1.5;"/>
   </g>
   <g id="line2d_11">
    <path clip-path="url(#pafe7f874d9)" d="M 47.978125 131.038125 
L 51.021761 123.283513 
L 54.065398 115.576711 
L 57.109034 107.965234 
L 60.15267 100.496009 
L 63.196307 93.215086 
L 66.239943 86.167355 
L 69.28358 79.396267 
L 72.327216 72.943568 
L 75.370852 66.849042 
L 78.414489 61.150262 
L 81.458125 55.882364 
L 84.501761 51.077827 
L 87.545398 46.766272 
L 90.589034 42.97428 
L 93.63267 39.725232 
L 96.676307 37.039157 
L 99.719943 34.932618 
L 102.76358 33.418601 
L 105.807216 32.506441 
L 108.850852 32.201761 
L 111.894489 32.506441 
L 114.938125 33.418601 
L 117.981761 34.932618 
L 121.025398 37.039157 
L 124.069034 39.725232 
L 127.11267 42.97428 
L 130.156307 46.766272 
L 133.199943 51.077827 
L 136.24358 55.882364 
L 139.287216 61.150262 
L 142.330852 66.849042 
L 145.374489 72.943568 
L 148.418125 79.396267 
L 151.461761 86.167355 
L 154.505398 93.215086 
L 157.549034 100.496009 
L 160.59267 107.965234 
L 163.636307 115.576711 
L 166.679943 123.283513 
L 169.72358 131.038125 
L 172.767216 138.792737 
L 175.810852 146.499539 
L 178.854489 154.111016 
L 181.898125 161.580241 
L 184.941761 168.861164 
L 187.985398 175.908895 
L 191.029034 182.679983 
L 194.07267 189.132682 
L 197.116307 195.227208 
L 200.159943 200.925988 
L 203.20358 206.193886 
L 206.247216 210.998423 
L 209.290852 215.309978 
L 212.334489 219.10197 
L 215.378125 222.351018 
L 218.421761 225.037093 
L 221.465398 227.143632 
L 224.509034 228.657649 
L 227.55267 229.569809 
L 230.596307 229.874489 
L 233.639943 229.569809 
L 236.68358 228.657649 
L 239.727216 227.143632 
L 242.770852 225.037093 
L 245.814489 222.351018 
L 248.858125 219.10197 
L 251.901761 215.309978 
L 254.945398 210.998423 
L 257.989034 206.193886 
L 261.03267 200.925988 
L 264.076307 195.227208 
L 267.119943 189.132682 
L 270.16358 182.679983 
L 273.207216 175.908895 
L 276.250852 168.861164 
L 279.294489 161.580241 
L 282.338125 154.111016 
L 285.381761 146.499539 
L 288.425398 138.792737 
L 291.469034 131.038125 
L 294.51267 123.283513 
L 297.556307 115.576711 
L 300.599943 107.965234 
L 303.64358 100.496009 
L 306.687216 93.215086 
L 309.730852 86.167355 
L 312.774489 79.396267 
L 315.818125 72.943568 
L 318.861761 66.849042 
L 321.905398 61.150262 
L 324.949034 55.882364 
L 327.99267 51.077827 
L 331.036307 46.766272 
L 334.079943 42.97428 
L 337.12358 39.725232 
L 340.167216 37.039157 
L 343.210852 34.932618 
L 346.254489 33.418601 
L 349.298125 32.506441 
L 352.341761 32.201761 
" style="fill:none;stroke:#2ca02c;stroke-linecap:square;stroke-width:1.5;"/>
   </g>
   <g id="patch_3">
    <path d="M 47.978125 239.758125 
L 47.978125 22.318125 
" style="fill:none;stroke:#000000;stroke-linecap:square;stroke-linejoin:miter;stroke-width:0.8;"/>
   </g>
   <g id="patch_4">
    <path d="M 352.341761 239.758125 
L 352.341761 22.318125 
" style="fill:none;stroke:#000000;stroke-linecap:square;stroke-linejoin:miter;stroke-width:0.8;"/>
   </g>
   <g id="patch_5">
    <path d="M 32.759943 131.038125 
L 367.559943 131.038125 
" style="fill:none;stroke:#000000;stroke-linecap:square;stroke-linejoin:miter;stroke-width:0.8;"/>
   </g>
   <g id="patch_6">
    <path d="M 32.759943 22.318125 
L 367.559943 22.318125 
" style="fill:none;"/>
   </g>
   <g id="text_11">
    <!-- Eigenfunctions -->
    <g transform="translate(155.763693 16.318125)scale(0.12 -0.12)">
     <defs>
      <path d="M 628 4666 
L 3578 4666 
L 3578 4134 
L 1259 4134 
L 1259 2753 
L 3481 2753 
L 3481 2222 
L 1259 2222 
L 1259 531 
L 3634 531 
L 3634 0 
L 628 0 
L 628 4666 
z
" id="DejaVuSans-45" transform="scale(0.015625)"/>
      <path d="M 603 3500 
L 1178 3500 
L 1178 0 
L 603 0 
L 603 3500 
z
M 603 4863 
L 1178 4863 
L 1178 4134 
L 603 4134 
L 603 4863 
z
" id="DejaVuSans-69" transform="scale(0.015625)"/>
      <path d="M 2906 1791 
Q 2906 2416 2648 2759 
Q 2391 3103 1925 3103 
Q 1463 3103 1205 2759 
Q 947 2416 947 1791 
Q 947 1169 1205 825 
Q 1463 481 1925 481 
Q 2391 481 2648 825 
Q 2906 1169 2906 1791 
z
M 3481 434 
Q 3481 -459 3084 -895 
Q 2688 -1331 1869 -1331 
Q 1566 -1331 1297 -1286 
Q 1028 -1241 775 -1147 
L 775 -588 
Q 1028 -725 1275 -790 
Q 1522 -856 1778 -856 
Q 2344 -856 2625 -561 
Q 2906 -266 2906 331 
L 2906 616 
Q 2728 306 2450 153 
Q 2172 0 1784 0 
Q 1141 0 747 490 
Q 353 981 353 1791 
Q 353 2603 747 3093 
Q 1141 3584 1784 3584 
Q 2172 3584 2450 3431 
Q 2728 3278 2906 2969 
L 2906 3500 
L 3481 3500 
L 3481 434 
z
" id="DejaVuSans-67" transform="scale(0.015625)"/>
      <path d="M 3597 1894 
L 3597 1613 
L 953 1613 
Q 991 1019 1311 708 
Q 1631 397 2203 397 
Q 2534 397 2845 478 
Q 3156 559 3463 722 
L 3463 178 
Q 3153 47 2828 -22 
Q 2503 -91 2169 -91 
Q 1331 -91 842 396 
Q 353 884 353 1716 
Q 353 2575 817 3079 
Q 1281 3584 2069 3584 
Q 2775 3584 3186 3129 
Q 3597 2675 3597 1894 
z
M 3022 2063 
Q 3016 2534 2758 2815 
Q 2500 3097 2075 3097 
Q 1594 3097 1305 2825 
Q 1016 2553 972 2059 
L 3022 2063 
z
" id="DejaVuSans-65" transform="scale(0.015625)"/>
      <path d="M 3513 2113 
L 3513 0 
L 2938 0 
L 2938 2094 
Q 2938 2591 2744 2837 
Q 2550 3084 2163 3084 
Q 1697 3084 1428 2787 
Q 1159 2491 1159 1978 
L 1159 0 
L 581 0 
L 581 3500 
L 1159 3500 
L 1159 2956 
Q 1366 3272 1645 3428 
Q 1925 3584 2291 3584 
Q 2894 3584 3203 3211 
Q 3513 2838 3513 2113 
z
" id="DejaVuSans-6e" transform="scale(0.015625)"/>
      <path d="M 2375 4863 
L 2375 4384 
L 1825 4384 
Q 1516 4384 1395 4259 
Q 1275 4134 1275 3809 
L 1275 3500 
L 2222 3500 
L 2222 3053 
L 1275 3053 
L 1275 0 
L 697 0 
L 697 3053 
L 147 3053 
L 147 3500 
L 697 3500 
L 697 3744 
Q 697 4328 969 4595 
Q 1241 4863 1831 4863 
L 2375 4863 
z
" id="DejaVuSans-66" transform="scale(0.015625)"/>
      <path d="M 544 1381 
L 544 3500 
L 1119 3500 
L 1119 1403 
Q 1119 906 1312 657 
Q 1506 409 1894 409 
Q 2359 409 2629 706 
Q 2900 1003 2900 1516 
L 2900 3500 
L 3475 3500 
L 3475 0 
L 2900 0 
L 2900 538 
Q 2691 219 2414 64 
Q 2138 -91 1772 -91 
Q 1169 -91 856 284 
Q 544 659 544 1381 
z
M 1991 3584 
L 1991 3584 
z
" id="DejaVuSans-75" transform="scale(0.015625)"/>
      <path d="M 3122 3366 
L 3122 2828 
Q 2878 2963 2633 3030 
Q 2388 3097 2138 3097 
Q 1578 3097 1268 2742 
Q 959 2388 959 1747 
Q 959 1106 1268 751 
Q 1578 397 2138 397 
Q 2388 397 2633 464 
Q 2878 531 3122 666 
L 3122 134 
Q 2881 22 2623 -34 
Q 2366 -91 2075 -91 
Q 1284 -91 818 406 
Q 353 903 353 1747 
Q 353 2603 823 3093 
Q 1294 3584 2113 3584 
Q 2378 3584 2631 3529 
Q 2884 3475 3122 3366 
z
" id="DejaVuSans-63" transform="scale(0.015625)"/>
      <path d="M 1172 4494 
L 1172 3500 
L 2356 3500 
L 2356 3053 
L 1172 3053 
L 1172 1153 
Q 1172 725 1289 603 
Q 1406 481 1766 481 
L 2356 481 
L 2356 0 
L 1766 0 
Q 1100 0 847 248 
Q 594 497 594 1153 
L 594 3053 
L 172 3053 
L 172 3500 
L 594 3500 
L 594 4494 
L 1172 4494 
z
" id="DejaVuSans-74" transform="scale(0.015625)"/>
      <path d="M 1959 3097 
Q 1497 3097 1228 2736 
Q 959 2375 959 1747 
Q 959 1119 1226 758 
Q 1494 397 1959 397 
Q 2419 397 2687 759 
Q 2956 1122 2956 1747 
Q 2956 2369 2687 2733 
Q 2419 3097 1959 3097 
z
M 1959 3584 
Q 2709 3584 3137 3096 
Q 3566 2609 3566 1747 
Q 3566 888 3137 398 
Q 2709 -91 1959 -91 
Q 1206 -91 779 398 
Q 353 888 353 1747 
Q 353 2609 779 3096 
Q 1206 3584 1959 3584 
z
" id="DejaVuSans-6f" transform="scale(0.015625)"/>
      <path d="M 2834 3397 
L 2834 2853 
Q 2591 2978 2328 3040 
Q 2066 3103 1784 3103 
Q 1356 3103 1142 2972 
Q 928 2841 928 2578 
Q 928 2378 1081 2264 
Q 1234 2150 1697 2047 
L 1894 2003 
Q 2506 1872 2764 1633 
Q 3022 1394 3022 966 
Q 3022 478 2636 193 
Q 2250 -91 1575 -91 
Q 1294 -91 989 -36 
Q 684 19 347 128 
L 347 722 
Q 666 556 975 473 
Q 1284 391 1588 391 
Q 1994 391 2212 530 
Q 2431 669 2431 922 
Q 2431 1156 2273 1281 
Q 2116 1406 1581 1522 
L 1381 1569 
Q 847 1681 609 1914 
Q 372 2147 372 2553 
Q 372 3047 722 3315 
Q 1072 3584 1716 3584 
Q 2034 3584 2315 3537 
Q 2597 3491 2834 3397 
z
" id="DejaVuSans-73" transform="scale(0.015625)"/>
     </defs>
     <use xlink:href="#DejaVuSans-45"/>
     <use x="63.183594" xlink:href="#DejaVuSans-69"/>
     <use x="90.966797" xlink:href="#DejaVuSans-67"/>
     <use x="154.443359" xlink:href="#DejaVuSans-65"/>
     <use x="215.966797" xlink:href="#DejaVuSans-6e"/>
     <use x="279.345703" xlink:href="#DejaVuSans-66"/>
     <use x="314.550781" xlink:href="#DejaVuSans-75"/>
     <use x="377.929688" xlink:href="#DejaVuSans-6e"/>
     <use x="441.308594" xlink:href="#DejaVuSans-63"/>
     <use x="496.289062" xlink:href="#DejaVuSans-74"/>
     <use x="535.498047" xlink:href="#DejaVuSans-69"/>
     <use x="563.28125" xlink:href="#DejaVuSans-6f"/>
     <use x="624.462891" xlink:href="#DejaVuSans-6e"/>
     <use x="687.841797" xlink:href="#DejaVuSans-73"/>
    </g>
   </g>
   <g id="legend_1">
    <g id="patch_7">
     <path d="M 39.759943 234.758125 
L 96.759943 234.758125 
Q 98.759943 234.758125 98.759943 232.758125 
L 98.759943 189.72375 
Q 98.759943 187.72375 96.759943 187.72375 
L 39.759943 187.72375 
Q 37.759943 187.72375 37.759943 189.72375 
L 37.759943 232.758125 
Q 37.759943 234.758125 39.759943 234.758125 
z
" style="fill:#ffffff;opacity:0.8;stroke:#cccccc;stroke-linejoin:miter;"/>
    </g>
    <g id="line2d_12">
     <path d="M 41.759943 195.822188 
L 61.759943 195.822188 
" style="fill:none;stroke:#1f77b4;stroke-linecap:square;stroke-width:1.5;"/>
    </g>
    <g id="line2d_13"/>
    <g id="text_12">
     <!-- $n = 0$ -->
     <g transform="translate(69.759943 199.322188)scale(0.1 -0.1)">
      <defs>
       <path d="M 3566 2113 
L 3156 0 
L 2578 0 
L 2988 2091 
Q 3016 2238 3031 2350 
Q 3047 2463 3047 2528 
Q 3047 2791 2881 2937 
Q 2716 3084 2419 3084 
Q 1956 3084 1622 2776 
Q 1288 2469 1184 1941 
L 800 0 
L 225 0 
L 903 3500 
L 1478 3500 
L 1363 2950 
Q 1603 3253 1940 3418 
Q 2278 3584 2650 3584 
Q 3113 3584 3367 3334 
Q 3622 3084 3622 2631 
Q 3622 2519 3608 2391 
Q 3594 2263 3566 2113 
z
" id="DejaVuSans-Oblique-6e" transform="scale(0.015625)"/>
       <path d="M 678 2906 
L 4684 2906 
L 4684 2381 
L 678 2381 
L 678 2906 
z
M 678 1631 
L 4684 1631 
L 4684 1100 
L 678 1100 
L 678 1631 
z
" id="DejaVuSans-3d" transform="scale(0.015625)"/>
      </defs>
      <use transform="translate(0 0.78125)" xlink:href="#DejaVuSans-Oblique-6e"/>
      <use transform="translate(82.861328 0.78125)" xlink:href="#DejaVuSans-3d"/>
      <use transform="translate(186.132812 0.78125)" xlink:href="#DejaVuSans-30"/>
     </g>
    </g>
    <g id="line2d_14">
     <path d="M 41.759943 210.500313 
L 61.759943 210.500313 
" style="fill:none;stroke:#ff7f0e;stroke-linecap:square;stroke-width:1.5;"/>
    </g>
    <g id="line2d_15"/>
    <g id="text_13">
     <!-- $n = 1$ -->
     <g transform="translate(69.759943 214.000313)scale(0.1 -0.1)">
      <use transform="translate(0 0.09375)" xlink:href="#DejaVuSans-Oblique-6e"/>
      <use transform="translate(82.861328 0.09375)" xlink:href="#DejaVuSans-3d"/>
      <use transform="translate(186.132812 0.09375)" xlink:href="#DejaVuSans-31"/>
     </g>
    </g>
    <g id="line2d_16">
     <path d="M 41.759943 225.178438 
L 61.759943 225.178438 
" style="fill:none;stroke:#2ca02c;stroke-linecap:square;stroke-width:1.5;"/>
    </g>
    <g id="line2d_17"/>
    <g id="text_14">
     <!-- $n = 2$ -->
     <g transform="translate(69.759943 228.678438)scale(0.1 -0.1)">
      <use transform="translate(0 0.78125)" xlink:href="#DejaVuSans-Oblique-6e"/>
      <use transform="translate(82.861328 0.78125)" xlink:href="#DejaVuSans-3d"/>
      <use transform="translate(186.132812 0.78125)" xlink:href="#DejaVuSans-32"/>
     </g>
    </g>
   </g>
  </g>
 </g>
 <defs>
  <clipPath id="pafe7f874d9">
   <rect height="217.44" width="334.8" x="32.759943" y="22.318125"/>
  </clipPath>
 </defs>
</svg>
