<?xml version="1.0" encoding="utf-8" standalone="no"?>
<!DOCTYPE svg PUBLIC "-//W3C//DTD SVG 1.1//EN"
  "http://www.w3.org/Graphics/SVG/1.1/DTD/svg11.dtd">
<svg height="277.314375pt" version="1.1" viewBox="0 0 405.160937 277.314375" width="405.160937pt" xmlns="http://www.w3.org/2000/svg" xmlns:xlink="http://www.w3.org/1999/xlink">
 <metadata>
  <rdf:RDF xmlns:cc="http://creativecommons.org/ns#" xmlns:dc="http://purl.org/dc/elements/1.1/" xmlns:rdf="http://www.w3.org/1999/02/22-rdf-syntax-ns#">
   <cc:Work>
    <dc:type rdf:resource="http://purl.org/dc/dcmitype/StillImage"/>
    <dc:date>2021-11-26T23:56:53.170282</dc:date>
    <dc:format>image/svg+xml</dc:format>
    <dc:creator>
     <cc:Agent>
      <dc:title>Matplotlib v3.4.3, https://matplotlib.org/</dc:title>
     </cc:Agent>
    </dc:creator>
   </cc:Work>
  </rdf:RDF>
 </metadata>
 <defs>
  <style type="text/css">*{stroke-linecap:butt;stroke-linejoin:round;}</style>
 </defs>
 <g id="figure_1">
  <g id="patch_1">
   <path d="M 0 277.314375 
L 405.160937 277.314375 
L 405.160937 0 
L 0 0 
z
" style="fill:none;"/>
  </g>
  <g id="axes_1">
   <g id="patch_2">
    <path d="M 52.160938 239.758125 
L 386.960938 239.758125 
L 386.960938 22.318125 
L 52.160938 22.318125 
z
" style="fill:#ffffff;"/>
   </g>
   <g id="matplotlib.axis_1">
    <g id="xtick_1">
     <g id="line2d_1">
      <path clip-path="url(#pab9284730f)" d="M 52.160938 239.758125 
L 52.160938 22.318125 
" style="fill:none;stroke:#b0b0b0;stroke-linecap:square;stroke-width:0.8;"/>
     </g>
     <g id="line2d_2">
      <defs>
       <path d="M 0 0 
L 0 3.5 
" id="m3d79814f94" style="stroke:#000000;stroke-width:0.8;"/>
      </defs>
      <g>
       <use style="stroke:#000000;stroke-width:0.8;" x="52.160938" xlink:href="#m3d79814f94" y="239.758125"/>
      </g>
     </g>
     <g id="text_1">
      <!-- -0.2$\pi$ -->
      <g transform="translate(39.660938 254.356562)scale(0.1 -0.1)">
       <defs>
        <path d="M 313 2009 
L 1997 2009 
L 1997 1497 
L 313 1497 
L 313 2009 
z
" id="DejaVuSans-2d" transform="scale(0.015625)"/>
        <path d="M 2034 4250 
Q 1547 4250 1301 3770 
Q 1056 3291 1056 2328 
Q 1056 1369 1301 889 
Q 1547 409 2034 409 
Q 2525 409 2770 889 
Q 3016 1369 3016 2328 
Q 3016 3291 2770 3770 
Q 2525 4250 2034 4250 
z
M 2034 4750 
Q 2819 4750 3233 4129 
Q 3647 3509 3647 2328 
Q 3647 1150 3233 529 
Q 2819 -91 2034 -91 
Q 1250 -91 836 529 
Q 422 1150 422 2328 
Q 422 3509 836 4129 
Q 1250 4750 2034 4750 
z
" id="DejaVuSans-30" transform="scale(0.015625)"/>
        <path d="M 684 794 
L 1344 794 
L 1344 0 
L 684 0 
L 684 794 
z
" id="DejaVuSans-2e" transform="scale(0.015625)"/>
        <path d="M 1228 531 
L 3431 531 
L 3431 0 
L 469 0 
L 469 531 
Q 828 903 1448 1529 
Q 2069 2156 2228 2338 
Q 2531 2678 2651 2914 
Q 2772 3150 2772 3378 
Q 2772 3750 2511 3984 
Q 2250 4219 1831 4219 
Q 1534 4219 1204 4116 
Q 875 4013 500 3803 
L 500 4441 
Q 881 4594 1212 4672 
Q 1544 4750 1819 4750 
Q 2544 4750 2975 4387 
Q 3406 4025 3406 3419 
Q 3406 3131 3298 2873 
Q 3191 2616 2906 2266 
Q 2828 2175 2409 1742 
Q 1991 1309 1228 531 
z
" id="DejaVuSans-32" transform="scale(0.015625)"/>
        <path d="M 584 3500 
L 3938 3500 
L 3825 2925 
L 3384 2925 
L 2966 775 
Q 2922 550 2981 450 
Q 3038 353 3209 353 
Q 3256 353 3325 363 
Q 3397 369 3419 372 
L 3338 -44 
Q 3222 -84 3103 -103 
Q 2981 -122 2866 -122 
Q 2491 -122 2388 81 
Q 2284 288 2391 838 
L 2797 2925 
L 1506 2925 
L 938 0 
L 350 0 
L 919 2925 
L 472 2925 
L 584 3500 
z
" id="DejaVuSans-Oblique-3c0" transform="scale(0.015625)"/>
       </defs>
       <use transform="translate(0 0.78125)" xlink:href="#DejaVuSans-2d"/>
       <use transform="translate(36.083984 0.78125)" xlink:href="#DejaVuSans-30"/>
       <use transform="translate(99.707031 0.78125)" xlink:href="#DejaVuSans-2e"/>
       <use transform="translate(125.994141 0.78125)" xlink:href="#DejaVuSans-32"/>
       <use transform="translate(189.617188 0.78125)" xlink:href="#DejaVuSans-Oblique-3c0"/>
      </g>
     </g>
    </g>
    <g id="xtick_2">
     <g id="line2d_3">
      <path clip-path="url(#pab9284730f)" d="M 94.010938 239.758125 
L 94.010938 22.318125 
" style="fill:none;stroke:#b0b0b0;stroke-linecap:square;stroke-width:0.8;"/>
     </g>
     <g id="line2d_4">
      <g>
       <use style="stroke:#000000;stroke-width:0.8;" x="94.010938" xlink:href="#m3d79814f94" y="239.758125"/>
      </g>
     </g>
     <g id="text_2">
      <!-- 0.0$\pi$ -->
      <g transform="translate(83.010938 254.356562)scale(0.1 -0.1)">
       <use transform="translate(0 0.78125)" xlink:href="#DejaVuSans-30"/>
       <use transform="translate(63.623047 0.78125)" xlink:href="#DejaVuSans-2e"/>
       <use transform="translate(95.410156 0.78125)" xlink:href="#DejaVuSans-30"/>
       <use transform="translate(159.033203 0.78125)" xlink:href="#DejaVuSans-Oblique-3c0"/>
      </g>
     </g>
    </g>
    <g id="xtick_3">
     <g id="line2d_5">
      <path clip-path="url(#pab9284730f)" d="M 135.860938 239.758125 
L 135.860938 22.318125 
" style="fill:none;stroke:#b0b0b0;stroke-linecap:square;stroke-width:0.8;"/>
     </g>
     <g id="line2d_6">
      <g>
       <use style="stroke:#000000;stroke-width:0.8;" x="135.860938" xlink:href="#m3d79814f94" y="239.758125"/>
      </g>
     </g>
     <g id="text_3">
      <!-- 0.2$\pi$ -->
      <g transform="translate(125.160938 254.356562)scale(0.1 -0.1)">
       <use transform="translate(0 0.78125)" xlink:href="#DejaVuSans-30"/>
       <use transform="translate(63.623047 0.78125)" xlink:href="#DejaVuSans-2e"/>
       <use transform="translate(89.910156 0.78125)" xlink:href="#DejaVuSans-32"/>
       <use transform="translate(153.533203 0.78125)" xlink:href="#DejaVuSans-Oblique-3c0"/>
      </g>
     </g>
    </g>
    <g id="xtick_4">
     <g id="line2d_7">
      <path clip-path="url(#pab9284730f)" d="M 177.710938 239.758125 
L 177.710938 22.318125 
" style="fill:none;stroke:#b0b0b0;stroke-linecap:square;stroke-width:0.8;"/>
     </g>
     <g id="line2d_8">
      <g>
       <use style="stroke:#000000;stroke-width:0.8;" x="177.710938" xlink:href="#m3d79814f94" y="239.758125"/>
      </g>
     </g>
     <g id="text_4">
      <!-- 0.3$\pi$ -->
      <g transform="translate(166.710938 254.356562)scale(0.1 -0.1)">
       <defs>
        <path d="M 2597 2516 
Q 3050 2419 3304 2112 
Q 3559 1806 3559 1356 
Q 3559 666 3084 287 
Q 2609 -91 1734 -91 
Q 1441 -91 1130 -33 
Q 819 25 488 141 
L 488 750 
Q 750 597 1062 519 
Q 1375 441 1716 441 
Q 2309 441 2620 675 
Q 2931 909 2931 1356 
Q 2931 1769 2642 2001 
Q 2353 2234 1838 2234 
L 1294 2234 
L 1294 2753 
L 1863 2753 
Q 2328 2753 2575 2939 
Q 2822 3125 2822 3475 
Q 2822 3834 2567 4026 
Q 2313 4219 1838 4219 
Q 1578 4219 1281 4162 
Q 984 4106 628 3988 
L 628 4550 
Q 988 4650 1302 4700 
Q 1616 4750 1894 4750 
Q 2613 4750 3031 4423 
Q 3450 4097 3450 3541 
Q 3450 3153 3228 2886 
Q 3006 2619 2597 2516 
z
" id="DejaVuSans-33" transform="scale(0.015625)"/>
       </defs>
       <use transform="translate(0 0.78125)" xlink:href="#DejaVuSans-30"/>
       <use transform="translate(63.623047 0.78125)" xlink:href="#DejaVuSans-2e"/>
       <use transform="translate(95.410156 0.78125)" xlink:href="#DejaVuSans-33"/>
       <use transform="translate(159.033203 0.78125)" xlink:href="#DejaVuSans-Oblique-3c0"/>
      </g>
     </g>
    </g>
    <g id="xtick_5">
     <g id="line2d_9">
      <path clip-path="url(#pab9284730f)" d="M 219.560938 239.758125 
L 219.560938 22.318125 
" style="fill:none;stroke:#b0b0b0;stroke-linecap:square;stroke-width:0.8;"/>
     </g>
     <g id="line2d_10">
      <g>
       <use style="stroke:#000000;stroke-width:0.8;" x="219.560938" xlink:href="#m3d79814f94" y="239.758125"/>
      </g>
     </g>
     <g id="text_5">
      <!-- 0.5$\pi$ -->
      <g transform="translate(208.560938 254.356562)scale(0.1 -0.1)">
       <defs>
        <path d="M 691 4666 
L 3169 4666 
L 3169 4134 
L 1269 4134 
L 1269 2991 
Q 1406 3038 1543 3061 
Q 1681 3084 1819 3084 
Q 2600 3084 3056 2656 
Q 3513 2228 3513 1497 
Q 3513 744 3044 326 
Q 2575 -91 1722 -91 
Q 1428 -91 1123 -41 
Q 819 9 494 109 
L 494 744 
Q 775 591 1075 516 
Q 1375 441 1709 441 
Q 2250 441 2565 725 
Q 2881 1009 2881 1497 
Q 2881 1984 2565 2268 
Q 2250 2553 1709 2553 
Q 1456 2553 1204 2497 
Q 953 2441 691 2322 
L 691 4666 
z
" id="DejaVuSans-35" transform="scale(0.015625)"/>
       </defs>
       <use transform="translate(0 0.78125)" xlink:href="#DejaVuSans-30"/>
       <use transform="translate(63.623047 0.78125)" xlink:href="#DejaVuSans-2e"/>
       <use transform="translate(95.410156 0.78125)" xlink:href="#DejaVuSans-35"/>
       <use transform="translate(159.033203 0.78125)" xlink:href="#DejaVuSans-Oblique-3c0"/>
      </g>
     </g>
    </g>
    <g id="xtick_6">
     <g id="line2d_11">
      <path clip-path="url(#pab9284730f)" d="M 261.410938 239.758125 
L 261.410938 22.318125 
" style="fill:none;stroke:#b0b0b0;stroke-linecap:square;stroke-width:0.8;"/>
     </g>
     <g id="line2d_12">
      <g>
       <use style="stroke:#000000;stroke-width:0.8;" x="261.410938" xlink:href="#m3d79814f94" y="239.758125"/>
      </g>
     </g>
     <g id="text_6">
      <!-- 0.6$\pi$ -->
      <g transform="translate(250.410938 254.356562)scale(0.1 -0.1)">
       <defs>
        <path d="M 2113 2584 
Q 1688 2584 1439 2293 
Q 1191 2003 1191 1497 
Q 1191 994 1439 701 
Q 1688 409 2113 409 
Q 2538 409 2786 701 
Q 3034 994 3034 1497 
Q 3034 2003 2786 2293 
Q 2538 2584 2113 2584 
z
M 3366 4563 
L 3366 3988 
Q 3128 4100 2886 4159 
Q 2644 4219 2406 4219 
Q 1781 4219 1451 3797 
Q 1122 3375 1075 2522 
Q 1259 2794 1537 2939 
Q 1816 3084 2150 3084 
Q 2853 3084 3261 2657 
Q 3669 2231 3669 1497 
Q 3669 778 3244 343 
Q 2819 -91 2113 -91 
Q 1303 -91 875 529 
Q 447 1150 447 2328 
Q 447 3434 972 4092 
Q 1497 4750 2381 4750 
Q 2619 4750 2861 4703 
Q 3103 4656 3366 4563 
z
" id="DejaVuSans-36" transform="scale(0.015625)"/>
       </defs>
       <use transform="translate(0 0.78125)" xlink:href="#DejaVuSans-30"/>
       <use transform="translate(63.623047 0.78125)" xlink:href="#DejaVuSans-2e"/>
       <use transform="translate(95.410156 0.78125)" xlink:href="#DejaVuSans-36"/>
       <use transform="translate(159.033203 0.78125)" xlink:href="#DejaVuSans-Oblique-3c0"/>
      </g>
     </g>
    </g>
    <g id="xtick_7">
     <g id="line2d_13">
      <path clip-path="url(#pab9284730f)" d="M 303.260938 239.758125 
L 303.260938 22.318125 
" style="fill:none;stroke:#b0b0b0;stroke-linecap:square;stroke-width:0.8;"/>
     </g>
     <g id="line2d_14">
      <g>
       <use style="stroke:#000000;stroke-width:0.8;" x="303.260938" xlink:href="#m3d79814f94" y="239.758125"/>
      </g>
     </g>
     <g id="text_7">
      <!-- 0.8$\pi$ -->
      <g transform="translate(292.410937 254.356562)scale(0.1 -0.1)">
       <defs>
        <path d="M 2034 2216 
Q 1584 2216 1326 1975 
Q 1069 1734 1069 1313 
Q 1069 891 1326 650 
Q 1584 409 2034 409 
Q 2484 409 2743 651 
Q 3003 894 3003 1313 
Q 3003 1734 2745 1975 
Q 2488 2216 2034 2216 
z
M 1403 2484 
Q 997 2584 770 2862 
Q 544 3141 544 3541 
Q 544 4100 942 4425 
Q 1341 4750 2034 4750 
Q 2731 4750 3128 4425 
Q 3525 4100 3525 3541 
Q 3525 3141 3298 2862 
Q 3072 2584 2669 2484 
Q 3125 2378 3379 2068 
Q 3634 1759 3634 1313 
Q 3634 634 3220 271 
Q 2806 -91 2034 -91 
Q 1263 -91 848 271 
Q 434 634 434 1313 
Q 434 1759 690 2068 
Q 947 2378 1403 2484 
z
M 1172 3481 
Q 1172 3119 1398 2916 
Q 1625 2713 2034 2713 
Q 2441 2713 2670 2916 
Q 2900 3119 2900 3481 
Q 2900 3844 2670 4047 
Q 2441 4250 2034 4250 
Q 1625 4250 1398 4047 
Q 1172 3844 1172 3481 
z
" id="DejaVuSans-38" transform="scale(0.015625)"/>
       </defs>
       <use transform="translate(0 0.78125)" xlink:href="#DejaVuSans-30"/>
       <use transform="translate(63.623047 0.78125)" xlink:href="#DejaVuSans-2e"/>
       <use transform="translate(92.785156 0.78125)" xlink:href="#DejaVuSans-38"/>
       <use transform="translate(156.408203 0.78125)" xlink:href="#DejaVuSans-Oblique-3c0"/>
      </g>
     </g>
    </g>
    <g id="xtick_8">
     <g id="line2d_15">
      <path clip-path="url(#pab9284730f)" d="M 345.110938 239.758125 
L 345.110938 22.318125 
" style="fill:none;stroke:#b0b0b0;stroke-linecap:square;stroke-width:0.8;"/>
     </g>
     <g id="line2d_16">
      <g>
       <use style="stroke:#000000;stroke-width:0.8;" x="345.110938" xlink:href="#m3d79814f94" y="239.758125"/>
      </g>
     </g>
     <g id="text_8">
      <!-- 1.0$\pi$ -->
      <g transform="translate(334.110938 254.356562)scale(0.1 -0.1)">
       <defs>
        <path d="M 794 531 
L 1825 531 
L 1825 4091 
L 703 3866 
L 703 4441 
L 1819 4666 
L 2450 4666 
L 2450 531 
L 3481 531 
L 3481 0 
L 794 0 
L 794 531 
z
" id="DejaVuSans-31" transform="scale(0.015625)"/>
       </defs>
       <use transform="translate(0 0.78125)" xlink:href="#DejaVuSans-31"/>
       <use transform="translate(63.623047 0.78125)" xlink:href="#DejaVuSans-2e"/>
       <use transform="translate(95.410156 0.78125)" xlink:href="#DejaVuSans-30"/>
       <use transform="translate(159.033203 0.78125)" xlink:href="#DejaVuSans-Oblique-3c0"/>
      </g>
     </g>
    </g>
    <g id="xtick_9">
     <g id="line2d_17">
      <path clip-path="url(#pab9284730f)" d="M 386.960938 239.758125 
L 386.960938 22.318125 
" style="fill:none;stroke:#b0b0b0;stroke-linecap:square;stroke-width:0.8;"/>
     </g>
     <g id="line2d_18">
      <g>
       <use style="stroke:#000000;stroke-width:0.8;" x="386.960938" xlink:href="#m3d79814f94" y="239.758125"/>
      </g>
     </g>
     <g id="text_9">
      <!-- 1.1$\pi$ -->
      <g transform="translate(375.960938 254.356562)scale(0.1 -0.1)">
       <use transform="translate(0 0.09375)" xlink:href="#DejaVuSans-31"/>
       <use transform="translate(63.623047 0.09375)" xlink:href="#DejaVuSans-2e"/>
       <use transform="translate(95.410156 0.09375)" xlink:href="#DejaVuSans-31"/>
       <use transform="translate(159.033203 0.09375)" xlink:href="#DejaVuSans-Oblique-3c0"/>
      </g>
     </g>
    </g>
    <g id="text_10">
     <!-- $x$ -->
     <g transform="translate(216.560938 268.034687)scale(0.1 -0.1)">
      <defs>
       <path d="M 3841 3500 
L 2234 1784 
L 3219 0 
L 2559 0 
L 1819 1388 
L 531 0 
L -166 0 
L 1556 1844 
L 641 3500 
L 1300 3500 
L 1972 2234 
L 3144 3500 
L 3841 3500 
z
" id="DejaVuSans-Oblique-78" transform="scale(0.015625)"/>
      </defs>
      <use transform="translate(0 0.3125)" xlink:href="#DejaVuSans-Oblique-78"/>
     </g>
    </g>
   </g>
   <g id="matplotlib.axis_2">
    <g id="ytick_1">
     <g id="line2d_19">
      <path clip-path="url(#pab9284730f)" d="M 52.160938 215.753561 
L 386.960938 215.753561 
" style="fill:none;stroke:#b0b0b0;stroke-linecap:square;stroke-width:0.8;"/>
     </g>
     <g id="line2d_20">
      <defs>
       <path d="M 0 0 
L -3.5 0 
" id="m10455a0ea9" style="stroke:#000000;stroke-width:0.8;"/>
      </defs>
      <g>
       <use style="stroke:#000000;stroke-width:0.8;" x="52.160938" xlink:href="#m10455a0ea9" y="215.753561"/>
      </g>
     </g>
     <g id="text_11">
      <!-- −1.0 -->
      <g transform="translate(20.878125 219.55278)scale(0.1 -0.1)">
       <defs>
        <path d="M 678 2272 
L 4684 2272 
L 4684 1741 
L 678 1741 
L 678 2272 
z
" id="DejaVuSans-2212" transform="scale(0.015625)"/>
       </defs>
       <use xlink:href="#DejaVuSans-2212"/>
       <use x="83.789062" xlink:href="#DejaVuSans-31"/>
       <use x="147.412109" xlink:href="#DejaVuSans-2e"/>
       <use x="179.199219" xlink:href="#DejaVuSans-30"/>
      </g>
     </g>
    </g>
    <g id="ytick_2">
     <g id="line2d_21">
      <path clip-path="url(#pab9284730f)" d="M 52.160938 173.389499 
L 386.960938 173.389499 
" style="fill:none;stroke:#b0b0b0;stroke-linecap:square;stroke-width:0.8;"/>
     </g>
     <g id="line2d_22">
      <g>
       <use style="stroke:#000000;stroke-width:0.8;" x="52.160938" xlink:href="#m10455a0ea9" y="173.389499"/>
      </g>
     </g>
     <g id="text_12">
      <!-- −0.5 -->
      <g transform="translate(20.878125 177.188717)scale(0.1 -0.1)">
       <use xlink:href="#DejaVuSans-2212"/>
       <use x="83.789062" xlink:href="#DejaVuSans-30"/>
       <use x="147.412109" xlink:href="#DejaVuSans-2e"/>
       <use x="179.199219" xlink:href="#DejaVuSans-35"/>
      </g>
     </g>
    </g>
    <g id="ytick_3">
     <g id="line2d_23">
      <path clip-path="url(#pab9284730f)" d="M 52.160938 131.025436 
L 386.960938 131.025436 
" style="fill:none;stroke:#b0b0b0;stroke-linecap:square;stroke-width:0.8;"/>
     </g>
     <g id="line2d_24">
      <g>
       <use style="stroke:#000000;stroke-width:0.8;" x="52.160938" xlink:href="#m10455a0ea9" y="131.025436"/>
      </g>
     </g>
     <g id="text_13">
      <!-- 0.0 -->
      <g transform="translate(29.257812 134.824655)scale(0.1 -0.1)">
       <use xlink:href="#DejaVuSans-30"/>
       <use x="63.623047" xlink:href="#DejaVuSans-2e"/>
       <use x="95.410156" xlink:href="#DejaVuSans-30"/>
      </g>
     </g>
    </g>
    <g id="ytick_4">
     <g id="line2d_25">
      <path clip-path="url(#pab9284730f)" d="M 52.160938 88.661373 
L 386.960938 88.661373 
" style="fill:none;stroke:#b0b0b0;stroke-linecap:square;stroke-width:0.8;"/>
     </g>
     <g id="line2d_26">
      <g>
       <use style="stroke:#000000;stroke-width:0.8;" x="52.160938" xlink:href="#m10455a0ea9" y="88.661373"/>
      </g>
     </g>
     <g id="text_14">
      <!-- 0.5 -->
      <g transform="translate(29.257812 92.460592)scale(0.1 -0.1)">
       <use xlink:href="#DejaVuSans-30"/>
       <use x="63.623047" xlink:href="#DejaVuSans-2e"/>
       <use x="95.410156" xlink:href="#DejaVuSans-35"/>
      </g>
     </g>
    </g>
    <g id="ytick_5">
     <g id="line2d_27">
      <path clip-path="url(#pab9284730f)" d="M 52.160938 46.29731 
L 386.960938 46.29731 
" style="fill:none;stroke:#b0b0b0;stroke-linecap:square;stroke-width:0.8;"/>
     </g>
     <g id="line2d_28">
      <g>
       <use style="stroke:#000000;stroke-width:0.8;" x="52.160938" xlink:href="#m10455a0ea9" y="46.29731"/>
      </g>
     </g>
     <g id="text_15">
      <!-- 1.0 -->
      <g transform="translate(29.257812 50.096529)scale(0.1 -0.1)">
       <use xlink:href="#DejaVuSans-31"/>
       <use x="63.623047" xlink:href="#DejaVuSans-2e"/>
       <use x="95.410156" xlink:href="#DejaVuSans-30"/>
      </g>
     </g>
    </g>
    <g id="text_16">
     <!-- $f(x)$ -->
     <g transform="translate(14.798438 139.688125)rotate(-90)scale(0.1 -0.1)">
      <defs>
       <path d="M 3059 4863 
L 2969 4384 
L 2419 4384 
Q 2106 4384 1964 4261 
Q 1822 4138 1753 3809 
L 1691 3500 
L 2638 3500 
L 2553 3053 
L 1606 3053 
L 1013 0 
L 434 0 
L 1031 3053 
L 481 3053 
L 563 3500 
L 1113 3500 
L 1159 3744 
Q 1278 4363 1576 4613 
Q 1875 4863 2516 4863 
L 3059 4863 
z
" id="DejaVuSans-Oblique-66" transform="scale(0.015625)"/>
       <path d="M 1984 4856 
Q 1566 4138 1362 3434 
Q 1159 2731 1159 2009 
Q 1159 1288 1364 580 
Q 1569 -128 1984 -844 
L 1484 -844 
Q 1016 -109 783 600 
Q 550 1309 550 2009 
Q 550 2706 781 3412 
Q 1013 4119 1484 4856 
L 1984 4856 
z
" id="DejaVuSans-28" transform="scale(0.015625)"/>
       <path d="M 513 4856 
L 1013 4856 
Q 1481 4119 1714 3412 
Q 1947 2706 1947 2009 
Q 1947 1309 1714 600 
Q 1481 -109 1013 -844 
L 513 -844 
Q 928 -128 1133 580 
Q 1338 1288 1338 2009 
Q 1338 2731 1133 3434 
Q 928 4138 513 4856 
z
" id="DejaVuSans-29" transform="scale(0.015625)"/>
      </defs>
      <use transform="translate(0 0.015625)" xlink:href="#DejaVuSans-Oblique-66"/>
      <use transform="translate(35.205078 0.015625)" xlink:href="#DejaVuSans-28"/>
      <use transform="translate(74.21875 0.015625)" xlink:href="#DejaVuSans-Oblique-78"/>
      <use transform="translate(133.398438 0.015625)" xlink:href="#DejaVuSans-29"/>
     </g>
    </g>
   </g>
   <g id="line2d_29">
    <path clip-path="url(#pab9284730f)" d="M 94.010938 46.29731 
L 98.195938 46.403198 
L 102.380938 46.720598 
L 106.565938 47.248716 
L 110.750938 47.986232 
L 114.935938 48.931302 
L 119.120938 50.081566 
L 123.305938 51.434147 
L 127.490938 52.985664 
L 132.512938 55.104587 
L 137.534938 57.496743 
L 142.556938 60.153523 
L 147.578938 63.065366 
L 152.600938 66.221791 
L 157.622938 69.611439 
L 163.481938 73.844478 
L 169.340937 78.357588 
L 176.036938 83.82996 
L 182.732938 89.604221 
L 190.265938 96.415061 
L 198.635938 104.308763 
L 208.679938 114.126435 
L 222.071938 127.569798 
L 244.670938 150.275843 
L 254.714938 160.015134 
L 263.084938 167.818484 
L 270.617938 174.52933 
L 277.313938 180.200527 
L 284.009937 185.557171 
L 289.868938 189.959213 
L 295.727938 194.072597 
L 300.749938 197.353295 
L 305.771938 200.395284 
L 310.793937 203.187616 
L 315.815938 205.720243 
L 320.837938 207.984049 
L 325.859938 209.970887 
L 330.044938 211.409823 
L 334.229938 212.64784 
L 338.414938 213.681844 
L 342.599938 214.50925 
L 346.784938 215.12799 
L 350.969938 215.536517 
L 355.154938 215.73381 
L 356.828938 215.753454 
L 356.828938 215.753454 
" style="fill:none;stroke:#ff0000;stroke-linecap:square;stroke-opacity:0.25;stroke-width:4;"/>
   </g>
   <g id="line2d_30">
    <path clip-path="url(#pab9284730f)" d="M 94.010938 131.025436 
L 101.543938 108.015574 
L 105.728938 95.869034 
L 109.076938 86.721023 
L 112.424938 78.219645 
L 114.935938 72.338149 
L 117.446938 66.92891 
L 119.957938 62.029585 
L 122.468938 57.671977 
L 124.979938 53.881721 
L 126.653938 51.679845 
L 128.327938 49.74289 
L 130.001937 48.073633 
L 131.675938 46.673541 
L 133.349938 45.542779 
L 135.023938 44.68022 
L 136.697938 44.083468 
L 138.371938 43.748885 
L 140.045938 43.671626 
L 141.719938 43.845681 
L 143.393937 44.263926 
L 145.067938 44.918175 
L 146.741938 45.799242 
L 148.415938 46.897011 
L 150.089938 48.200504 
L 152.600938 50.515549 
L 155.111938 53.224265 
L 157.622938 56.281164 
L 160.970938 60.81593 
L 164.318938 65.767641 
L 168.503938 72.362573 
L 183.569938 96.565689 
L 187.754938 102.612332 
L 191.102937 107.056187 
L 194.450938 111.103935 
L 197.798938 114.730356 
L 200.309938 117.167935 
L 202.820938 119.365887 
L 205.331938 121.33173 
L 207.842938 123.077759 
L 211.190938 125.093411 
L 214.538938 126.799261 
L 217.886938 128.256907 
L 222.071938 129.837517 
L 233.789938 134.083104 
L 237.137938 135.587343 
L 240.485938 137.353528 
L 242.996938 138.886262 
L 245.507938 140.621052 
L 248.018938 142.574875 
L 250.529938 144.760272 
L 253.040938 147.185022 
L 255.551938 149.851889 
L 258.899938 153.779385 
L 262.247938 158.112017 
L 265.595937 162.812753 
L 269.780938 169.123782 
L 274.802938 177.149614 
L 286.520938 196.079113 
L 289.868938 201.044967 
L 293.216937 205.598594 
L 295.727938 208.672659 
L 298.238938 211.401026 
L 300.749938 213.738069 
L 302.423938 215.057448 
L 304.097938 216.172013 
L 305.771938 217.07072 
L 307.445938 217.74338 
L 309.119937 218.180732 
L 310.793937 218.374508 
L 312.467938 218.317497 
L 314.141938 218.003598 
L 315.815938 217.427873 
L 317.489937 216.586585 
L 319.163937 215.477239 
L 320.837938 214.098606 
L 322.511938 212.450747 
L 324.185938 210.535025 
L 325.859938 208.354113 
L 327.533938 205.911989 
L 330.044938 201.770926 
L 332.555938 197.077493 
L 335.066937 191.861145 
L 337.577938 186.157318 
L 340.925938 177.865628 
L 344.273938 168.892279 
L 348.458938 156.909351 
L 353.480938 141.765247 
L 356.828938 131.437788 
L 356.828938 131.437788 
" style="fill:none;stroke:#000000;stroke-linecap:square;stroke-opacity:0.5;stroke-width:1.5;"/>
   </g>
   <g id="line2d_31">
    <path clip-path="url(#pab9284730f)" d="M 94.010938 131.025436 
L 97.358938 91.445139 
L 99.032938 74.000196 
L 100.706938 59.147516 
L 102.380938 47.405175 
L 103.217938 42.794046 
L 104.054938 39.03984 
L 104.891938 36.134599 
L 105.728938 34.054527 
L 106.565938 32.760972 
L 107.402938 32.201761 
L 108.239938 32.312831 
L 109.076938 33.020114 
L 109.913938 34.241625 
L 110.750938 35.889692 
L 112.424938 40.10023 
L 116.609938 51.865509 
L 118.283938 55.535055 
L 119.120938 56.948343 
L 119.957938 58.04806 
L 120.794938 58.824564 
L 121.631938 59.279649 
L 122.468938 59.425841 
L 123.305938 59.285427 
L 124.142938 58.889243 
L 124.979938 58.275257 
L 126.653938 56.571978 
L 130.001937 52.634876 
L 131.675938 51.146238 
L 132.512938 50.653857 
L 133.349938 50.363197 
L 134.186937 50.290237 
L 135.023938 50.443138 
L 135.860938 50.822258 
L 136.697938 51.420426 
L 137.534938 52.223443 
L 139.208938 54.356605 
L 140.882938 56.999298 
L 145.067938 64.026053 
L 146.741938 66.322144 
L 148.415938 68.047835 
L 149.252938 68.67179 
L 150.089938 69.135073 
L 150.926938 69.443957 
L 151.763938 69.610183 
L 153.437938 69.585581 
L 155.111938 69.240419 
L 157.622938 68.60266 
L 159.296938 68.420781 
L 160.133938 68.475085 
L 160.970938 68.650647 
L 161.807938 68.960426 
L 162.644938 69.412618 
L 163.481938 70.010457 
L 165.155937 71.631241 
L 166.829938 73.752782 
L 169.340937 77.568623 
L 172.688938 82.867101 
L 174.362938 85.193951 
L 176.036938 87.123503 
L 177.710938 88.591813 
L 179.384938 89.603504 
L 181.058938 90.229283 
L 182.732938 90.594442 
L 186.080938 91.200128 
L 187.754938 91.776344 
L 189.428938 92.716515 
L 191.102937 94.097017 
L 192.776938 95.933113 
L 194.450938 98.17782 
L 196.961938 102.077084 
L 201.146938 108.735269 
L 202.820938 111.016417 
L 204.494938 112.921421 
L 206.168938 114.415812 
L 207.842938 115.52445 
L 209.516938 116.327369 
L 215.375938 118.685876 
L 217.049937 119.818938 
L 218.723938 121.340424 
L 220.397938 123.271851 
L 222.071938 125.577119 
L 224.582938 129.530823 
L 228.767938 136.276431 
L 230.441938 138.608286 
L 232.115938 140.57155 
L 233.789938 142.125656 
L 235.463938 143.28753 
L 237.137938 144.12932 
L 239.648938 145.056941 
L 242.159938 146.030893 
L 243.833938 146.949444 
L 245.507938 148.213481 
L 247.181938 149.880871 
L 248.855938 151.951561 
L 250.529938 154.366908 
L 253.877938 159.756625 
L 256.388937 163.679445 
L 258.062937 165.952955 
L 259.736938 167.824102 
L 261.410938 169.241163 
L 263.084938 170.214365 
L 264.758938 170.815469 
L 267.269937 171.301458 
L 269.780938 171.784915 
L 271.454938 172.384741 
L 273.128938 173.362295 
L 274.802938 174.793162 
L 276.476938 176.687442 
L 278.150938 178.986519 
L 280.661938 182.916025 
L 283.172938 186.889742 
L 284.846938 189.243583 
L 286.520938 191.167634 
L 288.194938 192.552803 
L 289.031938 193.028105 
L 289.868938 193.360143 
L 290.705938 193.556333 
L 292.379938 193.594517 
L 294.053938 193.290832 
L 297.401938 192.483742 
L 299.075938 192.426339 
L 299.912937 192.571265 
L 300.749938 192.856508 
L 301.586937 193.294634 
L 302.423938 193.892816 
L 303.260938 194.652441 
L 304.934938 196.631633 
L 306.608938 199.125058 
L 312.467938 208.667451 
L 313.304938 209.681907 
L 314.141938 210.515808 
L 314.978938 211.147724 
L 315.815938 211.562401 
L 316.652938 211.751506 
L 317.489937 211.714175 
L 318.326938 211.457318 
L 319.163937 210.995678 
L 320.000938 210.351632 
L 321.674938 208.640926 
L 325.022938 204.702368 
L 325.859938 203.890677 
L 326.696938 203.245902 
L 327.533938 202.812324 
L 328.370938 202.628908 
L 329.207938 202.727725 
L 330.044938 203.13251 
L 330.881938 203.857416 
L 331.718938 204.905999 
L 332.555938 206.270475 
L 333.392938 207.931275 
L 335.066937 212.004291 
L 340.088938 225.865345 
L 340.925938 227.572997 
L 341.762938 228.868429 
L 342.599938 229.663274 
L 343.436937 229.874489 
L 344.273938 229.426602 
L 345.110938 228.253824 
L 345.947938 226.301972 
L 346.784938 223.530143 
L 347.621938 219.912099 
L 348.458938 215.43731 
L 349.295938 210.111629 
L 350.969938 197.014254 
L 352.643937 180.995285 
L 354.317938 162.668791 
L 356.828938 132.653066 
L 356.828938 132.653066 
" style="fill:none;stroke:#1f77b4;stroke-linecap:square;stroke-width:1.5;"/>
   </g>
   <g id="patch_3">
    <path d="M 52.160938 239.758125 
L 52.160938 22.318125 
" style="fill:none;stroke:#000000;stroke-linecap:square;stroke-linejoin:miter;stroke-width:0.8;"/>
   </g>
   <g id="patch_4">
    <path d="M 386.960938 239.758125 
L 386.960938 22.318125 
" style="fill:none;stroke:#000000;stroke-linecap:square;stroke-linejoin:miter;stroke-width:0.8;"/>
   </g>
   <g id="patch_5">
    <path d="M 52.160938 239.758125 
L 386.960938 239.758125 
" style="fill:none;stroke:#000000;stroke-linecap:square;stroke-linejoin:miter;stroke-width:0.8;"/>
   </g>
   <g id="patch_6">
    <path d="M 52.160938 22.318125 
L 386.960938 22.318125 
" style="fill:none;stroke:#000000;stroke-linecap:square;stroke-linejoin:miter;stroke-width:0.8;"/>
   </g>
   <g id="text_17">
    <!-- Sine Series of $\hspace{0.2}\cos(x)$ -->
    <g transform="translate(157.100938 16.318125)scale(0.12 -0.12)">
     <defs>
      <path d="M 3425 4513 
L 3425 3897 
Q 3066 4069 2747 4153 
Q 2428 4238 2131 4238 
Q 1616 4238 1336 4038 
Q 1056 3838 1056 3469 
Q 1056 3159 1242 3001 
Q 1428 2844 1947 2747 
L 2328 2669 
Q 3034 2534 3370 2195 
Q 3706 1856 3706 1288 
Q 3706 609 3251 259 
Q 2797 -91 1919 -91 
Q 1588 -91 1214 -16 
Q 841 59 441 206 
L 441 856 
Q 825 641 1194 531 
Q 1563 422 1919 422 
Q 2459 422 2753 634 
Q 3047 847 3047 1241 
Q 3047 1584 2836 1778 
Q 2625 1972 2144 2069 
L 1759 2144 
Q 1053 2284 737 2584 
Q 422 2884 422 3419 
Q 422 4038 858 4394 
Q 1294 4750 2059 4750 
Q 2388 4750 2728 4690 
Q 3069 4631 3425 4513 
z
" id="DejaVuSans-53" transform="scale(0.015625)"/>
      <path d="M 603 3500 
L 1178 3500 
L 1178 0 
L 603 0 
L 603 3500 
z
M 603 4863 
L 1178 4863 
L 1178 4134 
L 603 4134 
L 603 4863 
z
" id="DejaVuSans-69" transform="scale(0.015625)"/>
      <path d="M 3513 2113 
L 3513 0 
L 2938 0 
L 2938 2094 
Q 2938 2591 2744 2837 
Q 2550 3084 2163 3084 
Q 1697 3084 1428 2787 
Q 1159 2491 1159 1978 
L 1159 0 
L 581 0 
L 581 3500 
L 1159 3500 
L 1159 2956 
Q 1366 3272 1645 3428 
Q 1925 3584 2291 3584 
Q 2894 3584 3203 3211 
Q 3513 2838 3513 2113 
z
" id="DejaVuSans-6e" transform="scale(0.015625)"/>
      <path d="M 3597 1894 
L 3597 1613 
L 953 1613 
Q 991 1019 1311 708 
Q 1631 397 2203 397 
Q 2534 397 2845 478 
Q 3156 559 3463 722 
L 3463 178 
Q 3153 47 2828 -22 
Q 2503 -91 2169 -91 
Q 1331 -91 842 396 
Q 353 884 353 1716 
Q 353 2575 817 3079 
Q 1281 3584 2069 3584 
Q 2775 3584 3186 3129 
Q 3597 2675 3597 1894 
z
M 3022 2063 
Q 3016 2534 2758 2815 
Q 2500 3097 2075 3097 
Q 1594 3097 1305 2825 
Q 1016 2553 972 2059 
L 3022 2063 
z
" id="DejaVuSans-65" transform="scale(0.015625)"/>
      <path id="DejaVuSans-20" transform="scale(0.015625)"/>
      <path d="M 2631 2963 
Q 2534 3019 2420 3045 
Q 2306 3072 2169 3072 
Q 1681 3072 1420 2755 
Q 1159 2438 1159 1844 
L 1159 0 
L 581 0 
L 581 3500 
L 1159 3500 
L 1159 2956 
Q 1341 3275 1631 3429 
Q 1922 3584 2338 3584 
Q 2397 3584 2469 3576 
Q 2541 3569 2628 3553 
L 2631 2963 
z
" id="DejaVuSans-72" transform="scale(0.015625)"/>
      <path d="M 2834 3397 
L 2834 2853 
Q 2591 2978 2328 3040 
Q 2066 3103 1784 3103 
Q 1356 3103 1142 2972 
Q 928 2841 928 2578 
Q 928 2378 1081 2264 
Q 1234 2150 1697 2047 
L 1894 2003 
Q 2506 1872 2764 1633 
Q 3022 1394 3022 966 
Q 3022 478 2636 193 
Q 2250 -91 1575 -91 
Q 1294 -91 989 -36 
Q 684 19 347 128 
L 347 722 
Q 666 556 975 473 
Q 1284 391 1588 391 
Q 1994 391 2212 530 
Q 2431 669 2431 922 
Q 2431 1156 2273 1281 
Q 2116 1406 1581 1522 
L 1381 1569 
Q 847 1681 609 1914 
Q 372 2147 372 2553 
Q 372 3047 722 3315 
Q 1072 3584 1716 3584 
Q 2034 3584 2315 3537 
Q 2597 3491 2834 3397 
z
" id="DejaVuSans-73" transform="scale(0.015625)"/>
      <path d="M 1959 3097 
Q 1497 3097 1228 2736 
Q 959 2375 959 1747 
Q 959 1119 1226 758 
Q 1494 397 1959 397 
Q 2419 397 2687 759 
Q 2956 1122 2956 1747 
Q 2956 2369 2687 2733 
Q 2419 3097 1959 3097 
z
M 1959 3584 
Q 2709 3584 3137 3096 
Q 3566 2609 3566 1747 
Q 3566 888 3137 398 
Q 2709 -91 1959 -91 
Q 1206 -91 779 398 
Q 353 888 353 1747 
Q 353 2609 779 3096 
Q 1206 3584 1959 3584 
z
" id="DejaVuSans-6f" transform="scale(0.015625)"/>
      <path d="M 2375 4863 
L 2375 4384 
L 1825 4384 
Q 1516 4384 1395 4259 
Q 1275 4134 1275 3809 
L 1275 3500 
L 2222 3500 
L 2222 3053 
L 1275 3053 
L 1275 0 
L 697 0 
L 697 3053 
L 147 3053 
L 147 3500 
L 697 3500 
L 697 3744 
Q 697 4328 969 4595 
Q 1241 4863 1831 4863 
L 2375 4863 
z
" id="DejaVuSans-66" transform="scale(0.015625)"/>
      <path d="M 3122 3366 
L 3122 2828 
Q 2878 2963 2633 3030 
Q 2388 3097 2138 3097 
Q 1578 3097 1268 2742 
Q 959 2388 959 1747 
Q 959 1106 1268 751 
Q 1578 397 2138 397 
Q 2388 397 2633 464 
Q 2878 531 3122 666 
L 3122 134 
Q 2881 22 2623 -34 
Q 2366 -91 2075 -91 
Q 1284 -91 818 406 
Q 353 903 353 1747 
Q 353 2603 823 3093 
Q 1294 3584 2113 3584 
Q 2378 3584 2631 3529 
Q 2884 3475 3122 3366 
z
" id="DejaVuSans-63" transform="scale(0.015625)"/>
     </defs>
     <use transform="translate(0 0.015625)" xlink:href="#DejaVuSans-53"/>
     <use transform="translate(63.476562 0.015625)" xlink:href="#DejaVuSans-69"/>
     <use transform="translate(91.259766 0.015625)" xlink:href="#DejaVuSans-6e"/>
     <use transform="translate(154.638672 0.015625)" xlink:href="#DejaVuSans-65"/>
     <use transform="translate(216.162109 0.015625)" xlink:href="#DejaVuSans-20"/>
     <use transform="translate(247.949219 0.015625)" xlink:href="#DejaVuSans-53"/>
     <use transform="translate(311.425781 0.015625)" xlink:href="#DejaVuSans-65"/>
     <use transform="translate(372.949219 0.015625)" xlink:href="#DejaVuSans-72"/>
     <use transform="translate(414.0625 0.015625)" xlink:href="#DejaVuSans-69"/>
     <use transform="translate(441.845703 0.015625)" xlink:href="#DejaVuSans-65"/>
     <use transform="translate(503.369141 0.015625)" xlink:href="#DejaVuSans-73"/>
     <use transform="translate(555.46875 0.015625)" xlink:href="#DejaVuSans-20"/>
     <use transform="translate(587.255859 0.015625)" xlink:href="#DejaVuSans-6f"/>
     <use transform="translate(648.4375 0.015625)" xlink:href="#DejaVuSans-66"/>
     <use transform="translate(683.642578 0.015625)" xlink:href="#DejaVuSans-20"/>
     <use transform="translate(734.912109 0.015625)" xlink:href="#DejaVuSans-63"/>
     <use transform="translate(789.892578 0.015625)" xlink:href="#DejaVuSans-6f"/>
     <use transform="translate(851.074219 0.015625)" xlink:href="#DejaVuSans-73"/>
     <use transform="translate(903.173828 0.015625)" xlink:href="#DejaVuSans-28"/>
     <use transform="translate(942.1875 0.015625)" xlink:href="#DejaVuSans-Oblique-78"/>
     <use transform="translate(1001.367188 0.015625)" xlink:href="#DejaVuSans-29"/>
    </g>
   </g>
   <g id="legend_1">
    <g id="patch_7">
     <path d="M 283.760938 74.3525 
L 379.960938 74.3525 
Q 381.960938 74.3525 381.960938 72.3525 
L 381.960938 29.318125 
Q 381.960938 27.318125 379.960938 27.318125 
L 283.760938 27.318125 
Q 281.760938 27.318125 281.760938 29.318125 
L 281.760938 72.3525 
Q 281.760938 74.3525 283.760938 74.3525 
z
" style="fill:#ffffff;opacity:0.8;stroke:#cccccc;stroke-linejoin:miter;"/>
    </g>
    <g id="line2d_32">
     <path d="M 285.760938 35.416562 
L 305.760938 35.416562 
" style="fill:none;stroke:#ff0000;stroke-linecap:square;stroke-opacity:0.25;stroke-width:4;"/>
    </g>
    <g id="line2d_33"/>
    <g id="text_18">
     <!-- $\cos(x)$ -->
     <g transform="translate(313.760938 38.916562)scale(0.1 -0.1)">
      <use transform="translate(0 0.125)" xlink:href="#DejaVuSans-63"/>
      <use transform="translate(54.980469 0.125)" xlink:href="#DejaVuSans-6f"/>
      <use transform="translate(116.162109 0.125)" xlink:href="#DejaVuSans-73"/>
      <use transform="translate(168.261719 0.125)" xlink:href="#DejaVuSans-28"/>
      <use transform="translate(207.275391 0.125)" xlink:href="#DejaVuSans-Oblique-78"/>
      <use transform="translate(266.455078 0.125)" xlink:href="#DejaVuSans-29"/>
     </g>
    </g>
    <g id="line2d_34">
     <path d="M 285.760938 50.094687 
L 305.760938 50.094687 
" style="fill:none;stroke:#000000;stroke-linecap:square;stroke-opacity:0.5;stroke-width:1.5;"/>
    </g>
    <g id="line2d_35"/>
    <g id="text_19">
     <!-- $\sin$ 2 terms -->
     <g transform="translate(313.760938 53.594687)scale(0.1 -0.1)">
      <defs>
       <path d="M 1172 4494 
L 1172 3500 
L 2356 3500 
L 2356 3053 
L 1172 3053 
L 1172 1153 
Q 1172 725 1289 603 
Q 1406 481 1766 481 
L 2356 481 
L 2356 0 
L 1766 0 
Q 1100 0 847 248 
Q 594 497 594 1153 
L 594 3053 
L 172 3053 
L 172 3500 
L 594 3500 
L 594 4494 
L 1172 4494 
z
" id="DejaVuSans-74" transform="scale(0.015625)"/>
       <path d="M 3328 2828 
Q 3544 3216 3844 3400 
Q 4144 3584 4550 3584 
Q 5097 3584 5394 3201 
Q 5691 2819 5691 2113 
L 5691 0 
L 5113 0 
L 5113 2094 
Q 5113 2597 4934 2840 
Q 4756 3084 4391 3084 
Q 3944 3084 3684 2787 
Q 3425 2491 3425 1978 
L 3425 0 
L 2847 0 
L 2847 2094 
Q 2847 2600 2669 2842 
Q 2491 3084 2119 3084 
Q 1678 3084 1418 2786 
Q 1159 2488 1159 1978 
L 1159 0 
L 581 0 
L 581 3500 
L 1159 3500 
L 1159 2956 
Q 1356 3278 1631 3431 
Q 1906 3584 2284 3584 
Q 2666 3584 2933 3390 
Q 3200 3197 3328 2828 
z
" id="DejaVuSans-6d" transform="scale(0.015625)"/>
      </defs>
      <use transform="translate(0 0.015625)" xlink:href="#DejaVuSans-73"/>
      <use transform="translate(52.099609 0.015625)" xlink:href="#DejaVuSans-69"/>
      <use transform="translate(79.882812 0.015625)" xlink:href="#DejaVuSans-6e"/>
      <use transform="translate(159.497395 0.015625)" xlink:href="#DejaVuSans-20"/>
      <use transform="translate(191.284504 0.015625)" xlink:href="#DejaVuSans-32"/>
      <use transform="translate(254.907551 0.015625)" xlink:href="#DejaVuSans-20"/>
      <use transform="translate(286.694661 0.015625)" xlink:href="#DejaVuSans-74"/>
      <use transform="translate(325.903645 0.015625)" xlink:href="#DejaVuSans-65"/>
      <use transform="translate(387.427083 0.015625)" xlink:href="#DejaVuSans-72"/>
      <use transform="translate(428.540364 0.015625)" xlink:href="#DejaVuSans-6d"/>
      <use transform="translate(525.952473 0.015625)" xlink:href="#DejaVuSans-73"/>
     </g>
    </g>
    <g id="line2d_36">
     <path d="M 285.760938 64.772812 
L 305.760938 64.772812 
" style="fill:none;stroke:#1f77b4;stroke-linecap:square;stroke-width:1.5;"/>
    </g>
    <g id="line2d_37"/>
    <g id="text_20">
     <!-- $\sin$ 10 terms -->
     <g transform="translate(313.760938 68.272812)scale(0.1 -0.1)">
      <use transform="translate(0 0.015625)" xlink:href="#DejaVuSans-73"/>
      <use transform="translate(52.099609 0.015625)" xlink:href="#DejaVuSans-69"/>
      <use transform="translate(79.882812 0.015625)" xlink:href="#DejaVuSans-6e"/>
      <use transform="translate(159.497395 0.015625)" xlink:href="#DejaVuSans-20"/>
      <use transform="translate(191.284504 0.015625)" xlink:href="#DejaVuSans-31"/>
      <use transform="translate(254.907551 0.015625)" xlink:href="#DejaVuSans-30"/>
      <use transform="translate(318.530598 0.015625)" xlink:href="#DejaVuSans-20"/>
      <use transform="translate(350.317708 0.015625)" xlink:href="#DejaVuSans-74"/>
      <use transform="translate(389.526692 0.015625)" xlink:href="#DejaVuSans-65"/>
      <use transform="translate(451.050129 0.015625)" xlink:href="#DejaVuSans-72"/>
      <use transform="translate(492.163411 0.015625)" xlink:href="#DejaVuSans-6d"/>
      <use transform="translate(589.57552 0.015625)" xlink:href="#DejaVuSans-73"/>
     </g>
    </g>
   </g>
  </g>
 </g>
 <defs>
  <clipPath id="pab9284730f">
   <rect height="217.44" width="334.8" x="52.160938" y="22.318125"/>
  </clipPath>
 </defs>
</svg>
