<?xml version="1.0" encoding="utf-8" standalone="no"?>
<!DOCTYPE svg PUBLIC "-//W3C//DTD SVG 1.1//EN"
  "http://www.w3.org/Graphics/SVG/1.1/DTD/svg11.dtd">
<svg height="256.856667pt" version="1.1" viewBox="0 0 262.823498 256.856667" width="262.823498pt" xmlns="http://www.w3.org/2000/svg" xmlns:xlink="http://www.w3.org/1999/xlink">
 <metadata>
  <rdf:RDF xmlns:cc="http://creativecommons.org/ns#" xmlns:dc="http://purl.org/dc/elements/1.1/" xmlns:rdf="http://www.w3.org/1999/02/22-rdf-syntax-ns#">
   <cc:Work>
    <dc:type rdf:resource="http://purl.org/dc/dcmitype/StillImage"/>
    <dc:date>2021-11-26T23:36:16.186521</dc:date>
    <dc:format>image/svg+xml</dc:format>
    <dc:creator>
     <cc:Agent>
      <dc:title>Matplotlib v3.4.3, https://matplotlib.org/</dc:title>
     </cc:Agent>
    </dc:creator>
   </cc:Work>
  </rdf:RDF>
 </metadata>
 <defs>
  <style type="text/css">*{stroke-linecap:butt;stroke-linejoin:round;}</style>
 </defs>
 <g id="figure_1">
  <g id="patch_1">
   <path d="M 0 256.856667 
L 262.823498 256.856667 
L 262.823498 0 
L 0 0 
z
" style="fill:none;"/>
  </g>
  <g id="patch_2">
   <path d="M 7.2 239.73375 
L 224.64 239.73375 
L 224.64 22.29375 
L 7.2 22.29375 
z
" style="fill:#ffffff;"/>
  </g>
  <g id="pane3d_1">
   <g id="patch_3">
    <path d="M 23.61822 186.120014 
L 95.424009 125.930978 
L 94.42584 39.127628 
L 19.183773 94.035861 
" style="fill:#f2f2f2;opacity:0.5;stroke:#f2f2f2;stroke-linejoin:miter;"/>
   </g>
  </g>
  <g id="pane3d_2">
   <g id="patch_4">
    <path d="M 95.424009 125.930978 
L 210.64668 159.42166 
L 214.758571 69.628468 
L 94.42584 39.127628 
" style="fill:#e6e6e6;opacity:0.5;stroke:#e6e6e6;stroke-linejoin:miter;"/>
   </g>
  </g>
  <g id="pane3d_3">
   <g id="patch_5">
    <path d="M 23.61822 186.120014 
L 145.759879 226.01148 
L 210.64668 159.42166 
L 95.424009 125.930978 
" style="fill:#ececec;opacity:0.5;stroke:#ececec;stroke-linejoin:miter;"/>
   </g>
  </g>
  <g id="axis3d_1">
   <g id="line2d_1">
    <path d="M 23.61822 186.120014 
L 145.759879 226.01148 
" style="fill:none;stroke:#000000;stroke-linecap:square;stroke-width:0.8;"/>
   </g>
   <g id="text_1">
    <!-- $x$ -->
    <g transform="translate(63.757243 243.637014)scale(0.1 -0.1)">
     <defs>
      <path d="M 3841 3500 
L 2234 1784 
L 3219 0 
L 2559 0 
L 1819 1388 
L 531 0 
L -166 0 
L 1556 1844 
L 641 3500 
L 1300 3500 
L 1972 2234 
L 3144 3500 
L 3841 3500 
z
" id="DejaVuSans-Oblique-78" transform="scale(0.015625)"/>
     </defs>
     <use transform="translate(0 0.3125)" xlink:href="#DejaVuSans-Oblique-78"/>
    </g>
   </g>
   <g id="Line3DCollection_1">
    <path d="M 31.015759 188.536051 
L 102.431499 127.967779 
L 101.729612 40.978921 
" style="fill:none;stroke:#b0b0b0;stroke-width:0.8;"/>
    <path d="M 48.108016 194.118382 
L 118.608181 132.669702 
L 118.597414 45.254417 
" style="fill:none;stroke:#b0b0b0;stroke-width:0.8;"/>
    <path d="M 65.460447 199.785686 
L 135.010639 137.437249 
L 135.710842 49.592173 
" style="fill:none;stroke:#b0b0b0;stroke-width:0.8;"/>
    <path d="M 83.079037 205.539917 
L 151.643632 142.271803 
L 153.075303 53.993557 
" style="fill:none;stroke:#b0b0b0;stroke-width:0.8;"/>
    <path d="M 100.969959 211.383092 
L 168.512056 147.174788 
L 170.696359 58.459981 
" style="fill:none;stroke:#b0b0b0;stroke-width:0.8;"/>
    <path d="M 119.139575 217.317289 
L 185.620943 152.147666 
L 188.579741 62.992897 
" style="fill:none;stroke:#b0b0b0;stroke-width:0.8;"/>
    <path d="M 137.594449 223.344651 
L 202.975474 157.191943 
L 206.73135 67.593801 
" style="fill:none;stroke:#b0b0b0;stroke-width:0.8;"/>
   </g>
   <g id="xtick_1">
    <g id="line2d_2">
     <path d="M 31.637644 188.008626 
L 29.769322 189.593164 
" style="fill:none;stroke:#000000;stroke-linecap:square;stroke-width:0.8;"/>
    </g>
    <g id="text_2">
     <!-- 0 -->
     <g transform="translate(20.29919 211.858283)scale(0.1 -0.1)">
      <defs>
       <path d="M 2034 4250 
Q 1547 4250 1301 3770 
Q 1056 3291 1056 2328 
Q 1056 1369 1301 889 
Q 1547 409 2034 409 
Q 2525 409 2770 889 
Q 3016 1369 3016 2328 
Q 3016 3291 2770 3770 
Q 2525 4250 2034 4250 
z
M 2034 4750 
Q 2819 4750 3233 4129 
Q 3647 3509 3647 2328 
Q 3647 1150 3233 529 
Q 2819 -91 2034 -91 
Q 1250 -91 836 529 
Q 422 1150 422 2328 
Q 422 3509 836 4129 
Q 1250 4750 2034 4750 
z
" id="DejaVuSans-30" transform="scale(0.015625)"/>
      </defs>
      <use xlink:href="#DejaVuSans-30"/>
     </g>
    </g>
   </g>
   <g id="xtick_2">
    <g id="line2d_3">
     <path d="M 48.722304 193.582962 
L 46.876784 195.191537 
" style="fill:none;stroke:#000000;stroke-linecap:square;stroke-width:0.8;"/>
    </g>
    <g id="text_3">
     <!-- 1 -->
     <g transform="translate(37.412682 217.585537)scale(0.1 -0.1)">
      <defs>
       <path d="M 794 531 
L 1825 531 
L 1825 4091 
L 703 3866 
L 703 4441 
L 1819 4666 
L 2450 4666 
L 2450 531 
L 3481 531 
L 3481 0 
L 794 0 
L 794 531 
z
" id="DejaVuSans-31" transform="scale(0.015625)"/>
      </defs>
      <use xlink:href="#DejaVuSans-31"/>
     </g>
    </g>
   </g>
   <g id="xtick_3">
    <g id="line2d_4">
     <path d="M 66.066835 199.242088 
L 64.245029 200.87525 
" style="fill:none;stroke:#000000;stroke-linecap:square;stroke-width:0.8;"/>
    </g>
    <g id="text_4">
     <!-- 2 -->
     <g transform="translate(54.787875 223.400372)scale(0.1 -0.1)">
      <defs>
       <path d="M 1228 531 
L 3431 531 
L 3431 0 
L 469 0 
L 469 531 
Q 828 903 1448 1529 
Q 2069 2156 2228 2338 
Q 2531 2678 2651 2914 
Q 2772 3150 2772 3378 
Q 2772 3750 2511 3984 
Q 2250 4219 1831 4219 
Q 1534 4219 1204 4116 
Q 875 4013 500 3803 
L 500 4441 
Q 881 4594 1212 4672 
Q 1544 4750 1819 4750 
Q 2544 4750 2975 4387 
Q 3406 4025 3406 3419 
Q 3406 3131 3298 2873 
Q 3191 2616 2906 2266 
Q 2828 2175 2409 1742 
Q 1991 1309 1228 531 
z
" id="DejaVuSans-32" transform="scale(0.015625)"/>
      </defs>
      <use xlink:href="#DejaVuSans-32"/>
     </g>
    </g>
   </g>
   <g id="xtick_4">
    <g id="line2d_5">
     <path d="M 83.67721 204.987952 
L 81.880066 206.64627 
" style="fill:none;stroke:#000000;stroke-linecap:square;stroke-width:0.8;"/>
    </g>
    <g id="text_5">
     <!-- 3 -->
     <g transform="translate(72.43082 229.304814)scale(0.1 -0.1)">
      <defs>
       <path d="M 2597 2516 
Q 3050 2419 3304 2112 
Q 3559 1806 3559 1356 
Q 3559 666 3084 287 
Q 2609 -91 1734 -91 
Q 1441 -91 1130 -33 
Q 819 25 488 141 
L 488 750 
Q 750 597 1062 519 
Q 1375 441 1716 441 
Q 2309 441 2620 675 
Q 2931 909 2931 1356 
Q 2931 1769 2642 2001 
Q 2353 2234 1838 2234 
L 1294 2234 
L 1294 2753 
L 1863 2753 
Q 2328 2753 2575 2939 
Q 2822 3125 2822 3475 
Q 2822 3834 2567 4026 
Q 2313 4219 1838 4219 
Q 1578 4219 1281 4162 
Q 984 4106 628 3988 
L 628 4550 
Q 988 4650 1302 4700 
Q 1616 4750 1894 4750 
Q 2613 4750 3031 4423 
Q 3450 4097 3450 3541 
Q 3450 3153 3228 2886 
Q 3006 2619 2597 2516 
z
" id="DejaVuSans-33" transform="scale(0.015625)"/>
      </defs>
      <use xlink:href="#DejaVuSans-33"/>
     </g>
    </g>
   </g>
   <g id="xtick_5">
    <g id="line2d_6">
     <path d="M 101.559589 210.822566 
L 99.788091 212.506625 
" style="fill:none;stroke:#000000;stroke-linecap:square;stroke-width:0.8;"/>
    </g>
    <g id="text_6">
     <!-- 4 -->
     <g transform="translate(90.347752 235.30095)scale(0.1 -0.1)">
      <defs>
       <path d="M 2419 4116 
L 825 1625 
L 2419 1625 
L 2419 4116 
z
M 2253 4666 
L 3047 4666 
L 3047 1625 
L 3713 1625 
L 3713 1100 
L 3047 1100 
L 3047 0 
L 2419 0 
L 2419 1100 
L 313 1100 
L 313 1709 
L 2253 4666 
z
" id="DejaVuSans-34" transform="scale(0.015625)"/>
      </defs>
      <use xlink:href="#DejaVuSans-34"/>
     </g>
    </g>
   </g>
   <g id="xtick_6">
    <g id="line2d_7">
     <path d="M 119.720323 216.748 
L 117.975491 218.458405 
" style="fill:none;stroke:#000000;stroke-linecap:square;stroke-width:0.8;"/>
    </g>
    <g id="text_7">
     <!-- 5 -->
     <g transform="translate(108.545104 241.390931)scale(0.1 -0.1)">
      <defs>
       <path d="M 691 4666 
L 3169 4666 
L 3169 4134 
L 1269 4134 
L 1269 2991 
Q 1406 3038 1543 3061 
Q 1681 3084 1819 3084 
Q 2600 3084 3056 2656 
Q 3513 2228 3513 1497 
Q 3513 744 3044 326 
Q 2575 -91 1722 -91 
Q 1428 -91 1123 -41 
Q 819 9 494 109 
L 494 744 
Q 775 591 1075 516 
Q 1375 441 1709 441 
Q 2250 441 2565 725 
Q 2881 1009 2881 1497 
Q 2881 1984 2565 2268 
Q 2250 2553 1709 2553 
Q 1456 2553 1204 2497 
Q 953 2441 691 2322 
L 691 4666 
z
" id="DejaVuSans-35" transform="scale(0.015625)"/>
      </defs>
      <use xlink:href="#DejaVuSans-35"/>
     </g>
    </g>
   </g>
   <g id="xtick_7">
    <g id="line2d_8">
     <path d="M 138.165962 222.766393 
L 136.448856 224.503765 
" style="fill:none;stroke:#000000;stroke-linecap:square;stroke-width:0.8;"/>
    </g>
    <g id="text_8">
     <!-- 6 -->
     <g transform="translate(127.029511 247.57698)scale(0.1 -0.1)">
      <defs>
       <path d="M 2113 2584 
Q 1688 2584 1439 2293 
Q 1191 2003 1191 1497 
Q 1191 994 1439 701 
Q 1688 409 2113 409 
Q 2538 409 2786 701 
Q 3034 994 3034 1497 
Q 3034 2003 2786 2293 
Q 2538 2584 2113 2584 
z
M 3366 4563 
L 3366 3988 
Q 3128 4100 2886 4159 
Q 2644 4219 2406 4219 
Q 1781 4219 1451 3797 
Q 1122 3375 1075 2522 
Q 1259 2794 1537 2939 
Q 1816 3084 2150 3084 
Q 2853 3084 3261 2657 
Q 3669 2231 3669 1497 
Q 3669 778 3244 343 
Q 2819 -91 2113 -91 
Q 1303 -91 875 529 
Q 447 1150 447 2328 
Q 447 3434 972 4092 
Q 1497 4750 2381 4750 
Q 2619 4750 2861 4703 
Q 3103 4656 3366 4563 
z
" id="DejaVuSans-36" transform="scale(0.015625)"/>
      </defs>
      <use xlink:href="#DejaVuSans-36"/>
     </g>
    </g>
   </g>
  </g>
  <g id="axis3d_2">
   <g id="line2d_9">
    <path d="M 210.64668 159.42166 
L 145.759879 226.01148 
" style="fill:none;stroke:#000000;stroke-linecap:square;stroke-width:0.8;"/>
   </g>
   <g id="text_9">
    <!-- $y$ -->
    <g transform="translate(203.633457 221.984226)scale(0.1 -0.1)">
     <defs>
      <path d="M 1588 -325 
Q 1188 -997 936 -1164 
Q 684 -1331 294 -1331 
L -159 -1331 
L -63 -850 
L 269 -850 
Q 509 -850 678 -719 
Q 847 -588 1056 -206 
L 1234 128 
L 459 3500 
L 1069 3500 
L 1650 819 
L 3256 3500 
L 3859 3500 
L 1588 -325 
z
" id="DejaVuSans-Oblique-79" transform="scale(0.015625)"/>
     </defs>
     <use transform="translate(0 0.3125)" xlink:href="#DejaVuSans-Oblique-79"/>
    </g>
   </g>
   <g id="Line3DCollection_2">
    <path d="M 24.386948 90.238821 
L 28.566245 181.972481 
L 150.249543 221.40398 
" style="fill:none;stroke:#b0b0b0;stroke-width:0.8;"/>
    <path d="M 39.872804 78.937949 
L 43.308079 169.615584 
L 163.609555 207.693322 
" style="fill:none;stroke:#b0b0b0;stroke-width:0.8;"/>
    <path d="M 54.821882 68.028792 
L 57.560781 157.668686 
L 176.503253 194.461216 
" style="fill:none;stroke:#b0b0b0;stroke-width:0.8;"/>
    <path d="M 69.261618 57.491331 
L 71.348298 146.111716 
L 188.954633 181.683037 
" style="fill:none;stroke:#b0b0b0;stroke-width:0.8;"/>
    <path d="M 83.217605 47.306887 
L 84.693038 134.92589 
L 200.986072 169.335821 
" style="fill:none;stroke:#b0b0b0;stroke-width:0.8;"/>
   </g>
   <g id="xtick_8">
    <g id="line2d_10">
     <path d="M 149.224115 221.071689 
L 152.303053 222.06942 
" style="fill:none;stroke:#000000;stroke-linecap:square;stroke-width:0.8;"/>
    </g>
    <g id="text_10">
     <!-- 2 -->
     <g transform="translate(159.950654 242.427509)scale(0.1 -0.1)">
      <use xlink:href="#DejaVuSans-32"/>
     </g>
    </g>
   </g>
   <g id="xtick_9">
    <g id="line2d_11">
     <path d="M 162.596683 207.372728 
L 165.637872 208.335323 
" style="fill:none;stroke:#000000;stroke-linecap:square;stroke-width:0.8;"/>
    </g>
    <g id="text_11">
     <!-- 4 -->
     <g transform="translate(173.091304 228.468355)scale(0.1 -0.1)">
      <use xlink:href="#DejaVuSans-34"/>
     </g>
    </g>
   </g>
   <g id="xtick_10">
    <g id="line2d_12">
     <path d="M 175.502693 194.151712 
L 178.506869 195.080995 
" style="fill:none;stroke:#000000;stroke-linecap:square;stroke-width:0.8;"/>
    </g>
    <g id="text_12">
     <!-- 6 -->
     <g transform="translate(185.772973 214.996772)scale(0.1 -0.1)">
      <use xlink:href="#DejaVuSans-36"/>
     </g>
    </g>
   </g>
   <g id="xtick_11">
    <g id="line2d_13">
     <path d="M 187.966144 181.384057 
L 190.934035 182.281728 
" style="fill:none;stroke:#000000;stroke-linecap:square;stroke-width:0.8;"/>
    </g>
    <g id="text_13">
     <!-- 8 -->
     <g transform="translate(198.019295 201.987652)scale(0.1 -0.1)">
      <defs>
       <path d="M 2034 2216 
Q 1584 2216 1326 1975 
Q 1069 1734 1069 1313 
Q 1069 891 1326 650 
Q 1584 409 2034 409 
Q 2484 409 2743 651 
Q 3003 894 3003 1313 
Q 3003 1734 2745 1975 
Q 2488 2216 2034 2216 
z
M 1403 2484 
Q 997 2584 770 2862 
Q 544 3141 544 3541 
Q 544 4100 942 4425 
Q 1341 4750 2034 4750 
Q 2731 4750 3128 4425 
Q 3525 4100 3525 3541 
Q 3525 3141 3298 2862 
Q 3072 2584 2669 2484 
Q 3125 2378 3379 2068 
Q 3634 1759 3634 1313 
Q 3634 634 3220 271 
Q 2806 -91 2034 -91 
Q 1263 -91 848 271 
Q 434 634 434 1313 
Q 434 1759 690 2068 
Q 947 2378 1403 2484 
z
M 1172 3481 
Q 1172 3119 1398 2916 
Q 1625 2713 2034 2713 
Q 2441 2713 2670 2916 
Q 2900 3119 2900 3481 
Q 2900 3844 2670 4047 
Q 2441 4250 2034 4250 
Q 1625 4250 1398 4047 
Q 1172 3844 1172 3481 
z
" id="DejaVuSans-38" transform="scale(0.015625)"/>
      </defs>
      <use xlink:href="#DejaVuSans-38"/>
     </g>
    </g>
   </g>
   <g id="xtick_12">
    <g id="line2d_14">
     <path d="M 200.009415 169.046838 
L 202.94174 169.914483 
" style="fill:none;stroke:#000000;stroke-linecap:square;stroke-width:0.8;"/>
    </g>
    <g id="text_14">
     <!-- 10 -->
     <g transform="translate(206.67106 189.417584)scale(0.1 -0.1)">
      <use xlink:href="#DejaVuSans-31"/>
      <use x="63.623047" xlink:href="#DejaVuSans-30"/>
     </g>
    </g>
   </g>
  </g>
  <g id="axis3d_3">
   <g id="line2d_15">
    <path d="M 210.64668 159.42166 
L 214.758571 69.628468 
" style="fill:none;stroke:#000000;stroke-linecap:square;stroke-width:0.8;"/>
   </g>
   <g id="text_15">
    <!-- $z$ -->
    <g transform="translate(250.323498 112.866728)scale(0.1 -0.1)">
     <defs>
      <path d="M 744 3500 
L 3475 3500 
L 3372 2975 
L 738 459 
L 2913 459 
L 2822 0 
L -19 0 
L 84 525 
L 2719 3041 
L 653 3041 
L 744 3500 
z
" id="DejaVuSans-Oblique-7a" transform="scale(0.015625)"/>
     </defs>
     <use transform="translate(0 0.3125)" xlink:href="#DejaVuSans-Oblique-7a"/>
    </g>
   </g>
   <g id="Line3DCollection_3">
    <path d="M 210.853295 154.909713 
L 95.373752 121.560512 
L 23.395753 181.500355 
" style="fill:none;stroke:#b0b0b0;stroke-width:0.8;"/>
    <path d="M 211.839929 133.364153 
L 95.133911 100.703346 
L 22.332906 159.429653 
" style="fill:none;stroke:#b0b0b0;stroke-width:0.8;"/>
    <path d="M 212.847955 111.351437 
L 94.889121 79.415769 
L 21.246126 136.861964 
" style="fill:none;stroke:#b0b0b0;stroke-width:0.8;"/>
    <path d="M 213.878077 88.856203 
L 94.639227 57.68432 
L 20.134596 113.780309 
" style="fill:none;stroke:#b0b0b0;stroke-width:0.8;"/>
   </g>
   <g id="xtick_13">
    <g id="line2d_16">
     <path d="M 209.884002 154.629792 
L 212.794193 155.470222 
" style="fill:none;stroke:#000000;stroke-linecap:square;stroke-width:0.8;"/>
    </g>
    <g id="text_16">
     <!-- 0 -->
     <g transform="translate(225.948586 159.915643)scale(0.1 -0.1)">
      <use xlink:href="#DejaVuSans-30"/>
     </g>
    </g>
   </g>
   <g id="xtick_14">
    <g id="line2d_17">
     <path d="M 210.859848 133.089872 
L 213.802451 133.913376 
" style="fill:none;stroke:#000000;stroke-linecap:square;stroke-width:0.8;"/>
    </g>
    <g id="text_17">
     <!-- 2 -->
     <g transform="translate(227.12684 138.422411)scale(0.1 -0.1)">
      <use xlink:href="#DejaVuSans-32"/>
     </g>
    </g>
   </g>
   <g id="xtick_15">
    <g id="line2d_18">
     <path d="M 211.856845 111.083108 
L 214.832589 111.888748 
" style="fill:none;stroke:#000000;stroke-linecap:square;stroke-width:0.8;"/>
    </g>
    <g id="text_18">
     <!-- 4 -->
     <g transform="translate(228.330546 116.464906)scale(0.1 -0.1)">
      <use xlink:href="#DejaVuSans-34"/>
     </g>
    </g>
   </g>
   <g id="xtick_16">
    <g id="line2d_19">
     <path d="M 212.875687 88.594155 
L 215.885326 89.380946 
" style="fill:none;stroke:#000000;stroke-linecap:square;stroke-width:0.8;"/>
    </g>
    <g id="text_19">
     <!-- 6 -->
     <g transform="translate(229.560537 94.027921)scale(0.1 -0.1)">
      <use xlink:href="#DejaVuSans-36"/>
     </g>
    </g>
   </g>
  </g>
  <g id="axes_1">
   <g id="Path3DCollection_1">
    <defs>
     <path d="M 0 2.236068 
C 0.593012 2.236068 1.161816 2.000462 1.581139 1.581139 
C 2.000462 1.161816 2.236068 0.593012 2.236068 -0 
C 2.236068 -0.593012 2.000462 -1.161816 1.581139 -1.581139 
C 1.161816 -2.000462 0.593012 -2.236068 0 -2.236068 
C -0.593012 -2.236068 -1.161816 -2.000462 -1.581139 -1.581139 
C -2.000462 -1.161816 -2.236068 -0.593012 -2.236068 0 
C -2.236068 0.593012 -2.000462 1.161816 -1.581139 1.581139 
C -1.161816 2.000462 -0.593012 2.236068 0 2.236068 
z
" id="C0_0_7823e42d67"/>
    </defs>
    <g clip-path="url(#pd360b2b23b)">
     <use style="fill:#ff0000;fill-opacity:0.3;stroke:#ff0000;stroke-opacity:0.3;" x="142.075186" xlink:href="#C0_0_7823e42d67" y="92.890119"/>
    </g>
    <g clip-path="url(#pd360b2b23b)">
     <use style="fill:#ff0000;fill-opacity:0.495104;stroke:#ff0000;stroke-opacity:0.495104;" x="73.923656" xlink:href="#C0_0_7823e42d67" y="144.768695"/>
    </g>
    <g clip-path="url(#pd360b2b23b)">
     <use style="fill:#ff0000;fill-opacity:0.69558;stroke:#ff0000;stroke-opacity:0.69558;" x="59.81317" xlink:href="#C0_0_7823e42d67" y="167.956056"/>
    </g>
    <g clip-path="url(#pd360b2b23b)">
     <use style="fill:#ff0000;fill-opacity:0.770686;stroke:#ff0000;stroke-opacity:0.770686;" x="84.091998" xlink:href="#C0_0_7823e42d67" y="156.0603"/>
    </g>
    <g clip-path="url(#pd360b2b23b)">
     <use style="fill:#ff0000;stroke:#ff0000;" x="158.219894" xlink:href="#C0_0_7823e42d67" y="119.740288"/>
    </g>
   </g>
   <g id="text_20">
    <!-- $611x + 437y -766 = 1075z$ -->
    <g transform="translate(33.9 16.29375)scale(0.12 -0.12)">
     <defs>
      <path d="M 2944 4013 
L 2944 2272 
L 4684 2272 
L 4684 1741 
L 2944 1741 
L 2944 0 
L 2419 0 
L 2419 1741 
L 678 1741 
L 678 2272 
L 2419 2272 
L 2419 4013 
L 2944 4013 
z
" id="DejaVuSans-2b" transform="scale(0.015625)"/>
      <path d="M 525 4666 
L 3525 4666 
L 3525 4397 
L 1831 0 
L 1172 0 
L 2766 4134 
L 525 4134 
L 525 4666 
z
" id="DejaVuSans-37" transform="scale(0.015625)"/>
      <path d="M 678 2272 
L 4684 2272 
L 4684 1741 
L 678 1741 
L 678 2272 
z
" id="DejaVuSans-2212" transform="scale(0.015625)"/>
      <path d="M 678 2906 
L 4684 2906 
L 4684 2381 
L 678 2381 
L 678 2906 
z
M 678 1631 
L 4684 1631 
L 4684 1100 
L 678 1100 
L 678 1631 
z
" id="DejaVuSans-3d" transform="scale(0.015625)"/>
     </defs>
     <use transform="translate(0 0.78125)" xlink:href="#DejaVuSans-36"/>
     <use transform="translate(63.623047 0.78125)" xlink:href="#DejaVuSans-31"/>
     <use transform="translate(127.246094 0.78125)" xlink:href="#DejaVuSans-31"/>
     <use transform="translate(190.869141 0.78125)" xlink:href="#DejaVuSans-Oblique-78"/>
     <use transform="translate(269.53125 0.78125)" xlink:href="#DejaVuSans-2b"/>
     <use transform="translate(372.802734 0.78125)" xlink:href="#DejaVuSans-34"/>
     <use transform="translate(436.425781 0.78125)" xlink:href="#DejaVuSans-33"/>
     <use transform="translate(500.048828 0.78125)" xlink:href="#DejaVuSans-37"/>
     <use transform="translate(563.671875 0.78125)" xlink:href="#DejaVuSans-Oblique-79"/>
     <use transform="translate(642.333984 0.78125)" xlink:href="#DejaVuSans-2212"/>
     <use transform="translate(745.605469 0.78125)" xlink:href="#DejaVuSans-37"/>
     <use transform="translate(809.228516 0.78125)" xlink:href="#DejaVuSans-36"/>
     <use transform="translate(872.851562 0.78125)" xlink:href="#DejaVuSans-36"/>
     <use transform="translate(955.957031 0.78125)" xlink:href="#DejaVuSans-3d"/>
     <use transform="translate(1059.228516 0.78125)" xlink:href="#DejaVuSans-31"/>
     <use transform="translate(1122.851562 0.78125)" xlink:href="#DejaVuSans-30"/>
     <use transform="translate(1186.474609 0.78125)" xlink:href="#DejaVuSans-37"/>
     <use transform="translate(1250.097656 0.78125)" xlink:href="#DejaVuSans-35"/>
     <use transform="translate(1313.720703 0.78125)" xlink:href="#DejaVuSans-Oblique-7a"/>
    </g>
   </g>
   <g id="Poly3DCollection_1">
    <path clip-path="url(#pd360b2b23b)" d="M 91.227577 97.099232 
L 102.260725 96.068868 
L 108.800307 86.359044 
L 97.790215 87.448047 
z
" style="fill:#1d6fa8;fill-opacity:0.2;"/>
    <path clip-path="url(#pd360b2b23b)" d="M 84.584561 106.868623 
L 95.640503 105.898426 
L 102.260725 96.068868 
L 91.227577 97.099232 
z
" style="fill:#1d6fa8;fill-opacity:0.2;"/>
    <path clip-path="url(#pd360b2b23b)" d="M 102.260725 96.068868 
L 113.44422 95.024464 
L 119.959511 85.255292 
L 108.800307 86.359044 
z
" style="fill:#1d6fa8;fill-opacity:0.2;"/>
    <path clip-path="url(#pd360b2b23b)" d="M 77.859682 116.758405 
L 88.938139 115.849947 
L 95.640503 105.898426 
L 84.584561 106.868623 
z
" style="fill:#1d6fa8;fill-opacity:0.2;"/>
    <path clip-path="url(#pd360b2b23b)" d="M 95.640503 105.898426 
L 106.848037 104.914927 
L 113.44422 95.024464 
L 102.260725 96.068868 
z
" style="fill:#1d6fa8;fill-opacity:0.2;"/>
    <path clip-path="url(#pd360b2b23b)" d="M 113.44422 95.024464 
L 124.781155 93.96573 
L 131.270877 84.13649 
L 119.959511 85.255292 
z
" style="fill:#1d6fa8;fill-opacity:0.2;"/>
    <path clip-path="url(#pd360b2b23b)" d="M 71.051416 126.770817 
L 82.152095 125.925713 
L 88.938139 115.849947 
L 77.859682 116.758405 
z
" style="fill:#1d6fa8;fill-opacity:0.2;"/>
    <path clip-path="url(#pd360b2b23b)" d="M 88.938139 115.849947 
L 100.169447 114.928955 
L 106.848037 104.914927 
L 95.640503 105.898426 
z
" style="fill:#1d6fa8;fill-opacity:0.2;"/>
    <path clip-path="url(#pd360b2b23b)" d="M 106.848037 104.914927 
L 118.210303 103.917849 
L 124.781155 93.96573 
L 113.44422 95.024464 
z
" style="fill:#1d6fa8;fill-opacity:0.2;"/>
    <path clip-path="url(#pd360b2b23b)" d="M 124.781155 93.96573 
L 136.274711 92.89237 
L 142.737539 83.002328 
L 131.270877 84.13649 
z
" style="fill:#1d6fa8;fill-opacity:0.2;"/>
    <path clip-path="url(#pd360b2b23b)" d="M 64.158204 136.908154 
L 75.280794 136.128068 
L 82.152095 125.925713 
L 71.051416 126.770817 
z
" style="fill:#1d6fa8;fill-opacity:0.2;"/>
    <path clip-path="url(#pd360b2b23b)" d="M 82.152095 125.925713 
L 93.406894 125.068877 
L 100.169447 114.928955 
L 88.938139 115.849947 
z
" style="fill:#1d6fa8;fill-opacity:0.2;"/>
    <path clip-path="url(#pd360b2b23b)" d="M 100.169447 114.928955 
L 111.556789 113.995167 
L 118.210303 103.917849 
L 106.848037 104.914927 
z
" style="fill:#1d6fa8;fill-opacity:0.2;"/>
    <path clip-path="url(#pd360b2b23b)" d="M 118.210303 103.917849 
L 129.730527 102.90691 
L 136.274711 92.89237 
L 124.781155 93.96573 
z
" style="fill:#1d6fa8;fill-opacity:0.2;"/>
    <path clip-path="url(#pd360b2b23b)" d="M 136.274711 92.89237 
L 147.928155 91.804078 
L 154.362717 81.852488 
L 142.737539 83.002328 
z
" style="fill:#1d6fa8;fill-opacity:0.2;"/>
    <path clip-path="url(#pd360b2b23b)" d="M 57.178444 147.172769 
L 68.32262 146.459411 
L 75.280794 136.128068 
L 64.158204 136.908154 
z
" style="fill:#1d6fa8;fill-opacity:0.2;"/>
    <path clip-path="url(#pd360b2b23b)" d="M 75.280794 136.128068 
L 86.558785 135.337083 
L 93.406894 125.068877 
L 82.152095 125.925713 
z
" style="fill:#1d6fa8;fill-opacity:0.2;"/>
    <path clip-path="url(#pd360b2b23b)" d="M 93.406894 125.068877 
L 104.819043 124.200061 
L 111.556789 113.995167 
L 100.169447 114.928955 
z
" style="fill:#1d6fa8;fill-opacity:0.2;"/>
    <path clip-path="url(#pd360b2b23b)" d="M 111.556789 113.995167 
L 123.103441 113.048316 
L 129.730527 102.90691 
L 118.210303 103.917849 
z
" style="fill:#1d6fa8;fill-opacity:0.2;"/>
    <path clip-path="url(#pd360b2b23b)" d="M 129.730527 102.90691 
L 141.412027 101.881819 
L 147.928155 91.804078 
L 136.274711 92.89237 
z
" style="fill:#1d6fa8;fill-opacity:0.2;"/>
    <path clip-path="url(#pd360b2b23b)" d="M 147.928155 91.804078 
L 159.744848 90.700541 
L 166.149721 80.686641 
L 154.362717 81.852488 
z
" style="fill:#1d6fa8;fill-opacity:0.2;"/>
    <path clip-path="url(#pd360b2b23b)" d="M 50.110498 157.567074 
L 61.275913 156.922204 
L 68.32262 146.459411 
L 57.178444 147.172769 
z
" style="fill:#1d6fa8;fill-opacity:0.2;"/>
    <path clip-path="url(#pd360b2b23b)" d="M 68.32262 146.459411 
L 79.623488 145.736022 
L 86.558785 135.337083 
L 75.280794 136.128068 
z
" style="fill:#1d6fa8;fill-opacity:0.2;"/>
    <path clip-path="url(#pd360b2b23b)" d="M 86.558785 135.337083 
L 97.995456 134.534969 
L 104.819043 124.200061 
L 93.406894 125.068877 
z
" style="fill:#1d6fa8;fill-opacity:0.2;"/>
    <path clip-path="url(#pd360b2b23b)" d="M 104.819043 124.200061 
L 116.391867 123.319013 
L 123.103441 113.048316 
L 111.556789 113.995167 
z
" style="fill:#1d6fa8;fill-opacity:0.2;"/>
    <path clip-path="url(#pd360b2b23b)" d="M 123.103441 113.048316 
L 134.812769 112.088125 
L 141.412027 101.881819 
L 129.730527 102.90691 
z
" style="fill:#1d6fa8;fill-opacity:0.2;"/>
    <path clip-path="url(#pd360b2b23b)" d="M 141.412027 101.881819 
L 153.258212 100.842276 
L 159.744848 90.700541 
L 147.928155 91.804078 
z
" style="fill:#1d6fa8;fill-opacity:0.2;"/>
    <path clip-path="url(#pd360b2b23b)" d="M 159.744848 90.700541 
L 171.728243 89.581435 
L 178.101953 79.504451 
L 166.149721 80.686641 
z
" style="fill:#1d6fa8;fill-opacity:0.2;"/>
    <path clip-path="url(#pd360b2b23b)" d="M 42.952683 168.093542 
L 54.138974 167.518971 
L 61.275913 156.922204 
L 50.110498 157.567074 
z
" style="fill:#1d6fa8;fill-opacity:0.2;"/>
    <path clip-path="url(#pd360b2b23b)" d="M 61.275913 156.922204 
L 72.599325 156.268208 
L 79.623488 145.736022 
L 68.32262 146.459411 
z
" style="fill:#1d6fa8;fill-opacity:0.2;"/>
    <path clip-path="url(#pd360b2b23b)" d="M 79.623488 145.736022 
L 91.084377 145.002391 
L 97.995456 134.534969 
L 86.558785 135.337083 
z
" style="fill:#1d6fa8;fill-opacity:0.2;"/>
    <path clip-path="url(#pd360b2b23b)" d="M 97.995456 134.534969 
L 109.59418 133.721489 
L 116.391867 123.319013 
L 104.819043 124.200061 
z
" style="fill:#1d6fa8;fill-opacity:0.2;"/>
    <path clip-path="url(#pd360b2b23b)" d="M 116.391867 123.319013 
L 128.128783 122.425472 
L 134.812769 112.088125 
L 123.103441 113.048316 
z
" style="fill:#1d6fa8;fill-opacity:0.2;"/>
    <path clip-path="url(#pd360b2b23b)" d="M 134.812769 112.088125 
L 146.688236 111.11431 
L 153.258212 100.842276 
L 141.412027 101.881819 
z
" style="fill:#1d6fa8;fill-opacity:0.2;"/>
    <path clip-path="url(#pd360b2b23b)" d="M 153.258212 100.842276 
L 165.27259 99.787973 
L 171.728243 89.581435 
L 159.744848 90.700541 
z
" style="fill:#1d6fa8;fill-opacity:0.2;"/>
    <path clip-path="url(#pd360b2b23b)" d="M 171.728243 89.581435 
L 183.881893 88.44643 
L 190.222913 78.305573 
L 178.101953 79.504451 
z
" style="fill:#1d6fa8;fill-opacity:0.2;"/>
    <path clip-path="url(#pd360b2b23b)" d="M 35.703274 178.754711 
L 46.910058 178.252304 
L 54.138974 167.518971 
L 42.952683 168.093542 
z
" style="fill:#1d6fa8;fill-opacity:0.2;"/>
    <path clip-path="url(#pd360b2b23b)" d="M 54.138974 167.518971 
L 65.484578 166.936218 
L 72.599325 156.268208 
L 61.275913 156.922204 
z
" style="fill:#1d6fa8;fill-opacity:0.2;"/>
    <path clip-path="url(#pd360b2b23b)" d="M 72.599325 156.268208 
L 84.084112 155.604892 
L 91.084377 145.002391 
L 79.623488 145.736022 
z
" style="fill:#1d6fa8;fill-opacity:0.2;"/>
    <path clip-path="url(#pd360b2b23b)" d="M 91.084377 145.002391 
L 102.708711 144.258297 
L 109.59418 133.721489 
L 97.995456 134.534969 
z
" style="fill:#1d6fa8;fill-opacity:0.2;"/>
    <path clip-path="url(#pd360b2b23b)" d="M 109.59418 133.721489 
L 121.358425 132.8964 
L 128.128783 122.425472 
L 116.391867 123.319013 
z
" style="fill:#1d6fa8;fill-opacity:0.2;"/>
    <path clip-path="url(#pd360b2b23b)" d="M 128.128783 122.425472 
L 140.033305 121.519171 
L 146.688236 111.11431 
L 134.812769 112.088125 
z
" style="fill:#1d6fa8;fill-opacity:0.2;"/>
    <path clip-path="url(#pd360b2b23b)" d="M 146.688236 111.11431 
L 158.733403 110.12658 
L 165.27259 99.787973 
L 153.258212 100.842276 
z
" style="fill:#1d6fa8;fill-opacity:0.2;"/>
    <path clip-path="url(#pd360b2b23b)" d="M 165.27259 99.787973 
L 177.458768 98.718594 
L 183.881893 88.44643 
L 171.728243 89.581435 
z
" style="fill:#1d6fa8;fill-opacity:0.2;"/>
    <path clip-path="url(#pd360b2b23b)" d="M 183.881893 88.44643 
L 196.209454 87.295184 
L 202.516198 77.08965 
L 190.222913 78.305573 
z
" style="fill:#1d6fa8;fill-opacity:0.2;"/>
    <path clip-path="url(#pd360b2b23b)" d="M 46.910058 178.252304 
L 58.277484 177.742696 
L 65.484578 166.936218 
L 54.138974 167.518971 
z
" style="fill:#1d6fa8;fill-opacity:0.2;"/>
    <path clip-path="url(#pd360b2b23b)" d="M 65.484578 166.936218 
L 76.992924 166.345105 
L 84.084112 155.604892 
L 72.599325 156.268208 
z
" style="fill:#1d6fa8;fill-opacity:0.2;"/>
    <path clip-path="url(#pd360b2b23b)" d="M 84.084112 155.604892 
L 95.733749 154.932055 
L 102.708711 144.258297 
L 91.084377 145.002391 
z
" style="fill:#1d6fa8;fill-opacity:0.2;"/>
    <path clip-path="url(#pd360b2b23b)" d="M 102.708711 144.258297 
L 114.500011 143.503515 
L 121.358425 132.8964 
L 109.59418 133.721489 
z
" style="fill:#1d6fa8;fill-opacity:0.2;"/>
    <path clip-path="url(#pd360b2b23b)" d="M 121.358425 132.8964 
L 133.29176 132.059452 
L 140.033305 121.519171 
L 128.128783 122.425472 
z
" style="fill:#1d6fa8;fill-opacity:0.2;"/>
    <path clip-path="url(#pd360b2b23b)" d="M 140.033305 121.519171 
L 152.10905 120.599835 
L 158.733403 110.12658 
L 146.688236 111.11431 
z
" style="fill:#1d6fa8;fill-opacity:0.2;"/>
    <path clip-path="url(#pd360b2b23b)" d="M 158.733403 110.12658 
L 170.951933 109.124633 
L 177.458768 98.718594 
L 165.27259 99.787973 
z
" style="fill:#1d6fa8;fill-opacity:0.2;"/>
    <path clip-path="url(#pd360b2b23b)" d="M 177.458768 98.718594 
L 189.82046 97.633814 
L 196.209454 87.295184 
L 183.881893 88.44643 
z
" style="fill:#1d6fa8;fill-opacity:0.2;"/>
    <path clip-path="url(#pd360b2b23b)" d="M 58.277484 177.742696 
L 69.809029 177.22573 
L 76.992924 166.345105 
L 65.484578 166.936218 
z
" style="fill:#1d6fa8;fill-opacity:0.2;"/>
    <path clip-path="url(#pd360b2b23b)" d="M 76.992924 166.345105 
L 88.667538 165.745452 
L 95.733749 154.932055 
L 84.084112 155.604892 
z
" style="fill:#1d6fa8;fill-opacity:0.2;"/>
    <path clip-path="url(#pd360b2b23b)" d="M 95.733749 154.932055 
L 107.55181 154.249491 
L 114.500011 143.503515 
L 102.708711 144.258297 
z
" style="fill:#1d6fa8;fill-opacity:0.2;"/>
    <path clip-path="url(#pd360b2b23b)" d="M 114.500011 143.503515 
L 126.461899 142.737813 
L 133.29176 132.059452 
L 121.358425 132.8964 
z
" style="fill:#1d6fa8;fill-opacity:0.2;"/>
    <path clip-path="url(#pd360b2b23b)" d="M 133.29176 132.059452 
L 145.397858 131.210387 
L 152.10905 120.599835 
L 140.033305 121.519171 
z
" style="fill:#1d6fa8;fill-opacity:0.2;"/>
    <path clip-path="url(#pd360b2b23b)" d="M 152.10905 120.599835 
L 164.359739 119.667181 
L 170.951933 109.124633 
L 158.733403 110.12658 
z
" style="fill:#1d6fa8;fill-opacity:0.2;"/>
    <path clip-path="url(#pd360b2b23b)" d="M 170.951933 109.124633 
L 183.347596 108.108161 
L 189.82046 97.633814 
L 177.458768 98.718594 
z
" style="fill:#1d6fa8;fill-opacity:0.2;"/>
    <path clip-path="url(#pd360b2b23b)" d="M 69.809029 177.22573 
L 81.508275 176.701246 
L 88.667538 165.745452 
L 76.992924 166.345105 
z
" style="fill:#1d6fa8;fill-opacity:0.2;"/>
    <path clip-path="url(#pd360b2b23b)" d="M 88.667538 165.745452 
L 100.512049 165.137073 
L 107.55181 154.249491 
L 95.733749 154.932055 
z
" style="fill:#1d6fa8;fill-opacity:0.2;"/>
    <path clip-path="url(#pd360b2b23b)" d="M 107.55181 154.249491 
L 119.541975 153.556986 
L 126.461899 142.737813 
L 114.500011 143.503515 
z
" style="fill:#1d6fa8;fill-opacity:0.2;"/>
    <path clip-path="url(#pd360b2b23b)" d="M 126.461899 142.737813 
L 138.598106 141.960953 
L 145.397858 131.210387 
L 133.29176 132.059452 
z
" style="fill:#1d6fa8;fill-opacity:0.2;"/>
    <path clip-path="url(#pd360b2b23b)" d="M 145.397858 131.210387 
L 157.680496 130.348941 
L 164.359739 119.667181 
L 152.10905 120.599835 
z
" style="fill:#1d6fa8;fill-opacity:0.2;"/>
    <path clip-path="url(#pd360b2b23b)" d="M 164.359739 119.667181 
L 176.7892 118.720916 
L 183.347596 108.108161 
L 170.951933 109.124633 
z
" style="fill:#1d6fa8;fill-opacity:0.2;"/>
    <path clip-path="url(#pd360b2b23b)" d="M 81.508275 176.701246 
L 93.378906 176.169079 
L 100.512049 165.137073 
L 88.667538 165.745452 
z
" style="fill:#1d6fa8;fill-opacity:0.2;"/>
    <path clip-path="url(#pd360b2b23b)" d="M 100.512049 165.137073 
L 112.530195 164.519775 
L 119.541975 153.556986 
L 107.55181 154.249491 
z
" style="fill:#1d6fa8;fill-opacity:0.2;"/>
    <path clip-path="url(#pd360b2b23b)" d="M 119.541975 153.556986 
L 131.708031 152.854323 
L 138.598106 141.960953 
L 126.461899 142.737813 
z
" style="fill:#1d6fa8;fill-opacity:0.2;"/>
    <path clip-path="url(#pd360b2b23b)" d="M 138.598106 141.960953 
L 150.912469 141.172689 
L 157.680496 130.348941 
L 145.397858 131.210387 
z
" style="fill:#1d6fa8;fill-opacity:0.2;"/>
    <path clip-path="url(#pd360b2b23b)" d="M 157.680496 130.348941 
L 170.143566 129.47484 
L 176.7892 118.720916 
L 164.359739 119.667181 
z
" style="fill:#1d6fa8;fill-opacity:0.2;"/>
    <path clip-path="url(#pd360b2b23b)" d="M 93.378906 176.169079 
L 105.424717 175.629058 
L 112.530195 164.519775 
L 100.512049 165.137073 
z
" style="fill:#1d6fa8;fill-opacity:0.2;"/>
    <path clip-path="url(#pd360b2b23b)" d="M 112.530195 164.519775 
L 124.72582 163.893361 
L 131.708031 152.854323 
L 119.541975 153.556986 
z
" style="fill:#1d6fa8;fill-opacity:0.2;"/>
    <path clip-path="url(#pd360b2b23b)" d="M 131.708031 152.854323 
L 144.053876 152.141276 
L 150.912469 141.172689 
L 138.598106 141.960953 
z
" style="fill:#1d6fa8;fill-opacity:0.2;"/>
    <path clip-path="url(#pd360b2b23b)" d="M 150.912469 141.172689 
L 163.408941 140.372768 
L 170.143566 129.47484 
L 157.680496 130.348941 
z
" style="fill:#1d6fa8;fill-opacity:0.2;"/>
    <path clip-path="url(#pd360b2b23b)" d="M 105.424717 175.629058 
L 117.649613 175.081009 
L 124.72582 163.893361 
L 112.530195 164.519775 
z
" style="fill:#1d6fa8;fill-opacity:0.2;"/>
    <path clip-path="url(#pd360b2b23b)" d="M 124.72582 163.893361 
L 137.102885 163.257627 
L 144.053876 152.141276 
L 131.708031 152.854323 
z
" style="fill:#1d6fa8;fill-opacity:0.2;"/>
    <path clip-path="url(#pd360b2b23b)" d="M 144.053876 152.141276 
L 156.583525 151.417613 
L 163.408941 140.372768 
L 150.912469 141.172689 
z
" style="fill:#1d6fa8;fill-opacity:0.2;"/>
    <path clip-path="url(#pd360b2b23b)" d="M 117.649613 175.081009 
L 130.057619 174.52475 
L 137.102885 163.257627 
L 124.72582 163.893361 
z
" style="fill:#1d6fa8;fill-opacity:0.2;"/>
    <path clip-path="url(#pd360b2b23b)" d="M 137.102885 163.257627 
L 149.665471 162.612365 
L 156.583525 151.417613 
L 144.053876 152.141276 
z
" style="fill:#1d6fa8;fill-opacity:0.2;"/>
    <path clip-path="url(#pd360b2b23b)" d="M 130.057619 174.52475 
L 142.652879 173.960098 
L 149.665471 162.612365 
L 137.102885 163.257627 
z
" style="fill:#1d6fa8;fill-opacity:0.2;"/>
   </g>
   <g id="legend_1">
    <g id="patch_6">
     <path d="M 143.310313 59.65 
L 217.64 59.65 
Q 219.64 59.65 219.64 57.65 
L 219.64 29.29375 
Q 219.64 27.29375 217.64 27.29375 
L 143.310313 27.29375 
Q 141.310313 27.29375 141.310313 29.29375 
L 141.310313 57.65 
Q 141.310313 59.65 143.310313 59.65 
z
" style="fill:#ffffff;opacity:0.8;stroke:#cccccc;stroke-linejoin:miter;"/>
    </g>
    <g id="Path3DCollection_2">
     <defs>
      <path d="M 0 2.236068 
C 0.593012 2.236068 1.161816 2.000462 1.581139 1.581139 
C 2.000462 1.161816 2.236068 0.593012 2.236068 0 
C 2.236068 -0.593012 2.000462 -1.161816 1.581139 -1.581139 
C 1.161816 -2.000462 0.593012 -2.236068 0 -2.236068 
C -0.593012 -2.236068 -1.161816 -2.000462 -1.581139 -1.581139 
C -2.000462 -1.161816 -2.236068 -0.593012 -2.236068 0 
C -2.236068 0.593012 -2.000462 1.161816 -1.581139 1.581139 
C -1.161816 2.000462 -0.593012 2.236068 0 2.236068 
z
" id="mef23f5fbd6" style="stroke:#ff0000;"/>
     </defs>
     <g>
      <use style="fill:#ff0000;stroke:#ff0000;" x="155.310313" xlink:href="#mef23f5fbd6" y="36.267188"/>
     </g>
    </g>
    <g id="text_21">
     <!-- Data -->
     <g transform="translate(173.310313 38.892188)scale(0.1 -0.1)">
      <defs>
       <path d="M 1259 4147 
L 1259 519 
L 2022 519 
Q 2988 519 3436 956 
Q 3884 1394 3884 2338 
Q 3884 3275 3436 3711 
Q 2988 4147 2022 4147 
L 1259 4147 
z
M 628 4666 
L 1925 4666 
Q 3281 4666 3915 4102 
Q 4550 3538 4550 2338 
Q 4550 1131 3912 565 
Q 3275 0 1925 0 
L 628 0 
L 628 4666 
z
" id="DejaVuSans-44" transform="scale(0.015625)"/>
       <path d="M 2194 1759 
Q 1497 1759 1228 1600 
Q 959 1441 959 1056 
Q 959 750 1161 570 
Q 1363 391 1709 391 
Q 2188 391 2477 730 
Q 2766 1069 2766 1631 
L 2766 1759 
L 2194 1759 
z
M 3341 1997 
L 3341 0 
L 2766 0 
L 2766 531 
Q 2569 213 2275 61 
Q 1981 -91 1556 -91 
Q 1019 -91 701 211 
Q 384 513 384 1019 
Q 384 1609 779 1909 
Q 1175 2209 1959 2209 
L 2766 2209 
L 2766 2266 
Q 2766 2663 2505 2880 
Q 2244 3097 1772 3097 
Q 1472 3097 1187 3025 
Q 903 2953 641 2809 
L 641 3341 
Q 956 3463 1253 3523 
Q 1550 3584 1831 3584 
Q 2591 3584 2966 3190 
Q 3341 2797 3341 1997 
z
" id="DejaVuSans-61" transform="scale(0.015625)"/>
       <path d="M 1172 4494 
L 1172 3500 
L 2356 3500 
L 2356 3053 
L 1172 3053 
L 1172 1153 
Q 1172 725 1289 603 
Q 1406 481 1766 481 
L 2356 481 
L 2356 0 
L 1766 0 
Q 1100 0 847 248 
Q 594 497 594 1153 
L 594 3053 
L 172 3053 
L 172 3500 
L 594 3500 
L 594 4494 
L 1172 4494 
z
" id="DejaVuSans-74" transform="scale(0.015625)"/>
      </defs>
      <use xlink:href="#DejaVuSans-44"/>
      <use x="77.001953" xlink:href="#DejaVuSans-61"/>
      <use x="138.28125" xlink:href="#DejaVuSans-74"/>
      <use x="177.490234" xlink:href="#DejaVuSans-61"/>
     </g>
    </g>
    <g id="patch_7">
     <path d="M 145.310313 53.570312 
L 165.310313 53.570312 
L 165.310313 46.570312 
L 145.310313 46.570312 
z
" style="fill:#1d6fa8;fill-opacity:0.2;"/>
    </g>
    <g id="text_22">
     <!-- Fit Plane -->
     <g transform="translate(173.310313 53.570312)scale(0.1 -0.1)">
      <defs>
       <path d="M 628 4666 
L 3309 4666 
L 3309 4134 
L 1259 4134 
L 1259 2759 
L 3109 2759 
L 3109 2228 
L 1259 2228 
L 1259 0 
L 628 0 
L 628 4666 
z
" id="DejaVuSans-46" transform="scale(0.015625)"/>
       <path d="M 603 3500 
L 1178 3500 
L 1178 0 
L 603 0 
L 603 3500 
z
M 603 4863 
L 1178 4863 
L 1178 4134 
L 603 4134 
L 603 4863 
z
" id="DejaVuSans-69" transform="scale(0.015625)"/>
       <path id="DejaVuSans-20" transform="scale(0.015625)"/>
       <path d="M 1259 4147 
L 1259 2394 
L 2053 2394 
Q 2494 2394 2734 2622 
Q 2975 2850 2975 3272 
Q 2975 3691 2734 3919 
Q 2494 4147 2053 4147 
L 1259 4147 
z
M 628 4666 
L 2053 4666 
Q 2838 4666 3239 4311 
Q 3641 3956 3641 3272 
Q 3641 2581 3239 2228 
Q 2838 1875 2053 1875 
L 1259 1875 
L 1259 0 
L 628 0 
L 628 4666 
z
" id="DejaVuSans-50" transform="scale(0.015625)"/>
       <path d="M 603 4863 
L 1178 4863 
L 1178 0 
L 603 0 
L 603 4863 
z
" id="DejaVuSans-6c" transform="scale(0.015625)"/>
       <path d="M 3513 2113 
L 3513 0 
L 2938 0 
L 2938 2094 
Q 2938 2591 2744 2837 
Q 2550 3084 2163 3084 
Q 1697 3084 1428 2787 
Q 1159 2491 1159 1978 
L 1159 0 
L 581 0 
L 581 3500 
L 1159 3500 
L 1159 2956 
Q 1366 3272 1645 3428 
Q 1925 3584 2291 3584 
Q 2894 3584 3203 3211 
Q 3513 2838 3513 2113 
z
" id="DejaVuSans-6e" transform="scale(0.015625)"/>
       <path d="M 3597 1894 
L 3597 1613 
L 953 1613 
Q 991 1019 1311 708 
Q 1631 397 2203 397 
Q 2534 397 2845 478 
Q 3156 559 3463 722 
L 3463 178 
Q 3153 47 2828 -22 
Q 2503 -91 2169 -91 
Q 1331 -91 842 396 
Q 353 884 353 1716 
Q 353 2575 817 3079 
Q 1281 3584 2069 3584 
Q 2775 3584 3186 3129 
Q 3597 2675 3597 1894 
z
M 3022 2063 
Q 3016 2534 2758 2815 
Q 2500 3097 2075 3097 
Q 1594 3097 1305 2825 
Q 1016 2553 972 2059 
L 3022 2063 
z
" id="DejaVuSans-65" transform="scale(0.015625)"/>
      </defs>
      <use xlink:href="#DejaVuSans-46"/>
      <use x="50.269531" xlink:href="#DejaVuSans-69"/>
      <use x="78.052734" xlink:href="#DejaVuSans-74"/>
      <use x="117.261719" xlink:href="#DejaVuSans-20"/>
      <use x="149.048828" xlink:href="#DejaVuSans-50"/>
      <use x="209.351562" xlink:href="#DejaVuSans-6c"/>
      <use x="237.134766" xlink:href="#DejaVuSans-61"/>
      <use x="298.414062" xlink:href="#DejaVuSans-6e"/>
      <use x="361.792969" xlink:href="#DejaVuSans-65"/>
     </g>
    </g>
   </g>
  </g>
 </g>
 <defs>
  <clipPath id="pd360b2b23b">
   <rect height="217.44" width="217.44" x="7.2" y="22.29375"/>
  </clipPath>
 </defs>
</svg>
