<?xml version="1.0" encoding="utf-8" standalone="no"?>
<!DOCTYPE svg PUBLIC "-//W3C//DTD SVG 1.1//EN"
  "http://www.w3.org/Graphics/SVG/1.1/DTD/svg11.dtd">
<svg height="370.91625pt" version="1.1" viewBox="0 0 738.445312 370.91625" width="738.445312pt" xmlns="http://www.w3.org/2000/svg" xmlns:xlink="http://www.w3.org/1999/xlink">
 <metadata>
  <rdf:RDF xmlns:cc="http://creativecommons.org/ns#" xmlns:dc="http://purl.org/dc/elements/1.1/" xmlns:rdf="http://www.w3.org/1999/02/22-rdf-syntax-ns#">
   <cc:Work>
    <dc:type rdf:resource="http://purl.org/dc/dcmitype/StillImage"/>
    <dc:date>2021-10-23T22:19:54.797669</dc:date>
    <dc:format>image/svg+xml</dc:format>
    <dc:creator>
     <cc:Agent>
      <dc:title>Matplotlib v3.4.3, https://matplotlib.org/</dc:title>
     </cc:Agent>
    </dc:creator>
   </cc:Work>
  </rdf:RDF>
 </metadata>
 <defs>
  <style type="text/css">*{stroke-linecap:butt;stroke-linejoin:round;}</style>
 </defs>
 <g id="figure_1">
  <g id="patch_1">
   <path d="M 0 370.91625 
L 738.445312 370.91625 
L 738.445312 0 
L 0 0 
z
" style="fill:none;"/>
  </g>
  <g id="axes_1">
   <g id="patch_2">
    <path d="M 61.645313 333.36 
L 731.245313 333.36 
L 731.245313 7.2 
L 61.645313 7.2 
z
" style="fill:#ffffff;"/>
   </g>
   <g id="matplotlib.axis_1">
    <g id="xtick_1">
     <g id="line2d_1">
      <defs>
       <path d="M 0 0 
L 0 3.5 
" id="mae47743aca" style="stroke:#000000;stroke-width:0.8;"/>
      </defs>
      <g>
       <use style="stroke:#000000;stroke-width:0.8;" x="92.081676" xlink:href="#mae47743aca" y="333.36"/>
      </g>
     </g>
     <g id="text_1">
      <!-- 0.0 -->
      <g transform="translate(84.130114 347.958438)scale(0.1 -0.1)">
       <defs>
        <path d="M 2034 4250 
Q 1547 4250 1301 3770 
Q 1056 3291 1056 2328 
Q 1056 1369 1301 889 
Q 1547 409 2034 409 
Q 2525 409 2770 889 
Q 3016 1369 3016 2328 
Q 3016 3291 2770 3770 
Q 2525 4250 2034 4250 
z
M 2034 4750 
Q 2819 4750 3233 4129 
Q 3647 3509 3647 2328 
Q 3647 1150 3233 529 
Q 2819 -91 2034 -91 
Q 1250 -91 836 529 
Q 422 1150 422 2328 
Q 422 3509 836 4129 
Q 1250 4750 2034 4750 
z
" id="DejaVuSans-30" transform="scale(0.015625)"/>
        <path d="M 684 794 
L 1344 794 
L 1344 0 
L 684 0 
L 684 794 
z
" id="DejaVuSans-2e" transform="scale(0.015625)"/>
       </defs>
       <use xlink:href="#DejaVuSans-30"/>
       <use x="63.623047" xlink:href="#DejaVuSans-2e"/>
       <use x="95.410156" xlink:href="#DejaVuSans-30"/>
      </g>
     </g>
    </g>
    <g id="xtick_2">
     <g id="line2d_2">
      <g>
       <use style="stroke:#000000;stroke-width:0.8;" x="215.056883" xlink:href="#mae47743aca" y="333.36"/>
      </g>
     </g>
     <g id="text_2">
      <!-- 0.2 -->
      <g transform="translate(207.10532 347.958438)scale(0.1 -0.1)">
       <defs>
        <path d="M 1228 531 
L 3431 531 
L 3431 0 
L 469 0 
L 469 531 
Q 828 903 1448 1529 
Q 2069 2156 2228 2338 
Q 2531 2678 2651 2914 
Q 2772 3150 2772 3378 
Q 2772 3750 2511 3984 
Q 2250 4219 1831 4219 
Q 1534 4219 1204 4116 
Q 875 4013 500 3803 
L 500 4441 
Q 881 4594 1212 4672 
Q 1544 4750 1819 4750 
Q 2544 4750 2975 4387 
Q 3406 4025 3406 3419 
Q 3406 3131 3298 2873 
Q 3191 2616 2906 2266 
Q 2828 2175 2409 1742 
Q 1991 1309 1228 531 
z
" id="DejaVuSans-32" transform="scale(0.015625)"/>
       </defs>
       <use xlink:href="#DejaVuSans-30"/>
       <use x="63.623047" xlink:href="#DejaVuSans-2e"/>
       <use x="95.410156" xlink:href="#DejaVuSans-32"/>
      </g>
     </g>
    </g>
    <g id="xtick_3">
     <g id="line2d_3">
      <g>
       <use style="stroke:#000000;stroke-width:0.8;" x="338.032089" xlink:href="#mae47743aca" y="333.36"/>
      </g>
     </g>
     <g id="text_3">
      <!-- 0.4 -->
      <g transform="translate(330.080527 347.958438)scale(0.1 -0.1)">
       <defs>
        <path d="M 2419 4116 
L 825 1625 
L 2419 1625 
L 2419 4116 
z
M 2253 4666 
L 3047 4666 
L 3047 1625 
L 3713 1625 
L 3713 1100 
L 3047 1100 
L 3047 0 
L 2419 0 
L 2419 1100 
L 313 1100 
L 313 1709 
L 2253 4666 
z
" id="DejaVuSans-34" transform="scale(0.015625)"/>
       </defs>
       <use xlink:href="#DejaVuSans-30"/>
       <use x="63.623047" xlink:href="#DejaVuSans-2e"/>
       <use x="95.410156" xlink:href="#DejaVuSans-34"/>
      </g>
     </g>
    </g>
    <g id="xtick_4">
     <g id="line2d_4">
      <g>
       <use style="stroke:#000000;stroke-width:0.8;" x="461.007296" xlink:href="#mae47743aca" y="333.36"/>
      </g>
     </g>
     <g id="text_4">
      <!-- 0.6 -->
      <g transform="translate(453.055733 347.958438)scale(0.1 -0.1)">
       <defs>
        <path d="M 2113 2584 
Q 1688 2584 1439 2293 
Q 1191 2003 1191 1497 
Q 1191 994 1439 701 
Q 1688 409 2113 409 
Q 2538 409 2786 701 
Q 3034 994 3034 1497 
Q 3034 2003 2786 2293 
Q 2538 2584 2113 2584 
z
M 3366 4563 
L 3366 3988 
Q 3128 4100 2886 4159 
Q 2644 4219 2406 4219 
Q 1781 4219 1451 3797 
Q 1122 3375 1075 2522 
Q 1259 2794 1537 2939 
Q 1816 3084 2150 3084 
Q 2853 3084 3261 2657 
Q 3669 2231 3669 1497 
Q 3669 778 3244 343 
Q 2819 -91 2113 -91 
Q 1303 -91 875 529 
Q 447 1150 447 2328 
Q 447 3434 972 4092 
Q 1497 4750 2381 4750 
Q 2619 4750 2861 4703 
Q 3103 4656 3366 4563 
z
" id="DejaVuSans-36" transform="scale(0.015625)"/>
       </defs>
       <use xlink:href="#DejaVuSans-30"/>
       <use x="63.623047" xlink:href="#DejaVuSans-2e"/>
       <use x="95.410156" xlink:href="#DejaVuSans-36"/>
      </g>
     </g>
    </g>
    <g id="xtick_5">
     <g id="line2d_5">
      <g>
       <use style="stroke:#000000;stroke-width:0.8;" x="583.982503" xlink:href="#mae47743aca" y="333.36"/>
      </g>
     </g>
     <g id="text_5">
      <!-- 0.8 -->
      <g transform="translate(576.03094 347.958438)scale(0.1 -0.1)">
       <defs>
        <path d="M 2034 2216 
Q 1584 2216 1326 1975 
Q 1069 1734 1069 1313 
Q 1069 891 1326 650 
Q 1584 409 2034 409 
Q 2484 409 2743 651 
Q 3003 894 3003 1313 
Q 3003 1734 2745 1975 
Q 2488 2216 2034 2216 
z
M 1403 2484 
Q 997 2584 770 2862 
Q 544 3141 544 3541 
Q 544 4100 942 4425 
Q 1341 4750 2034 4750 
Q 2731 4750 3128 4425 
Q 3525 4100 3525 3541 
Q 3525 3141 3298 2862 
Q 3072 2584 2669 2484 
Q 3125 2378 3379 2068 
Q 3634 1759 3634 1313 
Q 3634 634 3220 271 
Q 2806 -91 2034 -91 
Q 1263 -91 848 271 
Q 434 634 434 1313 
Q 434 1759 690 2068 
Q 947 2378 1403 2484 
z
M 1172 3481 
Q 1172 3119 1398 2916 
Q 1625 2713 2034 2713 
Q 2441 2713 2670 2916 
Q 2900 3119 2900 3481 
Q 2900 3844 2670 4047 
Q 2441 4250 2034 4250 
Q 1625 4250 1398 4047 
Q 1172 3844 1172 3481 
z
" id="DejaVuSans-38" transform="scale(0.015625)"/>
       </defs>
       <use xlink:href="#DejaVuSans-30"/>
       <use x="63.623047" xlink:href="#DejaVuSans-2e"/>
       <use x="95.410156" xlink:href="#DejaVuSans-38"/>
      </g>
     </g>
    </g>
    <g id="xtick_6">
     <g id="line2d_6">
      <g>
       <use style="stroke:#000000;stroke-width:0.8;" x="706.957709" xlink:href="#mae47743aca" y="333.36"/>
      </g>
     </g>
     <g id="text_6">
      <!-- 1.0 -->
      <g transform="translate(699.006147 347.958438)scale(0.1 -0.1)">
       <defs>
        <path d="M 794 531 
L 1825 531 
L 1825 4091 
L 703 3866 
L 703 4441 
L 1819 4666 
L 2450 4666 
L 2450 531 
L 3481 531 
L 3481 0 
L 794 0 
L 794 531 
z
" id="DejaVuSans-31" transform="scale(0.015625)"/>
       </defs>
       <use xlink:href="#DejaVuSans-31"/>
       <use x="63.623047" xlink:href="#DejaVuSans-2e"/>
       <use x="95.410156" xlink:href="#DejaVuSans-30"/>
      </g>
     </g>
    </g>
    <g id="text_7">
     <!-- Scaled x -->
     <g transform="translate(375.269531 361.636563)scale(0.1 -0.1)">
      <defs>
       <path d="M 3425 4513 
L 3425 3897 
Q 3066 4069 2747 4153 
Q 2428 4238 2131 4238 
Q 1616 4238 1336 4038 
Q 1056 3838 1056 3469 
Q 1056 3159 1242 3001 
Q 1428 2844 1947 2747 
L 2328 2669 
Q 3034 2534 3370 2195 
Q 3706 1856 3706 1288 
Q 3706 609 3251 259 
Q 2797 -91 1919 -91 
Q 1588 -91 1214 -16 
Q 841 59 441 206 
L 441 856 
Q 825 641 1194 531 
Q 1563 422 1919 422 
Q 2459 422 2753 634 
Q 3047 847 3047 1241 
Q 3047 1584 2836 1778 
Q 2625 1972 2144 2069 
L 1759 2144 
Q 1053 2284 737 2584 
Q 422 2884 422 3419 
Q 422 4038 858 4394 
Q 1294 4750 2059 4750 
Q 2388 4750 2728 4690 
Q 3069 4631 3425 4513 
z
" id="DejaVuSans-53" transform="scale(0.015625)"/>
       <path d="M 3122 3366 
L 3122 2828 
Q 2878 2963 2633 3030 
Q 2388 3097 2138 3097 
Q 1578 3097 1268 2742 
Q 959 2388 959 1747 
Q 959 1106 1268 751 
Q 1578 397 2138 397 
Q 2388 397 2633 464 
Q 2878 531 3122 666 
L 3122 134 
Q 2881 22 2623 -34 
Q 2366 -91 2075 -91 
Q 1284 -91 818 406 
Q 353 903 353 1747 
Q 353 2603 823 3093 
Q 1294 3584 2113 3584 
Q 2378 3584 2631 3529 
Q 2884 3475 3122 3366 
z
" id="DejaVuSans-63" transform="scale(0.015625)"/>
       <path d="M 2194 1759 
Q 1497 1759 1228 1600 
Q 959 1441 959 1056 
Q 959 750 1161 570 
Q 1363 391 1709 391 
Q 2188 391 2477 730 
Q 2766 1069 2766 1631 
L 2766 1759 
L 2194 1759 
z
M 3341 1997 
L 3341 0 
L 2766 0 
L 2766 531 
Q 2569 213 2275 61 
Q 1981 -91 1556 -91 
Q 1019 -91 701 211 
Q 384 513 384 1019 
Q 384 1609 779 1909 
Q 1175 2209 1959 2209 
L 2766 2209 
L 2766 2266 
Q 2766 2663 2505 2880 
Q 2244 3097 1772 3097 
Q 1472 3097 1187 3025 
Q 903 2953 641 2809 
L 641 3341 
Q 956 3463 1253 3523 
Q 1550 3584 1831 3584 
Q 2591 3584 2966 3190 
Q 3341 2797 3341 1997 
z
" id="DejaVuSans-61" transform="scale(0.015625)"/>
       <path d="M 603 4863 
L 1178 4863 
L 1178 0 
L 603 0 
L 603 4863 
z
" id="DejaVuSans-6c" transform="scale(0.015625)"/>
       <path d="M 3597 1894 
L 3597 1613 
L 953 1613 
Q 991 1019 1311 708 
Q 1631 397 2203 397 
Q 2534 397 2845 478 
Q 3156 559 3463 722 
L 3463 178 
Q 3153 47 2828 -22 
Q 2503 -91 2169 -91 
Q 1331 -91 842 396 
Q 353 884 353 1716 
Q 353 2575 817 3079 
Q 1281 3584 2069 3584 
Q 2775 3584 3186 3129 
Q 3597 2675 3597 1894 
z
M 3022 2063 
Q 3016 2534 2758 2815 
Q 2500 3097 2075 3097 
Q 1594 3097 1305 2825 
Q 1016 2553 972 2059 
L 3022 2063 
z
" id="DejaVuSans-65" transform="scale(0.015625)"/>
       <path d="M 2906 2969 
L 2906 4863 
L 3481 4863 
L 3481 0 
L 2906 0 
L 2906 525 
Q 2725 213 2448 61 
Q 2172 -91 1784 -91 
Q 1150 -91 751 415 
Q 353 922 353 1747 
Q 353 2572 751 3078 
Q 1150 3584 1784 3584 
Q 2172 3584 2448 3432 
Q 2725 3281 2906 2969 
z
M 947 1747 
Q 947 1113 1208 752 
Q 1469 391 1925 391 
Q 2381 391 2643 752 
Q 2906 1113 2906 1747 
Q 2906 2381 2643 2742 
Q 2381 3103 1925 3103 
Q 1469 3103 1208 2742 
Q 947 2381 947 1747 
z
" id="DejaVuSans-64" transform="scale(0.015625)"/>
       <path id="DejaVuSans-20" transform="scale(0.015625)"/>
       <path d="M 3513 3500 
L 2247 1797 
L 3578 0 
L 2900 0 
L 1881 1375 
L 863 0 
L 184 0 
L 1544 1831 
L 300 3500 
L 978 3500 
L 1906 2253 
L 2834 3500 
L 3513 3500 
z
" id="DejaVuSans-78" transform="scale(0.015625)"/>
      </defs>
      <use xlink:href="#DejaVuSans-53"/>
      <use x="63.476562" xlink:href="#DejaVuSans-63"/>
      <use x="118.457031" xlink:href="#DejaVuSans-61"/>
      <use x="179.736328" xlink:href="#DejaVuSans-6c"/>
      <use x="207.519531" xlink:href="#DejaVuSans-65"/>
      <use x="269.042969" xlink:href="#DejaVuSans-64"/>
      <use x="332.519531" xlink:href="#DejaVuSans-20"/>
      <use x="364.306641" xlink:href="#DejaVuSans-78"/>
     </g>
    </g>
   </g>
   <g id="matplotlib.axis_2">
    <g id="ytick_1">
     <g id="line2d_7">
      <defs>
       <path d="M 0 0 
L -3.5 0 
" id="m2f00868113" style="stroke:#000000;stroke-width:0.8;"/>
      </defs>
      <g>
       <use style="stroke:#000000;stroke-width:0.8;" x="61.645313" xlink:href="#m2f00868113" y="303.812421"/>
      </g>
     </g>
     <g id="text_8">
      <!-- −0.15 -->
      <g transform="translate(24 307.61164)scale(0.1 -0.1)">
       <defs>
        <path d="M 678 2272 
L 4684 2272 
L 4684 1741 
L 678 1741 
L 678 2272 
z
" id="DejaVuSans-2212" transform="scale(0.015625)"/>
        <path d="M 691 4666 
L 3169 4666 
L 3169 4134 
L 1269 4134 
L 1269 2991 
Q 1406 3038 1543 3061 
Q 1681 3084 1819 3084 
Q 2600 3084 3056 2656 
Q 3513 2228 3513 1497 
Q 3513 744 3044 326 
Q 2575 -91 1722 -91 
Q 1428 -91 1123 -41 
Q 819 9 494 109 
L 494 744 
Q 775 591 1075 516 
Q 1375 441 1709 441 
Q 2250 441 2565 725 
Q 2881 1009 2881 1497 
Q 2881 1984 2565 2268 
Q 2250 2553 1709 2553 
Q 1456 2553 1204 2497 
Q 953 2441 691 2322 
L 691 4666 
z
" id="DejaVuSans-35" transform="scale(0.015625)"/>
       </defs>
       <use xlink:href="#DejaVuSans-2212"/>
       <use x="83.789062" xlink:href="#DejaVuSans-30"/>
       <use x="147.412109" xlink:href="#DejaVuSans-2e"/>
       <use x="179.199219" xlink:href="#DejaVuSans-31"/>
       <use x="242.822266" xlink:href="#DejaVuSans-35"/>
      </g>
     </g>
    </g>
    <g id="ytick_2">
     <g id="line2d_8">
      <g>
       <use style="stroke:#000000;stroke-width:0.8;" x="61.645313" xlink:href="#m2f00868113" y="260.805558"/>
      </g>
     </g>
     <g id="text_9">
      <!-- −0.10 -->
      <g transform="translate(24 264.604777)scale(0.1 -0.1)">
       <use xlink:href="#DejaVuSans-2212"/>
       <use x="83.789062" xlink:href="#DejaVuSans-30"/>
       <use x="147.412109" xlink:href="#DejaVuSans-2e"/>
       <use x="179.199219" xlink:href="#DejaVuSans-31"/>
       <use x="242.822266" xlink:href="#DejaVuSans-30"/>
      </g>
     </g>
    </g>
    <g id="ytick_3">
     <g id="line2d_9">
      <g>
       <use style="stroke:#000000;stroke-width:0.8;" x="61.645313" xlink:href="#m2f00868113" y="217.798696"/>
      </g>
     </g>
     <g id="text_10">
      <!-- −0.05 -->
      <g transform="translate(24 221.597915)scale(0.1 -0.1)">
       <use xlink:href="#DejaVuSans-2212"/>
       <use x="83.789062" xlink:href="#DejaVuSans-30"/>
       <use x="147.412109" xlink:href="#DejaVuSans-2e"/>
       <use x="179.199219" xlink:href="#DejaVuSans-30"/>
       <use x="242.822266" xlink:href="#DejaVuSans-35"/>
      </g>
     </g>
    </g>
    <g id="ytick_4">
     <g id="line2d_10">
      <g>
       <use style="stroke:#000000;stroke-width:0.8;" x="61.645313" xlink:href="#m2f00868113" y="174.791834"/>
      </g>
     </g>
     <g id="text_11">
      <!-- 0.00 -->
      <g transform="translate(32.379688 178.591052)scale(0.1 -0.1)">
       <use xlink:href="#DejaVuSans-30"/>
       <use x="63.623047" xlink:href="#DejaVuSans-2e"/>
       <use x="95.410156" xlink:href="#DejaVuSans-30"/>
       <use x="159.033203" xlink:href="#DejaVuSans-30"/>
      </g>
     </g>
    </g>
    <g id="ytick_5">
     <g id="line2d_11">
      <g>
       <use style="stroke:#000000;stroke-width:0.8;" x="61.645313" xlink:href="#m2f00868113" y="131.784971"/>
      </g>
     </g>
     <g id="text_12">
      <!-- 0.05 -->
      <g transform="translate(32.379688 135.58419)scale(0.1 -0.1)">
       <use xlink:href="#DejaVuSans-30"/>
       <use x="63.623047" xlink:href="#DejaVuSans-2e"/>
       <use x="95.410156" xlink:href="#DejaVuSans-30"/>
       <use x="159.033203" xlink:href="#DejaVuSans-35"/>
      </g>
     </g>
    </g>
    <g id="ytick_6">
     <g id="line2d_12">
      <g>
       <use style="stroke:#000000;stroke-width:0.8;" x="61.645313" xlink:href="#m2f00868113" y="88.778109"/>
      </g>
     </g>
     <g id="text_13">
      <!-- 0.10 -->
      <g transform="translate(32.379688 92.577328)scale(0.1 -0.1)">
       <use xlink:href="#DejaVuSans-30"/>
       <use x="63.623047" xlink:href="#DejaVuSans-2e"/>
       <use x="95.410156" xlink:href="#DejaVuSans-31"/>
       <use x="159.033203" xlink:href="#DejaVuSans-30"/>
      </g>
     </g>
    </g>
    <g id="ytick_7">
     <g id="line2d_13">
      <g>
       <use style="stroke:#000000;stroke-width:0.8;" x="61.645313" xlink:href="#m2f00868113" y="45.771247"/>
      </g>
     </g>
     <g id="text_14">
      <!-- 0.15 -->
      <g transform="translate(32.379688 49.570465)scale(0.1 -0.1)">
       <use xlink:href="#DejaVuSans-30"/>
       <use x="63.623047" xlink:href="#DejaVuSans-2e"/>
       <use x="95.410156" xlink:href="#DejaVuSans-31"/>
       <use x="159.033203" xlink:href="#DejaVuSans-35"/>
      </g>
     </g>
    </g>
    <g id="text_15">
     <!-- $\phi_{5}^{(i)}$ -->
     <g transform="translate(17.1 177.83)rotate(-90)scale(0.1 -0.1)">
      <defs>
       <path d="M 2991 4863 
L 2738 3572 
Q 3363 3572 3684 3094 
Q 4016 2606 3850 1747 
Q 3681 888 3159 400 
Q 2653 -78 2028 -78 
L 1784 -1331 
L 1213 -1331 
L 1456 -78 
Q 834 -78 509 400 
Q 178 888 347 1747 
Q 513 2606 1034 3094 
Q 1544 3572 2166 3572 
L 2419 4863 
L 2991 4863 
z
M 2128 434 
Q 2481 434 2784 756 
Q 3116 1116 3244 1747 
Q 3369 2372 3169 2738 
Q 2991 3059 2638 3059 
L 2128 434 
z
M 1556 434 
L 2066 3059 
Q 1716 3059 1413 2738 
Q 1072 2372 953 1747 
Q 834 1116 1028 756 
Q 1203 434 1556 434 
z
" id="DejaVuSans-Oblique-3d5" transform="scale(0.015625)"/>
       <path d="M 1984 4856 
Q 1566 4138 1362 3434 
Q 1159 2731 1159 2009 
Q 1159 1288 1364 580 
Q 1569 -128 1984 -844 
L 1484 -844 
Q 1016 -109 783 600 
Q 550 1309 550 2009 
Q 550 2706 781 3412 
Q 1013 4119 1484 4856 
L 1984 4856 
z
" id="DejaVuSans-28" transform="scale(0.015625)"/>
       <path d="M 1172 4863 
L 1747 4863 
L 1606 4134 
L 1031 4134 
L 1172 4863 
z
M 909 3500 
L 1484 3500 
L 800 0 
L 225 0 
L 909 3500 
z
" id="DejaVuSans-Oblique-69" transform="scale(0.015625)"/>
       <path d="M 513 4856 
L 1013 4856 
Q 1481 4119 1714 3412 
Q 1947 2706 1947 2009 
Q 1947 1309 1714 600 
Q 1481 -109 1013 -844 
L 513 -844 
Q 928 -128 1133 580 
Q 1338 1288 1338 2009 
Q 1338 2731 1133 3434 
Q 928 4138 513 4856 
z
" id="DejaVuSans-29" transform="scale(0.015625)"/>
      </defs>
      <use transform="translate(0 0.389063)" xlink:href="#DejaVuSans-Oblique-3d5"/>
      <use transform="translate(73.414505 45.810938)scale(0.7)" xlink:href="#DejaVuSans-28"/>
      <use transform="translate(100.724076 45.810938)scale(0.7)" xlink:href="#DejaVuSans-Oblique-69"/>
      <use transform="translate(120.172318 45.810938)scale(0.7)" xlink:href="#DejaVuSans-29"/>
      <use transform="translate(65.966797 -26.954687)scale(0.7)" xlink:href="#DejaVuSans-35"/>
     </g>
    </g>
   </g>
   <g id="line2d_14">
    <path clip-path="url(#p2f3dfa30e8)" d="M 92.081676 156.043254 
L 98.230436 137.747248 
L 104.379197 120.345466 
L 110.527957 104.257971 
L 116.676717 89.873102 
L 122.825478 77.538096 
L 128.974238 67.55071 
L 135.122998 60.15203 
L 141.271759 55.520655 
L 147.420519 53.768381 
L 153.569279 54.937506 
L 159.71804 58.99981 
L 165.8668 65.857231 
L 172.01556 75.344237 
L 178.164321 87.231822 
L 184.313081 101.233027 
L 190.461841 117.009878 
L 196.610602 134.181535 
L 202.759362 152.333488 
L 208.908122 171.027566 
L 215.056883 189.81251 
L 221.205643 208.234868 
L 227.354403 225.849941 
L 233.503164 242.232516 
L 239.651924 256.987132 
L 245.800684 269.757626 
L 251.949445 280.235729 
L 258.098205 288.168509 
L 264.246965 293.364477 
L 270.395726 295.698204 
L 276.544486 295.113359 
L 282.693246 291.624057 
L 288.842007 285.314529 
L 294.990767 276.33708 
L 301.139527 264.908417 
L 307.288288 251.30442 
L 313.437048 235.853476 
L 319.585808 218.928558 
L 325.734569 200.938219 
L 331.883329 182.316728 
L 338.032089 163.513593 
L 344.18085 144.982705 
L 350.32961 127.171383 
L 356.47837 110.509577 
L 362.627131 95.399488 
L 368.775891 82.20586 
L 374.924651 71.247177 
L 381.073412 62.78797 
L 387.222172 57.032438 
L 393.370932 54.119514 
L 399.519693 54.119514 
L 405.668453 57.032438 
L 411.817213 62.78797 
L 417.965974 71.247177 
L 424.114734 82.20586 
L 430.263494 95.399488 
L 436.412255 110.509577 
L 442.561015 127.171383 
L 448.709775 144.982705 
L 454.858536 163.513593 
L 461.007296 182.316728 
L 467.156056 200.938219 
L 473.304817 218.928558 
L 479.453577 235.853476 
L 485.602337 251.30442 
L 491.751098 264.908417 
L 497.899858 276.33708 
L 504.048618 285.314529 
L 510.197379 291.624057 
L 516.346139 295.113359 
L 522.494899 295.698204 
L 528.64366 293.364477 
L 534.79242 288.168509 
L 540.94118 280.235729 
L 547.089941 269.757626 
L 553.238701 256.987132 
L 559.387461 242.232516 
L 565.536222 225.849941 
L 571.684982 208.234868 
L 577.833742 189.81251 
L 583.982503 171.027566 
L 590.131263 152.333488 
L 596.280023 134.181535 
L 602.428784 117.009878 
L 608.577544 101.233027 
L 614.726304 87.231822 
L 620.875065 75.344237 
L 627.023825 65.857231 
L 633.172585 58.99981 
L 639.321346 54.937506 
L 645.470106 53.768381 
L 651.618866 55.520655 
L 657.767627 60.15203 
L 663.916387 67.55071 
L 670.065147 77.538096 
L 676.213908 89.873102 
L 682.362668 104.257971 
L 688.511428 120.345466 
L 694.660189 137.747248 
L 700.808949 156.043254 
" style="fill:none;stroke:#1f77b4;stroke-linecap:square;stroke-width:1.5;"/>
   </g>
   <g id="line2d_15">
    <path clip-path="url(#p2f3dfa30e8)" d="M 92.081676 155.710747 
L 98.230436 137.123332 
L 104.379197 119.506628 
L 110.527957 103.309067 
L 116.676717 88.939403 
L 122.825478 76.756823 
L 128.974238 67.062443 
L 135.122998 60.092392 
L 141.271759 56.012606 
L 147.420519 54.915442 
L 153.569279 56.818152 
L 159.71804 61.663234 
L 165.8668 69.320596 
L 172.01556 79.59148 
L 178.164321 92.213988 
L 184.313081 106.870083 
L 190.461841 123.193849 
L 196.610602 140.780807 
L 202.759362 159.198044 
L 208.908122 177.994909 
L 215.056883 196.714005 
L 221.205643 214.902223 
L 227.354403 232.121558 
L 233.503164 247.95945 
L 239.651924 262.038429 
L 245.800684 274.024826 
L 251.949445 283.636391 
L 258.098205 290.648619 
L 264.246965 294.899686 
L 270.395726 296.293871 
L 276.544486 294.80342 
L 282.693246 290.468809 
L 288.842007 283.397434 
L 294.990767 273.760753 
L 301.139527 261.789973 
L 307.288288 247.770385 
L 313.437048 232.034493 
L 319.585808 214.95409 
L 325.734569 196.931481 
L 331.883329 178.390049 
L 338.032089 159.764382 
L 344.18085 141.490186 
L 350.32961 123.994212 
L 356.47837 107.68443 
L 362.627131 92.940652 
L 368.775891 80.105835 
L 374.924651 69.478239 
L 381.073412 61.304623 
L 387.222172 55.774622 
L 393.370932 53.016439 
L 399.519693 53.093932 
L 405.668453 56.005171 
L 411.817213 61.68249 
L 417.965974 69.994037 
L 424.114734 80.746785 
L 430.263494 93.690938 
L 436.412255 108.525629 
L 442.561015 124.905803 
L 448.709775 142.450107 
L 454.858536 160.749633 
L 461.007296 179.37731 
L 467.156056 197.897739 
L 473.304817 215.877252 
L 479.453577 232.893965 
L 485.602337 248.547603 
L 491.751098 262.468871 
L 497.899858 274.328157 
L 504.048618 283.843362 
L 510.197379 290.786677 
L 516.346139 294.990149 
L 522.494899 296.349887 
L 528.64366 294.828817 
L 534.79242 290.457893 
L 540.94118 283.33574 
L 547.089941 273.626709 
L 553.238701 261.557385 
L 559.387461 247.411598 
L 565.536222 231.52405 
L 571.684982 214.272686 
L 577.833742 196.069975 
L 583.982503 177.353281 
L 590.131263 158.574558 
L 596.280023 140.189584 
L 602.428784 122.646996 
L 608.577544 106.377371 
L 614.726304 91.782629 
L 620.875065 79.225998 
L 627.023825 69.022799 
L 633.172585 61.432292 
L 639.321346 56.650773 
L 645.470106 54.806141 
L 651.618866 55.954061 
L 657.767627 60.075865 
L 663.916387 67.078259 
L 670.065147 76.794884 
L 676.213908 88.989719 
L 682.362668 103.362274 
L 688.511428 119.554491 
L 694.660189 137.15919 
L 700.808949 155.7299 
" style="fill:none;stroke:#ff7f0e;stroke-linecap:square;stroke-width:1.5;"/>
   </g>
   <g id="line2d_16">
    <path clip-path="url(#p2f3dfa30e8)" d="M 92.081676 194.235602 
L 98.230436 213.137139 
L 104.379197 230.977804 
L 110.527957 247.276169 
L 116.676717 261.60021 
L 122.825478 273.577779 
L 128.974238 282.905174 
L 135.122998 289.35363 
L 141.271759 292.773667 
L 147.420519 293.097252 
L 153.569279 290.337798 
L 159.71804 284.588097 
L 165.8668 276.016298 
L 172.01556 264.860111 
L 178.164321 251.419439 
L 184.313081 236.047668 
L 190.461841 219.141888 
L 196.610602 201.132292 
L 202.759362 182.471051 
L 208.908122 163.620947 
L 215.056883 145.044011 
L 221.205643 127.190472 
L 227.354403 110.488218 
L 233.503164 95.333032 
L 239.651924 82.079782 
L 245.800684 71.034735 
L 251.949445 62.449155 
L 258.098205 56.514275 
L 264.246965 53.357725 
L 270.395726 53.04146 
L 276.544486 55.561199 
L 282.693246 60.847341 
L 288.842007 68.767323 
L 294.990767 79.129322 
L 301.139527 91.687204 
L 307.288288 106.146591 
L 313.437048 122.171893 
L 319.585808 139.394141 
L 325.734569 157.419448 
L 331.883329 175.837909 
L 338.032089 194.23275 
L 344.18085 212.189532 
L 350.32961 229.305224 
L 356.47837 245.196953 
L 362.627131 259.510266 
L 368.775891 271.92673 
L 374.924651 282.170723 
L 381.073412 290.015289 
L 387.222172 295.286937 
L 393.370932 297.869296 
L 399.519693 297.705556 
L 405.668453 294.799643 
L 411.817213 289.216122 
L 417.965974 281.078803 
L 424.114734 270.568118 
L 430.263494 257.91727 
L 436.412255 243.40728 
L 442.561015 227.360987 
L 448.709775 210.136144 
L 454.858536 192.117732 
L 461.007296 173.709653 
L 467.156056 155.325958 
L 473.304817 137.381797 
L 479.453577 120.284262 
L 485.602337 104.423327 
L 491.751098 90.163065 
L 497.899858 77.833329 
L 504.048618 67.722087 
L 510.197379 60.068576 
L 516.346139 55.057435 
L 522.494899 52.813969 
L 528.64366 53.400647 
L 534.79242 56.814962 
L 540.94118 62.9887 
L 547.089941 71.788683 
L 553.238701 83.019003 
L 559.387461 96.424714 
L 565.536222 111.696962 
L 571.684982 128.479457 
L 577.833742 146.376172 
L 583.982503 164.960147 
L 590.131263 183.783206 
L 596.280023 202.386393 
L 602.428784 220.310912 
L 608.577544 237.109323 
L 614.726304 252.35673 
L 620.875065 265.661705 
L 627.023825 276.676662 
L 633.172585 285.107419 
L 639.321346 290.72168 
L 645.470106 293.356192 
L 651.618866 292.922343 
L 657.767627 289.410014 
L 663.916387 282.889511 
L 670.065147 273.511467 
L 676.213908 261.504629 
L 682.362668 247.171507 
L 688.511428 230.881929 
L 694.660189 213.064572 
L 700.808949 194.196632 
" style="fill:none;stroke:#2ca02c;stroke-linecap:square;stroke-width:1.5;"/>
   </g>
   <g id="line2d_17">
    <path clip-path="url(#p2f3dfa30e8)" d="M 92.081676 194.631737 
L 98.230436 213.871224 
L 104.379197 231.942099 
L 110.527957 248.324112 
L 116.676717 262.558523 
L 122.825478 274.259239 
L 128.974238 283.121348 
L 135.122998 288.926958 
L 141.271759 291.548323 
L 147.420519 290.948352 
L 153.569279 287.17861 
L 159.71804 280.375028 
L 165.8668 270.751556 
L 172.01556 258.592051 
L 178.164321 244.240688 
L 184.313081 228.09125 
L 190.461841 210.575599 
L 196.610602 192.151676 
L 202.759362 173.291346 
L 208.908122 154.468382 
L 215.056883 136.14688 
L 221.205643 118.770346 
L 227.354403 102.751676 
L 233.503164 88.464224 
L 239.651924 76.234091 
L 245.800684 66.333772 
L 251.949445 58.977213 
L 258.098205 54.316345 
L 264.246965 52.439091 
L 270.395726 53.368831 
L 276.544486 57.065272 
L 282.693246 63.426662 
L 288.842007 72.293225 
L 294.990767 83.451735 
L 301.139527 96.641069 
L 307.288288 111.558614 
L 313.437048 127.867368 
L 319.585808 145.203577 
L 325.734569 163.184746 
L 331.883329 181.417872 
L 338.032089 199.507719 
L 344.18085 217.065005 
L 350.32961 233.714336 
L 356.47837 249.101751 
L 362.627131 262.901751 
L 368.775891 274.8237 
L 374.924651 284.617478 
L 381.073412 292.078315 
L 387.222172 297.050705 
L 393.370932 299.431372 
L 399.519693 299.171206 
L 405.668453 296.27617 
L 411.817213 290.807153 
L 417.965974 282.878767 
L 424.114734 272.657121 
L 430.263494 260.356597 
L 436.412255 246.235689 
L 442.561015 230.591965 
L 448.709775 213.756234 
L 454.858536 196.08602 
L 461.007296 177.958444 
L 467.156056 159.762635 
L 473.304817 141.891811 
L 479.453577 124.735151 
L 485.602337 108.669619 
L 491.751098 94.051894 
L 497.899858 81.210547 
L 504.048618 70.43864 
L 510.197379 61.986885 
L 516.346139 56.057534 
L 522.494899 52.799127 
L 528.64366 52.302239 
L 534.79242 54.596356 
L 540.94118 59.647976 
L 547.089941 67.36002 
L 553.238701 77.572638 
L 559.387461 90.065422 
L 565.536222 104.561059 
L 571.684982 120.730403 
L 577.833742 138.198914 
L 583.982503 156.554373 
L 590.131263 175.355785 
L 596.280023 194.143282 
L 602.428784 212.448872 
L 608.577544 229.807806 
L 614.726304 245.770312 
L 620.875065 259.913441 
L 627.023825 271.852717 
L 633.172585 281.253294 
L 639.321346 287.840295 
L 645.470106 291.408026 
L 651.618866 291.827746 
L 657.767627 289.053697 
L 663.916387 283.127139 
L 670.065147 274.178145 
L 676.213908 262.424983 
L 682.362668 248.170941 
L 688.511428 231.798552 
L 694.660189 213.76121 
L 700.808949 194.572274 
" style="fill:none;stroke:#d62728;stroke-linecap:square;stroke-width:1.5;"/>
   </g>
   <g id="line2d_18">
    <path clip-path="url(#p2f3dfa30e8)" d="M 92.081676 195.064799 
L 98.230436 214.666441 
L 104.379197 232.968582 
L 110.527957 249.40466 
L 116.676717 263.485032 
L 122.825478 274.808847 
L 128.974238 283.07239 
L 135.122998 288.073873 
L 141.271759 289.714842 
L 147.420519 287.998371 
L 153.569279 283.024391 
L 159.71804 274.982476 
L 165.8668 264.142517 
L 172.01556 250.843696 
L 178.164321 235.482206 
L 184.313081 218.498155 
L 190.461841 200.362052 
L 196.610602 181.561294 
L 202.759362 162.586978 
L 208.908122 143.921371 
L 215.056883 126.026296 
L 221.205643 109.332657 
L 227.354403 94.231271 
L 233.503164 81.06514 
L 239.651924 70.123235 
L 245.800684 61.635826 
L 251.949445 55.771366 
L 258.098205 52.634895 
L 264.246965 52.267883 
L 270.395726 54.649436 
L 276.544486 59.69876 
L 282.693246 67.278731 
L 288.842007 77.200467 
L 294.990767 89.228728 
L 301.139527 103.088017 
L 307.288288 118.469211 
L 313.437048 135.036596 
L 319.585808 152.435142 
L 325.734569 170.297902 
L 331.883329 188.253378 
L 338.032089 205.932763 
L 344.18085 222.976924 
L 350.32961 239.04304 
L 356.47837 253.810791 
L 362.627131 266.988038 
L 368.775891 278.315897 
L 374.924651 287.573173 
L 381.073412 294.580089 
L 387.222172 299.201277 
L 393.370932 301.347996 
L 399.519693 300.97956 
L 405.668453 298.10396 
L 411.817213 292.777677 
L 417.965974 285.104688 
L 424.114734 275.234685 
L 430.263494 263.360516 
L 436.412255 249.714886 
L 442.561015 234.566355 
L 448.709775 218.214674 
L 454.858536 200.98552 
L 461.007296 183.224696 
L 467.156056 165.291855 
L 473.304817 147.553855 
L 479.453577 130.377815 
L 485.602337 114.123984 
L 491.751098 99.138536 
L 497.899858 85.746394 
L 504.048618 74.244231 
L 510.197379 64.89376 
L 516.346139 57.915457 
L 522.494899 53.482862 
L 528.64366 51.717589 
L 534.79242 52.685187 
L 540.94118 56.39199 
L 547.089941 62.783074 
L 553.238701 71.741435 
L 559.387461 83.088499 
L 565.536222 96.586021 
L 571.684982 111.939442 
L 577.833742 128.802727 
L 583.982503 146.784669 
L 590.131263 165.456622 
L 596.280023 184.361583 
L 602.428784 203.024488 
L 608.577544 220.963554 
L 614.726304 237.702463 
L 620.875065 252.783117 
L 627.023825 265.778667 
L 633.172585 276.306484 
L 639.321346 284.040696 
L 645.470106 288.723893 
L 651.618866 290.177599 
L 657.767627 288.311088 
L 663.916387 283.128148 
L 670.065147 274.731408 
L 676.213908 263.32389 
L 682.362668 249.20751 
L 688.511428 232.778314 
L 694.660189 214.518346 
L 700.808949 194.98412 
" style="fill:none;stroke:#9467bd;stroke-linecap:square;stroke-width:1.5;"/>
   </g>
   <g id="line2d_19">
    <path clip-path="url(#p2f3dfa30e8)" d="M 92.081676 154.045966 
L 98.230436 134.059659 
L 104.379197 115.535135 
L 110.527957 99.095108 
L 116.676717 85.265237 
L 122.825478 74.461434 
L 128.974238 66.982019 
L 135.122998 63.00456 
L 141.271759 62.58704 
L 147.420519 65.672916 
L 153.569279 72.099519 
L 159.71804 81.609186 
L 165.8668 93.86251 
L 172.01556 108.453075 
L 178.164321 124.923074 
L 184.313081 142.779239 
L 190.461841 161.508592 
L 196.610602 180.593553 
L 202.759362 199.526042 
L 208.908122 217.820275 
L 215.056883 235.024027 
L 221.205643 250.728204 
L 227.354403 264.574632 
L 233.503164 276.262038 
L 239.651924 285.550239 
L 245.800684 292.262607 
L 251.949445 296.286904 
L 258.098205 297.574636 
L 264.246965 296.139056 
L 270.395726 292.051989 
L 276.544486 285.439661 
L 282.693246 276.477692 
L 288.842007 265.385431 
L 294.990767 252.419803 
L 301.139527 237.868816 
L 307.288288 222.04488 
L 313.437048 205.278063 
L 319.585808 187.909402 
L 325.734569 170.284373 
L 331.883329 152.746613 
L 338.032089 135.631951 
L 344.18085 119.262837 
L 350.32961 103.94319 
L 356.47837 89.953722 
L 362.627131 77.547767 
L 368.775891 66.947626 
L 374.924651 58.341457 
L 381.073412 51.880707 
L 387.222172 47.678107 
L 393.370932 45.806212 
L 399.519693 46.296513 
L 405.668453 49.139088 
L 411.817213 54.282821 
L 417.965974 61.636159 
L 424.114734 71.068416 
L 430.263494 82.411619 
L 436.412255 95.462873 
L 442.561015 109.98726 
L 448.709775 125.721231 
L 454.858536 142.376501 
L 461.007296 159.644401 
L 467.156056 177.200687 
L 473.304817 194.710742 
L 479.453577 211.835151 
L 485.602337 228.235593 
L 491.751098 243.580974 
L 497.899858 257.553745 
L 504.048618 269.856308 
L 510.197379 280.217415 
L 516.346139 288.398448 
L 522.494899 294.199451 
L 528.64366 297.464797 
L 534.79242 298.088313 
L 540.94118 296.017752 
L 547.089941 291.258409 
L 553.238701 283.875763 
L 559.387461 273.996963 
L 565.536222 261.811015 
L 571.684982 247.567549 
L 577.833742 231.574033 
L 583.982503 214.191366 
L 590.131263 195.827786 
L 596.280023 176.931086 
L 602.428784 157.979184 
L 608.577544 139.469127 
L 614.726304 121.904699 
L 620.875065 105.782842 
L 627.023825 91.579179 
L 633.172585 79.733001 
L 639.321346 70.632125 
L 645.470106 64.598113 
L 651.618866 61.872374 
L 657.767627 62.603718 
L 663.916387 66.837938 
L 670.065147 74.51002 
L 676.213908 85.439527 
L 682.362668 99.329671 
L 688.511428 115.770494 
L 694.660189 134.246476 
L 700.808949 154.148738 
" style="fill:none;stroke:#8c564b;stroke-linecap:square;stroke-width:1.5;"/>
   </g>
   <g id="line2d_20">
    <path clip-path="url(#p2f3dfa30e8)" d="M 92.081676 196.049145 
L 98.230436 216.434197 
L 104.379197 235.151122 
L 110.527957 251.507807 
L 116.676717 264.936427 
L 122.825478 275.007004 
L 128.974238 281.434201 
L 135.122998 284.077822 
L 141.271759 282.937709 
L 147.420519 278.143861 
L 153.569279 269.942718 
L 159.71804 258.680555 
L 165.8668 244.784943 
L 172.01556 228.74517 
L 178.164321 211.092447 
L 184.313081 192.380604 
L 190.461841 173.167882 
L 196.610602 154.000303 
L 202.759362 135.39696 
L 208.908122 117.837492 
L 215.056883 101.751848 
L 221.205643 87.512403 
L 227.354403 75.428371 
L 233.503164 65.742395 
L 239.651924 58.629173 
L 245.800684 54.195895 
L 251.949445 52.484269 
L 258.098205 53.473904 
L 264.246965 57.086791 
L 270.395726 63.192645 
L 276.544486 71.614889 
L 282.693246 82.137047 
L 288.842007 94.50938 
L 294.990767 108.45558 
L 301.139527 123.679378 
L 307.288288 139.870961 
L 313.437048 156.713091 
L 319.585808 173.886849 
L 325.734569 191.076968 
L 331.883329 207.976698 
L 338.032089 224.292211 
L 344.18085 239.746508 
L 350.32961 254.082867 
L 356.47837 267.067821 
L 362.627131 278.493687 
L 368.775891 288.180694 
L 374.924651 295.978693 
L 381.073412 301.768515 
L 387.222172 305.462969 
L 393.370932 307.007524 
L 399.519693 306.380675 
L 405.668453 303.594012 
L 411.817213 298.692005 
L 417.965974 291.751501 
L 424.114734 282.880929 
L 430.263494 272.219223 
L 436.412255 259.934419 
L 442.561015 246.221955 
L 448.709775 231.302614 
L 454.858536 215.420125 
L 461.007296 198.838381 
L 467.156056 181.838271 
L 473.304817 164.714109 
L 479.453577 147.769647 
L 485.602337 131.313684 
L 491.751098 115.655265 
L 497.899858 101.09851 
L 504.048618 87.937097 
L 510.197379 76.448456 
L 516.346139 66.887749 
L 522.494899 59.481724 
L 528.64366 54.422554 
L 534.79242 51.861807 
L 540.94118 51.904693 
L 547.089941 54.604761 
L 553.238701 59.959258 
L 559.387461 67.905337 
L 565.536222 78.317352 
L 571.684982 91.005447 
L 577.833742 105.715659 
L 583.982503 122.131743 
L 590.131263 139.878893 
L 596.280023 158.529495 
L 602.428784 177.611012 
L 608.577544 196.616023 
L 614.726304 215.014373 
L 620.875065 232.267299 
L 627.023825 247.843299 
L 633.172585 261.235405 
L 639.321346 271.979409 
L 645.470106 279.672484 
L 651.618866 283.991531 
L 657.767627 284.710497 
L 663.916387 281.715835 
L 670.065147 275.019215 
L 676.213908 264.766618 
L 682.362668 251.242936 
L 688.511428 234.871317 
L 694.660189 216.206609 
L 700.808949 195.922451 
" style="fill:none;stroke:#e377c2;stroke-linecap:square;stroke-width:1.5;"/>
   </g>
   <g id="line2d_21">
    <path clip-path="url(#p2f3dfa30e8)" d="M 92.081676 153.006306 
L 98.230436 132.241651 
L 104.379197 113.415632 
L 110.527957 97.307868 
L 116.676717 84.535165 
L 122.825478 75.537152 
L 128.974238 70.571629 
L 135.122998 69.718633 
L 141.271759 72.891879 
L 147.420519 79.856128 
L 153.569279 90.2489 
L 159.71804 103.605017 
L 165.8668 119.382541 
L 172.01556 136.988822 
L 178.164321 155.805573 
L 184.313081 175.212087 
L 190.461841 194.605938 
L 196.610602 213.420708 
L 202.759362 231.140479 
L 208.908122 247.311014 
L 215.056883 261.547669 
L 221.205643 273.54023 
L 227.354403 283.054931 
L 233.503164 289.933992 
L 239.651924 294.093035 
L 245.800684 295.516775 
L 251.949445 294.253352 
L 258.098205 290.407692 
L 264.246965 284.13422 
L 270.395726 275.629232 
L 276.544486 265.123194 
L 282.693246 252.873185 
L 288.842007 239.155665 
L 294.990767 224.259695 
L 301.139527 208.480726 
L 307.288288 192.114999 
L 313.437048 175.454601 
L 319.585808 158.783181 
L 325.734569 142.372309 
L 331.883329 126.478446 
L 338.032089 111.340477 
L 344.18085 97.177763 
L 350.32961 84.188638 
L 356.47837 72.549298 
L 362.627131 62.413021 
L 368.775891 53.909652 
L 374.924651 47.1453 
L 381.073412 42.202205 
L 387.222172 39.138717 
L 393.370932 37.989364 
L 399.519693 38.76498 
L 405.668453 41.452867 
L 411.817213 46.016987 
L 417.965974 52.398187 
L 424.114734 60.514454 
L 430.263494 70.261227 
L 436.412255 81.511784 
L 442.561015 94.117735 
L 448.709775 107.909673 
L 454.858536 122.698006 
L 461.007296 138.27404 
L 467.156056 154.411357 
L 473.304817 170.86754 
L 479.453577 187.386305 
L 485.602337 203.70009 
L 491.751098 219.533138 
L 497.899858 234.605127 
L 504.048618 248.63535 
L 510.197379 261.347469 
L 516.346139 272.474825 
L 522.494899 281.766263 
L 528.64366 288.992413 
L 534.79242 293.95233 
L 540.94118 296.480358 
L 547.089941 296.453054 
L 553.238701 293.795966 
L 559.387461 288.490018 
L 565.536222 280.577229 
L 571.684982 270.16546 
L 577.833742 257.431841 
L 583.982503 242.624566 
L 590.131263 226.062676 
L 596.280023 208.133538 
L 602.428784 189.287711 
L 608.577544 170.030975 
L 614.726304 150.913379 
L 620.875065 132.515265 
L 627.023825 115.430374 
L 633.172585 100.246263 
L 639.321346 87.522492 
L 645.470106 77.767173 
L 651.618866 71.412701 
L 657.767627 68.791679 
L 663.916387 70.1142 
L 670.065147 75.447806 
L 676.213908 84.701524 
L 682.362668 97.615406 
L 688.511428 113.756939 
L 694.660189 132.525533 
L 700.808949 153.166035 
" style="fill:none;stroke:#7f7f7f;stroke-linecap:square;stroke-width:1.5;"/>
   </g>
   <g id="line2d_22">
    <path clip-path="url(#p2f3dfa30e8)" d="M 92.081676 197.007895 
L 98.230436 217.999835 
L 104.379197 236.686407 
L 110.527957 252.176444 
L 116.676717 263.799592 
L 122.825478 271.121 
L 128.974238 273.941387 
L 135.122998 272.284562 
L 141.271759 266.374895 
L 147.420519 256.607438 
L 153.569279 243.513364 
L 159.71804 227.723226 
L 165.8668 209.930229 
L 172.01556 190.855345 
L 178.164321 171.21569 
L 184.313081 151.697164 
L 190.461841 132.931978 
L 196.610602 115.481316 
L 202.759362 99.823117 
L 208.908122 86.344674 
L 215.056883 75.339632 
L 221.205643 67.008775 
L 227.354403 61.463987 
L 233.503164 58.734695 
L 239.651924 58.776157 
L 245.800684 61.478964 
L 251.949445 66.679219 
L 258.098205 74.168901 
L 264.246965 83.706019 
L 270.395726 95.024241 
L 276.544486 107.841772 
L 282.693246 121.869294 
L 288.842007 136.816895 
L 294.990767 152.39993 
L 301.139527 168.343829 
L 307.288288 184.387892 
L 313.437048 200.288135 
L 319.585808 215.819292 
L 325.734569 230.776065 
L 331.883329 244.973737 
L 338.032089 258.248261 
L 344.18085 270.455931 
L 350.32961 281.47274 
L 356.47837 291.193525 
L 362.627131 299.530977 
L 368.775891 306.414606 
L 374.924651 311.789713 
L 381.073412 315.616435 
L 387.222172 317.868901 
L 393.370932 318.534545 
L 399.519693 317.61359 
L 405.668453 315.118718 
L 411.817213 311.074949 
L 417.965974 305.519709 
L 424.114734 298.503083 
L 430.263494 290.08824 
L 436.412255 280.35199 
L 442.561015 269.385447 
L 448.709775 257.294742 
L 454.858536 244.201741 
L 461.007296 230.2447 
L 467.156056 215.578786 
L 473.304817 200.376374 
L 479.453577 184.827056 
L 485.602337 169.137246 
L 491.751098 153.529291 
L 497.899858 138.240007 
L 504.048618 123.518519 
L 510.197379 109.623344 
L 516.346139 96.818633 
L 522.494899 85.369516 
L 528.64366 75.536532 
L 534.79242 67.569147 
L 540.94118 61.69841 
L 547.089941 58.128852 
L 553.238701 57.029786 
L 559.387461 58.52623 
L 565.536222 62.689753 
L 571.684982 69.529606 
L 577.833742 78.984574 
L 583.982503 90.91605 
L 590.131263 105.102875 
L 596.280023 121.238533 
L 602.428784 138.931282 
L 608.577544 157.707796 
L 614.726304 177.020801 
L 620.875065 196.261097 
L 627.023825 214.774197 
L 633.172585 231.88157 
L 639.321346 246.906247 
L 645.470106 259.202203 
L 651.618866 268.186595 
L 657.767627 273.373563 
L 663.916387 274.407933 
L 670.065147 271.096835 
L 676.213908 263.436974 
L 682.362668 251.635131 
L 688.511428 236.119456 
L 694.660189 217.539255 
L 700.808949 196.751371 
" style="fill:none;stroke:#bcbd22;stroke-linecap:square;stroke-width:1.5;"/>
   </g>
   <g id="line2d_23">
    <path clip-path="url(#p2f3dfa30e8)" d="M 92.081676 152.721327 
L 98.230436 132.168319 
L 104.379197 114.441522 
L 110.527957 100.571434 
L 116.676717 91.269901 
L 122.825478 86.917202 
L 128.974238 87.573309 
L 135.122998 93.008682 
L 141.271759 102.749367 
L 147.420519 116.131009 
L 153.569279 132.356797 
L 159.71804 150.55495 
L 165.8668 169.832231 
L 172.01556 189.320882 
L 178.164321 208.217302 
L 184.313081 225.811637 
L 190.461841 241.508164 
L 196.610602 254.83696 
L 202.759362 265.457738 
L 208.908122 273.157061 
L 215.056883 277.840228 
L 221.205643 279.519236 
L 227.354403 278.298078 
L 233.503164 274.356608 
L 239.651924 267.93396 
L 245.800684 259.312379 
L 251.949445 248.802104 
L 258.098205 236.727762 
L 264.246965 223.416575 
L 270.395726 209.188526 
L 276.544486 194.348507 
L 282.693246 179.180393 
L 288.842007 163.942889 
L 294.990767 148.866985 
L 301.139527 134.154786 
L 307.288288 119.979495 
L 313.437048 106.486344 
L 319.585808 93.794224 
L 325.734569 81.997843 
L 331.883329 71.170236 
L 338.032089 61.365451 
L 344.18085 52.621308 
L 350.32961 44.962117 
L 356.47837 38.401265 
L 362.627131 32.943616 
L 368.775891 28.587671 
L 374.924651 25.327452 
L 381.073412 23.154097 
L 387.222172 22.057137 
L 393.370932 22.025455 
L 399.519693 23.047927 
L 405.668453 25.113743 
L 411.817213 28.212404 
L 417.965974 32.333412 
L 424.114734 37.465655 
L 430.263494 43.596496 
L 436.412255 50.710581 
L 442.561015 58.788376 
L 448.709775 67.804473 
L 454.858536 77.725666 
L 461.007296 88.508868 
L 467.156056 100.098896 
L 473.304817 112.426199 
L 479.453577 125.404601 
L 485.602337 138.92917 
L 491.751098 152.874306 
L 497.899858 167.092206 
L 504.048618 181.411836 
L 510.197379 195.638593 
L 516.346139 209.554827 
L 522.494899 222.921412 
L 528.64366 235.480542 
L 534.79242 246.959928 
L 540.94118 257.078521 
L 547.089941 265.55387 
L 553.238701 272.111135 
L 559.387461 276.493704 
L 565.536222 278.47526 
L 571.684982 277.872999 
L 577.833742 274.561599 
L 583.982503 268.487322 
L 590.131263 259.68155 
L 596.280023 248.27282 
L 602.428784 234.49637 
L 608.577544 218.700048 
L 614.726304 201.345444 
L 620.875065 183.003112 
L 627.023825 164.340912 
L 633.172585 146.10471 
L 639.321346 129.091103 
L 645.470106 114.112284 
L 651.618866 101.953829 
L 657.767627 93.326895 
L 663.916387 88.817121 
L 670.065147 88.833314 
L 676.213908 93.559731 
L 682.362668 102.916332 
L 688.511428 116.531694 
L 694.660189 133.733195 
L 700.808949 153.558564 
" style="fill:none;stroke:#17becf;stroke-linecap:square;stroke-width:1.5;"/>
   </g>
   <g id="patch_3">
    <path d="M 61.645313 333.36 
L 61.645313 7.2 
" style="fill:none;stroke:#000000;stroke-linecap:square;stroke-linejoin:miter;stroke-width:0.8;"/>
   </g>
   <g id="patch_4">
    <path d="M 731.245313 333.36 
L 731.245313 7.2 
" style="fill:none;stroke:#000000;stroke-linecap:square;stroke-linejoin:miter;stroke-width:0.8;"/>
   </g>
   <g id="patch_5">
    <path d="M 61.645313 333.36 
L 731.245312 333.36 
" style="fill:none;stroke:#000000;stroke-linecap:square;stroke-linejoin:miter;stroke-width:0.8;"/>
   </g>
   <g id="patch_6">
    <path d="M 61.645313 7.2 
L 731.245312 7.2 
" style="fill:none;stroke:#000000;stroke-linecap:square;stroke-linejoin:miter;stroke-width:0.8;"/>
   </g>
   <g id="legend_1">
    <g id="patch_7">
     <path d="M 363.645312 245.170625 
L 429.245312 245.170625 
Q 431.245312 245.170625 431.245312 243.170625 
L 431.245312 97.389375 
Q 431.245312 95.389375 429.245312 95.389375 
L 363.645312 95.389375 
Q 361.645312 95.389375 361.645312 97.389375 
L 361.645312 243.170625 
Q 361.645312 245.170625 363.645312 245.170625 
z
" style="fill:#ffffff;opacity:0.8;stroke:#cccccc;stroke-linejoin:miter;"/>
    </g>
    <g id="line2d_24">
     <path d="M 365.645312 103.487813 
L 385.645312 103.487813 
" style="fill:none;stroke:#1f77b4;stroke-linecap:square;stroke-width:1.5;"/>
    </g>
    <g id="line2d_25"/>
    <g id="text_16">
     <!-- $\epsilon = 0.0$ -->
     <g transform="translate(393.645312 106.987813)scale(0.1 -0.1)">
      <defs>
       <path d="M 1263 1888 
Q 925 1963 778 2166 
Q 669 2309 669 2503 
Q 669 3034 1175 3344 
Q 1575 3588 2188 3588 
Q 2425 3588 2684 3550 
Q 2944 3513 3234 3438 
L 3134 2916 
Q 2847 3006 2606 3047 
Q 2359 3088 2138 3088 
Q 1766 3088 1522 2944 
Q 1228 2772 1228 2522 
Q 1228 2356 1381 2241 
Q 1563 2103 1925 2103 
L 2409 2103 
L 2319 1628 
L 1856 1628 
Q 1425 1628 1172 1469 
Q 828 1253 828 916 
Q 828 703 1013 563 
Q 1244 388 1716 388 
Q 2006 388 2284 444 
Q 2563 503 2806 619 
L 2700 84 
Q 2403 -3 2131 -47 
Q 1859 -91 1609 -91 
Q 866 -91 516 194 
Q 250 413 250 781 
Q 250 1278 600 1584 
Q 859 1813 1263 1888 
z
" id="DejaVuSans-Oblique-3b5" transform="scale(0.015625)"/>
       <path d="M 678 2906 
L 4684 2906 
L 4684 2381 
L 678 2381 
L 678 2906 
z
M 678 1631 
L 4684 1631 
L 4684 1100 
L 678 1100 
L 678 1631 
z
" id="DejaVuSans-3d" transform="scale(0.015625)"/>
      </defs>
      <use transform="translate(0 0.78125)" xlink:href="#DejaVuSans-Oblique-3b5"/>
      <use transform="translate(73.535156 0.78125)" xlink:href="#DejaVuSans-3d"/>
      <use transform="translate(176.806641 0.78125)" xlink:href="#DejaVuSans-30"/>
      <use transform="translate(240.429688 0.78125)" xlink:href="#DejaVuSans-2e"/>
      <use transform="translate(272.216797 0.78125)" xlink:href="#DejaVuSans-30"/>
     </g>
    </g>
    <g id="line2d_26">
     <path d="M 365.645312 118.165938 
L 385.645312 118.165938 
" style="fill:none;stroke:#ff7f0e;stroke-linecap:square;stroke-width:1.5;"/>
    </g>
    <g id="line2d_27"/>
    <g id="text_17">
     <!-- $\epsilon = 0.4$ -->
     <g transform="translate(393.645312 121.665938)scale(0.1 -0.1)">
      <use transform="translate(0 0.78125)" xlink:href="#DejaVuSans-Oblique-3b5"/>
      <use transform="translate(73.535156 0.78125)" xlink:href="#DejaVuSans-3d"/>
      <use transform="translate(176.806641 0.78125)" xlink:href="#DejaVuSans-30"/>
      <use transform="translate(240.429688 0.78125)" xlink:href="#DejaVuSans-2e"/>
      <use transform="translate(272.216797 0.78125)" xlink:href="#DejaVuSans-34"/>
     </g>
    </g>
    <g id="line2d_28">
     <path d="M 365.645312 132.844063 
L 385.645312 132.844063 
" style="fill:none;stroke:#2ca02c;stroke-linecap:square;stroke-width:1.5;"/>
    </g>
    <g id="line2d_29"/>
    <g id="text_18">
     <!-- $\epsilon = 0.8$ -->
     <g transform="translate(393.645312 136.344063)scale(0.1 -0.1)">
      <use transform="translate(0 0.78125)" xlink:href="#DejaVuSans-Oblique-3b5"/>
      <use transform="translate(73.535156 0.78125)" xlink:href="#DejaVuSans-3d"/>
      <use transform="translate(176.806641 0.78125)" xlink:href="#DejaVuSans-30"/>
      <use transform="translate(240.429688 0.78125)" xlink:href="#DejaVuSans-2e"/>
      <use transform="translate(269.591797 0.78125)" xlink:href="#DejaVuSans-38"/>
     </g>
    </g>
    <g id="line2d_30">
     <path d="M 365.645312 147.522188 
L 385.645312 147.522188 
" style="fill:none;stroke:#d62728;stroke-linecap:square;stroke-width:1.5;"/>
    </g>
    <g id="line2d_31"/>
    <g id="text_19">
     <!-- $\epsilon = 1.2$ -->
     <g transform="translate(393.645312 151.022188)scale(0.1 -0.1)">
      <use transform="translate(0 0.78125)" xlink:href="#DejaVuSans-Oblique-3b5"/>
      <use transform="translate(73.535156 0.78125)" xlink:href="#DejaVuSans-3d"/>
      <use transform="translate(176.806641 0.78125)" xlink:href="#DejaVuSans-31"/>
      <use transform="translate(240.429688 0.78125)" xlink:href="#DejaVuSans-2e"/>
      <use transform="translate(266.716797 0.78125)" xlink:href="#DejaVuSans-32"/>
     </g>
    </g>
    <g id="line2d_32">
     <path d="M 365.645312 162.200313 
L 385.645312 162.200313 
" style="fill:none;stroke:#9467bd;stroke-linecap:square;stroke-width:1.5;"/>
    </g>
    <g id="line2d_33"/>
    <g id="text_20">
     <!-- $\epsilon = 1.6$ -->
     <g transform="translate(393.645312 165.700313)scale(0.1 -0.1)">
      <use transform="translate(0 0.78125)" xlink:href="#DejaVuSans-Oblique-3b5"/>
      <use transform="translate(73.535156 0.78125)" xlink:href="#DejaVuSans-3d"/>
      <use transform="translate(176.806641 0.78125)" xlink:href="#DejaVuSans-31"/>
      <use transform="translate(240.429688 0.78125)" xlink:href="#DejaVuSans-2e"/>
      <use transform="translate(272.216797 0.78125)" xlink:href="#DejaVuSans-36"/>
     </g>
    </g>
    <g id="line2d_34">
     <path d="M 365.645312 176.878438 
L 385.645312 176.878438 
" style="fill:none;stroke:#8c564b;stroke-linecap:square;stroke-width:1.5;"/>
    </g>
    <g id="line2d_35"/>
    <g id="text_21">
     <!-- $\epsilon = 2.0$ -->
     <g transform="translate(393.645312 180.378438)scale(0.1 -0.1)">
      <use transform="translate(0 0.78125)" xlink:href="#DejaVuSans-Oblique-3b5"/>
      <use transform="translate(73.535156 0.78125)" xlink:href="#DejaVuSans-3d"/>
      <use transform="translate(176.806641 0.78125)" xlink:href="#DejaVuSans-32"/>
      <use transform="translate(240.429688 0.78125)" xlink:href="#DejaVuSans-2e"/>
      <use transform="translate(272.216797 0.78125)" xlink:href="#DejaVuSans-30"/>
     </g>
    </g>
    <g id="line2d_36">
     <path d="M 365.645312 191.556563 
L 385.645312 191.556563 
" style="fill:none;stroke:#e377c2;stroke-linecap:square;stroke-width:1.5;"/>
    </g>
    <g id="line2d_37"/>
    <g id="text_22">
     <!-- $\epsilon = 2.4$ -->
     <g transform="translate(393.645312 195.056563)scale(0.1 -0.1)">
      <use transform="translate(0 0.78125)" xlink:href="#DejaVuSans-Oblique-3b5"/>
      <use transform="translate(73.535156 0.78125)" xlink:href="#DejaVuSans-3d"/>
      <use transform="translate(176.806641 0.78125)" xlink:href="#DejaVuSans-32"/>
      <use transform="translate(240.429688 0.78125)" xlink:href="#DejaVuSans-2e"/>
      <use transform="translate(272.216797 0.78125)" xlink:href="#DejaVuSans-34"/>
     </g>
    </g>
    <g id="line2d_38">
     <path d="M 365.645312 206.234688 
L 385.645312 206.234688 
" style="fill:none;stroke:#7f7f7f;stroke-linecap:square;stroke-width:1.5;"/>
    </g>
    <g id="line2d_39"/>
    <g id="text_23">
     <!-- $\epsilon = 2.8$ -->
     <g transform="translate(393.645312 209.734688)scale(0.1 -0.1)">
      <use transform="translate(0 0.78125)" xlink:href="#DejaVuSans-Oblique-3b5"/>
      <use transform="translate(73.535156 0.78125)" xlink:href="#DejaVuSans-3d"/>
      <use transform="translate(176.806641 0.78125)" xlink:href="#DejaVuSans-32"/>
      <use transform="translate(240.429688 0.78125)" xlink:href="#DejaVuSans-2e"/>
      <use transform="translate(269.591797 0.78125)" xlink:href="#DejaVuSans-38"/>
     </g>
    </g>
    <g id="line2d_40">
     <path d="M 365.645312 220.912813 
L 385.645312 220.912813 
" style="fill:none;stroke:#bcbd22;stroke-linecap:square;stroke-width:1.5;"/>
    </g>
    <g id="line2d_41"/>
    <g id="text_24">
     <!-- $\epsilon = 3.2$ -->
     <g transform="translate(393.645312 224.412813)scale(0.1 -0.1)">
      <defs>
       <path d="M 2597 2516 
Q 3050 2419 3304 2112 
Q 3559 1806 3559 1356 
Q 3559 666 3084 287 
Q 2609 -91 1734 -91 
Q 1441 -91 1130 -33 
Q 819 25 488 141 
L 488 750 
Q 750 597 1062 519 
Q 1375 441 1716 441 
Q 2309 441 2620 675 
Q 2931 909 2931 1356 
Q 2931 1769 2642 2001 
Q 2353 2234 1838 2234 
L 1294 2234 
L 1294 2753 
L 1863 2753 
Q 2328 2753 2575 2939 
Q 2822 3125 2822 3475 
Q 2822 3834 2567 4026 
Q 2313 4219 1838 4219 
Q 1578 4219 1281 4162 
Q 984 4106 628 3988 
L 628 4550 
Q 988 4650 1302 4700 
Q 1616 4750 1894 4750 
Q 2613 4750 3031 4423 
Q 3450 4097 3450 3541 
Q 3450 3153 3228 2886 
Q 3006 2619 2597 2516 
z
" id="DejaVuSans-33" transform="scale(0.015625)"/>
      </defs>
      <use transform="translate(0 0.78125)" xlink:href="#DejaVuSans-Oblique-3b5"/>
      <use transform="translate(73.535156 0.78125)" xlink:href="#DejaVuSans-3d"/>
      <use transform="translate(176.806641 0.78125)" xlink:href="#DejaVuSans-33"/>
      <use transform="translate(240.429688 0.78125)" xlink:href="#DejaVuSans-2e"/>
      <use transform="translate(266.716797 0.78125)" xlink:href="#DejaVuSans-32"/>
     </g>
    </g>
    <g id="line2d_42">
     <path d="M 365.645312 235.590937 
L 385.645312 235.590937 
" style="fill:none;stroke:#17becf;stroke-linecap:square;stroke-width:1.5;"/>
    </g>
    <g id="line2d_43"/>
    <g id="text_25">
     <!-- $\epsilon = 3.6$ -->
     <g transform="translate(393.645312 239.090937)scale(0.1 -0.1)">
      <use transform="translate(0 0.78125)" xlink:href="#DejaVuSans-Oblique-3b5"/>
      <use transform="translate(73.535156 0.78125)" xlink:href="#DejaVuSans-3d"/>
      <use transform="translate(176.806641 0.78125)" xlink:href="#DejaVuSans-33"/>
      <use transform="translate(240.429688 0.78125)" xlink:href="#DejaVuSans-2e"/>
      <use transform="translate(272.216797 0.78125)" xlink:href="#DejaVuSans-36"/>
     </g>
    </g>
   </g>
  </g>
 </g>
 <defs>
  <clipPath id="p2f3dfa30e8">
   <rect height="326.16" width="669.6" x="61.645313" y="7.2"/>
  </clipPath>
 </defs>
</svg>
