<?xml version="1.0" encoding="utf-8" standalone="no"?>
<!DOCTYPE svg PUBLIC "-//W3C//DTD SVG 1.1//EN"
  "http://www.w3.org/Graphics/SVG/1.1/DTD/svg11.dtd">
<svg height="277.314375pt" version="1.1" viewBox="0 0 396.78125 277.314375" width="396.78125pt" xmlns="http://www.w3.org/2000/svg" xmlns:xlink="http://www.w3.org/1999/xlink">
 <metadata>
  <rdf:RDF xmlns:cc="http://creativecommons.org/ns#" xmlns:dc="http://purl.org/dc/elements/1.1/" xmlns:rdf="http://www.w3.org/1999/02/22-rdf-syntax-ns#">
   <cc:Work>
    <dc:type rdf:resource="http://purl.org/dc/dcmitype/StillImage"/>
    <dc:date>2021-11-26T23:56:52.970396</dc:date>
    <dc:format>image/svg+xml</dc:format>
    <dc:creator>
     <cc:Agent>
      <dc:title>Matplotlib v3.4.3, https://matplotlib.org/</dc:title>
     </cc:Agent>
    </dc:creator>
   </cc:Work>
  </rdf:RDF>
 </metadata>
 <defs>
  <style type="text/css">*{stroke-linecap:butt;stroke-linejoin:round;}</style>
 </defs>
 <g id="figure_1">
  <g id="patch_1">
   <path d="M 0 277.314375 
L 396.78125 277.314375 
L 396.78125 0 
L 0 0 
z
" style="fill:none;"/>
  </g>
  <g id="axes_1">
   <g id="patch_2">
    <path d="M 43.78125 239.758125 
L 378.58125 239.758125 
L 378.58125 22.318125 
L 43.78125 22.318125 
z
" style="fill:#ffffff;"/>
   </g>
   <g id="matplotlib.axis_1">
    <g id="xtick_1">
     <g id="line2d_1">
      <path clip-path="url(#pa4d9f7f268)" d="M 43.78125 239.758125 
L 43.78125 22.318125 
" style="fill:none;stroke:#b0b0b0;stroke-linecap:square;stroke-width:0.8;"/>
     </g>
     <g id="line2d_2">
      <defs>
       <path d="M 0 0 
L 0 3.5 
" id="md4bba7d647" style="stroke:#000000;stroke-width:0.8;"/>
      </defs>
      <g>
       <use style="stroke:#000000;stroke-width:0.8;" x="43.78125" xlink:href="#md4bba7d647" y="239.758125"/>
      </g>
     </g>
     <g id="text_1">
      <!-- -0.2$\pi$ -->
      <g transform="translate(31.28125 254.356562)scale(0.1 -0.1)">
       <defs>
        <path d="M 313 2009 
L 1997 2009 
L 1997 1497 
L 313 1497 
L 313 2009 
z
" id="DejaVuSans-2d" transform="scale(0.015625)"/>
        <path d="M 2034 4250 
Q 1547 4250 1301 3770 
Q 1056 3291 1056 2328 
Q 1056 1369 1301 889 
Q 1547 409 2034 409 
Q 2525 409 2770 889 
Q 3016 1369 3016 2328 
Q 3016 3291 2770 3770 
Q 2525 4250 2034 4250 
z
M 2034 4750 
Q 2819 4750 3233 4129 
Q 3647 3509 3647 2328 
Q 3647 1150 3233 529 
Q 2819 -91 2034 -91 
Q 1250 -91 836 529 
Q 422 1150 422 2328 
Q 422 3509 836 4129 
Q 1250 4750 2034 4750 
z
" id="DejaVuSans-30" transform="scale(0.015625)"/>
        <path d="M 684 794 
L 1344 794 
L 1344 0 
L 684 0 
L 684 794 
z
" id="DejaVuSans-2e" transform="scale(0.015625)"/>
        <path d="M 1228 531 
L 3431 531 
L 3431 0 
L 469 0 
L 469 531 
Q 828 903 1448 1529 
Q 2069 2156 2228 2338 
Q 2531 2678 2651 2914 
Q 2772 3150 2772 3378 
Q 2772 3750 2511 3984 
Q 2250 4219 1831 4219 
Q 1534 4219 1204 4116 
Q 875 4013 500 3803 
L 500 4441 
Q 881 4594 1212 4672 
Q 1544 4750 1819 4750 
Q 2544 4750 2975 4387 
Q 3406 4025 3406 3419 
Q 3406 3131 3298 2873 
Q 3191 2616 2906 2266 
Q 2828 2175 2409 1742 
Q 1991 1309 1228 531 
z
" id="DejaVuSans-32" transform="scale(0.015625)"/>
        <path d="M 584 3500 
L 3938 3500 
L 3825 2925 
L 3384 2925 
L 2966 775 
Q 2922 550 2981 450 
Q 3038 353 3209 353 
Q 3256 353 3325 363 
Q 3397 369 3419 372 
L 3338 -44 
Q 3222 -84 3103 -103 
Q 2981 -122 2866 -122 
Q 2491 -122 2388 81 
Q 2284 288 2391 838 
L 2797 2925 
L 1506 2925 
L 938 0 
L 350 0 
L 919 2925 
L 472 2925 
L 584 3500 
z
" id="DejaVuSans-Oblique-3c0" transform="scale(0.015625)"/>
       </defs>
       <use transform="translate(0 0.78125)" xlink:href="#DejaVuSans-2d"/>
       <use transform="translate(36.083984 0.78125)" xlink:href="#DejaVuSans-30"/>
       <use transform="translate(99.707031 0.78125)" xlink:href="#DejaVuSans-2e"/>
       <use transform="translate(125.994141 0.78125)" xlink:href="#DejaVuSans-32"/>
       <use transform="translate(189.617188 0.78125)" xlink:href="#DejaVuSans-Oblique-3c0"/>
      </g>
     </g>
    </g>
    <g id="xtick_2">
     <g id="line2d_3">
      <path clip-path="url(#pa4d9f7f268)" d="M 85.63125 239.758125 
L 85.63125 22.318125 
" style="fill:none;stroke:#b0b0b0;stroke-linecap:square;stroke-width:0.8;"/>
     </g>
     <g id="line2d_4">
      <g>
       <use style="stroke:#000000;stroke-width:0.8;" x="85.63125" xlink:href="#md4bba7d647" y="239.758125"/>
      </g>
     </g>
     <g id="text_2">
      <!-- 0.0$\pi$ -->
      <g transform="translate(74.63125 254.356562)scale(0.1 -0.1)">
       <use transform="translate(0 0.78125)" xlink:href="#DejaVuSans-30"/>
       <use transform="translate(63.623047 0.78125)" xlink:href="#DejaVuSans-2e"/>
       <use transform="translate(95.410156 0.78125)" xlink:href="#DejaVuSans-30"/>
       <use transform="translate(159.033203 0.78125)" xlink:href="#DejaVuSans-Oblique-3c0"/>
      </g>
     </g>
    </g>
    <g id="xtick_3">
     <g id="line2d_5">
      <path clip-path="url(#pa4d9f7f268)" d="M 127.48125 239.758125 
L 127.48125 22.318125 
" style="fill:none;stroke:#b0b0b0;stroke-linecap:square;stroke-width:0.8;"/>
     </g>
     <g id="line2d_6">
      <g>
       <use style="stroke:#000000;stroke-width:0.8;" x="127.48125" xlink:href="#md4bba7d647" y="239.758125"/>
      </g>
     </g>
     <g id="text_3">
      <!-- 0.2$\pi$ -->
      <g transform="translate(116.78125 254.356562)scale(0.1 -0.1)">
       <use transform="translate(0 0.78125)" xlink:href="#DejaVuSans-30"/>
       <use transform="translate(63.623047 0.78125)" xlink:href="#DejaVuSans-2e"/>
       <use transform="translate(89.910156 0.78125)" xlink:href="#DejaVuSans-32"/>
       <use transform="translate(153.533203 0.78125)" xlink:href="#DejaVuSans-Oblique-3c0"/>
      </g>
     </g>
    </g>
    <g id="xtick_4">
     <g id="line2d_7">
      <path clip-path="url(#pa4d9f7f268)" d="M 169.33125 239.758125 
L 169.33125 22.318125 
" style="fill:none;stroke:#b0b0b0;stroke-linecap:square;stroke-width:0.8;"/>
     </g>
     <g id="line2d_8">
      <g>
       <use style="stroke:#000000;stroke-width:0.8;" x="169.33125" xlink:href="#md4bba7d647" y="239.758125"/>
      </g>
     </g>
     <g id="text_4">
      <!-- 0.3$\pi$ -->
      <g transform="translate(158.33125 254.356562)scale(0.1 -0.1)">
       <defs>
        <path d="M 2597 2516 
Q 3050 2419 3304 2112 
Q 3559 1806 3559 1356 
Q 3559 666 3084 287 
Q 2609 -91 1734 -91 
Q 1441 -91 1130 -33 
Q 819 25 488 141 
L 488 750 
Q 750 597 1062 519 
Q 1375 441 1716 441 
Q 2309 441 2620 675 
Q 2931 909 2931 1356 
Q 2931 1769 2642 2001 
Q 2353 2234 1838 2234 
L 1294 2234 
L 1294 2753 
L 1863 2753 
Q 2328 2753 2575 2939 
Q 2822 3125 2822 3475 
Q 2822 3834 2567 4026 
Q 2313 4219 1838 4219 
Q 1578 4219 1281 4162 
Q 984 4106 628 3988 
L 628 4550 
Q 988 4650 1302 4700 
Q 1616 4750 1894 4750 
Q 2613 4750 3031 4423 
Q 3450 4097 3450 3541 
Q 3450 3153 3228 2886 
Q 3006 2619 2597 2516 
z
" id="DejaVuSans-33" transform="scale(0.015625)"/>
       </defs>
       <use transform="translate(0 0.78125)" xlink:href="#DejaVuSans-30"/>
       <use transform="translate(63.623047 0.78125)" xlink:href="#DejaVuSans-2e"/>
       <use transform="translate(95.410156 0.78125)" xlink:href="#DejaVuSans-33"/>
       <use transform="translate(159.033203 0.78125)" xlink:href="#DejaVuSans-Oblique-3c0"/>
      </g>
     </g>
    </g>
    <g id="xtick_5">
     <g id="line2d_9">
      <path clip-path="url(#pa4d9f7f268)" d="M 211.18125 239.758125 
L 211.18125 22.318125 
" style="fill:none;stroke:#b0b0b0;stroke-linecap:square;stroke-width:0.8;"/>
     </g>
     <g id="line2d_10">
      <g>
       <use style="stroke:#000000;stroke-width:0.8;" x="211.18125" xlink:href="#md4bba7d647" y="239.758125"/>
      </g>
     </g>
     <g id="text_5">
      <!-- 0.5$\pi$ -->
      <g transform="translate(200.18125 254.356562)scale(0.1 -0.1)">
       <defs>
        <path d="M 691 4666 
L 3169 4666 
L 3169 4134 
L 1269 4134 
L 1269 2991 
Q 1406 3038 1543 3061 
Q 1681 3084 1819 3084 
Q 2600 3084 3056 2656 
Q 3513 2228 3513 1497 
Q 3513 744 3044 326 
Q 2575 -91 1722 -91 
Q 1428 -91 1123 -41 
Q 819 9 494 109 
L 494 744 
Q 775 591 1075 516 
Q 1375 441 1709 441 
Q 2250 441 2565 725 
Q 2881 1009 2881 1497 
Q 2881 1984 2565 2268 
Q 2250 2553 1709 2553 
Q 1456 2553 1204 2497 
Q 953 2441 691 2322 
L 691 4666 
z
" id="DejaVuSans-35" transform="scale(0.015625)"/>
       </defs>
       <use transform="translate(0 0.78125)" xlink:href="#DejaVuSans-30"/>
       <use transform="translate(63.623047 0.78125)" xlink:href="#DejaVuSans-2e"/>
       <use transform="translate(95.410156 0.78125)" xlink:href="#DejaVuSans-35"/>
       <use transform="translate(159.033203 0.78125)" xlink:href="#DejaVuSans-Oblique-3c0"/>
      </g>
     </g>
    </g>
    <g id="xtick_6">
     <g id="line2d_11">
      <path clip-path="url(#pa4d9f7f268)" d="M 253.03125 239.758125 
L 253.03125 22.318125 
" style="fill:none;stroke:#b0b0b0;stroke-linecap:square;stroke-width:0.8;"/>
     </g>
     <g id="line2d_12">
      <g>
       <use style="stroke:#000000;stroke-width:0.8;" x="253.03125" xlink:href="#md4bba7d647" y="239.758125"/>
      </g>
     </g>
     <g id="text_6">
      <!-- 0.6$\pi$ -->
      <g transform="translate(242.03125 254.356562)scale(0.1 -0.1)">
       <defs>
        <path d="M 2113 2584 
Q 1688 2584 1439 2293 
Q 1191 2003 1191 1497 
Q 1191 994 1439 701 
Q 1688 409 2113 409 
Q 2538 409 2786 701 
Q 3034 994 3034 1497 
Q 3034 2003 2786 2293 
Q 2538 2584 2113 2584 
z
M 3366 4563 
L 3366 3988 
Q 3128 4100 2886 4159 
Q 2644 4219 2406 4219 
Q 1781 4219 1451 3797 
Q 1122 3375 1075 2522 
Q 1259 2794 1537 2939 
Q 1816 3084 2150 3084 
Q 2853 3084 3261 2657 
Q 3669 2231 3669 1497 
Q 3669 778 3244 343 
Q 2819 -91 2113 -91 
Q 1303 -91 875 529 
Q 447 1150 447 2328 
Q 447 3434 972 4092 
Q 1497 4750 2381 4750 
Q 2619 4750 2861 4703 
Q 3103 4656 3366 4563 
z
" id="DejaVuSans-36" transform="scale(0.015625)"/>
       </defs>
       <use transform="translate(0 0.78125)" xlink:href="#DejaVuSans-30"/>
       <use transform="translate(63.623047 0.78125)" xlink:href="#DejaVuSans-2e"/>
       <use transform="translate(95.410156 0.78125)" xlink:href="#DejaVuSans-36"/>
       <use transform="translate(159.033203 0.78125)" xlink:href="#DejaVuSans-Oblique-3c0"/>
      </g>
     </g>
    </g>
    <g id="xtick_7">
     <g id="line2d_13">
      <path clip-path="url(#pa4d9f7f268)" d="M 294.88125 239.758125 
L 294.88125 22.318125 
" style="fill:none;stroke:#b0b0b0;stroke-linecap:square;stroke-width:0.8;"/>
     </g>
     <g id="line2d_14">
      <g>
       <use style="stroke:#000000;stroke-width:0.8;" x="294.88125" xlink:href="#md4bba7d647" y="239.758125"/>
      </g>
     </g>
     <g id="text_7">
      <!-- 0.8$\pi$ -->
      <g transform="translate(284.03125 254.356562)scale(0.1 -0.1)">
       <defs>
        <path d="M 2034 2216 
Q 1584 2216 1326 1975 
Q 1069 1734 1069 1313 
Q 1069 891 1326 650 
Q 1584 409 2034 409 
Q 2484 409 2743 651 
Q 3003 894 3003 1313 
Q 3003 1734 2745 1975 
Q 2488 2216 2034 2216 
z
M 1403 2484 
Q 997 2584 770 2862 
Q 544 3141 544 3541 
Q 544 4100 942 4425 
Q 1341 4750 2034 4750 
Q 2731 4750 3128 4425 
Q 3525 4100 3525 3541 
Q 3525 3141 3298 2862 
Q 3072 2584 2669 2484 
Q 3125 2378 3379 2068 
Q 3634 1759 3634 1313 
Q 3634 634 3220 271 
Q 2806 -91 2034 -91 
Q 1263 -91 848 271 
Q 434 634 434 1313 
Q 434 1759 690 2068 
Q 947 2378 1403 2484 
z
M 1172 3481 
Q 1172 3119 1398 2916 
Q 1625 2713 2034 2713 
Q 2441 2713 2670 2916 
Q 2900 3119 2900 3481 
Q 2900 3844 2670 4047 
Q 2441 4250 2034 4250 
Q 1625 4250 1398 4047 
Q 1172 3844 1172 3481 
z
" id="DejaVuSans-38" transform="scale(0.015625)"/>
       </defs>
       <use transform="translate(0 0.78125)" xlink:href="#DejaVuSans-30"/>
       <use transform="translate(63.623047 0.78125)" xlink:href="#DejaVuSans-2e"/>
       <use transform="translate(92.785156 0.78125)" xlink:href="#DejaVuSans-38"/>
       <use transform="translate(156.408203 0.78125)" xlink:href="#DejaVuSans-Oblique-3c0"/>
      </g>
     </g>
    </g>
    <g id="xtick_8">
     <g id="line2d_15">
      <path clip-path="url(#pa4d9f7f268)" d="M 336.73125 239.758125 
L 336.73125 22.318125 
" style="fill:none;stroke:#b0b0b0;stroke-linecap:square;stroke-width:0.8;"/>
     </g>
     <g id="line2d_16">
      <g>
       <use style="stroke:#000000;stroke-width:0.8;" x="336.73125" xlink:href="#md4bba7d647" y="239.758125"/>
      </g>
     </g>
     <g id="text_8">
      <!-- 1.0$\pi$ -->
      <g transform="translate(325.73125 254.356562)scale(0.1 -0.1)">
       <defs>
        <path d="M 794 531 
L 1825 531 
L 1825 4091 
L 703 3866 
L 703 4441 
L 1819 4666 
L 2450 4666 
L 2450 531 
L 3481 531 
L 3481 0 
L 794 0 
L 794 531 
z
" id="DejaVuSans-31" transform="scale(0.015625)"/>
       </defs>
       <use transform="translate(0 0.78125)" xlink:href="#DejaVuSans-31"/>
       <use transform="translate(63.623047 0.78125)" xlink:href="#DejaVuSans-2e"/>
       <use transform="translate(95.410156 0.78125)" xlink:href="#DejaVuSans-30"/>
       <use transform="translate(159.033203 0.78125)" xlink:href="#DejaVuSans-Oblique-3c0"/>
      </g>
     </g>
    </g>
    <g id="xtick_9">
     <g id="line2d_17">
      <path clip-path="url(#pa4d9f7f268)" d="M 378.58125 239.758125 
L 378.58125 22.318125 
" style="fill:none;stroke:#b0b0b0;stroke-linecap:square;stroke-width:0.8;"/>
     </g>
     <g id="line2d_18">
      <g>
       <use style="stroke:#000000;stroke-width:0.8;" x="378.58125" xlink:href="#md4bba7d647" y="239.758125"/>
      </g>
     </g>
     <g id="text_9">
      <!-- 1.1$\pi$ -->
      <g transform="translate(367.58125 254.356562)scale(0.1 -0.1)">
       <use transform="translate(0 0.09375)" xlink:href="#DejaVuSans-31"/>
       <use transform="translate(63.623047 0.09375)" xlink:href="#DejaVuSans-2e"/>
       <use transform="translate(95.410156 0.09375)" xlink:href="#DejaVuSans-31"/>
       <use transform="translate(159.033203 0.09375)" xlink:href="#DejaVuSans-Oblique-3c0"/>
      </g>
     </g>
    </g>
    <g id="text_10">
     <!-- $x$ -->
     <g transform="translate(208.18125 268.034687)scale(0.1 -0.1)">
      <defs>
       <path d="M 3841 3500 
L 2234 1784 
L 3219 0 
L 2559 0 
L 1819 1388 
L 531 0 
L -166 0 
L 1556 1844 
L 641 3500 
L 1300 3500 
L 1972 2234 
L 3144 3500 
L 3841 3500 
z
" id="DejaVuSans-Oblique-78" transform="scale(0.015625)"/>
      </defs>
      <use transform="translate(0 0.3125)" xlink:href="#DejaVuSans-Oblique-78"/>
     </g>
    </g>
   </g>
   <g id="matplotlib.axis_2">
    <g id="ytick_1">
     <g id="line2d_19">
      <path clip-path="url(#pa4d9f7f268)" d="M 43.78125 229.874489 
L 378.58125 229.874489 
" style="fill:none;stroke:#b0b0b0;stroke-linecap:square;stroke-width:0.8;"/>
     </g>
     <g id="line2d_20">
      <defs>
       <path d="M 0 0 
L -3.5 0 
" id="m436b040b0b" style="stroke:#000000;stroke-width:0.8;"/>
      </defs>
      <g>
       <use style="stroke:#000000;stroke-width:0.8;" x="43.78125" xlink:href="#m436b040b0b" y="229.874489"/>
      </g>
     </g>
     <g id="text_11">
      <!-- 0.0 -->
      <g transform="translate(20.878125 233.673707)scale(0.1 -0.1)">
       <use xlink:href="#DejaVuSans-30"/>
       <use x="63.623047" xlink:href="#DejaVuSans-2e"/>
       <use x="95.410156" xlink:href="#DejaVuSans-30"/>
      </g>
     </g>
    </g>
    <g id="ytick_2">
     <g id="line2d_21">
      <path clip-path="url(#pa4d9f7f268)" d="M 43.78125 190.409142 
L 378.58125 190.409142 
" style="fill:none;stroke:#b0b0b0;stroke-linecap:square;stroke-width:0.8;"/>
     </g>
     <g id="line2d_22">
      <g>
       <use style="stroke:#000000;stroke-width:0.8;" x="43.78125" xlink:href="#m436b040b0b" y="190.409142"/>
      </g>
     </g>
     <g id="text_12">
      <!-- 0.2 -->
      <g transform="translate(20.878125 194.208361)scale(0.1 -0.1)">
       <use xlink:href="#DejaVuSans-30"/>
       <use x="63.623047" xlink:href="#DejaVuSans-2e"/>
       <use x="95.410156" xlink:href="#DejaVuSans-32"/>
      </g>
     </g>
    </g>
    <g id="ytick_3">
     <g id="line2d_23">
      <path clip-path="url(#pa4d9f7f268)" d="M 43.78125 150.943795 
L 378.58125 150.943795 
" style="fill:none;stroke:#b0b0b0;stroke-linecap:square;stroke-width:0.8;"/>
     </g>
     <g id="line2d_24">
      <g>
       <use style="stroke:#000000;stroke-width:0.8;" x="43.78125" xlink:href="#m436b040b0b" y="150.943795"/>
      </g>
     </g>
     <g id="text_13">
      <!-- 0.4 -->
      <g transform="translate(20.878125 154.743014)scale(0.1 -0.1)">
       <defs>
        <path d="M 2419 4116 
L 825 1625 
L 2419 1625 
L 2419 4116 
z
M 2253 4666 
L 3047 4666 
L 3047 1625 
L 3713 1625 
L 3713 1100 
L 3047 1100 
L 3047 0 
L 2419 0 
L 2419 1100 
L 313 1100 
L 313 1709 
L 2253 4666 
z
" id="DejaVuSans-34" transform="scale(0.015625)"/>
       </defs>
       <use xlink:href="#DejaVuSans-30"/>
       <use x="63.623047" xlink:href="#DejaVuSans-2e"/>
       <use x="95.410156" xlink:href="#DejaVuSans-34"/>
      </g>
     </g>
    </g>
    <g id="ytick_4">
     <g id="line2d_25">
      <path clip-path="url(#pa4d9f7f268)" d="M 43.78125 111.478449 
L 378.58125 111.478449 
" style="fill:none;stroke:#b0b0b0;stroke-linecap:square;stroke-width:0.8;"/>
     </g>
     <g id="line2d_26">
      <g>
       <use style="stroke:#000000;stroke-width:0.8;" x="43.78125" xlink:href="#m436b040b0b" y="111.478449"/>
      </g>
     </g>
     <g id="text_14">
      <!-- 0.6 -->
      <g transform="translate(20.878125 115.277667)scale(0.1 -0.1)">
       <use xlink:href="#DejaVuSans-30"/>
       <use x="63.623047" xlink:href="#DejaVuSans-2e"/>
       <use x="95.410156" xlink:href="#DejaVuSans-36"/>
      </g>
     </g>
    </g>
    <g id="ytick_5">
     <g id="line2d_27">
      <path clip-path="url(#pa4d9f7f268)" d="M 43.78125 72.013102 
L 378.58125 72.013102 
" style="fill:none;stroke:#b0b0b0;stroke-linecap:square;stroke-width:0.8;"/>
     </g>
     <g id="line2d_28">
      <g>
       <use style="stroke:#000000;stroke-width:0.8;" x="43.78125" xlink:href="#m436b040b0b" y="72.013102"/>
      </g>
     </g>
     <g id="text_15">
      <!-- 0.8 -->
      <g transform="translate(20.878125 75.812321)scale(0.1 -0.1)">
       <use xlink:href="#DejaVuSans-30"/>
       <use x="63.623047" xlink:href="#DejaVuSans-2e"/>
       <use x="95.410156" xlink:href="#DejaVuSans-38"/>
      </g>
     </g>
    </g>
    <g id="ytick_6">
     <g id="line2d_29">
      <path clip-path="url(#pa4d9f7f268)" d="M 43.78125 32.547755 
L 378.58125 32.547755 
" style="fill:none;stroke:#b0b0b0;stroke-linecap:square;stroke-width:0.8;"/>
     </g>
     <g id="line2d_30">
      <g>
       <use style="stroke:#000000;stroke-width:0.8;" x="43.78125" xlink:href="#m436b040b0b" y="32.547755"/>
      </g>
     </g>
     <g id="text_16">
      <!-- 1.0 -->
      <g transform="translate(20.878125 36.346974)scale(0.1 -0.1)">
       <use xlink:href="#DejaVuSans-31"/>
       <use x="63.623047" xlink:href="#DejaVuSans-2e"/>
       <use x="95.410156" xlink:href="#DejaVuSans-30"/>
      </g>
     </g>
    </g>
    <g id="text_17">
     <!-- $f(x)$ -->
     <g transform="translate(14.798438 139.688125)rotate(-90)scale(0.1 -0.1)">
      <defs>
       <path d="M 3059 4863 
L 2969 4384 
L 2419 4384 
Q 2106 4384 1964 4261 
Q 1822 4138 1753 3809 
L 1691 3500 
L 2638 3500 
L 2553 3053 
L 1606 3053 
L 1013 0 
L 434 0 
L 1031 3053 
L 481 3053 
L 563 3500 
L 1113 3500 
L 1159 3744 
Q 1278 4363 1576 4613 
Q 1875 4863 2516 4863 
L 3059 4863 
z
" id="DejaVuSans-Oblique-66" transform="scale(0.015625)"/>
       <path d="M 1984 4856 
Q 1566 4138 1362 3434 
Q 1159 2731 1159 2009 
Q 1159 1288 1364 580 
Q 1569 -128 1984 -844 
L 1484 -844 
Q 1016 -109 783 600 
Q 550 1309 550 2009 
Q 550 2706 781 3412 
Q 1013 4119 1484 4856 
L 1984 4856 
z
" id="DejaVuSans-28" transform="scale(0.015625)"/>
       <path d="M 513 4856 
L 1013 4856 
Q 1481 4119 1714 3412 
Q 1947 2706 1947 2009 
Q 1947 1309 1714 600 
Q 1481 -109 1013 -844 
L 513 -844 
Q 928 -128 1133 580 
Q 1338 1288 1338 2009 
Q 1338 2731 1133 3434 
Q 928 4138 513 4856 
z
" id="DejaVuSans-29" transform="scale(0.015625)"/>
      </defs>
      <use transform="translate(0 0.015625)" xlink:href="#DejaVuSans-Oblique-66"/>
      <use transform="translate(35.205078 0.015625)" xlink:href="#DejaVuSans-28"/>
      <use transform="translate(74.21875 0.015625)" xlink:href="#DejaVuSans-Oblique-78"/>
      <use transform="translate(133.398438 0.015625)" xlink:href="#DejaVuSans-29"/>
     </g>
    </g>
   </g>
   <g id="line2d_31">
    <path clip-path="url(#pa4d9f7f268)" d="M 85.63125 229.874489 
L 102.37125 190.671719 
L 111.57825 169.678264 
L 119.11125 153.031839 
L 125.80725 138.753112 
L 131.66625 126.734325 
L 137.52525 115.220719 
L 142.54725 105.796815 
L 147.56925 96.819458 
L 152.59125 88.320955 
L 156.77625 81.626781 
L 160.96125 75.303149 
L 165.14625 69.365864 
L 169.33125 63.829768 
L 173.51625 58.708697 
L 176.86425 54.919296 
L 180.21225 51.409786 
L 183.56025 48.185781 
L 186.90825 45.25244 
L 190.25625 42.614454 
L 193.60425 40.276044 
L 196.95225 38.240952 
L 200.30025 36.512432 
L 203.64825 35.09325 
L 206.99625 33.985677 
L 209.50725 33.360575 
L 212.01825 32.912322 
L 214.52925 32.641322 
L 217.04025 32.547818 
L 219.55125 32.631895 
L 222.06225 32.893477 
L 224.57325 33.332329 
L 227.08425 33.948055 
L 229.59525 34.740102 
L 232.94325 36.069186 
L 236.29125 37.708317 
L 239.63925 39.654873 
L 242.98725 41.90574 
L 246.33525 44.457317 
L 249.68325 47.305522 
L 253.03125 50.445798 
L 256.37925 53.873122 
L 259.72725 57.58201 
L 263.07525 61.56653 
L 267.26025 66.925034 
L 271.44525 72.690826 
L 275.63025 78.849496 
L 279.81525 85.38565 
L 284.00025 92.28295 
L 289.02225 101.012091 
L 294.04425 110.204996 
L 299.06625 119.828583 
L 304.92525 131.554146 
L 310.78425 143.761283 
L 317.48025 158.225182 
L 325.01325 175.040167 
L 334.22025 196.180588 
L 347.61225 227.586999 
L 348.44925 229.560216 
L 348.44925 229.560216 
" style="fill:none;stroke:#ff0000;stroke-linecap:square;stroke-opacity:0.25;stroke-width:4;"/>
   </g>
   <g id="line2d_32">
    <path clip-path="url(#pa4d9f7f268)" d="M 85.63125 204.750069 
L 87.30525 204.629509 
L 88.97925 204.26828 
L 90.65325 203.667728 
L 92.32725 202.830091 
L 94.00125 201.758485 
L 95.67525 200.456888 
L 97.34925 198.930119 
L 99.02325 197.183814 
L 101.53425 194.166979 
L 104.04525 190.695627 
L 106.55625 186.798086 
L 109.06725 182.505879 
L 112.41525 176.228727 
L 115.76325 169.399212 
L 119.94825 160.228886 
L 124.97025 148.549085 
L 133.34025 128.317276 
L 140.87325 110.350242 
L 145.89525 98.995342 
L 150.08025 90.113262 
L 153.42825 83.464762 
L 156.77625 77.268416 
L 160.12425 71.554762 
L 163.47225 66.343329 
L 166.82025 61.642948 
L 169.33125 58.452618 
L 171.84225 55.545181 
L 174.35325 52.913889 
L 176.86425 50.549547 
L 179.37525 48.440818 
L 181.88625 46.574549 
L 184.39725 44.936115 
L 186.90825 43.509781 
L 190.25625 41.909392 
L 193.60425 40.616804 
L 196.95225 39.592449 
L 200.30025 38.798586 
L 204.48525 38.07818 
L 208.67025 37.606871 
L 212.85525 37.341189 
L 217.87725 37.256774 
L 222.89925 37.417176 
L 227.08425 37.754493 
L 231.26925 38.311651 
L 234.61725 38.948081 
L 237.96525 39.787396 
L 241.31325 40.864914 
L 244.66125 42.218877 
L 247.17225 43.439675 
L 249.68325 44.855205 
L 252.19425 46.481975 
L 254.70525 48.33577 
L 257.21625 50.431282 
L 259.72725 52.781751 
L 262.23825 55.39862 
L 264.74925 58.291204 
L 267.26025 61.46639 
L 269.77125 64.928361 
L 273.11925 69.99213 
L 276.46725 75.56176 
L 279.81525 81.620867 
L 283.16325 88.142118 
L 287.34825 96.884037 
L 291.53325 106.188431 
L 296.55525 117.920031 
L 305.76225 140.186947 
L 312.45825 156.095013 
L 316.64325 165.515785 
L 319.99125 172.604785 
L 323.33925 179.191451 
L 325.85025 183.746614 
L 328.36125 187.931568 
L 330.87225 191.712719 
L 333.38325 195.059407 
L 335.89425 197.944255 
L 337.56825 199.599012 
L 339.24225 201.031766 
L 340.91625 202.237222 
L 342.59025 203.21091 
L 344.26425 203.949213 
L 345.93825 204.449383 
L 347.61225 204.709555 
L 348.44925 204.749304 
L 348.44925 204.749304 
" style="fill:none;stroke:#000000;stroke-linecap:square;stroke-opacity:0.5;stroke-width:1.5;"/>
   </g>
   <g id="line2d_33">
    <path clip-path="url(#pa4d9f7f268)" d="M 85.63125 223.262799 
L 86.46825 223.143909 
L 87.30525 222.788677 
L 88.14225 222.20139 
L 88.97925 221.389088 
L 89.81625 220.361418 
L 91.49025 217.710312 
L 93.16425 214.368396 
L 94.83825 210.480055 
L 97.34925 203.966329 
L 104.04525 185.959918 
L 106.55625 179.8592 
L 109.06725 174.249099 
L 112.41525 167.328866 
L 119.94825 152.013612 
L 124.13325 142.851323 
L 130.82925 128.0146 
L 134.17725 121.122182 
L 137.52525 114.753352 
L 141.71025 107.35728 
L 158.45025 78.750257 
L 161.79825 73.649643 
L 165.14625 69.041548 
L 168.49425 64.860188 
L 173.51625 59.051898 
L 181.04925 50.71728 
L 184.39725 47.284223 
L 186.90825 44.949888 
L 189.41925 42.880792 
L 191.93025 41.096318 
L 194.44125 39.578899 
L 197.78925 37.885966 
L 201.97425 36.098699 
L 206.99625 34.219925 
L 210.34425 33.182014 
L 212.85525 32.606496 
L 215.36625 32.271216 
L 217.87725 32.215338 
L 220.38825 32.445697 
L 222.89925 32.934675 
L 226.24725 33.894785 
L 230.43225 35.391862 
L 235.45425 37.447066 
L 238.80225 39.054556 
L 241.31325 40.480381 
L 243.82425 42.157656 
L 246.33525 44.117023 
L 248.84625 46.353452 
L 252.19425 49.692693 
L 257.21625 55.149396 
L 264.74925 63.707086 
L 268.09725 67.791614 
L 271.44525 72.263985 
L 274.79325 77.222744 
L 278.14125 82.639506 
L 283.16325 91.273889 
L 298.22925 117.62192 
L 301.57725 124.229373 
L 304.92525 131.345858 
L 316.64325 156.978087 
L 326.68725 177.636905 
L 329.19825 183.542108 
L 331.70925 189.944615 
L 340.07925 212.171238 
L 341.75325 215.848543 
L 343.42725 218.91652 
L 344.26425 220.178633 
L 345.10125 221.23955 
L 345.93825 222.086864 
L 346.77525 222.710529 
L 347.61225 223.103079 
L 348.44925 223.25978 
L 348.44925 223.25978 
" style="fill:none;stroke:#1f77b4;stroke-linecap:square;stroke-width:1.5;"/>
   </g>
   <g id="patch_3">
    <path d="M 43.78125 239.758125 
L 43.78125 22.318125 
" style="fill:none;stroke:#000000;stroke-linecap:square;stroke-linejoin:miter;stroke-width:0.8;"/>
   </g>
   <g id="patch_4">
    <path d="M 378.58125 239.758125 
L 378.58125 22.318125 
" style="fill:none;stroke:#000000;stroke-linecap:square;stroke-linejoin:miter;stroke-width:0.8;"/>
   </g>
   <g id="patch_5">
    <path d="M 43.78125 239.758125 
L 378.58125 239.758125 
" style="fill:none;stroke:#000000;stroke-linecap:square;stroke-linejoin:miter;stroke-width:0.8;"/>
   </g>
   <g id="patch_6">
    <path d="M 43.78125 22.318125 
L 378.58125 22.318125 
" style="fill:none;stroke:#000000;stroke-linecap:square;stroke-linejoin:miter;stroke-width:0.8;"/>
   </g>
   <g id="text_18">
    <!-- Cosine Series of $\hspace{0.2}\sin(x)$ -->
    <g transform="translate(143.02125 16.318125)scale(0.12 -0.12)">
     <defs>
      <path d="M 4122 4306 
L 4122 3641 
Q 3803 3938 3442 4084 
Q 3081 4231 2675 4231 
Q 1875 4231 1450 3742 
Q 1025 3253 1025 2328 
Q 1025 1406 1450 917 
Q 1875 428 2675 428 
Q 3081 428 3442 575 
Q 3803 722 4122 1019 
L 4122 359 
Q 3791 134 3420 21 
Q 3050 -91 2638 -91 
Q 1578 -91 968 557 
Q 359 1206 359 2328 
Q 359 3453 968 4101 
Q 1578 4750 2638 4750 
Q 3056 4750 3426 4639 
Q 3797 4528 4122 4306 
z
" id="DejaVuSans-43" transform="scale(0.015625)"/>
      <path d="M 1959 3097 
Q 1497 3097 1228 2736 
Q 959 2375 959 1747 
Q 959 1119 1226 758 
Q 1494 397 1959 397 
Q 2419 397 2687 759 
Q 2956 1122 2956 1747 
Q 2956 2369 2687 2733 
Q 2419 3097 1959 3097 
z
M 1959 3584 
Q 2709 3584 3137 3096 
Q 3566 2609 3566 1747 
Q 3566 888 3137 398 
Q 2709 -91 1959 -91 
Q 1206 -91 779 398 
Q 353 888 353 1747 
Q 353 2609 779 3096 
Q 1206 3584 1959 3584 
z
" id="DejaVuSans-6f" transform="scale(0.015625)"/>
      <path d="M 2834 3397 
L 2834 2853 
Q 2591 2978 2328 3040 
Q 2066 3103 1784 3103 
Q 1356 3103 1142 2972 
Q 928 2841 928 2578 
Q 928 2378 1081 2264 
Q 1234 2150 1697 2047 
L 1894 2003 
Q 2506 1872 2764 1633 
Q 3022 1394 3022 966 
Q 3022 478 2636 193 
Q 2250 -91 1575 -91 
Q 1294 -91 989 -36 
Q 684 19 347 128 
L 347 722 
Q 666 556 975 473 
Q 1284 391 1588 391 
Q 1994 391 2212 530 
Q 2431 669 2431 922 
Q 2431 1156 2273 1281 
Q 2116 1406 1581 1522 
L 1381 1569 
Q 847 1681 609 1914 
Q 372 2147 372 2553 
Q 372 3047 722 3315 
Q 1072 3584 1716 3584 
Q 2034 3584 2315 3537 
Q 2597 3491 2834 3397 
z
" id="DejaVuSans-73" transform="scale(0.015625)"/>
      <path d="M 603 3500 
L 1178 3500 
L 1178 0 
L 603 0 
L 603 3500 
z
M 603 4863 
L 1178 4863 
L 1178 4134 
L 603 4134 
L 603 4863 
z
" id="DejaVuSans-69" transform="scale(0.015625)"/>
      <path d="M 3513 2113 
L 3513 0 
L 2938 0 
L 2938 2094 
Q 2938 2591 2744 2837 
Q 2550 3084 2163 3084 
Q 1697 3084 1428 2787 
Q 1159 2491 1159 1978 
L 1159 0 
L 581 0 
L 581 3500 
L 1159 3500 
L 1159 2956 
Q 1366 3272 1645 3428 
Q 1925 3584 2291 3584 
Q 2894 3584 3203 3211 
Q 3513 2838 3513 2113 
z
" id="DejaVuSans-6e" transform="scale(0.015625)"/>
      <path d="M 3597 1894 
L 3597 1613 
L 953 1613 
Q 991 1019 1311 708 
Q 1631 397 2203 397 
Q 2534 397 2845 478 
Q 3156 559 3463 722 
L 3463 178 
Q 3153 47 2828 -22 
Q 2503 -91 2169 -91 
Q 1331 -91 842 396 
Q 353 884 353 1716 
Q 353 2575 817 3079 
Q 1281 3584 2069 3584 
Q 2775 3584 3186 3129 
Q 3597 2675 3597 1894 
z
M 3022 2063 
Q 3016 2534 2758 2815 
Q 2500 3097 2075 3097 
Q 1594 3097 1305 2825 
Q 1016 2553 972 2059 
L 3022 2063 
z
" id="DejaVuSans-65" transform="scale(0.015625)"/>
      <path id="DejaVuSans-20" transform="scale(0.015625)"/>
      <path d="M 3425 4513 
L 3425 3897 
Q 3066 4069 2747 4153 
Q 2428 4238 2131 4238 
Q 1616 4238 1336 4038 
Q 1056 3838 1056 3469 
Q 1056 3159 1242 3001 
Q 1428 2844 1947 2747 
L 2328 2669 
Q 3034 2534 3370 2195 
Q 3706 1856 3706 1288 
Q 3706 609 3251 259 
Q 2797 -91 1919 -91 
Q 1588 -91 1214 -16 
Q 841 59 441 206 
L 441 856 
Q 825 641 1194 531 
Q 1563 422 1919 422 
Q 2459 422 2753 634 
Q 3047 847 3047 1241 
Q 3047 1584 2836 1778 
Q 2625 1972 2144 2069 
L 1759 2144 
Q 1053 2284 737 2584 
Q 422 2884 422 3419 
Q 422 4038 858 4394 
Q 1294 4750 2059 4750 
Q 2388 4750 2728 4690 
Q 3069 4631 3425 4513 
z
" id="DejaVuSans-53" transform="scale(0.015625)"/>
      <path d="M 2631 2963 
Q 2534 3019 2420 3045 
Q 2306 3072 2169 3072 
Q 1681 3072 1420 2755 
Q 1159 2438 1159 1844 
L 1159 0 
L 581 0 
L 581 3500 
L 1159 3500 
L 1159 2956 
Q 1341 3275 1631 3429 
Q 1922 3584 2338 3584 
Q 2397 3584 2469 3576 
Q 2541 3569 2628 3553 
L 2631 2963 
z
" id="DejaVuSans-72" transform="scale(0.015625)"/>
      <path d="M 2375 4863 
L 2375 4384 
L 1825 4384 
Q 1516 4384 1395 4259 
Q 1275 4134 1275 3809 
L 1275 3500 
L 2222 3500 
L 2222 3053 
L 1275 3053 
L 1275 0 
L 697 0 
L 697 3053 
L 147 3053 
L 147 3500 
L 697 3500 
L 697 3744 
Q 697 4328 969 4595 
Q 1241 4863 1831 4863 
L 2375 4863 
z
" id="DejaVuSans-66" transform="scale(0.015625)"/>
     </defs>
     <use transform="translate(0 0.015625)" xlink:href="#DejaVuSans-43"/>
     <use transform="translate(69.824219 0.015625)" xlink:href="#DejaVuSans-6f"/>
     <use transform="translate(131.005859 0.015625)" xlink:href="#DejaVuSans-73"/>
     <use transform="translate(183.105469 0.015625)" xlink:href="#DejaVuSans-69"/>
     <use transform="translate(210.888672 0.015625)" xlink:href="#DejaVuSans-6e"/>
     <use transform="translate(274.267578 0.015625)" xlink:href="#DejaVuSans-65"/>
     <use transform="translate(335.791016 0.015625)" xlink:href="#DejaVuSans-20"/>
     <use transform="translate(367.578125 0.015625)" xlink:href="#DejaVuSans-53"/>
     <use transform="translate(431.054688 0.015625)" xlink:href="#DejaVuSans-65"/>
     <use transform="translate(492.578125 0.015625)" xlink:href="#DejaVuSans-72"/>
     <use transform="translate(533.691406 0.015625)" xlink:href="#DejaVuSans-69"/>
     <use transform="translate(561.474609 0.015625)" xlink:href="#DejaVuSans-65"/>
     <use transform="translate(622.998047 0.015625)" xlink:href="#DejaVuSans-73"/>
     <use transform="translate(675.097656 0.015625)" xlink:href="#DejaVuSans-20"/>
     <use transform="translate(706.884766 0.015625)" xlink:href="#DejaVuSans-6f"/>
     <use transform="translate(768.066406 0.015625)" xlink:href="#DejaVuSans-66"/>
     <use transform="translate(803.271484 0.015625)" xlink:href="#DejaVuSans-20"/>
     <use transform="translate(854.541016 0.015625)" xlink:href="#DejaVuSans-73"/>
     <use transform="translate(906.640625 0.015625)" xlink:href="#DejaVuSans-69"/>
     <use transform="translate(934.423828 0.015625)" xlink:href="#DejaVuSans-6e"/>
     <use transform="translate(997.802734 0.015625)" xlink:href="#DejaVuSans-28"/>
     <use transform="translate(1036.816406 0.015625)" xlink:href="#DejaVuSans-Oblique-78"/>
     <use transform="translate(1095.996094 0.015625)" xlink:href="#DejaVuSans-29"/>
    </g>
   </g>
   <g id="legend_1">
    <g id="patch_7">
     <path d="M 50.78125 74.3525 
L 149.48125 74.3525 
Q 151.48125 74.3525 151.48125 72.3525 
L 151.48125 29.318125 
Q 151.48125 27.318125 149.48125 27.318125 
L 50.78125 27.318125 
Q 48.78125 27.318125 48.78125 29.318125 
L 48.78125 72.3525 
Q 48.78125 74.3525 50.78125 74.3525 
z
" style="fill:#ffffff;opacity:0.8;stroke:#cccccc;stroke-linejoin:miter;"/>
    </g>
    <g id="line2d_34">
     <path d="M 52.78125 35.416562 
L 72.78125 35.416562 
" style="fill:none;stroke:#ff0000;stroke-linecap:square;stroke-opacity:0.25;stroke-width:4;"/>
    </g>
    <g id="line2d_35"/>
    <g id="text_19">
     <!-- $\sin(x)$ -->
     <g transform="translate(80.78125 38.916562)scale(0.1 -0.1)">
      <use transform="translate(0 0.015625)" xlink:href="#DejaVuSans-73"/>
      <use transform="translate(52.099609 0.015625)" xlink:href="#DejaVuSans-69"/>
      <use transform="translate(79.882812 0.015625)" xlink:href="#DejaVuSans-6e"/>
      <use transform="translate(143.261719 0.015625)" xlink:href="#DejaVuSans-28"/>
      <use transform="translate(182.275391 0.015625)" xlink:href="#DejaVuSans-Oblique-78"/>
      <use transform="translate(241.455078 0.015625)" xlink:href="#DejaVuSans-29"/>
     </g>
    </g>
    <g id="line2d_36">
     <path d="M 52.78125 50.094687 
L 72.78125 50.094687 
" style="fill:none;stroke:#000000;stroke-linecap:square;stroke-opacity:0.5;stroke-width:1.5;"/>
    </g>
    <g id="line2d_37"/>
    <g id="text_20">
     <!-- $\cos$ 2 terms -->
     <g transform="translate(80.78125 53.594687)scale(0.1 -0.1)">
      <defs>
       <path d="M 3122 3366 
L 3122 2828 
Q 2878 2963 2633 3030 
Q 2388 3097 2138 3097 
Q 1578 3097 1268 2742 
Q 959 2388 959 1747 
Q 959 1106 1268 751 
Q 1578 397 2138 397 
Q 2388 397 2633 464 
Q 2878 531 3122 666 
L 3122 134 
Q 2881 22 2623 -34 
Q 2366 -91 2075 -91 
Q 1284 -91 818 406 
Q 353 903 353 1747 
Q 353 2603 823 3093 
Q 1294 3584 2113 3584 
Q 2378 3584 2631 3529 
Q 2884 3475 3122 3366 
z
" id="DejaVuSans-63" transform="scale(0.015625)"/>
       <path d="M 1172 4494 
L 1172 3500 
L 2356 3500 
L 2356 3053 
L 1172 3053 
L 1172 1153 
Q 1172 725 1289 603 
Q 1406 481 1766 481 
L 2356 481 
L 2356 0 
L 1766 0 
Q 1100 0 847 248 
Q 594 497 594 1153 
L 594 3053 
L 172 3053 
L 172 3500 
L 594 3500 
L 594 4494 
L 1172 4494 
z
" id="DejaVuSans-74" transform="scale(0.015625)"/>
       <path d="M 3328 2828 
Q 3544 3216 3844 3400 
Q 4144 3584 4550 3584 
Q 5097 3584 5394 3201 
Q 5691 2819 5691 2113 
L 5691 0 
L 5113 0 
L 5113 2094 
Q 5113 2597 4934 2840 
Q 4756 3084 4391 3084 
Q 3944 3084 3684 2787 
Q 3425 2491 3425 1978 
L 3425 0 
L 2847 0 
L 2847 2094 
Q 2847 2600 2669 2842 
Q 2491 3084 2119 3084 
Q 1678 3084 1418 2786 
Q 1159 2488 1159 1978 
L 1159 0 
L 581 0 
L 581 3500 
L 1159 3500 
L 1159 2956 
Q 1356 3278 1631 3431 
Q 1906 3584 2284 3584 
Q 2666 3584 2933 3390 
Q 3200 3197 3328 2828 
z
" id="DejaVuSans-6d" transform="scale(0.015625)"/>
      </defs>
      <use transform="translate(0 0.78125)" xlink:href="#DejaVuSans-63"/>
      <use transform="translate(54.980469 0.78125)" xlink:href="#DejaVuSans-6f"/>
      <use transform="translate(116.162109 0.78125)" xlink:href="#DejaVuSans-73"/>
      <use transform="translate(184.497395 0.78125)" xlink:href="#DejaVuSans-20"/>
      <use transform="translate(216.284504 0.78125)" xlink:href="#DejaVuSans-32"/>
      <use transform="translate(279.907551 0.78125)" xlink:href="#DejaVuSans-20"/>
      <use transform="translate(311.694661 0.78125)" xlink:href="#DejaVuSans-74"/>
      <use transform="translate(350.903645 0.78125)" xlink:href="#DejaVuSans-65"/>
      <use transform="translate(412.427083 0.78125)" xlink:href="#DejaVuSans-72"/>
      <use transform="translate(453.540364 0.78125)" xlink:href="#DejaVuSans-6d"/>
      <use transform="translate(550.952473 0.78125)" xlink:href="#DejaVuSans-73"/>
     </g>
    </g>
    <g id="line2d_38">
     <path d="M 52.78125 64.772812 
L 72.78125 64.772812 
" style="fill:none;stroke:#1f77b4;stroke-linecap:square;stroke-width:1.5;"/>
    </g>
    <g id="line2d_39"/>
    <g id="text_21">
     <!-- $\cos$ 10 terms -->
     <g transform="translate(80.78125 68.272812)scale(0.1 -0.1)">
      <use transform="translate(0 0.78125)" xlink:href="#DejaVuSans-63"/>
      <use transform="translate(54.980469 0.78125)" xlink:href="#DejaVuSans-6f"/>
      <use transform="translate(116.162109 0.78125)" xlink:href="#DejaVuSans-73"/>
      <use transform="translate(184.497395 0.78125)" xlink:href="#DejaVuSans-20"/>
      <use transform="translate(216.284504 0.78125)" xlink:href="#DejaVuSans-31"/>
      <use transform="translate(279.907551 0.78125)" xlink:href="#DejaVuSans-30"/>
      <use transform="translate(343.530598 0.78125)" xlink:href="#DejaVuSans-20"/>
      <use transform="translate(375.317708 0.78125)" xlink:href="#DejaVuSans-74"/>
      <use transform="translate(414.526692 0.78125)" xlink:href="#DejaVuSans-65"/>
      <use transform="translate(476.050129 0.78125)" xlink:href="#DejaVuSans-72"/>
      <use transform="translate(517.163411 0.78125)" xlink:href="#DejaVuSans-6d"/>
      <use transform="translate(614.57552 0.78125)" xlink:href="#DejaVuSans-73"/>
     </g>
    </g>
   </g>
  </g>
 </g>
 <defs>
  <clipPath id="pa4d9f7f268">
   <rect height="217.44" width="334.8" x="43.78125" y="22.318125"/>
  </clipPath>
 </defs>
</svg>
