<?xml version="1.0" encoding="utf-8" standalone="no"?>
<!DOCTYPE svg PUBLIC "-//W3C//DTD SVG 1.1//EN"
  "http://www.w3.org/Graphics/SVG/1.1/DTD/svg11.dtd">
<svg height="277.314375pt" version="1.1" viewBox="0 0 417.503125 277.314375" width="417.503125pt" xmlns="http://www.w3.org/2000/svg" xmlns:xlink="http://www.w3.org/1999/xlink">
 <metadata>
  <rdf:RDF xmlns:cc="http://creativecommons.org/ns#" xmlns:dc="http://purl.org/dc/elements/1.1/" xmlns:rdf="http://www.w3.org/1999/02/22-rdf-syntax-ns#">
   <cc:Work>
    <dc:type rdf:resource="http://purl.org/dc/dcmitype/StillImage"/>
    <dc:date>2021-11-13T23:00:37.402932</dc:date>
    <dc:format>image/svg+xml</dc:format>
    <dc:creator>
     <cc:Agent>
      <dc:title>Matplotlib v3.4.3, https://matplotlib.org/</dc:title>
     </cc:Agent>
    </dc:creator>
   </cc:Work>
  </rdf:RDF>
 </metadata>
 <defs>
  <style type="text/css">*{stroke-linecap:butt;stroke-linejoin:round;}</style>
 </defs>
 <g id="figure_1">
  <g id="patch_1">
   <path d="M 0 277.314375 
L 417.503125 277.314375 
L 417.503125 0 
L 0 0 
z
" style="fill:none;"/>
  </g>
  <g id="axes_1">
   <g id="patch_2">
    <path d="M 40.603125 239.758125 
L 375.403125 239.758125 
L 375.403125 22.318125 
L 40.603125 22.318125 
z
" style="fill:#ffffff;"/>
   </g>
   <g id="matplotlib.axis_1">
    <g id="xtick_1">
     <g id="line2d_1">
      <path clip-path="url(#pad295d4533)" d="M 55.821307 239.758125 
L 55.821307 22.318125 
" style="fill:none;stroke:#0000ff;stroke-linecap:square;stroke-opacity:0.25;stroke-width:0.8;"/>
     </g>
     <g id="line2d_2">
      <defs>
       <path d="M 0 0 
L 0 3.5 
" id="m876c0627bc" style="stroke:#000000;stroke-width:0.8;"/>
      </defs>
      <g>
       <use style="stroke:#000000;stroke-width:0.8;" x="55.821307" xlink:href="#m876c0627bc" y="239.758125"/>
      </g>
     </g>
     <g id="text_1">
      <!-- 0 -->
      <g transform="translate(52.640057 254.356562)scale(0.1 -0.1)">
       <defs>
        <path d="M 2034 4250 
Q 1547 4250 1301 3770 
Q 1056 3291 1056 2328 
Q 1056 1369 1301 889 
Q 1547 409 2034 409 
Q 2525 409 2770 889 
Q 3016 1369 3016 2328 
Q 3016 3291 2770 3770 
Q 2525 4250 2034 4250 
z
M 2034 4750 
Q 2819 4750 3233 4129 
Q 3647 3509 3647 2328 
Q 3647 1150 3233 529 
Q 2819 -91 2034 -91 
Q 1250 -91 836 529 
Q 422 1150 422 2328 
Q 422 3509 836 4129 
Q 1250 4750 2034 4750 
z
" id="DejaVuSans-30" transform="scale(0.015625)"/>
       </defs>
       <use xlink:href="#DejaVuSans-30"/>
      </g>
     </g>
    </g>
    <g id="xtick_2">
     <g id="line2d_3">
      <path clip-path="url(#pad295d4533)" d="M 117.936335 239.758125 
L 117.936335 22.318125 
" style="fill:none;stroke:#0000ff;stroke-linecap:square;stroke-opacity:0.25;stroke-width:0.8;"/>
     </g>
     <g id="line2d_4">
      <g>
       <use style="stroke:#000000;stroke-width:0.8;" x="117.936335" xlink:href="#m876c0627bc" y="239.758125"/>
      </g>
     </g>
     <g id="text_2">
      <!-- 10 -->
      <g transform="translate(111.573835 254.356562)scale(0.1 -0.1)">
       <defs>
        <path d="M 794 531 
L 1825 531 
L 1825 4091 
L 703 3866 
L 703 4441 
L 1819 4666 
L 2450 4666 
L 2450 531 
L 3481 531 
L 3481 0 
L 794 0 
L 794 531 
z
" id="DejaVuSans-31" transform="scale(0.015625)"/>
       </defs>
       <use xlink:href="#DejaVuSans-31"/>
       <use x="63.623047" xlink:href="#DejaVuSans-30"/>
      </g>
     </g>
    </g>
    <g id="xtick_3">
     <g id="line2d_5">
      <path clip-path="url(#pad295d4533)" d="M 180.051362 239.758125 
L 180.051362 22.318125 
" style="fill:none;stroke:#0000ff;stroke-linecap:square;stroke-opacity:0.25;stroke-width:0.8;"/>
     </g>
     <g id="line2d_6">
      <g>
       <use style="stroke:#000000;stroke-width:0.8;" x="180.051362" xlink:href="#m876c0627bc" y="239.758125"/>
      </g>
     </g>
     <g id="text_3">
      <!-- 20 -->
      <g transform="translate(173.688862 254.356562)scale(0.1 -0.1)">
       <defs>
        <path d="M 1228 531 
L 3431 531 
L 3431 0 
L 469 0 
L 469 531 
Q 828 903 1448 1529 
Q 2069 2156 2228 2338 
Q 2531 2678 2651 2914 
Q 2772 3150 2772 3378 
Q 2772 3750 2511 3984 
Q 2250 4219 1831 4219 
Q 1534 4219 1204 4116 
Q 875 4013 500 3803 
L 500 4441 
Q 881 4594 1212 4672 
Q 1544 4750 1819 4750 
Q 2544 4750 2975 4387 
Q 3406 4025 3406 3419 
Q 3406 3131 3298 2873 
Q 3191 2616 2906 2266 
Q 2828 2175 2409 1742 
Q 1991 1309 1228 531 
z
" id="DejaVuSans-32" transform="scale(0.015625)"/>
       </defs>
       <use xlink:href="#DejaVuSans-32"/>
       <use x="63.623047" xlink:href="#DejaVuSans-30"/>
      </g>
     </g>
    </g>
    <g id="xtick_4">
     <g id="line2d_7">
      <path clip-path="url(#pad295d4533)" d="M 242.16639 239.758125 
L 242.16639 22.318125 
" style="fill:none;stroke:#0000ff;stroke-linecap:square;stroke-opacity:0.25;stroke-width:0.8;"/>
     </g>
     <g id="line2d_8">
      <g>
       <use style="stroke:#000000;stroke-width:0.8;" x="242.16639" xlink:href="#m876c0627bc" y="239.758125"/>
      </g>
     </g>
     <g id="text_4">
      <!-- 30 -->
      <g transform="translate(235.80389 254.356562)scale(0.1 -0.1)">
       <defs>
        <path d="M 2597 2516 
Q 3050 2419 3304 2112 
Q 3559 1806 3559 1356 
Q 3559 666 3084 287 
Q 2609 -91 1734 -91 
Q 1441 -91 1130 -33 
Q 819 25 488 141 
L 488 750 
Q 750 597 1062 519 
Q 1375 441 1716 441 
Q 2309 441 2620 675 
Q 2931 909 2931 1356 
Q 2931 1769 2642 2001 
Q 2353 2234 1838 2234 
L 1294 2234 
L 1294 2753 
L 1863 2753 
Q 2328 2753 2575 2939 
Q 2822 3125 2822 3475 
Q 2822 3834 2567 4026 
Q 2313 4219 1838 4219 
Q 1578 4219 1281 4162 
Q 984 4106 628 3988 
L 628 4550 
Q 988 4650 1302 4700 
Q 1616 4750 1894 4750 
Q 2613 4750 3031 4423 
Q 3450 4097 3450 3541 
Q 3450 3153 3228 2886 
Q 3006 2619 2597 2516 
z
" id="DejaVuSans-33" transform="scale(0.015625)"/>
       </defs>
       <use xlink:href="#DejaVuSans-33"/>
       <use x="63.623047" xlink:href="#DejaVuSans-30"/>
      </g>
     </g>
    </g>
    <g id="xtick_5">
     <g id="line2d_9">
      <path clip-path="url(#pad295d4533)" d="M 304.281418 239.758125 
L 304.281418 22.318125 
" style="fill:none;stroke:#0000ff;stroke-linecap:square;stroke-opacity:0.25;stroke-width:0.8;"/>
     </g>
     <g id="line2d_10">
      <g>
       <use style="stroke:#000000;stroke-width:0.8;" x="304.281418" xlink:href="#m876c0627bc" y="239.758125"/>
      </g>
     </g>
     <g id="text_5">
      <!-- 40 -->
      <g transform="translate(297.918918 254.356562)scale(0.1 -0.1)">
       <defs>
        <path d="M 2419 4116 
L 825 1625 
L 2419 1625 
L 2419 4116 
z
M 2253 4666 
L 3047 4666 
L 3047 1625 
L 3713 1625 
L 3713 1100 
L 3047 1100 
L 3047 0 
L 2419 0 
L 2419 1100 
L 313 1100 
L 313 1709 
L 2253 4666 
z
" id="DejaVuSans-34" transform="scale(0.015625)"/>
       </defs>
       <use xlink:href="#DejaVuSans-34"/>
       <use x="63.623047" xlink:href="#DejaVuSans-30"/>
      </g>
     </g>
    </g>
    <g id="xtick_6">
     <g id="line2d_11">
      <path clip-path="url(#pad295d4533)" d="M 366.396446 239.758125 
L 366.396446 22.318125 
" style="fill:none;stroke:#0000ff;stroke-linecap:square;stroke-opacity:0.25;stroke-width:0.8;"/>
     </g>
     <g id="line2d_12">
      <g>
       <use style="stroke:#000000;stroke-width:0.8;" x="366.396446" xlink:href="#m876c0627bc" y="239.758125"/>
      </g>
     </g>
     <g id="text_6">
      <!-- 50 -->
      <g transform="translate(360.033946 254.356562)scale(0.1 -0.1)">
       <defs>
        <path d="M 691 4666 
L 3169 4666 
L 3169 4134 
L 1269 4134 
L 1269 2991 
Q 1406 3038 1543 3061 
Q 1681 3084 1819 3084 
Q 2600 3084 3056 2656 
Q 3513 2228 3513 1497 
Q 3513 744 3044 326 
Q 2575 -91 1722 -91 
Q 1428 -91 1123 -41 
Q 819 9 494 109 
L 494 744 
Q 775 591 1075 516 
Q 1375 441 1709 441 
Q 2250 441 2565 725 
Q 2881 1009 2881 1497 
Q 2881 1984 2565 2268 
Q 2250 2553 1709 2553 
Q 1456 2553 1204 2497 
Q 953 2441 691 2322 
L 691 4666 
z
" id="DejaVuSans-35" transform="scale(0.015625)"/>
       </defs>
       <use xlink:href="#DejaVuSans-35"/>
       <use x="63.623047" xlink:href="#DejaVuSans-30"/>
      </g>
     </g>
    </g>
    <g id="text_7">
     <!-- $i$ -->
     <g transform="translate(206.603125 268.034687)scale(0.1 -0.1)">
      <defs>
       <path d="M 1172 4863 
L 1747 4863 
L 1606 4134 
L 1031 4134 
L 1172 4863 
z
M 909 3500 
L 1484 3500 
L 800 0 
L 225 0 
L 909 3500 
z
" id="DejaVuSans-Oblique-69" transform="scale(0.015625)"/>
      </defs>
      <use transform="translate(0 0.015625)" xlink:href="#DejaVuSans-Oblique-69"/>
     </g>
    </g>
   </g>
   <g id="matplotlib.axis_2">
    <g id="ytick_1">
     <g id="line2d_13">
      <path clip-path="url(#pad295d4533)" d="M 40.603125 229.874489 
L 375.403125 229.874489 
" style="fill:none;stroke:#0000ff;stroke-linecap:square;stroke-opacity:0.25;stroke-width:0.8;"/>
     </g>
     <g id="line2d_14">
      <defs>
       <path d="M 0 0 
L -3.5 0 
" id="m86b38560ba" style="stroke:#000000;stroke-width:0.8;"/>
      </defs>
      <g>
       <use style="stroke:#000000;stroke-width:0.8;" x="40.603125" xlink:href="#m86b38560ba" y="229.874489"/>
      </g>
     </g>
     <g id="text_8">
      <!-- 0 -->
      <g transform="translate(27.240625 233.673707)scale(0.1 -0.1)">
       <use xlink:href="#DejaVuSans-30"/>
      </g>
     </g>
    </g>
    <g id="ytick_2">
     <g id="line2d_15">
      <path clip-path="url(#pad295d4533)" d="M 40.603125 193.284126 
L 375.403125 193.284126 
" style="fill:none;stroke:#0000ff;stroke-linecap:square;stroke-opacity:0.25;stroke-width:0.8;"/>
     </g>
     <g id="line2d_16">
      <g>
       <use style="stroke:#000000;stroke-width:0.8;" x="40.603125" xlink:href="#m86b38560ba" y="193.284126"/>
      </g>
     </g>
     <g id="text_9">
      <!-- 2 -->
      <g transform="translate(27.240625 197.083345)scale(0.1 -0.1)">
       <use xlink:href="#DejaVuSans-32"/>
      </g>
     </g>
    </g>
    <g id="ytick_3">
     <g id="line2d_17">
      <path clip-path="url(#pad295d4533)" d="M 40.603125 156.693764 
L 375.403125 156.693764 
" style="fill:none;stroke:#0000ff;stroke-linecap:square;stroke-opacity:0.25;stroke-width:0.8;"/>
     </g>
     <g id="line2d_18">
      <g>
       <use style="stroke:#000000;stroke-width:0.8;" x="40.603125" xlink:href="#m86b38560ba" y="156.693764"/>
      </g>
     </g>
     <g id="text_10">
      <!-- 4 -->
      <g transform="translate(27.240625 160.492983)scale(0.1 -0.1)">
       <use xlink:href="#DejaVuSans-34"/>
      </g>
     </g>
    </g>
    <g id="ytick_4">
     <g id="line2d_19">
      <path clip-path="url(#pad295d4533)" d="M 40.603125 120.103402 
L 375.403125 120.103402 
" style="fill:none;stroke:#0000ff;stroke-linecap:square;stroke-opacity:0.25;stroke-width:0.8;"/>
     </g>
     <g id="line2d_20">
      <g>
       <use style="stroke:#000000;stroke-width:0.8;" x="40.603125" xlink:href="#m86b38560ba" y="120.103402"/>
      </g>
     </g>
     <g id="text_11">
      <!-- 6 -->
      <g transform="translate(27.240625 123.902621)scale(0.1 -0.1)">
       <defs>
        <path d="M 2113 2584 
Q 1688 2584 1439 2293 
Q 1191 2003 1191 1497 
Q 1191 994 1439 701 
Q 1688 409 2113 409 
Q 2538 409 2786 701 
Q 3034 994 3034 1497 
Q 3034 2003 2786 2293 
Q 2538 2584 2113 2584 
z
M 3366 4563 
L 3366 3988 
Q 3128 4100 2886 4159 
Q 2644 4219 2406 4219 
Q 1781 4219 1451 3797 
Q 1122 3375 1075 2522 
Q 1259 2794 1537 2939 
Q 1816 3084 2150 3084 
Q 2853 3084 3261 2657 
Q 3669 2231 3669 1497 
Q 3669 778 3244 343 
Q 2819 -91 2113 -91 
Q 1303 -91 875 529 
Q 447 1150 447 2328 
Q 447 3434 972 4092 
Q 1497 4750 2381 4750 
Q 2619 4750 2861 4703 
Q 3103 4656 3366 4563 
z
" id="DejaVuSans-36" transform="scale(0.015625)"/>
       </defs>
       <use xlink:href="#DejaVuSans-36"/>
      </g>
     </g>
    </g>
    <g id="ytick_5">
     <g id="line2d_21">
      <path clip-path="url(#pad295d4533)" d="M 40.603125 83.51304 
L 375.403125 83.51304 
" style="fill:none;stroke:#0000ff;stroke-linecap:square;stroke-opacity:0.25;stroke-width:0.8;"/>
     </g>
     <g id="line2d_22">
      <g>
       <use style="stroke:#000000;stroke-width:0.8;" x="40.603125" xlink:href="#m86b38560ba" y="83.51304"/>
      </g>
     </g>
     <g id="text_12">
      <!-- 8 -->
      <g transform="translate(27.240625 87.312258)scale(0.1 -0.1)">
       <defs>
        <path d="M 2034 2216 
Q 1584 2216 1326 1975 
Q 1069 1734 1069 1313 
Q 1069 891 1326 650 
Q 1584 409 2034 409 
Q 2484 409 2743 651 
Q 3003 894 3003 1313 
Q 3003 1734 2745 1975 
Q 2488 2216 2034 2216 
z
M 1403 2484 
Q 997 2584 770 2862 
Q 544 3141 544 3541 
Q 544 4100 942 4425 
Q 1341 4750 2034 4750 
Q 2731 4750 3128 4425 
Q 3525 4100 3525 3541 
Q 3525 3141 3298 2862 
Q 3072 2584 2669 2484 
Q 3125 2378 3379 2068 
Q 3634 1759 3634 1313 
Q 3634 634 3220 271 
Q 2806 -91 2034 -91 
Q 1263 -91 848 271 
Q 434 634 434 1313 
Q 434 1759 690 2068 
Q 947 2378 1403 2484 
z
M 1172 3481 
Q 1172 3119 1398 2916 
Q 1625 2713 2034 2713 
Q 2441 2713 2670 2916 
Q 2900 3119 2900 3481 
Q 2900 3844 2670 4047 
Q 2441 4250 2034 4250 
Q 1625 4250 1398 4047 
Q 1172 3844 1172 3481 
z
" id="DejaVuSans-38" transform="scale(0.015625)"/>
       </defs>
       <use xlink:href="#DejaVuSans-38"/>
      </g>
     </g>
    </g>
    <g id="ytick_6">
     <g id="line2d_23">
      <path clip-path="url(#pad295d4533)" d="M 40.603125 46.922677 
L 375.403125 46.922677 
" style="fill:none;stroke:#0000ff;stroke-linecap:square;stroke-opacity:0.25;stroke-width:0.8;"/>
     </g>
     <g id="line2d_24">
      <g>
       <use style="stroke:#000000;stroke-width:0.8;" x="40.603125" xlink:href="#m86b38560ba" y="46.922677"/>
      </g>
     </g>
     <g id="text_13">
      <!-- 10 -->
      <g transform="translate(20.878125 50.721896)scale(0.1 -0.1)">
       <use xlink:href="#DejaVuSans-31"/>
       <use x="63.623047" xlink:href="#DejaVuSans-30"/>
      </g>
     </g>
    </g>
    <g id="text_14">
     <!-- $\sigma_i$ -->
     <g transform="translate(14.798438 135.338125)rotate(-90)scale(0.1 -0.1)">
      <defs>
       <path d="M 2219 3044 
Q 1744 3044 1422 2700 
Q 1081 2341 969 1747 
Q 844 1119 1044 756 
Q 1241 397 1706 397 
Q 2166 397 2503 759 
Q 2844 1122 2966 1747 
Q 3075 2319 2881 2700 
Q 2700 3044 2219 3044 
z
M 2309 3503 
L 4219 3500 
L 4106 2925 
L 3463 2925 
Q 3706 2438 3575 1747 
Q 3406 888 2884 400 
Q 2359 -91 1609 -91 
Q 856 -91 525 400 
Q 194 888 363 1747 
Q 528 2609 1050 3097 
Q 1484 3503 2309 3503 
z
" id="DejaVuSans-Oblique-3c3" transform="scale(0.015625)"/>
      </defs>
      <use transform="translate(0 0.265625)" xlink:href="#DejaVuSans-Oblique-3c3"/>
      <use transform="translate(63.378906 -16.140625)scale(0.7)" xlink:href="#DejaVuSans-Oblique-69"/>
     </g>
    </g>
   </g>
   <g id="line2d_25">
    <path clip-path="url(#pad295d4533)" d="M 55.821307 32.201761 
L 62.03281 123.281668 
L 68.244312 171.821952 
L 74.455815 229.874489 
L 80.667318 229.874489 
L 86.878821 229.874489 
L 93.090324 229.874489 
L 99.301826 229.874489 
L 105.513329 229.874489 
L 111.724832 229.874489 
L 117.936335 229.874489 
L 124.147837 229.874489 
L 130.35934 229.874489 
L 136.570843 229.874489 
L 142.782346 229.874489 
L 148.993849 229.874489 
L 155.205351 229.874489 
L 161.416854 229.874489 
L 167.628357 229.874489 
L 173.83986 229.874489 
L 180.051362 229.874489 
L 186.262865 229.874489 
L 192.474368 229.874489 
L 198.685871 229.874489 
L 204.897374 229.874489 
L 211.108876 229.874489 
L 217.320379 229.874489 
L 223.531882 229.874489 
L 229.743385 229.874489 
L 235.954888 229.874489 
L 242.16639 229.874489 
L 248.377893 229.874489 
L 254.589396 229.874489 
L 260.800899 229.874489 
L 267.012401 229.874489 
L 273.223904 229.874489 
L 279.435407 229.874489 
L 285.64691 229.874489 
L 291.858413 229.874489 
L 298.069915 229.874489 
L 304.281418 229.874489 
L 310.492921 229.874489 
L 316.704424 229.874489 
L 322.915926 229.874489 
L 329.127429 229.874489 
L 335.338932 229.874489 
L 341.550435 229.874489 
L 347.761938 229.874489 
L 353.97344 229.874489 
L 360.184943 229.874489 
" style="fill:none;"/>
    <defs>
     <path d="M 0 1.5 
C 0.397805 1.5 0.77937 1.341951 1.06066 1.06066 
C 1.341951 0.77937 1.5 0.397805 1.5 0 
C 1.5 -0.397805 1.341951 -0.77937 1.06066 -1.06066 
C 0.77937 -1.341951 0.397805 -1.5 0 -1.5 
C -0.397805 -1.5 -0.77937 -1.341951 -1.06066 -1.06066 
C -1.341951 -0.77937 -1.5 -0.397805 -1.5 0 
C -1.5 0.397805 -1.341951 0.77937 -1.06066 1.06066 
C -0.77937 1.341951 -0.397805 1.5 0 1.5 
z
" id="m2692239dcf" style="stroke:#1f77b4;"/>
    </defs>
    <g clip-path="url(#pad295d4533)">
     <use style="fill:#1f77b4;stroke:#1f77b4;" x="55.821307" xlink:href="#m2692239dcf" y="32.201761"/>
     <use style="fill:#1f77b4;stroke:#1f77b4;" x="62.03281" xlink:href="#m2692239dcf" y="123.281668"/>
     <use style="fill:#1f77b4;stroke:#1f77b4;" x="68.244312" xlink:href="#m2692239dcf" y="171.821952"/>
     <use style="fill:#1f77b4;stroke:#1f77b4;" x="74.455815" xlink:href="#m2692239dcf" y="229.874489"/>
     <use style="fill:#1f77b4;stroke:#1f77b4;" x="80.667318" xlink:href="#m2692239dcf" y="229.874489"/>
     <use style="fill:#1f77b4;stroke:#1f77b4;" x="86.878821" xlink:href="#m2692239dcf" y="229.874489"/>
     <use style="fill:#1f77b4;stroke:#1f77b4;" x="93.090324" xlink:href="#m2692239dcf" y="229.874489"/>
     <use style="fill:#1f77b4;stroke:#1f77b4;" x="99.301826" xlink:href="#m2692239dcf" y="229.874489"/>
     <use style="fill:#1f77b4;stroke:#1f77b4;" x="105.513329" xlink:href="#m2692239dcf" y="229.874489"/>
     <use style="fill:#1f77b4;stroke:#1f77b4;" x="111.724832" xlink:href="#m2692239dcf" y="229.874489"/>
     <use style="fill:#1f77b4;stroke:#1f77b4;" x="117.936335" xlink:href="#m2692239dcf" y="229.874489"/>
     <use style="fill:#1f77b4;stroke:#1f77b4;" x="124.147837" xlink:href="#m2692239dcf" y="229.874489"/>
     <use style="fill:#1f77b4;stroke:#1f77b4;" x="130.35934" xlink:href="#m2692239dcf" y="229.874489"/>
     <use style="fill:#1f77b4;stroke:#1f77b4;" x="136.570843" xlink:href="#m2692239dcf" y="229.874489"/>
     <use style="fill:#1f77b4;stroke:#1f77b4;" x="142.782346" xlink:href="#m2692239dcf" y="229.874489"/>
     <use style="fill:#1f77b4;stroke:#1f77b4;" x="148.993849" xlink:href="#m2692239dcf" y="229.874489"/>
     <use style="fill:#1f77b4;stroke:#1f77b4;" x="155.205351" xlink:href="#m2692239dcf" y="229.874489"/>
     <use style="fill:#1f77b4;stroke:#1f77b4;" x="161.416854" xlink:href="#m2692239dcf" y="229.874489"/>
     <use style="fill:#1f77b4;stroke:#1f77b4;" x="167.628357" xlink:href="#m2692239dcf" y="229.874489"/>
     <use style="fill:#1f77b4;stroke:#1f77b4;" x="173.83986" xlink:href="#m2692239dcf" y="229.874489"/>
     <use style="fill:#1f77b4;stroke:#1f77b4;" x="180.051362" xlink:href="#m2692239dcf" y="229.874489"/>
     <use style="fill:#1f77b4;stroke:#1f77b4;" x="186.262865" xlink:href="#m2692239dcf" y="229.874489"/>
     <use style="fill:#1f77b4;stroke:#1f77b4;" x="192.474368" xlink:href="#m2692239dcf" y="229.874489"/>
     <use style="fill:#1f77b4;stroke:#1f77b4;" x="198.685871" xlink:href="#m2692239dcf" y="229.874489"/>
     <use style="fill:#1f77b4;stroke:#1f77b4;" x="204.897374" xlink:href="#m2692239dcf" y="229.874489"/>
     <use style="fill:#1f77b4;stroke:#1f77b4;" x="211.108876" xlink:href="#m2692239dcf" y="229.874489"/>
     <use style="fill:#1f77b4;stroke:#1f77b4;" x="217.320379" xlink:href="#m2692239dcf" y="229.874489"/>
     <use style="fill:#1f77b4;stroke:#1f77b4;" x="223.531882" xlink:href="#m2692239dcf" y="229.874489"/>
     <use style="fill:#1f77b4;stroke:#1f77b4;" x="229.743385" xlink:href="#m2692239dcf" y="229.874489"/>
     <use style="fill:#1f77b4;stroke:#1f77b4;" x="235.954888" xlink:href="#m2692239dcf" y="229.874489"/>
     <use style="fill:#1f77b4;stroke:#1f77b4;" x="242.16639" xlink:href="#m2692239dcf" y="229.874489"/>
     <use style="fill:#1f77b4;stroke:#1f77b4;" x="248.377893" xlink:href="#m2692239dcf" y="229.874489"/>
     <use style="fill:#1f77b4;stroke:#1f77b4;" x="254.589396" xlink:href="#m2692239dcf" y="229.874489"/>
     <use style="fill:#1f77b4;stroke:#1f77b4;" x="260.800899" xlink:href="#m2692239dcf" y="229.874489"/>
     <use style="fill:#1f77b4;stroke:#1f77b4;" x="267.012401" xlink:href="#m2692239dcf" y="229.874489"/>
     <use style="fill:#1f77b4;stroke:#1f77b4;" x="273.223904" xlink:href="#m2692239dcf" y="229.874489"/>
     <use style="fill:#1f77b4;stroke:#1f77b4;" x="279.435407" xlink:href="#m2692239dcf" y="229.874489"/>
     <use style="fill:#1f77b4;stroke:#1f77b4;" x="285.64691" xlink:href="#m2692239dcf" y="229.874489"/>
     <use style="fill:#1f77b4;stroke:#1f77b4;" x="291.858413" xlink:href="#m2692239dcf" y="229.874489"/>
     <use style="fill:#1f77b4;stroke:#1f77b4;" x="298.069915" xlink:href="#m2692239dcf" y="229.874489"/>
     <use style="fill:#1f77b4;stroke:#1f77b4;" x="304.281418" xlink:href="#m2692239dcf" y="229.874489"/>
     <use style="fill:#1f77b4;stroke:#1f77b4;" x="310.492921" xlink:href="#m2692239dcf" y="229.874489"/>
     <use style="fill:#1f77b4;stroke:#1f77b4;" x="316.704424" xlink:href="#m2692239dcf" y="229.874489"/>
     <use style="fill:#1f77b4;stroke:#1f77b4;" x="322.915926" xlink:href="#m2692239dcf" y="229.874489"/>
     <use style="fill:#1f77b4;stroke:#1f77b4;" x="329.127429" xlink:href="#m2692239dcf" y="229.874489"/>
     <use style="fill:#1f77b4;stroke:#1f77b4;" x="335.338932" xlink:href="#m2692239dcf" y="229.874489"/>
     <use style="fill:#1f77b4;stroke:#1f77b4;" x="341.550435" xlink:href="#m2692239dcf" y="229.874489"/>
     <use style="fill:#1f77b4;stroke:#1f77b4;" x="347.761938" xlink:href="#m2692239dcf" y="229.874489"/>
     <use style="fill:#1f77b4;stroke:#1f77b4;" x="353.97344" xlink:href="#m2692239dcf" y="229.874489"/>
     <use style="fill:#1f77b4;stroke:#1f77b4;" x="360.184943" xlink:href="#m2692239dcf" y="229.874489"/>
    </g>
   </g>
   <g id="patch_3">
    <path d="M 40.603125 239.758125 
L 40.603125 22.318125 
" style="fill:none;stroke:#000000;stroke-linecap:square;stroke-linejoin:miter;stroke-width:0.8;"/>
   </g>
   <g id="patch_4">
    <path d="M 375.403125 239.758125 
L 375.403125 22.318125 
" style="fill:none;stroke:#000000;stroke-linecap:square;stroke-linejoin:miter;stroke-width:0.8;"/>
   </g>
   <g id="patch_5">
    <path d="M 40.603125 239.758125 
L 375.403125 239.758125 
" style="fill:none;stroke:#000000;stroke-linecap:square;stroke-linejoin:miter;stroke-width:0.8;"/>
   </g>
   <g id="patch_6">
    <path d="M 40.603125 22.318125 
L 375.403125 22.318125 
" style="fill:none;stroke:#000000;stroke-linecap:square;stroke-linejoin:miter;stroke-width:0.8;"/>
   </g>
   <g id="legend_1">
    <g id="patch_7">
     <path d="M 296.1375 59.674375 
L 368.403125 59.674375 
Q 370.403125 59.674375 370.403125 57.674375 
L 370.403125 29.318125 
Q 370.403125 27.318125 368.403125 27.318125 
L 296.1375 27.318125 
Q 294.1375 27.318125 294.1375 29.318125 
L 294.1375 57.674375 
Q 294.1375 59.674375 296.1375 59.674375 
z
" style="fill:#ffffff;opacity:0.8;stroke:#cccccc;stroke-linejoin:miter;"/>
    </g>
    <g id="line2d_26">
     <path d="M 298.1375 35.416562 
L 318.1375 35.416562 
" style="fill:none;"/>
    </g>
    <g id="line2d_27">
     <g>
      <use style="fill:#1f77b4;stroke:#1f77b4;" x="308.1375" xlink:href="#m2692239dcf" y="35.416562"/>
     </g>
    </g>
    <g id="text_15">
     <!-- Uniform -->
     <g transform="translate(326.1375 38.916562)scale(0.1 -0.1)">
      <defs>
       <path d="M 556 4666 
L 1191 4666 
L 1191 1831 
Q 1191 1081 1462 751 
Q 1734 422 2344 422 
Q 2950 422 3222 751 
Q 3494 1081 3494 1831 
L 3494 4666 
L 4128 4666 
L 4128 1753 
Q 4128 841 3676 375 
Q 3225 -91 2344 -91 
Q 1459 -91 1007 375 
Q 556 841 556 1753 
L 556 4666 
z
" id="DejaVuSans-55" transform="scale(0.015625)"/>
       <path d="M 3513 2113 
L 3513 0 
L 2938 0 
L 2938 2094 
Q 2938 2591 2744 2837 
Q 2550 3084 2163 3084 
Q 1697 3084 1428 2787 
Q 1159 2491 1159 1978 
L 1159 0 
L 581 0 
L 581 3500 
L 1159 3500 
L 1159 2956 
Q 1366 3272 1645 3428 
Q 1925 3584 2291 3584 
Q 2894 3584 3203 3211 
Q 3513 2838 3513 2113 
z
" id="DejaVuSans-6e" transform="scale(0.015625)"/>
       <path d="M 603 3500 
L 1178 3500 
L 1178 0 
L 603 0 
L 603 3500 
z
M 603 4863 
L 1178 4863 
L 1178 4134 
L 603 4134 
L 603 4863 
z
" id="DejaVuSans-69" transform="scale(0.015625)"/>
       <path d="M 2375 4863 
L 2375 4384 
L 1825 4384 
Q 1516 4384 1395 4259 
Q 1275 4134 1275 3809 
L 1275 3500 
L 2222 3500 
L 2222 3053 
L 1275 3053 
L 1275 0 
L 697 0 
L 697 3053 
L 147 3053 
L 147 3500 
L 697 3500 
L 697 3744 
Q 697 4328 969 4595 
Q 1241 4863 1831 4863 
L 2375 4863 
z
" id="DejaVuSans-66" transform="scale(0.015625)"/>
       <path d="M 1959 3097 
Q 1497 3097 1228 2736 
Q 959 2375 959 1747 
Q 959 1119 1226 758 
Q 1494 397 1959 397 
Q 2419 397 2687 759 
Q 2956 1122 2956 1747 
Q 2956 2369 2687 2733 
Q 2419 3097 1959 3097 
z
M 1959 3584 
Q 2709 3584 3137 3096 
Q 3566 2609 3566 1747 
Q 3566 888 3137 398 
Q 2709 -91 1959 -91 
Q 1206 -91 779 398 
Q 353 888 353 1747 
Q 353 2609 779 3096 
Q 1206 3584 1959 3584 
z
" id="DejaVuSans-6f" transform="scale(0.015625)"/>
       <path d="M 2631 2963 
Q 2534 3019 2420 3045 
Q 2306 3072 2169 3072 
Q 1681 3072 1420 2755 
Q 1159 2438 1159 1844 
L 1159 0 
L 581 0 
L 581 3500 
L 1159 3500 
L 1159 2956 
Q 1341 3275 1631 3429 
Q 1922 3584 2338 3584 
Q 2397 3584 2469 3576 
Q 2541 3569 2628 3553 
L 2631 2963 
z
" id="DejaVuSans-72" transform="scale(0.015625)"/>
       <path d="M 3328 2828 
Q 3544 3216 3844 3400 
Q 4144 3584 4550 3584 
Q 5097 3584 5394 3201 
Q 5691 2819 5691 2113 
L 5691 0 
L 5113 0 
L 5113 2094 
Q 5113 2597 4934 2840 
Q 4756 3084 4391 3084 
Q 3944 3084 3684 2787 
Q 3425 2491 3425 1978 
L 3425 0 
L 2847 0 
L 2847 2094 
Q 2847 2600 2669 2842 
Q 2491 3084 2119 3084 
Q 1678 3084 1418 2786 
Q 1159 2488 1159 1978 
L 1159 0 
L 581 0 
L 581 3500 
L 1159 3500 
L 1159 2956 
Q 1356 3278 1631 3431 
Q 1906 3584 2284 3584 
Q 2666 3584 2933 3390 
Q 3200 3197 3328 2828 
z
" id="DejaVuSans-6d" transform="scale(0.015625)"/>
      </defs>
      <use xlink:href="#DejaVuSans-55"/>
      <use x="73.193359" xlink:href="#DejaVuSans-6e"/>
      <use x="136.572266" xlink:href="#DejaVuSans-69"/>
      <use x="164.355469" xlink:href="#DejaVuSans-66"/>
      <use x="199.560547" xlink:href="#DejaVuSans-6f"/>
      <use x="260.742188" xlink:href="#DejaVuSans-72"/>
      <use x="300.105469" xlink:href="#DejaVuSans-6d"/>
     </g>
    </g>
    <g id="line2d_28">
     <path d="M 298.1375 50.094687 
L 318.1375 50.094687 
" style="fill:none;"/>
    </g>
    <g id="line2d_29">
     <defs>
      <path d="M 0 1.5 
C 0.397805 1.5 0.77937 1.341951 1.06066 1.06066 
C 1.341951 0.77937 1.5 0.397805 1.5 0 
C 1.5 -0.397805 1.341951 -0.77937 1.06066 -1.06066 
C 0.77937 -1.341951 0.397805 -1.5 0 -1.5 
C -0.397805 -1.5 -0.77937 -1.341951 -1.06066 -1.06066 
C -1.341951 -0.77937 -1.5 -0.397805 -1.5 0 
C -1.5 0.397805 -1.341951 0.77937 -1.06066 1.06066 
C -0.77937 1.341951 -0.397805 1.5 0 1.5 
z
" id="mab38ae5b24" style="stroke:#ff0000;"/>
     </defs>
     <g>
      <use style="fill:#ff0000;stroke:#ff0000;" x="308.1375" xlink:href="#mab38ae5b24" y="50.094687"/>
     </g>
    </g>
    <g id="text_16">
     <!-- Semilog -->
     <g transform="translate(326.1375 53.594687)scale(0.1 -0.1)">
      <defs>
       <path d="M 3425 4513 
L 3425 3897 
Q 3066 4069 2747 4153 
Q 2428 4238 2131 4238 
Q 1616 4238 1336 4038 
Q 1056 3838 1056 3469 
Q 1056 3159 1242 3001 
Q 1428 2844 1947 2747 
L 2328 2669 
Q 3034 2534 3370 2195 
Q 3706 1856 3706 1288 
Q 3706 609 3251 259 
Q 2797 -91 1919 -91 
Q 1588 -91 1214 -16 
Q 841 59 441 206 
L 441 856 
Q 825 641 1194 531 
Q 1563 422 1919 422 
Q 2459 422 2753 634 
Q 3047 847 3047 1241 
Q 3047 1584 2836 1778 
Q 2625 1972 2144 2069 
L 1759 2144 
Q 1053 2284 737 2584 
Q 422 2884 422 3419 
Q 422 4038 858 4394 
Q 1294 4750 2059 4750 
Q 2388 4750 2728 4690 
Q 3069 4631 3425 4513 
z
" id="DejaVuSans-53" transform="scale(0.015625)"/>
       <path d="M 3597 1894 
L 3597 1613 
L 953 1613 
Q 991 1019 1311 708 
Q 1631 397 2203 397 
Q 2534 397 2845 478 
Q 3156 559 3463 722 
L 3463 178 
Q 3153 47 2828 -22 
Q 2503 -91 2169 -91 
Q 1331 -91 842 396 
Q 353 884 353 1716 
Q 353 2575 817 3079 
Q 1281 3584 2069 3584 
Q 2775 3584 3186 3129 
Q 3597 2675 3597 1894 
z
M 3022 2063 
Q 3016 2534 2758 2815 
Q 2500 3097 2075 3097 
Q 1594 3097 1305 2825 
Q 1016 2553 972 2059 
L 3022 2063 
z
" id="DejaVuSans-65" transform="scale(0.015625)"/>
       <path d="M 603 4863 
L 1178 4863 
L 1178 0 
L 603 0 
L 603 4863 
z
" id="DejaVuSans-6c" transform="scale(0.015625)"/>
       <path d="M 2906 1791 
Q 2906 2416 2648 2759 
Q 2391 3103 1925 3103 
Q 1463 3103 1205 2759 
Q 947 2416 947 1791 
Q 947 1169 1205 825 
Q 1463 481 1925 481 
Q 2391 481 2648 825 
Q 2906 1169 2906 1791 
z
M 3481 434 
Q 3481 -459 3084 -895 
Q 2688 -1331 1869 -1331 
Q 1566 -1331 1297 -1286 
Q 1028 -1241 775 -1147 
L 775 -588 
Q 1028 -725 1275 -790 
Q 1522 -856 1778 -856 
Q 2344 -856 2625 -561 
Q 2906 -266 2906 331 
L 2906 616 
Q 2728 306 2450 153 
Q 2172 0 1784 0 
Q 1141 0 747 490 
Q 353 981 353 1791 
Q 353 2603 747 3093 
Q 1141 3584 1784 3584 
Q 2172 3584 2450 3431 
Q 2728 3278 2906 2969 
L 2906 3500 
L 3481 3500 
L 3481 434 
z
" id="DejaVuSans-67" transform="scale(0.015625)"/>
      </defs>
      <use xlink:href="#DejaVuSans-53"/>
      <use x="63.476562" xlink:href="#DejaVuSans-65"/>
      <use x="125" xlink:href="#DejaVuSans-6d"/>
      <use x="222.412109" xlink:href="#DejaVuSans-69"/>
      <use x="250.195312" xlink:href="#DejaVuSans-6c"/>
      <use x="277.978516" xlink:href="#DejaVuSans-6f"/>
      <use x="339.160156" xlink:href="#DejaVuSans-67"/>
     </g>
    </g>
   </g>
  </g>
  <g id="axes_2">
   <g id="matplotlib.axis_3">
    <g id="ytick_7">
     <g id="line2d_30">
      <path clip-path="url(#pad295d4533)" d="M 40.603125 212.145714 
L 375.403125 212.145714 
" style="fill:none;stroke:#ff0000;stroke-linecap:square;stroke-opacity:0.25;stroke-width:0.8;"/>
     </g>
     <g id="line2d_31">
      <defs>
       <path d="M 0 0 
L 3.5 0 
" id="mfc67d334cf" style="stroke:#000000;stroke-width:0.8;"/>
      </defs>
      <g>
       <use style="stroke:#000000;stroke-width:0.8;" x="375.403125" xlink:href="#mfc67d334cf" y="212.145714"/>
      </g>
     </g>
     <g id="text_17">
      <!-- $\mathdefault{10^{-14}}$ -->
      <g transform="translate(382.403125 215.944932)scale(0.1 -0.1)">
       <defs>
        <path d="M 678 2272 
L 4684 2272 
L 4684 1741 
L 678 1741 
L 678 2272 
z
" id="DejaVuSans-2212" transform="scale(0.015625)"/>
       </defs>
       <use transform="translate(0 0.684375)" xlink:href="#DejaVuSans-31"/>
       <use transform="translate(63.623047 0.684375)" xlink:href="#DejaVuSans-30"/>
       <use transform="translate(128.203125 38.965625)scale(0.7)" xlink:href="#DejaVuSans-2212"/>
       <use transform="translate(186.855469 38.965625)scale(0.7)" xlink:href="#DejaVuSans-31"/>
       <use transform="translate(231.391602 38.965625)scale(0.7)" xlink:href="#DejaVuSans-34"/>
      </g>
     </g>
    </g>
    <g id="ytick_8">
     <g id="line2d_32">
      <path clip-path="url(#pad295d4533)" d="M 40.603125 176.237382 
L 375.403125 176.237382 
" style="fill:none;stroke:#ff0000;stroke-linecap:square;stroke-opacity:0.25;stroke-width:0.8;"/>
     </g>
     <g id="line2d_33">
      <g>
       <use style="stroke:#000000;stroke-width:0.8;" x="375.403125" xlink:href="#mfc67d334cf" y="176.237382"/>
      </g>
     </g>
     <g id="text_18">
      <!-- $\mathdefault{10^{-11}}$ -->
      <g transform="translate(382.403125 180.036601)scale(0.1 -0.1)">
       <use transform="translate(0 0.684375)" xlink:href="#DejaVuSans-31"/>
       <use transform="translate(63.623047 0.684375)" xlink:href="#DejaVuSans-30"/>
       <use transform="translate(128.203125 38.965625)scale(0.7)" xlink:href="#DejaVuSans-2212"/>
       <use transform="translate(186.855469 38.965625)scale(0.7)" xlink:href="#DejaVuSans-31"/>
       <use transform="translate(231.391602 38.965625)scale(0.7)" xlink:href="#DejaVuSans-31"/>
      </g>
     </g>
    </g>
    <g id="ytick_9">
     <g id="line2d_34">
      <path clip-path="url(#pad295d4533)" d="M 40.603125 140.32905 
L 375.403125 140.32905 
" style="fill:none;stroke:#ff0000;stroke-linecap:square;stroke-opacity:0.25;stroke-width:0.8;"/>
     </g>
     <g id="line2d_35">
      <g>
       <use style="stroke:#000000;stroke-width:0.8;" x="375.403125" xlink:href="#mfc67d334cf" y="140.32905"/>
      </g>
     </g>
     <g id="text_19">
      <!-- $\mathdefault{10^{-8}}$ -->
      <g transform="translate(382.403125 144.128269)scale(0.1 -0.1)">
       <use transform="translate(0 0.765625)" xlink:href="#DejaVuSans-31"/>
       <use transform="translate(63.623047 0.765625)" xlink:href="#DejaVuSans-30"/>
       <use transform="translate(128.203125 39.046875)scale(0.7)" xlink:href="#DejaVuSans-2212"/>
       <use transform="translate(186.855469 39.046875)scale(0.7)" xlink:href="#DejaVuSans-38"/>
      </g>
     </g>
    </g>
    <g id="ytick_10">
     <g id="line2d_36">
      <path clip-path="url(#pad295d4533)" d="M 40.603125 104.420718 
L 375.403125 104.420718 
" style="fill:none;stroke:#ff0000;stroke-linecap:square;stroke-opacity:0.25;stroke-width:0.8;"/>
     </g>
     <g id="line2d_37">
      <g>
       <use style="stroke:#000000;stroke-width:0.8;" x="375.403125" xlink:href="#mfc67d334cf" y="104.420718"/>
      </g>
     </g>
     <g id="text_20">
      <!-- $\mathdefault{10^{-5}}$ -->
      <g transform="translate(382.403125 108.219937)scale(0.1 -0.1)">
       <use transform="translate(0 0.684375)" xlink:href="#DejaVuSans-31"/>
       <use transform="translate(63.623047 0.684375)" xlink:href="#DejaVuSans-30"/>
       <use transform="translate(128.203125 38.965625)scale(0.7)" xlink:href="#DejaVuSans-2212"/>
       <use transform="translate(186.855469 38.965625)scale(0.7)" xlink:href="#DejaVuSans-35"/>
      </g>
     </g>
    </g>
    <g id="ytick_11">
     <g id="line2d_38">
      <path clip-path="url(#pad295d4533)" d="M 40.603125 68.512387 
L 375.403125 68.512387 
" style="fill:none;stroke:#ff0000;stroke-linecap:square;stroke-opacity:0.25;stroke-width:0.8;"/>
     </g>
     <g id="line2d_39">
      <g>
       <use style="stroke:#000000;stroke-width:0.8;" x="375.403125" xlink:href="#mfc67d334cf" y="68.512387"/>
      </g>
     </g>
     <g id="text_21">
      <!-- $\mathdefault{10^{-2}}$ -->
      <g transform="translate(382.403125 72.311605)scale(0.1 -0.1)">
       <use transform="translate(0 0.765625)" xlink:href="#DejaVuSans-31"/>
       <use transform="translate(63.623047 0.765625)" xlink:href="#DejaVuSans-30"/>
       <use transform="translate(128.203125 39.046875)scale(0.7)" xlink:href="#DejaVuSans-2212"/>
       <use transform="translate(186.855469 39.046875)scale(0.7)" xlink:href="#DejaVuSans-32"/>
      </g>
     </g>
    </g>
    <g id="ytick_12">
     <g id="line2d_40">
      <path clip-path="url(#pad295d4533)" d="M 40.603125 32.604055 
L 375.403125 32.604055 
" style="fill:none;stroke:#ff0000;stroke-linecap:square;stroke-opacity:0.25;stroke-width:0.8;"/>
     </g>
     <g id="line2d_41">
      <g>
       <use style="stroke:#000000;stroke-width:0.8;" x="375.403125" xlink:href="#mfc67d334cf" y="32.604055"/>
      </g>
     </g>
     <g id="text_22">
      <!-- $\mathdefault{10^{1}}$ -->
      <g transform="translate(382.403125 36.403274)scale(0.1 -0.1)">
       <use transform="translate(0 0.684375)" xlink:href="#DejaVuSans-31"/>
       <use transform="translate(63.623047 0.684375)" xlink:href="#DejaVuSans-30"/>
       <use transform="translate(128.203125 38.965625)scale(0.7)" xlink:href="#DejaVuSans-31"/>
      </g>
     </g>
    </g>
   </g>
   <g id="line2d_42">
    <path clip-path="url(#pad295d4533)" d="M 55.821307 32.201761 
L 62.03281 35.412191 
L 68.244312 38.571008 
L 74.455815 213.31628 
L 80.667318 215.547417 
L 86.878821 218.278312 
L 93.090324 218.842697 
L 99.301826 220.631843 
L 105.513329 222.831011 
L 111.724832 223.026155 
L 117.936335 223.737683 
L 124.147837 223.737683 
L 130.35934 223.737683 
L 136.570843 223.737683 
L 142.782346 223.737683 
L 148.993849 223.737683 
L 155.205351 223.737683 
L 161.416854 223.737683 
L 167.628357 223.737683 
L 173.83986 223.737683 
L 180.051362 223.737683 
L 186.262865 223.737683 
L 192.474368 223.737683 
L 198.685871 223.737683 
L 204.897374 223.737683 
L 211.108876 223.737683 
L 217.320379 223.737683 
L 223.531882 223.737683 
L 229.743385 223.737683 
L 235.954888 223.737683 
L 242.16639 223.737683 
L 248.377893 223.737683 
L 254.589396 223.737683 
L 260.800899 223.737683 
L 267.012401 223.737683 
L 273.223904 223.737683 
L 279.435407 223.737683 
L 285.64691 223.737683 
L 291.858413 223.737683 
L 298.069915 223.737683 
L 304.281418 223.737683 
L 310.492921 223.737683 
L 316.704424 223.737683 
L 322.915926 223.737683 
L 329.127429 223.737683 
L 335.338932 223.737683 
L 341.550435 223.737683 
L 347.761938 223.737683 
L 353.97344 223.737683 
L 360.184943 229.874489 
" style="fill:none;"/>
    <g clip-path="url(#pad295d4533)">
     <use style="fill:#ff0000;stroke:#ff0000;" x="55.821307" xlink:href="#mab38ae5b24" y="32.201761"/>
     <use style="fill:#ff0000;stroke:#ff0000;" x="62.03281" xlink:href="#mab38ae5b24" y="35.412191"/>
     <use style="fill:#ff0000;stroke:#ff0000;" x="68.244312" xlink:href="#mab38ae5b24" y="38.571008"/>
     <use style="fill:#ff0000;stroke:#ff0000;" x="74.455815" xlink:href="#mab38ae5b24" y="213.31628"/>
     <use style="fill:#ff0000;stroke:#ff0000;" x="80.667318" xlink:href="#mab38ae5b24" y="215.547417"/>
     <use style="fill:#ff0000;stroke:#ff0000;" x="86.878821" xlink:href="#mab38ae5b24" y="218.278312"/>
     <use style="fill:#ff0000;stroke:#ff0000;" x="93.090324" xlink:href="#mab38ae5b24" y="218.842697"/>
     <use style="fill:#ff0000;stroke:#ff0000;" x="99.301826" xlink:href="#mab38ae5b24" y="220.631843"/>
     <use style="fill:#ff0000;stroke:#ff0000;" x="105.513329" xlink:href="#mab38ae5b24" y="222.831011"/>
     <use style="fill:#ff0000;stroke:#ff0000;" x="111.724832" xlink:href="#mab38ae5b24" y="223.026155"/>
     <use style="fill:#ff0000;stroke:#ff0000;" x="117.936335" xlink:href="#mab38ae5b24" y="223.737683"/>
     <use style="fill:#ff0000;stroke:#ff0000;" x="124.147837" xlink:href="#mab38ae5b24" y="223.737683"/>
     <use style="fill:#ff0000;stroke:#ff0000;" x="130.35934" xlink:href="#mab38ae5b24" y="223.737683"/>
     <use style="fill:#ff0000;stroke:#ff0000;" x="136.570843" xlink:href="#mab38ae5b24" y="223.737683"/>
     <use style="fill:#ff0000;stroke:#ff0000;" x="142.782346" xlink:href="#mab38ae5b24" y="223.737683"/>
     <use style="fill:#ff0000;stroke:#ff0000;" x="148.993849" xlink:href="#mab38ae5b24" y="223.737683"/>
     <use style="fill:#ff0000;stroke:#ff0000;" x="155.205351" xlink:href="#mab38ae5b24" y="223.737683"/>
     <use style="fill:#ff0000;stroke:#ff0000;" x="161.416854" xlink:href="#mab38ae5b24" y="223.737683"/>
     <use style="fill:#ff0000;stroke:#ff0000;" x="167.628357" xlink:href="#mab38ae5b24" y="223.737683"/>
     <use style="fill:#ff0000;stroke:#ff0000;" x="173.83986" xlink:href="#mab38ae5b24" y="223.737683"/>
     <use style="fill:#ff0000;stroke:#ff0000;" x="180.051362" xlink:href="#mab38ae5b24" y="223.737683"/>
     <use style="fill:#ff0000;stroke:#ff0000;" x="186.262865" xlink:href="#mab38ae5b24" y="223.737683"/>
     <use style="fill:#ff0000;stroke:#ff0000;" x="192.474368" xlink:href="#mab38ae5b24" y="223.737683"/>
     <use style="fill:#ff0000;stroke:#ff0000;" x="198.685871" xlink:href="#mab38ae5b24" y="223.737683"/>
     <use style="fill:#ff0000;stroke:#ff0000;" x="204.897374" xlink:href="#mab38ae5b24" y="223.737683"/>
     <use style="fill:#ff0000;stroke:#ff0000;" x="211.108876" xlink:href="#mab38ae5b24" y="223.737683"/>
     <use style="fill:#ff0000;stroke:#ff0000;" x="217.320379" xlink:href="#mab38ae5b24" y="223.737683"/>
     <use style="fill:#ff0000;stroke:#ff0000;" x="223.531882" xlink:href="#mab38ae5b24" y="223.737683"/>
     <use style="fill:#ff0000;stroke:#ff0000;" x="229.743385" xlink:href="#mab38ae5b24" y="223.737683"/>
     <use style="fill:#ff0000;stroke:#ff0000;" x="235.954888" xlink:href="#mab38ae5b24" y="223.737683"/>
     <use style="fill:#ff0000;stroke:#ff0000;" x="242.16639" xlink:href="#mab38ae5b24" y="223.737683"/>
     <use style="fill:#ff0000;stroke:#ff0000;" x="248.377893" xlink:href="#mab38ae5b24" y="223.737683"/>
     <use style="fill:#ff0000;stroke:#ff0000;" x="254.589396" xlink:href="#mab38ae5b24" y="223.737683"/>
     <use style="fill:#ff0000;stroke:#ff0000;" x="260.800899" xlink:href="#mab38ae5b24" y="223.737683"/>
     <use style="fill:#ff0000;stroke:#ff0000;" x="267.012401" xlink:href="#mab38ae5b24" y="223.737683"/>
     <use style="fill:#ff0000;stroke:#ff0000;" x="273.223904" xlink:href="#mab38ae5b24" y="223.737683"/>
     <use style="fill:#ff0000;stroke:#ff0000;" x="279.435407" xlink:href="#mab38ae5b24" y="223.737683"/>
     <use style="fill:#ff0000;stroke:#ff0000;" x="285.64691" xlink:href="#mab38ae5b24" y="223.737683"/>
     <use style="fill:#ff0000;stroke:#ff0000;" x="291.858413" xlink:href="#mab38ae5b24" y="223.737683"/>
     <use style="fill:#ff0000;stroke:#ff0000;" x="298.069915" xlink:href="#mab38ae5b24" y="223.737683"/>
     <use style="fill:#ff0000;stroke:#ff0000;" x="304.281418" xlink:href="#mab38ae5b24" y="223.737683"/>
     <use style="fill:#ff0000;stroke:#ff0000;" x="310.492921" xlink:href="#mab38ae5b24" y="223.737683"/>
     <use style="fill:#ff0000;stroke:#ff0000;" x="316.704424" xlink:href="#mab38ae5b24" y="223.737683"/>
     <use style="fill:#ff0000;stroke:#ff0000;" x="322.915926" xlink:href="#mab38ae5b24" y="223.737683"/>
     <use style="fill:#ff0000;stroke:#ff0000;" x="329.127429" xlink:href="#mab38ae5b24" y="223.737683"/>
     <use style="fill:#ff0000;stroke:#ff0000;" x="335.338932" xlink:href="#mab38ae5b24" y="223.737683"/>
     <use style="fill:#ff0000;stroke:#ff0000;" x="341.550435" xlink:href="#mab38ae5b24" y="223.737683"/>
     <use style="fill:#ff0000;stroke:#ff0000;" x="347.761938" xlink:href="#mab38ae5b24" y="223.737683"/>
     <use style="fill:#ff0000;stroke:#ff0000;" x="353.97344" xlink:href="#mab38ae5b24" y="223.737683"/>
     <use style="fill:#ff0000;stroke:#ff0000;" x="360.184943" xlink:href="#mab38ae5b24" y="229.874489"/>
    </g>
   </g>
   <g id="patch_8">
    <path d="M 40.603125 239.758125 
L 40.603125 22.318125 
" style="fill:none;stroke:#000000;stroke-linecap:square;stroke-linejoin:miter;stroke-width:0.8;"/>
   </g>
   <g id="patch_9">
    <path d="M 375.403125 239.758125 
L 375.403125 22.318125 
" style="fill:none;stroke:#000000;stroke-linecap:square;stroke-linejoin:miter;stroke-width:0.8;"/>
   </g>
   <g id="patch_10">
    <path d="M 40.603125 239.758125 
L 375.403125 239.758125 
" style="fill:none;stroke:#000000;stroke-linecap:square;stroke-linejoin:miter;stroke-width:0.8;"/>
   </g>
   <g id="patch_11">
    <path d="M 40.603125 22.318125 
L 375.403125 22.318125 
" style="fill:none;stroke:#000000;stroke-linecap:square;stroke-linejoin:miter;stroke-width:0.8;"/>
   </g>
   <g id="text_23">
    <!-- Singular Values -->
    <g transform="translate(161.792812 16.318125)scale(0.12 -0.12)">
     <defs>
      <path d="M 544 1381 
L 544 3500 
L 1119 3500 
L 1119 1403 
Q 1119 906 1312 657 
Q 1506 409 1894 409 
Q 2359 409 2629 706 
Q 2900 1003 2900 1516 
L 2900 3500 
L 3475 3500 
L 3475 0 
L 2900 0 
L 2900 538 
Q 2691 219 2414 64 
Q 2138 -91 1772 -91 
Q 1169 -91 856 284 
Q 544 659 544 1381 
z
M 1991 3584 
L 1991 3584 
z
" id="DejaVuSans-75" transform="scale(0.015625)"/>
      <path d="M 2194 1759 
Q 1497 1759 1228 1600 
Q 959 1441 959 1056 
Q 959 750 1161 570 
Q 1363 391 1709 391 
Q 2188 391 2477 730 
Q 2766 1069 2766 1631 
L 2766 1759 
L 2194 1759 
z
M 3341 1997 
L 3341 0 
L 2766 0 
L 2766 531 
Q 2569 213 2275 61 
Q 1981 -91 1556 -91 
Q 1019 -91 701 211 
Q 384 513 384 1019 
Q 384 1609 779 1909 
Q 1175 2209 1959 2209 
L 2766 2209 
L 2766 2266 
Q 2766 2663 2505 2880 
Q 2244 3097 1772 3097 
Q 1472 3097 1187 3025 
Q 903 2953 641 2809 
L 641 3341 
Q 956 3463 1253 3523 
Q 1550 3584 1831 3584 
Q 2591 3584 2966 3190 
Q 3341 2797 3341 1997 
z
" id="DejaVuSans-61" transform="scale(0.015625)"/>
      <path id="DejaVuSans-20" transform="scale(0.015625)"/>
      <path d="M 1831 0 
L 50 4666 
L 709 4666 
L 2188 738 
L 3669 4666 
L 4325 4666 
L 2547 0 
L 1831 0 
z
" id="DejaVuSans-56" transform="scale(0.015625)"/>
      <path d="M 2834 3397 
L 2834 2853 
Q 2591 2978 2328 3040 
Q 2066 3103 1784 3103 
Q 1356 3103 1142 2972 
Q 928 2841 928 2578 
Q 928 2378 1081 2264 
Q 1234 2150 1697 2047 
L 1894 2003 
Q 2506 1872 2764 1633 
Q 3022 1394 3022 966 
Q 3022 478 2636 193 
Q 2250 -91 1575 -91 
Q 1294 -91 989 -36 
Q 684 19 347 128 
L 347 722 
Q 666 556 975 473 
Q 1284 391 1588 391 
Q 1994 391 2212 530 
Q 2431 669 2431 922 
Q 2431 1156 2273 1281 
Q 2116 1406 1581 1522 
L 1381 1569 
Q 847 1681 609 1914 
Q 372 2147 372 2553 
Q 372 3047 722 3315 
Q 1072 3584 1716 3584 
Q 2034 3584 2315 3537 
Q 2597 3491 2834 3397 
z
" id="DejaVuSans-73" transform="scale(0.015625)"/>
     </defs>
     <use xlink:href="#DejaVuSans-53"/>
     <use x="63.476562" xlink:href="#DejaVuSans-69"/>
     <use x="91.259766" xlink:href="#DejaVuSans-6e"/>
     <use x="154.638672" xlink:href="#DejaVuSans-67"/>
     <use x="218.115234" xlink:href="#DejaVuSans-75"/>
     <use x="281.494141" xlink:href="#DejaVuSans-6c"/>
     <use x="309.277344" xlink:href="#DejaVuSans-61"/>
     <use x="370.556641" xlink:href="#DejaVuSans-72"/>
     <use x="411.669922" xlink:href="#DejaVuSans-20"/>
     <use x="443.457031" xlink:href="#DejaVuSans-56"/>
     <use x="504.115234" xlink:href="#DejaVuSans-61"/>
     <use x="565.394531" xlink:href="#DejaVuSans-6c"/>
     <use x="593.177734" xlink:href="#DejaVuSans-75"/>
     <use x="656.556641" xlink:href="#DejaVuSans-65"/>
     <use x="718.080078" xlink:href="#DejaVuSans-73"/>
    </g>
   </g>
  </g>
 </g>
 <defs>
  <clipPath id="pad295d4533">
   <rect height="217.44" width="334.8" x="40.603125" y="22.318125"/>
  </clipPath>
 </defs>
</svg>
