<?xml version="1.0" encoding="utf-8" standalone="no"?>
<!DOCTYPE svg PUBLIC "-//W3C//DTD SVG 1.1//EN"
  "http://www.w3.org/Graphics/SVG/1.1/DTD/svg11.dtd">
<svg height="386.03625pt" version="1.1" viewBox="0 0 741.707812 386.03625" width="741.707812pt" xmlns="http://www.w3.org/2000/svg" xmlns:xlink="http://www.w3.org/1999/xlink">
 <metadata>
  <rdf:RDF xmlns:cc="http://creativecommons.org/ns#" xmlns:dc="http://purl.org/dc/elements/1.1/" xmlns:rdf="http://www.w3.org/1999/02/22-rdf-syntax-ns#">
   <cc:Work>
    <dc:type rdf:resource="http://purl.org/dc/dcmitype/StillImage"/>
    <dc:date>2021-10-23T22:18:52.080922</dc:date>
    <dc:format>image/svg+xml</dc:format>
    <dc:creator>
     <cc:Agent>
      <dc:title>Matplotlib v3.4.3, https://matplotlib.org/</dc:title>
     </cc:Agent>
    </dc:creator>
   </cc:Work>
  </rdf:RDF>
 </metadata>
 <defs>
  <style type="text/css">*{stroke-linecap:butt;stroke-linejoin:round;}</style>
 </defs>
 <g id="figure_1">
  <g id="patch_1">
   <path d="M 0 386.03625 
L 741.707812 386.03625 
L 741.707812 0 
L 0 0 
z
" style="fill:none;"/>
  </g>
  <g id="axes_1">
   <g id="patch_2">
    <path d="M 64.907813 348.48 
L 369.271449 348.48 
L 369.271449 22.32 
L 64.907813 22.32 
z
" style="fill:#ffffff;"/>
   </g>
   <g id="matplotlib.axis_1">
    <g id="xtick_1">
     <g id="line2d_1">
      <defs>
       <path d="M 0 0 
L 0 3.5 
" id="mb252e88682" style="stroke:#000000;stroke-width:0.8;"/>
      </defs>
      <g>
       <use style="stroke:#000000;stroke-width:0.8;" x="78.742523" xlink:href="#mb252e88682" y="348.48"/>
      </g>
     </g>
     <g id="text_1">
      <!-- 0.0 -->
      <g transform="translate(70.790961 363.078438)scale(0.1 -0.1)">
       <defs>
        <path d="M 2034 4250 
Q 1547 4250 1301 3770 
Q 1056 3291 1056 2328 
Q 1056 1369 1301 889 
Q 1547 409 2034 409 
Q 2525 409 2770 889 
Q 3016 1369 3016 2328 
Q 3016 3291 2770 3770 
Q 2525 4250 2034 4250 
z
M 2034 4750 
Q 2819 4750 3233 4129 
Q 3647 3509 3647 2328 
Q 3647 1150 3233 529 
Q 2819 -91 2034 -91 
Q 1250 -91 836 529 
Q 422 1150 422 2328 
Q 422 3509 836 4129 
Q 1250 4750 2034 4750 
z
" id="DejaVuSans-30" transform="scale(0.015625)"/>
        <path d="M 684 794 
L 1344 794 
L 1344 0 
L 684 0 
L 684 794 
z
" id="DejaVuSans-2e" transform="scale(0.015625)"/>
       </defs>
       <use xlink:href="#DejaVuSans-30"/>
       <use x="63.623047" xlink:href="#DejaVuSans-2e"/>
       <use x="95.410156" xlink:href="#DejaVuSans-30"/>
      </g>
     </g>
    </g>
    <g id="xtick_2">
     <g id="line2d_2">
      <g>
       <use style="stroke:#000000;stroke-width:0.8;" x="134.359451" xlink:href="#mb252e88682" y="348.48"/>
      </g>
     </g>
     <g id="text_2">
      <!-- 0.2 -->
      <g transform="translate(126.407888 363.078438)scale(0.1 -0.1)">
       <defs>
        <path d="M 1228 531 
L 3431 531 
L 3431 0 
L 469 0 
L 469 531 
Q 828 903 1448 1529 
Q 2069 2156 2228 2338 
Q 2531 2678 2651 2914 
Q 2772 3150 2772 3378 
Q 2772 3750 2511 3984 
Q 2250 4219 1831 4219 
Q 1534 4219 1204 4116 
Q 875 4013 500 3803 
L 500 4441 
Q 881 4594 1212 4672 
Q 1544 4750 1819 4750 
Q 2544 4750 2975 4387 
Q 3406 4025 3406 3419 
Q 3406 3131 3298 2873 
Q 3191 2616 2906 2266 
Q 2828 2175 2409 1742 
Q 1991 1309 1228 531 
z
" id="DejaVuSans-32" transform="scale(0.015625)"/>
       </defs>
       <use xlink:href="#DejaVuSans-30"/>
       <use x="63.623047" xlink:href="#DejaVuSans-2e"/>
       <use x="95.410156" xlink:href="#DejaVuSans-32"/>
      </g>
     </g>
    </g>
    <g id="xtick_3">
     <g id="line2d_3">
      <g>
       <use style="stroke:#000000;stroke-width:0.8;" x="189.976378" xlink:href="#mb252e88682" y="348.48"/>
      </g>
     </g>
     <g id="text_3">
      <!-- 0.4 -->
      <g transform="translate(182.024816 363.078438)scale(0.1 -0.1)">
       <defs>
        <path d="M 2419 4116 
L 825 1625 
L 2419 1625 
L 2419 4116 
z
M 2253 4666 
L 3047 4666 
L 3047 1625 
L 3713 1625 
L 3713 1100 
L 3047 1100 
L 3047 0 
L 2419 0 
L 2419 1100 
L 313 1100 
L 313 1709 
L 2253 4666 
z
" id="DejaVuSans-34" transform="scale(0.015625)"/>
       </defs>
       <use xlink:href="#DejaVuSans-30"/>
       <use x="63.623047" xlink:href="#DejaVuSans-2e"/>
       <use x="95.410156" xlink:href="#DejaVuSans-34"/>
      </g>
     </g>
    </g>
    <g id="xtick_4">
     <g id="line2d_4">
      <g>
       <use style="stroke:#000000;stroke-width:0.8;" x="245.593306" xlink:href="#mb252e88682" y="348.48"/>
      </g>
     </g>
     <g id="text_4">
      <!-- 0.6 -->
      <g transform="translate(237.641744 363.078438)scale(0.1 -0.1)">
       <defs>
        <path d="M 2113 2584 
Q 1688 2584 1439 2293 
Q 1191 2003 1191 1497 
Q 1191 994 1439 701 
Q 1688 409 2113 409 
Q 2538 409 2786 701 
Q 3034 994 3034 1497 
Q 3034 2003 2786 2293 
Q 2538 2584 2113 2584 
z
M 3366 4563 
L 3366 3988 
Q 3128 4100 2886 4159 
Q 2644 4219 2406 4219 
Q 1781 4219 1451 3797 
Q 1122 3375 1075 2522 
Q 1259 2794 1537 2939 
Q 1816 3084 2150 3084 
Q 2853 3084 3261 2657 
Q 3669 2231 3669 1497 
Q 3669 778 3244 343 
Q 2819 -91 2113 -91 
Q 1303 -91 875 529 
Q 447 1150 447 2328 
Q 447 3434 972 4092 
Q 1497 4750 2381 4750 
Q 2619 4750 2861 4703 
Q 3103 4656 3366 4563 
z
" id="DejaVuSans-36" transform="scale(0.015625)"/>
       </defs>
       <use xlink:href="#DejaVuSans-30"/>
       <use x="63.623047" xlink:href="#DejaVuSans-2e"/>
       <use x="95.410156" xlink:href="#DejaVuSans-36"/>
      </g>
     </g>
    </g>
    <g id="xtick_5">
     <g id="line2d_5">
      <g>
       <use style="stroke:#000000;stroke-width:0.8;" x="301.210234" xlink:href="#mb252e88682" y="348.48"/>
      </g>
     </g>
     <g id="text_5">
      <!-- 0.8 -->
      <g transform="translate(293.258671 363.078438)scale(0.1 -0.1)">
       <defs>
        <path d="M 2034 2216 
Q 1584 2216 1326 1975 
Q 1069 1734 1069 1313 
Q 1069 891 1326 650 
Q 1584 409 2034 409 
Q 2484 409 2743 651 
Q 3003 894 3003 1313 
Q 3003 1734 2745 1975 
Q 2488 2216 2034 2216 
z
M 1403 2484 
Q 997 2584 770 2862 
Q 544 3141 544 3541 
Q 544 4100 942 4425 
Q 1341 4750 2034 4750 
Q 2731 4750 3128 4425 
Q 3525 4100 3525 3541 
Q 3525 3141 3298 2862 
Q 3072 2584 2669 2484 
Q 3125 2378 3379 2068 
Q 3634 1759 3634 1313 
Q 3634 634 3220 271 
Q 2806 -91 2034 -91 
Q 1263 -91 848 271 
Q 434 634 434 1313 
Q 434 1759 690 2068 
Q 947 2378 1403 2484 
z
M 1172 3481 
Q 1172 3119 1398 2916 
Q 1625 2713 2034 2713 
Q 2441 2713 2670 2916 
Q 2900 3119 2900 3481 
Q 2900 3844 2670 4047 
Q 2441 4250 2034 4250 
Q 1625 4250 1398 4047 
Q 1172 3844 1172 3481 
z
" id="DejaVuSans-38" transform="scale(0.015625)"/>
       </defs>
       <use xlink:href="#DejaVuSans-30"/>
       <use x="63.623047" xlink:href="#DejaVuSans-2e"/>
       <use x="95.410156" xlink:href="#DejaVuSans-38"/>
      </g>
     </g>
    </g>
    <g id="xtick_6">
     <g id="line2d_6">
      <g>
       <use style="stroke:#000000;stroke-width:0.8;" x="356.827161" xlink:href="#mb252e88682" y="348.48"/>
      </g>
     </g>
     <g id="text_6">
      <!-- 1.0 -->
      <g transform="translate(348.875599 363.078438)scale(0.1 -0.1)">
       <defs>
        <path d="M 794 531 
L 1825 531 
L 1825 4091 
L 703 3866 
L 703 4441 
L 1819 4666 
L 2450 4666 
L 2450 531 
L 3481 531 
L 3481 0 
L 794 0 
L 794 531 
z
" id="DejaVuSans-31" transform="scale(0.015625)"/>
       </defs>
       <use xlink:href="#DejaVuSans-31"/>
       <use x="63.623047" xlink:href="#DejaVuSans-2e"/>
       <use x="95.410156" xlink:href="#DejaVuSans-30"/>
      </g>
     </g>
    </g>
    <g id="text_7">
     <!-- Scaled $x$ -->
     <g transform="translate(195.889631 376.756562)scale(0.1 -0.1)">
      <defs>
       <path d="M 3425 4513 
L 3425 3897 
Q 3066 4069 2747 4153 
Q 2428 4238 2131 4238 
Q 1616 4238 1336 4038 
Q 1056 3838 1056 3469 
Q 1056 3159 1242 3001 
Q 1428 2844 1947 2747 
L 2328 2669 
Q 3034 2534 3370 2195 
Q 3706 1856 3706 1288 
Q 3706 609 3251 259 
Q 2797 -91 1919 -91 
Q 1588 -91 1214 -16 
Q 841 59 441 206 
L 441 856 
Q 825 641 1194 531 
Q 1563 422 1919 422 
Q 2459 422 2753 634 
Q 3047 847 3047 1241 
Q 3047 1584 2836 1778 
Q 2625 1972 2144 2069 
L 1759 2144 
Q 1053 2284 737 2584 
Q 422 2884 422 3419 
Q 422 4038 858 4394 
Q 1294 4750 2059 4750 
Q 2388 4750 2728 4690 
Q 3069 4631 3425 4513 
z
" id="DejaVuSans-53" transform="scale(0.015625)"/>
       <path d="M 3122 3366 
L 3122 2828 
Q 2878 2963 2633 3030 
Q 2388 3097 2138 3097 
Q 1578 3097 1268 2742 
Q 959 2388 959 1747 
Q 959 1106 1268 751 
Q 1578 397 2138 397 
Q 2388 397 2633 464 
Q 2878 531 3122 666 
L 3122 134 
Q 2881 22 2623 -34 
Q 2366 -91 2075 -91 
Q 1284 -91 818 406 
Q 353 903 353 1747 
Q 353 2603 823 3093 
Q 1294 3584 2113 3584 
Q 2378 3584 2631 3529 
Q 2884 3475 3122 3366 
z
" id="DejaVuSans-63" transform="scale(0.015625)"/>
       <path d="M 2194 1759 
Q 1497 1759 1228 1600 
Q 959 1441 959 1056 
Q 959 750 1161 570 
Q 1363 391 1709 391 
Q 2188 391 2477 730 
Q 2766 1069 2766 1631 
L 2766 1759 
L 2194 1759 
z
M 3341 1997 
L 3341 0 
L 2766 0 
L 2766 531 
Q 2569 213 2275 61 
Q 1981 -91 1556 -91 
Q 1019 -91 701 211 
Q 384 513 384 1019 
Q 384 1609 779 1909 
Q 1175 2209 1959 2209 
L 2766 2209 
L 2766 2266 
Q 2766 2663 2505 2880 
Q 2244 3097 1772 3097 
Q 1472 3097 1187 3025 
Q 903 2953 641 2809 
L 641 3341 
Q 956 3463 1253 3523 
Q 1550 3584 1831 3584 
Q 2591 3584 2966 3190 
Q 3341 2797 3341 1997 
z
" id="DejaVuSans-61" transform="scale(0.015625)"/>
       <path d="M 603 4863 
L 1178 4863 
L 1178 0 
L 603 0 
L 603 4863 
z
" id="DejaVuSans-6c" transform="scale(0.015625)"/>
       <path d="M 3597 1894 
L 3597 1613 
L 953 1613 
Q 991 1019 1311 708 
Q 1631 397 2203 397 
Q 2534 397 2845 478 
Q 3156 559 3463 722 
L 3463 178 
Q 3153 47 2828 -22 
Q 2503 -91 2169 -91 
Q 1331 -91 842 396 
Q 353 884 353 1716 
Q 353 2575 817 3079 
Q 1281 3584 2069 3584 
Q 2775 3584 3186 3129 
Q 3597 2675 3597 1894 
z
M 3022 2063 
Q 3016 2534 2758 2815 
Q 2500 3097 2075 3097 
Q 1594 3097 1305 2825 
Q 1016 2553 972 2059 
L 3022 2063 
z
" id="DejaVuSans-65" transform="scale(0.015625)"/>
       <path d="M 2906 2969 
L 2906 4863 
L 3481 4863 
L 3481 0 
L 2906 0 
L 2906 525 
Q 2725 213 2448 61 
Q 2172 -91 1784 -91 
Q 1150 -91 751 415 
Q 353 922 353 1747 
Q 353 2572 751 3078 
Q 1150 3584 1784 3584 
Q 2172 3584 2448 3432 
Q 2725 3281 2906 2969 
z
M 947 1747 
Q 947 1113 1208 752 
Q 1469 391 1925 391 
Q 2381 391 2643 752 
Q 2906 1113 2906 1747 
Q 2906 2381 2643 2742 
Q 2381 3103 1925 3103 
Q 1469 3103 1208 2742 
Q 947 2381 947 1747 
z
" id="DejaVuSans-64" transform="scale(0.015625)"/>
       <path id="DejaVuSans-20" transform="scale(0.015625)"/>
       <path d="M 3841 3500 
L 2234 1784 
L 3219 0 
L 2559 0 
L 1819 1388 
L 531 0 
L -166 0 
L 1556 1844 
L 641 3500 
L 1300 3500 
L 1972 2234 
L 3144 3500 
L 3841 3500 
z
" id="DejaVuSans-Oblique-78" transform="scale(0.015625)"/>
      </defs>
      <use transform="translate(0 0.015625)" xlink:href="#DejaVuSans-53"/>
      <use transform="translate(63.476562 0.015625)" xlink:href="#DejaVuSans-63"/>
      <use transform="translate(118.457031 0.015625)" xlink:href="#DejaVuSans-61"/>
      <use transform="translate(179.736328 0.015625)" xlink:href="#DejaVuSans-6c"/>
      <use transform="translate(207.519531 0.015625)" xlink:href="#DejaVuSans-65"/>
      <use transform="translate(269.042969 0.015625)" xlink:href="#DejaVuSans-64"/>
      <use transform="translate(332.519531 0.015625)" xlink:href="#DejaVuSans-20"/>
      <use transform="translate(364.306641 0.015625)" xlink:href="#DejaVuSans-Oblique-78"/>
     </g>
    </g>
   </g>
   <g id="matplotlib.axis_2">
    <g id="ytick_1">
     <g id="line2d_7">
      <defs>
       <path d="M 0 0 
L -3.5 0 
" id="mfd46d4aa70" style="stroke:#000000;stroke-width:0.8;"/>
      </defs>
      <g>
       <use style="stroke:#000000;stroke-width:0.8;" x="64.907813" xlink:href="#mfd46d4aa70" y="333.787479"/>
      </g>
     </g>
     <g id="text_8">
      <!-- −0.100 -->
      <g transform="translate(20.9 337.586698)scale(0.1 -0.1)">
       <defs>
        <path d="M 678 2272 
L 4684 2272 
L 4684 1741 
L 678 1741 
L 678 2272 
z
" id="DejaVuSans-2212" transform="scale(0.015625)"/>
       </defs>
       <use xlink:href="#DejaVuSans-2212"/>
       <use x="83.789062" xlink:href="#DejaVuSans-30"/>
       <use x="147.412109" xlink:href="#DejaVuSans-2e"/>
       <use x="179.199219" xlink:href="#DejaVuSans-31"/>
       <use x="242.822266" xlink:href="#DejaVuSans-30"/>
       <use x="306.445312" xlink:href="#DejaVuSans-30"/>
      </g>
     </g>
    </g>
    <g id="ytick_2">
     <g id="line2d_8">
      <g>
       <use style="stroke:#000000;stroke-width:0.8;" x="64.907813" xlink:href="#mfd46d4aa70" y="296.687512"/>
      </g>
     </g>
     <g id="text_9">
      <!-- −0.075 -->
      <g transform="translate(20.9 300.486731)scale(0.1 -0.1)">
       <defs>
        <path d="M 525 4666 
L 3525 4666 
L 3525 4397 
L 1831 0 
L 1172 0 
L 2766 4134 
L 525 4134 
L 525 4666 
z
" id="DejaVuSans-37" transform="scale(0.015625)"/>
        <path d="M 691 4666 
L 3169 4666 
L 3169 4134 
L 1269 4134 
L 1269 2991 
Q 1406 3038 1543 3061 
Q 1681 3084 1819 3084 
Q 2600 3084 3056 2656 
Q 3513 2228 3513 1497 
Q 3513 744 3044 326 
Q 2575 -91 1722 -91 
Q 1428 -91 1123 -41 
Q 819 9 494 109 
L 494 744 
Q 775 591 1075 516 
Q 1375 441 1709 441 
Q 2250 441 2565 725 
Q 2881 1009 2881 1497 
Q 2881 1984 2565 2268 
Q 2250 2553 1709 2553 
Q 1456 2553 1204 2497 
Q 953 2441 691 2322 
L 691 4666 
z
" id="DejaVuSans-35" transform="scale(0.015625)"/>
       </defs>
       <use xlink:href="#DejaVuSans-2212"/>
       <use x="83.789062" xlink:href="#DejaVuSans-30"/>
       <use x="147.412109" xlink:href="#DejaVuSans-2e"/>
       <use x="179.199219" xlink:href="#DejaVuSans-30"/>
       <use x="242.822266" xlink:href="#DejaVuSans-37"/>
       <use x="306.445312" xlink:href="#DejaVuSans-35"/>
      </g>
     </g>
    </g>
    <g id="ytick_3">
     <g id="line2d_9">
      <g>
       <use style="stroke:#000000;stroke-width:0.8;" x="64.907813" xlink:href="#mfd46d4aa70" y="259.587545"/>
      </g>
     </g>
     <g id="text_10">
      <!-- −0.050 -->
      <g transform="translate(20.9 263.386764)scale(0.1 -0.1)">
       <use xlink:href="#DejaVuSans-2212"/>
       <use x="83.789062" xlink:href="#DejaVuSans-30"/>
       <use x="147.412109" xlink:href="#DejaVuSans-2e"/>
       <use x="179.199219" xlink:href="#DejaVuSans-30"/>
       <use x="242.822266" xlink:href="#DejaVuSans-35"/>
       <use x="306.445312" xlink:href="#DejaVuSans-30"/>
      </g>
     </g>
    </g>
    <g id="ytick_4">
     <g id="line2d_10">
      <g>
       <use style="stroke:#000000;stroke-width:0.8;" x="64.907813" xlink:href="#mfd46d4aa70" y="222.487578"/>
      </g>
     </g>
     <g id="text_11">
      <!-- −0.025 -->
      <g transform="translate(20.9 226.286797)scale(0.1 -0.1)">
       <use xlink:href="#DejaVuSans-2212"/>
       <use x="83.789062" xlink:href="#DejaVuSans-30"/>
       <use x="147.412109" xlink:href="#DejaVuSans-2e"/>
       <use x="179.199219" xlink:href="#DejaVuSans-30"/>
       <use x="242.822266" xlink:href="#DejaVuSans-32"/>
       <use x="306.445312" xlink:href="#DejaVuSans-35"/>
      </g>
     </g>
    </g>
    <g id="ytick_5">
     <g id="line2d_11">
      <g>
       <use style="stroke:#000000;stroke-width:0.8;" x="64.907813" xlink:href="#mfd46d4aa70" y="185.387612"/>
      </g>
     </g>
     <g id="text_12">
      <!-- 0.000 -->
      <g transform="translate(29.279688 189.18683)scale(0.1 -0.1)">
       <use xlink:href="#DejaVuSans-30"/>
       <use x="63.623047" xlink:href="#DejaVuSans-2e"/>
       <use x="95.410156" xlink:href="#DejaVuSans-30"/>
       <use x="159.033203" xlink:href="#DejaVuSans-30"/>
       <use x="222.65625" xlink:href="#DejaVuSans-30"/>
      </g>
     </g>
    </g>
    <g id="ytick_6">
     <g id="line2d_12">
      <g>
       <use style="stroke:#000000;stroke-width:0.8;" x="64.907813" xlink:href="#mfd46d4aa70" y="148.287645"/>
      </g>
     </g>
     <g id="text_13">
      <!-- 0.025 -->
      <g transform="translate(29.279688 152.086864)scale(0.1 -0.1)">
       <use xlink:href="#DejaVuSans-30"/>
       <use x="63.623047" xlink:href="#DejaVuSans-2e"/>
       <use x="95.410156" xlink:href="#DejaVuSans-30"/>
       <use x="159.033203" xlink:href="#DejaVuSans-32"/>
       <use x="222.65625" xlink:href="#DejaVuSans-35"/>
      </g>
     </g>
    </g>
    <g id="ytick_7">
     <g id="line2d_13">
      <g>
       <use style="stroke:#000000;stroke-width:0.8;" x="64.907813" xlink:href="#mfd46d4aa70" y="111.187678"/>
      </g>
     </g>
     <g id="text_14">
      <!-- 0.050 -->
      <g transform="translate(29.279688 114.986897)scale(0.1 -0.1)">
       <use xlink:href="#DejaVuSans-30"/>
       <use x="63.623047" xlink:href="#DejaVuSans-2e"/>
       <use x="95.410156" xlink:href="#DejaVuSans-30"/>
       <use x="159.033203" xlink:href="#DejaVuSans-35"/>
       <use x="222.65625" xlink:href="#DejaVuSans-30"/>
      </g>
     </g>
    </g>
    <g id="ytick_8">
     <g id="line2d_14">
      <g>
       <use style="stroke:#000000;stroke-width:0.8;" x="64.907813" xlink:href="#mfd46d4aa70" y="74.087711"/>
      </g>
     </g>
     <g id="text_15">
      <!-- 0.075 -->
      <g transform="translate(29.279688 77.88693)scale(0.1 -0.1)">
       <use xlink:href="#DejaVuSans-30"/>
       <use x="63.623047" xlink:href="#DejaVuSans-2e"/>
       <use x="95.410156" xlink:href="#DejaVuSans-30"/>
       <use x="159.033203" xlink:href="#DejaVuSans-37"/>
       <use x="222.65625" xlink:href="#DejaVuSans-35"/>
      </g>
     </g>
    </g>
    <g id="ytick_9">
     <g id="line2d_15">
      <g>
       <use style="stroke:#000000;stroke-width:0.8;" x="64.907813" xlink:href="#mfd46d4aa70" y="36.987744"/>
      </g>
     </g>
     <g id="text_16">
      <!-- 0.100 -->
      <g transform="translate(29.279688 40.786963)scale(0.1 -0.1)">
       <use xlink:href="#DejaVuSans-30"/>
       <use x="63.623047" xlink:href="#DejaVuSans-2e"/>
       <use x="95.410156" xlink:href="#DejaVuSans-31"/>
       <use x="159.033203" xlink:href="#DejaVuSans-30"/>
       <use x="222.65625" xlink:href="#DejaVuSans-30"/>
      </g>
     </g>
    </g>
    <g id="text_17">
     <!-- $\phi(x)$ -->
     <g transform="translate(14.8 195.6)rotate(-90)scale(0.1 -0.1)">
      <defs>
       <path d="M 2991 4863 
L 2738 3572 
Q 3363 3572 3684 3094 
Q 4016 2606 3850 1747 
Q 3681 888 3159 400 
Q 2653 -78 2028 -78 
L 1784 -1331 
L 1213 -1331 
L 1456 -78 
Q 834 -78 509 400 
Q 178 888 347 1747 
Q 513 2606 1034 3094 
Q 1544 3572 2166 3572 
L 2419 4863 
L 2991 4863 
z
M 2128 434 
Q 2481 434 2784 756 
Q 3116 1116 3244 1747 
Q 3369 2372 3169 2738 
Q 2991 3059 2638 3059 
L 2128 434 
z
M 1556 434 
L 2066 3059 
Q 1716 3059 1413 2738 
Q 1072 2372 953 1747 
Q 834 1116 1028 756 
Q 1203 434 1556 434 
z
" id="DejaVuSans-Oblique-3d5" transform="scale(0.015625)"/>
       <path d="M 1984 4856 
Q 1566 4138 1362 3434 
Q 1159 2731 1159 2009 
Q 1159 1288 1364 580 
Q 1569 -128 1984 -844 
L 1484 -844 
Q 1016 -109 783 600 
Q 550 1309 550 2009 
Q 550 2706 781 3412 
Q 1013 4119 1484 4856 
L 1984 4856 
z
" id="DejaVuSans-28" transform="scale(0.015625)"/>
       <path d="M 513 4856 
L 1013 4856 
Q 1481 4119 1714 3412 
Q 1947 2706 1947 2009 
Q 1947 1309 1714 600 
Q 1481 -109 1013 -844 
L 513 -844 
Q 928 -128 1133 580 
Q 1338 1288 1338 2009 
Q 1338 2731 1133 3434 
Q 928 4138 513 4856 
z
" id="DejaVuSans-29" transform="scale(0.015625)"/>
      </defs>
      <use transform="translate(0 0.015625)" xlink:href="#DejaVuSans-Oblique-3d5"/>
      <use transform="translate(65.966797 0.015625)" xlink:href="#DejaVuSans-28"/>
      <use transform="translate(104.980469 0.015625)" xlink:href="#DejaVuSans-Oblique-78"/>
      <use transform="translate(164.160156 0.015625)" xlink:href="#DejaVuSans-29"/>
     </g>
    </g>
   </g>
   <g id="line2d_16">
    <path clip-path="url(#p5ea7da5671)" d="M 78.742523 187.705256 
L 95.427602 215.307327 
L 105.160564 230.977836 
L 113.503103 243.976998 
L 120.455219 254.416737 
L 127.407335 264.431272 
L 132.969028 272.095753 
L 138.53072 279.419358 
L 144.092413 286.373738 
L 149.654106 292.932029 
L 155.215799 299.068944 
L 159.387068 303.380829 
L 163.558338 307.433045 
L 167.729607 311.216842 
L 171.900877 314.724057 
L 176.072147 317.94713 
L 180.243416 320.879121 
L 184.414686 323.513723 
L 188.585955 325.84527 
L 192.757225 327.868755 
L 196.928494 329.579832 
L 201.099764 330.97483 
L 205.271034 332.050757 
L 209.442303 332.805307 
L 213.613573 333.236864 
L 217.784842 333.344505 
L 221.956112 333.128 
L 226.127381 332.587818 
L 230.298651 331.72512 
L 234.469921 330.541758 
L 238.64119 329.040274 
L 242.81246 327.223893 
L 246.983729 325.09652 
L 251.154999 322.662725 
L 255.326268 319.927744 
L 259.497538 316.89746 
L 263.668808 313.578401 
L 267.840077 309.977716 
L 272.011347 306.103173 
L 276.182616 301.963135 
L 280.353886 297.566549 
L 285.915579 291.321877 
L 291.477271 284.662139 
L 297.038964 277.613025 
L 302.600657 270.201778 
L 308.16235 262.457101 
L 315.114466 252.353286 
L 322.066582 241.836977 
L 330.409121 228.763402 
L 340.142083 213.031045 
L 352.655892 192.337339 
L 355.436738 187.704958 
L 355.436738 187.704958 
" style="fill:none;stroke:#1f77b4;stroke-linecap:square;stroke-width:1.5;"/>
   </g>
   <g id="line2d_17">
    <path clip-path="url(#p5ea7da5671)" d="M 78.742523 180.743875 
L 88.475486 148.624061 
L 94.037178 130.971715 
L 98.208448 118.282476 
L 102.379717 106.189747 
L 106.550987 94.800131 
L 110.722257 84.213759 
L 113.503103 77.648581 
L 116.283949 71.507343 
L 119.064796 65.813875 
L 121.845642 60.590222 
L 124.626489 55.85656 
L 127.407335 51.631126 
L 130.188181 47.930147 
L 132.969028 44.767785 
L 135.749874 42.156085 
L 138.53072 40.104933 
L 139.921144 39.292052 
L 141.311567 38.622021 
L 142.70199 38.095452 
L 144.092413 37.712822 
L 145.482836 37.474465 
L 146.87326 37.380574 
L 148.263683 37.431204 
L 149.654106 37.626269 
L 151.044529 37.96554 
L 152.434952 38.448653 
L 153.825376 39.0751 
L 155.215799 39.844236 
L 156.606222 40.75528 
L 157.996645 41.807309 
L 160.777491 44.329966 
L 163.558338 47.402139 
L 166.339184 51.011641 
L 169.120031 55.144213 
L 171.900877 59.783583 
L 174.681723 64.911528 
L 177.46257 70.507947 
L 180.243416 76.550943 
L 183.024263 83.016903 
L 187.195532 93.453281 
L 191.366802 104.692709 
L 195.538071 116.636789 
L 199.709341 129.18106 
L 205.271034 146.650294 
L 212.22315 169.298728 
L 228.908228 224.182581 
L 234.469921 241.649461 
L 238.64119 254.191438 
L 242.81246 266.132808 
L 246.983729 277.369155 
L 251.154999 287.802127 
L 253.935845 294.265663 
L 256.716692 300.306132 
L 259.497538 305.899938 
L 262.278384 311.025202 
L 265.059231 315.661841 
L 267.840077 319.791653 
L 270.620924 323.398382 
L 273.40177 326.46779 
L 276.182616 328.987707 
L 277.573039 330.038382 
L 278.963463 330.948084 
L 280.353886 331.715896 
L 281.744309 332.341035 
L 283.134732 332.822859 
L 284.525155 333.160865 
L 285.915579 333.354688 
L 287.306002 333.404102 
L 288.696425 333.309024 
L 290.086848 333.069508 
L 291.477271 332.685752 
L 292.867695 332.15809 
L 294.258118 331.487 
L 295.648541 330.673099 
L 297.038964 329.71714 
L 299.819811 327.382768 
L 302.600657 324.492686 
L 305.381503 321.057875 
L 308.16235 317.091449 
L 310.943196 312.608617 
L 313.724042 307.626621 
L 316.504889 302.164679 
L 319.285735 296.243911 
L 322.066582 289.887262 
L 324.847428 283.11942 
L 329.018698 272.254705 
L 333.189967 260.619737 
L 337.361237 248.316865 
L 342.922929 231.062403 
L 349.875045 208.511188 
L 355.436738 190.030762 
L 355.436738 190.030762 
" style="fill:none;stroke:#ff7f0e;stroke-linecap:square;stroke-width:1.5;"/>
   </g>
   <g id="line2d_18">
    <path clip-path="url(#p5ea7da5671)" d="M 78.742523 178.421068 
L 85.694639 144.131209 
L 89.865909 124.539286 
L 94.037178 106.165605 
L 96.818025 94.77516 
L 99.598871 84.18998 
L 102.379717 74.50336 
L 105.160564 65.800479 
L 107.94141 58.157673 
L 110.722257 51.641783 
L 112.11268 48.824583 
L 113.503103 46.309592 
L 114.893526 44.102258 
L 116.283949 42.207348 
L 117.674373 40.628932 
L 119.064796 39.370384 
L 120.455219 38.434366 
L 121.845642 37.822831 
L 123.236065 37.537015 
L 124.626489 37.577435 
L 126.016912 37.94389 
L 127.407335 38.635462 
L 128.797758 39.650519 
L 130.188181 40.986718 
L 131.578604 42.641013 
L 132.969028 44.609659 
L 134.359451 46.888224 
L 135.749874 49.471599 
L 137.140297 52.354007 
L 138.53072 55.52902 
L 141.311567 62.727969 
L 144.092413 71.004553 
L 146.87326 80.285504 
L 149.654106 90.488841 
L 152.434952 101.524596 
L 155.215799 113.295608 
L 159.387068 132.102827 
L 163.558338 151.95905 
L 170.510454 186.315222 
L 178.852993 227.310843 
L 183.024263 246.772902 
L 187.195532 265.030055 
L 189.976378 276.354206 
L 192.757225 286.884505 
L 195.538071 296.529228 
L 198.318918 305.204392 
L 201.099764 312.834477 
L 203.88061 319.35308 
L 205.271034 322.177458 
L 206.661457 324.703482 
L 208.05188 326.925653 
L 209.442303 328.839138 
L 210.832726 330.439773 
L 212.22315 331.724078 
L 213.613573 332.689257 
L 215.003996 333.333213 
L 216.394419 333.654545 
L 217.784842 333.652556 
L 219.175265 333.327249 
L 220.565689 332.679334 
L 221.956112 331.71022 
L 223.346535 330.422019 
L 224.736958 328.817532 
L 226.127381 326.900251 
L 227.517805 324.67435 
L 228.908228 322.144673 
L 230.298651 319.316724 
L 231.689074 316.196659 
L 234.469921 309.10797 
L 237.250767 300.940297 
L 240.031613 291.764739 
L 242.81246 281.661185 
L 245.593306 270.71763 
L 248.374152 259.029412 
L 252.545422 240.325242 
L 256.716692 220.542726 
L 263.668808 186.235969 
L 272.011347 145.172989 
L 276.182616 125.628161 
L 280.353886 107.259798 
L 283.134732 95.848039 
L 285.915579 85.221305 
L 288.696425 75.473192 
L 291.477271 66.689699 
L 294.258118 58.948461 
L 297.038964 52.318061 
L 298.429387 49.438229 
L 299.819811 46.857416 
L 301.210234 44.581387 
L 302.600657 42.615244 
L 303.99108 40.963411 
L 305.381503 39.629625 
L 306.771926 38.616922 
L 308.16235 37.92764 
L 309.552773 37.563403 
L 310.943196 37.525122 
L 312.333619 37.812992 
L 313.724042 38.426489 
L 315.114466 39.364371 
L 316.504889 40.624683 
L 317.895312 42.204756 
L 319.285735 44.101213 
L 320.676158 46.30998 
L 322.066582 48.826287 
L 323.457005 51.644684 
L 324.847428 54.75905 
L 327.628274 61.847923 
L 330.409121 70.031025 
L 333.189967 79.2367 
L 335.970813 89.38412 
L 338.75166 100.383979 
L 341.532506 112.139257 
L 345.703776 130.959656 
L 349.875045 150.869747 
L 355.436738 178.421944 
L 355.436738 178.421944 
" style="fill:none;stroke:#2ca02c;stroke-linecap:square;stroke-width:1.5;"/>
   </g>
   <g id="line2d_19">
    <path clip-path="url(#p5ea7da5671)" d="M 78.742523 176.100458 
L 84.304216 139.686479 
L 88.475486 114.149821 
L 91.256332 98.480052 
L 94.037178 84.184649 
L 96.818025 71.488243 
L 98.208448 65.802944 
L 99.598871 60.589852 
L 100.989294 55.869339 
L 102.379717 51.659821 
L 103.770141 47.977682 
L 105.160564 44.837219 
L 106.550987 42.250585 
L 107.94141 40.227742 
L 109.331833 38.77643 
L 110.722257 37.902132 
L 112.11268 37.608064 
L 113.503103 37.895157 
L 114.893526 38.762062 
L 116.283949 40.205152 
L 117.674373 42.218546 
L 119.064796 44.794128 
L 120.455219 47.921584 
L 121.845642 51.588446 
L 123.236065 55.78014 
L 124.626489 60.480049 
L 126.016912 65.669574 
L 128.797758 77.433654 
L 131.578604 90.887057 
L 134.359451 105.818317 
L 137.140297 121.993163 
L 141.311567 148.028621 
L 146.87326 184.614905 
L 153.825376 230.147305 
L 157.996645 255.659239 
L 160.777491 271.354461 
L 163.558338 285.712685 
L 166.339184 298.51124 
L 169.120031 309.551836 
L 170.510454 314.358358 
L 171.900877 318.663608 
L 173.2913 322.450939 
L 174.681723 325.705725 
L 176.072147 328.415405 
L 177.46257 330.56954 
L 178.852993 332.159848 
L 180.243416 333.180237 
L 181.633839 333.626825 
L 183.024263 333.497955 
L 184.414686 332.794204 
L 185.805109 331.518375 
L 187.195532 329.675487 
L 188.585955 327.272756 
L 189.976378 324.319566 
L 191.366802 320.82743 
L 192.757225 316.809948 
L 194.147648 312.282751 
L 195.538071 307.263441 
L 198.318918 295.828333 
L 201.099764 282.682086 
L 203.88061 268.028584 
L 206.661457 252.09498 
L 210.832726 226.338954 
L 216.394419 189.944059 
L 223.346535 144.321896 
L 227.517805 118.57393 
L 230.298651 102.64773 
L 233.079497 88.003103 
L 235.860344 74.867036 
L 238.64119 63.443226 
L 240.031613 58.429921 
L 241.422037 53.90893 
L 242.81246 49.897826 
L 244.202883 46.412213 
L 245.593306 43.46566 
L 246.983729 41.069651 
L 248.374152 39.233541 
L 249.764576 37.964514 
L 251.154999 37.267561 
L 252.545422 37.145455 
L 253.935845 37.598742 
L 255.326268 38.625738 
L 256.716692 40.222533 
L 258.107115 42.383007 
L 259.497538 45.098852 
L 260.887961 48.359603 
L 262.278384 52.152678 
L 263.668808 56.463425 
L 265.059231 61.275177 
L 266.449654 66.56932 
L 269.2305 78.520993 
L 272.011347 92.133389 
L 274.792193 107.195529 
L 277.573039 123.473746 
L 281.744309 149.614045 
L 288.696425 195.489278 
L 294.258118 231.698544 
L 298.429387 257.083374 
L 301.210234 272.660832 
L 303.99108 286.874301 
L 306.771926 299.500663 
L 308.16235 305.155571 
L 309.552773 310.341322 
L 310.943196 315.037441 
L 312.333619 319.225353 
L 313.724042 322.888464 
L 315.114466 326.012222 
L 316.504889 328.584181 
L 317.895312 330.594047 
L 319.285735 332.033725 
L 320.676158 332.89735 
L 322.066582 333.181315 
L 323.457005 332.884284 
L 324.847428 332.007204 
L 326.237851 330.553302 
L 327.628274 328.528073 
L 329.018698 325.939265 
L 330.409121 322.796849 
L 331.799544 319.112982 
L 333.189967 314.901964 
L 334.58039 310.180182 
L 335.970813 304.96605 
L 338.75166 293.144101 
L 341.532506 279.62111 
L 344.313353 264.609243 
L 347.094199 248.34456 
L 351.265469 222.16372 
L 355.436738 194.673598 
L 355.436738 194.673598 
" style="fill:none;stroke:#d62728;stroke-linecap:square;stroke-width:1.5;"/>
   </g>
   <g id="line2d_20">
    <path clip-path="url(#p5ea7da5671)" d="M 78.742523 196.9929 
L 82.913793 231.091293 
L 85.694639 252.524949 
L 88.475486 272.298027 
L 91.256332 289.923456 
L 92.646755 297.793029 
L 94.037178 304.968054 
L 95.427602 311.404527 
L 96.818025 317.063043 
L 98.208448 321.909026 
L 99.598871 325.912939 
L 100.989294 329.05046 
L 102.379717 331.302621 
L 103.770141 332.655921 
L 105.160564 333.1024 
L 106.550987 332.639683 
L 107.94141 331.270987 
L 109.331833 329.005091 
L 110.722257 325.856281 
L 112.11268 321.844254 
L 113.503103 316.993988 
L 114.893526 311.335587 
L 116.283949 304.904087 
L 117.674373 297.739239 
L 119.064796 289.885259 
L 121.845642 272.307417 
L 124.626489 252.602517 
L 127.407335 231.253885 
L 131.578604 197.300251 
L 138.53072 140.197419 
L 141.311567 118.802792 
L 144.092413 99.030376 
L 146.87326 81.360748 
L 148.263683 73.450828 
L 149.654106 66.222832 
L 151.044529 59.720611 
L 152.434952 53.983576 
L 153.825376 49.046468 
L 155.215799 44.939144 
L 156.606222 41.686402 
L 157.996645 39.307838 
L 159.387068 37.817722 
L 160.777491 37.224923 
L 162.167915 37.532855 
L 163.558338 38.739459 
L 164.948761 40.837223 
L 166.339184 43.813225 
L 167.729607 47.64922 
L 169.120031 52.321749 
L 170.510454 57.802289 
L 171.900877 64.057423 
L 173.2913 71.049049 
L 174.681723 78.734611 
L 177.46257 95.996641 
L 180.243416 115.424489 
L 183.024263 136.546965 
L 187.195532 170.28015 
L 194.147648 227.398044 
L 196.928494 248.945519 
L 199.709341 268.95552 
L 202.490187 286.944287 
L 203.88061 295.042626 
L 205.271034 302.477027 
L 206.661457 309.20251 
L 208.05188 315.178388 
L 209.442303 320.368512 
L 210.832726 324.741488 
L 212.22315 328.270867 
L 213.613573 330.935303 
L 215.003996 332.718684 
L 216.394419 333.610224 
L 217.784842 333.604534 
L 219.175265 332.701651 
L 220.565689 330.907038 
L 221.956112 328.231552 
L 223.346535 324.691376 
L 224.736958 320.307926 
L 226.127381 315.107718 
L 227.517805 309.12221 
L 228.908228 302.387612 
L 230.298651 294.944669 
L 233.079497 278.117891 
L 235.860344 259.048543 
L 238.64119 238.19758 
L 242.81246 204.692241 
L 251.154999 136.413481 
L 253.935845 115.300252 
L 256.716692 95.88443 
L 259.497538 78.636829 
L 260.887961 70.959247 
L 262.278384 63.976035 
L 263.668808 57.729687 
L 265.059231 52.258241 
L 266.449654 47.595048 
L 267.840077 43.768567 
L 269.2305 40.80219 
L 270.620924 38.714095 
L 272.011347 37.517139 
L 273.40177 37.218769 
L 274.792193 37.820981 
L 276.182616 39.3203 
L 277.573039 41.7078 
L 278.963463 44.969151 
L 280.353886 49.08471 
L 281.744309 54.029627 
L 283.134732 59.774 
L 284.525155 66.28305 
L 285.915579 73.517329 
L 288.696425 89.981876 
L 291.477271 108.768319 
L 294.258118 129.420426 
L 298.429387 162.788695 
L 306.771926 231.340344 
L 309.552773 252.682227 
L 312.333619 272.378985 
L 315.114466 289.947671 
L 316.504889 297.796817 
L 317.895312 304.956727 
L 319.285735 311.383236 
L 320.676158 317.036641 
L 322.066582 321.881953 
L 323.457005 325.889114 
L 324.847428 329.03319 
L 326.237851 331.294525 
L 327.628274 332.658872 
L 329.018698 333.117484 
L 330.409121 332.667176 
L 331.799544 331.310351 
L 333.189967 329.054991 
L 334.58039 325.914616 
L 335.970813 321.908206 
L 337.361237 317.060095 
L 338.75166 311.399822 
L 340.142083 304.961963 
L 341.532506 297.785919 
L 342.922929 289.915682 
L 345.703776 272.289933 
L 348.484622 252.517729 
L 351.265469 231.08591 
L 355.436738 196.991444 
L 355.436738 196.991444 
" style="fill:none;stroke:#9467bd;stroke-linecap:square;stroke-width:1.5;"/>
   </g>
   <g id="patch_3">
    <path d="M 64.907813 348.48 
L 64.907813 22.32 
" style="fill:none;stroke:#000000;stroke-linecap:square;stroke-linejoin:miter;stroke-width:0.8;"/>
   </g>
   <g id="patch_4">
    <path d="M 369.271449 348.48 
L 369.271449 22.32 
" style="fill:none;stroke:#000000;stroke-linecap:square;stroke-linejoin:miter;stroke-width:0.8;"/>
   </g>
   <g id="patch_5">
    <path d="M 64.907813 348.48 
L 369.271449 348.48 
" style="fill:none;stroke:#000000;stroke-linecap:square;stroke-linejoin:miter;stroke-width:0.8;"/>
   </g>
   <g id="patch_6">
    <path d="M 64.907813 22.32 
L 369.271449 22.32 
" style="fill:none;stroke:#000000;stroke-linecap:square;stroke-linejoin:miter;stroke-width:0.8;"/>
   </g>
   <g id="text_18">
    <!-- Eigenfunctions for $\epsilon = 0.1$ -->
    <g transform="translate(140.469631 16.32)scale(0.12 -0.12)">
     <defs>
      <path d="M 628 4666 
L 3578 4666 
L 3578 4134 
L 1259 4134 
L 1259 2753 
L 3481 2753 
L 3481 2222 
L 1259 2222 
L 1259 531 
L 3634 531 
L 3634 0 
L 628 0 
L 628 4666 
z
" id="DejaVuSans-45" transform="scale(0.015625)"/>
      <path d="M 603 3500 
L 1178 3500 
L 1178 0 
L 603 0 
L 603 3500 
z
M 603 4863 
L 1178 4863 
L 1178 4134 
L 603 4134 
L 603 4863 
z
" id="DejaVuSans-69" transform="scale(0.015625)"/>
      <path d="M 2906 1791 
Q 2906 2416 2648 2759 
Q 2391 3103 1925 3103 
Q 1463 3103 1205 2759 
Q 947 2416 947 1791 
Q 947 1169 1205 825 
Q 1463 481 1925 481 
Q 2391 481 2648 825 
Q 2906 1169 2906 1791 
z
M 3481 434 
Q 3481 -459 3084 -895 
Q 2688 -1331 1869 -1331 
Q 1566 -1331 1297 -1286 
Q 1028 -1241 775 -1147 
L 775 -588 
Q 1028 -725 1275 -790 
Q 1522 -856 1778 -856 
Q 2344 -856 2625 -561 
Q 2906 -266 2906 331 
L 2906 616 
Q 2728 306 2450 153 
Q 2172 0 1784 0 
Q 1141 0 747 490 
Q 353 981 353 1791 
Q 353 2603 747 3093 
Q 1141 3584 1784 3584 
Q 2172 3584 2450 3431 
Q 2728 3278 2906 2969 
L 2906 3500 
L 3481 3500 
L 3481 434 
z
" id="DejaVuSans-67" transform="scale(0.015625)"/>
      <path d="M 3513 2113 
L 3513 0 
L 2938 0 
L 2938 2094 
Q 2938 2591 2744 2837 
Q 2550 3084 2163 3084 
Q 1697 3084 1428 2787 
Q 1159 2491 1159 1978 
L 1159 0 
L 581 0 
L 581 3500 
L 1159 3500 
L 1159 2956 
Q 1366 3272 1645 3428 
Q 1925 3584 2291 3584 
Q 2894 3584 3203 3211 
Q 3513 2838 3513 2113 
z
" id="DejaVuSans-6e" transform="scale(0.015625)"/>
      <path d="M 2375 4863 
L 2375 4384 
L 1825 4384 
Q 1516 4384 1395 4259 
Q 1275 4134 1275 3809 
L 1275 3500 
L 2222 3500 
L 2222 3053 
L 1275 3053 
L 1275 0 
L 697 0 
L 697 3053 
L 147 3053 
L 147 3500 
L 697 3500 
L 697 3744 
Q 697 4328 969 4595 
Q 1241 4863 1831 4863 
L 2375 4863 
z
" id="DejaVuSans-66" transform="scale(0.015625)"/>
      <path d="M 544 1381 
L 544 3500 
L 1119 3500 
L 1119 1403 
Q 1119 906 1312 657 
Q 1506 409 1894 409 
Q 2359 409 2629 706 
Q 2900 1003 2900 1516 
L 2900 3500 
L 3475 3500 
L 3475 0 
L 2900 0 
L 2900 538 
Q 2691 219 2414 64 
Q 2138 -91 1772 -91 
Q 1169 -91 856 284 
Q 544 659 544 1381 
z
M 1991 3584 
L 1991 3584 
z
" id="DejaVuSans-75" transform="scale(0.015625)"/>
      <path d="M 1172 4494 
L 1172 3500 
L 2356 3500 
L 2356 3053 
L 1172 3053 
L 1172 1153 
Q 1172 725 1289 603 
Q 1406 481 1766 481 
L 2356 481 
L 2356 0 
L 1766 0 
Q 1100 0 847 248 
Q 594 497 594 1153 
L 594 3053 
L 172 3053 
L 172 3500 
L 594 3500 
L 594 4494 
L 1172 4494 
z
" id="DejaVuSans-74" transform="scale(0.015625)"/>
      <path d="M 1959 3097 
Q 1497 3097 1228 2736 
Q 959 2375 959 1747 
Q 959 1119 1226 758 
Q 1494 397 1959 397 
Q 2419 397 2687 759 
Q 2956 1122 2956 1747 
Q 2956 2369 2687 2733 
Q 2419 3097 1959 3097 
z
M 1959 3584 
Q 2709 3584 3137 3096 
Q 3566 2609 3566 1747 
Q 3566 888 3137 398 
Q 2709 -91 1959 -91 
Q 1206 -91 779 398 
Q 353 888 353 1747 
Q 353 2609 779 3096 
Q 1206 3584 1959 3584 
z
" id="DejaVuSans-6f" transform="scale(0.015625)"/>
      <path d="M 2834 3397 
L 2834 2853 
Q 2591 2978 2328 3040 
Q 2066 3103 1784 3103 
Q 1356 3103 1142 2972 
Q 928 2841 928 2578 
Q 928 2378 1081 2264 
Q 1234 2150 1697 2047 
L 1894 2003 
Q 2506 1872 2764 1633 
Q 3022 1394 3022 966 
Q 3022 478 2636 193 
Q 2250 -91 1575 -91 
Q 1294 -91 989 -36 
Q 684 19 347 128 
L 347 722 
Q 666 556 975 473 
Q 1284 391 1588 391 
Q 1994 391 2212 530 
Q 2431 669 2431 922 
Q 2431 1156 2273 1281 
Q 2116 1406 1581 1522 
L 1381 1569 
Q 847 1681 609 1914 
Q 372 2147 372 2553 
Q 372 3047 722 3315 
Q 1072 3584 1716 3584 
Q 2034 3584 2315 3537 
Q 2597 3491 2834 3397 
z
" id="DejaVuSans-73" transform="scale(0.015625)"/>
      <path d="M 2631 2963 
Q 2534 3019 2420 3045 
Q 2306 3072 2169 3072 
Q 1681 3072 1420 2755 
Q 1159 2438 1159 1844 
L 1159 0 
L 581 0 
L 581 3500 
L 1159 3500 
L 1159 2956 
Q 1341 3275 1631 3429 
Q 1922 3584 2338 3584 
Q 2397 3584 2469 3576 
Q 2541 3569 2628 3553 
L 2631 2963 
z
" id="DejaVuSans-72" transform="scale(0.015625)"/>
      <path d="M 1263 1888 
Q 925 1963 778 2166 
Q 669 2309 669 2503 
Q 669 3034 1175 3344 
Q 1575 3588 2188 3588 
Q 2425 3588 2684 3550 
Q 2944 3513 3234 3438 
L 3134 2916 
Q 2847 3006 2606 3047 
Q 2359 3088 2138 3088 
Q 1766 3088 1522 2944 
Q 1228 2772 1228 2522 
Q 1228 2356 1381 2241 
Q 1563 2103 1925 2103 
L 2409 2103 
L 2319 1628 
L 1856 1628 
Q 1425 1628 1172 1469 
Q 828 1253 828 916 
Q 828 703 1013 563 
Q 1244 388 1716 388 
Q 2006 388 2284 444 
Q 2563 503 2806 619 
L 2700 84 
Q 2403 -3 2131 -47 
Q 1859 -91 1609 -91 
Q 866 -91 516 194 
Q 250 413 250 781 
Q 250 1278 600 1584 
Q 859 1813 1263 1888 
z
" id="DejaVuSans-Oblique-3b5" transform="scale(0.015625)"/>
      <path d="M 678 2906 
L 4684 2906 
L 4684 2381 
L 678 2381 
L 678 2906 
z
M 678 1631 
L 4684 1631 
L 4684 1100 
L 678 1100 
L 678 1631 
z
" id="DejaVuSans-3d" transform="scale(0.015625)"/>
     </defs>
     <use transform="translate(0 0.015625)" xlink:href="#DejaVuSans-45"/>
     <use transform="translate(63.183594 0.015625)" xlink:href="#DejaVuSans-69"/>
     <use transform="translate(90.966797 0.015625)" xlink:href="#DejaVuSans-67"/>
     <use transform="translate(154.443359 0.015625)" xlink:href="#DejaVuSans-65"/>
     <use transform="translate(215.966797 0.015625)" xlink:href="#DejaVuSans-6e"/>
     <use transform="translate(279.345703 0.015625)" xlink:href="#DejaVuSans-66"/>
     <use transform="translate(314.550781 0.015625)" xlink:href="#DejaVuSans-75"/>
     <use transform="translate(377.929688 0.015625)" xlink:href="#DejaVuSans-6e"/>
     <use transform="translate(441.308594 0.015625)" xlink:href="#DejaVuSans-63"/>
     <use transform="translate(496.289062 0.015625)" xlink:href="#DejaVuSans-74"/>
     <use transform="translate(535.498047 0.015625)" xlink:href="#DejaVuSans-69"/>
     <use transform="translate(563.28125 0.015625)" xlink:href="#DejaVuSans-6f"/>
     <use transform="translate(624.462891 0.015625)" xlink:href="#DejaVuSans-6e"/>
     <use transform="translate(687.841797 0.015625)" xlink:href="#DejaVuSans-73"/>
     <use transform="translate(739.941406 0.015625)" xlink:href="#DejaVuSans-20"/>
     <use transform="translate(771.728516 0.015625)" xlink:href="#DejaVuSans-66"/>
     <use transform="translate(806.933594 0.015625)" xlink:href="#DejaVuSans-6f"/>
     <use transform="translate(868.115234 0.015625)" xlink:href="#DejaVuSans-72"/>
     <use transform="translate(909.228516 0.015625)" xlink:href="#DejaVuSans-20"/>
     <use transform="translate(941.015625 0.015625)" xlink:href="#DejaVuSans-Oblique-3b5"/>
     <use transform="translate(1014.550781 0.015625)" xlink:href="#DejaVuSans-3d"/>
     <use transform="translate(1117.822266 0.015625)" xlink:href="#DejaVuSans-30"/>
     <use transform="translate(1181.445312 0.015625)" xlink:href="#DejaVuSans-2e"/>
     <use transform="translate(1213.232422 0.015625)" xlink:href="#DejaVuSans-31"/>
    </g>
   </g>
   <g id="legend_1">
    <g id="patch_7">
     <path d="M 180.413068 103.710625 
L 253.766193 103.710625 
Q 255.766193 103.710625 255.766193 101.710625 
L 255.766193 29.32 
Q 255.766193 27.32 253.766193 27.32 
L 180.413068 27.32 
Q 178.413068 27.32 178.413068 29.32 
L 178.413068 101.710625 
Q 178.413068 103.710625 180.413068 103.710625 
z
" style="fill:#ffffff;opacity:0.8;stroke:#cccccc;stroke-linejoin:miter;"/>
    </g>
    <g id="line2d_21">
     <path d="M 182.413068 35.418437 
L 202.413068 35.418437 
" style="fill:none;stroke:#1f77b4;stroke-linecap:square;stroke-width:1.5;"/>
    </g>
    <g id="line2d_22"/>
    <g id="text_19">
     <!-- 9.988 -->
     <g transform="translate(210.413068 38.918437)scale(0.1 -0.1)">
      <defs>
       <path d="M 703 97 
L 703 672 
Q 941 559 1184 500 
Q 1428 441 1663 441 
Q 2288 441 2617 861 
Q 2947 1281 2994 2138 
Q 2813 1869 2534 1725 
Q 2256 1581 1919 1581 
Q 1219 1581 811 2004 
Q 403 2428 403 3163 
Q 403 3881 828 4315 
Q 1253 4750 1959 4750 
Q 2769 4750 3195 4129 
Q 3622 3509 3622 2328 
Q 3622 1225 3098 567 
Q 2575 -91 1691 -91 
Q 1453 -91 1209 -44 
Q 966 3 703 97 
z
M 1959 2075 
Q 2384 2075 2632 2365 
Q 2881 2656 2881 3163 
Q 2881 3666 2632 3958 
Q 2384 4250 1959 4250 
Q 1534 4250 1286 3958 
Q 1038 3666 1038 3163 
Q 1038 2656 1286 2365 
Q 1534 2075 1959 2075 
z
" id="DejaVuSans-39" transform="scale(0.015625)"/>
      </defs>
      <use xlink:href="#DejaVuSans-39"/>
      <use x="63.623047" xlink:href="#DejaVuSans-2e"/>
      <use x="95.410156" xlink:href="#DejaVuSans-39"/>
      <use x="159.033203" xlink:href="#DejaVuSans-38"/>
      <use x="222.65625" xlink:href="#DejaVuSans-38"/>
     </g>
    </g>
    <g id="line2d_23">
     <path d="M 182.413068 50.096562 
L 202.413068 50.096562 
" style="fill:none;stroke:#ff7f0e;stroke-linecap:square;stroke-width:1.5;"/>
    </g>
    <g id="line2d_24"/>
    <g id="text_20">
     <!-- 39.794 -->
     <g transform="translate(210.413068 53.596562)scale(0.1 -0.1)">
      <defs>
       <path d="M 2597 2516 
Q 3050 2419 3304 2112 
Q 3559 1806 3559 1356 
Q 3559 666 3084 287 
Q 2609 -91 1734 -91 
Q 1441 -91 1130 -33 
Q 819 25 488 141 
L 488 750 
Q 750 597 1062 519 
Q 1375 441 1716 441 
Q 2309 441 2620 675 
Q 2931 909 2931 1356 
Q 2931 1769 2642 2001 
Q 2353 2234 1838 2234 
L 1294 2234 
L 1294 2753 
L 1863 2753 
Q 2328 2753 2575 2939 
Q 2822 3125 2822 3475 
Q 2822 3834 2567 4026 
Q 2313 4219 1838 4219 
Q 1578 4219 1281 4162 
Q 984 4106 628 3988 
L 628 4550 
Q 988 4650 1302 4700 
Q 1616 4750 1894 4750 
Q 2613 4750 3031 4423 
Q 3450 4097 3450 3541 
Q 3450 3153 3228 2886 
Q 3006 2619 2597 2516 
z
" id="DejaVuSans-33" transform="scale(0.015625)"/>
      </defs>
      <use xlink:href="#DejaVuSans-33"/>
      <use x="63.623047" xlink:href="#DejaVuSans-39"/>
      <use x="127.246094" xlink:href="#DejaVuSans-2e"/>
      <use x="159.033203" xlink:href="#DejaVuSans-37"/>
      <use x="222.65625" xlink:href="#DejaVuSans-39"/>
      <use x="286.279297" xlink:href="#DejaVuSans-34"/>
     </g>
    </g>
    <g id="line2d_25">
     <path d="M 182.413068 64.774687 
L 202.413068 64.774687 
" style="fill:none;stroke:#2ca02c;stroke-linecap:square;stroke-width:1.5;"/>
    </g>
    <g id="line2d_26"/>
    <g id="text_21">
     <!-- 89.463 -->
     <g transform="translate(210.413068 68.274687)scale(0.1 -0.1)">
      <use xlink:href="#DejaVuSans-38"/>
      <use x="63.623047" xlink:href="#DejaVuSans-39"/>
      <use x="127.246094" xlink:href="#DejaVuSans-2e"/>
      <use x="159.033203" xlink:href="#DejaVuSans-34"/>
      <use x="222.65625" xlink:href="#DejaVuSans-36"/>
      <use x="286.279297" xlink:href="#DejaVuSans-33"/>
     </g>
    </g>
    <g id="line2d_27">
     <path d="M 182.413068 79.452812 
L 202.413068 79.452812 
" style="fill:none;stroke:#d62728;stroke-linecap:square;stroke-width:1.5;"/>
    </g>
    <g id="line2d_28"/>
    <g id="text_22">
     <!-- 158.984 -->
     <g transform="translate(210.413068 82.952812)scale(0.1 -0.1)">
      <use xlink:href="#DejaVuSans-31"/>
      <use x="63.623047" xlink:href="#DejaVuSans-35"/>
      <use x="127.246094" xlink:href="#DejaVuSans-38"/>
      <use x="190.869141" xlink:href="#DejaVuSans-2e"/>
      <use x="222.65625" xlink:href="#DejaVuSans-39"/>
      <use x="286.279297" xlink:href="#DejaVuSans-38"/>
      <use x="349.902344" xlink:href="#DejaVuSans-34"/>
     </g>
    </g>
    <g id="line2d_29">
     <path d="M 182.413068 94.130937 
L 202.413068 94.130937 
" style="fill:none;stroke:#9467bd;stroke-linecap:square;stroke-width:1.5;"/>
    </g>
    <g id="line2d_30"/>
    <g id="text_23">
     <!-- 248.338 -->
     <g transform="translate(210.413068 97.630937)scale(0.1 -0.1)">
      <use xlink:href="#DejaVuSans-32"/>
      <use x="63.623047" xlink:href="#DejaVuSans-34"/>
      <use x="127.246094" xlink:href="#DejaVuSans-38"/>
      <use x="190.869141" xlink:href="#DejaVuSans-2e"/>
      <use x="222.65625" xlink:href="#DejaVuSans-33"/>
      <use x="286.279297" xlink:href="#DejaVuSans-33"/>
      <use x="349.902344" xlink:href="#DejaVuSans-38"/>
     </g>
    </g>
   </g>
  </g>
  <g id="axes_2">
   <g id="patch_8">
    <path d="M 430.144176 348.48 
L 734.507812 348.48 
L 734.507812 22.32 
L 430.144176 22.32 
z
" style="fill:#ffffff;"/>
   </g>
   <g id="matplotlib.axis_3">
    <g id="xtick_7">
     <g id="line2d_31">
      <g>
       <use style="stroke:#000000;stroke-width:0.8;" x="443.978887" xlink:href="#mb252e88682" y="348.48"/>
      </g>
     </g>
     <g id="text_24">
      <!-- 0 -->
      <g transform="translate(440.797637 363.078438)scale(0.1 -0.1)">
       <use xlink:href="#DejaVuSans-30"/>
      </g>
     </g>
    </g>
    <g id="xtick_8">
     <g id="line2d_32">
      <g>
       <use style="stroke:#000000;stroke-width:0.8;" x="505.46649" xlink:href="#mb252e88682" y="348.48"/>
      </g>
     </g>
     <g id="text_25">
      <!-- 2 -->
      <g transform="translate(502.28524 363.078438)scale(0.1 -0.1)">
       <use xlink:href="#DejaVuSans-32"/>
      </g>
     </g>
    </g>
    <g id="xtick_9">
     <g id="line2d_33">
      <g>
       <use style="stroke:#000000;stroke-width:0.8;" x="566.954093" xlink:href="#mb252e88682" y="348.48"/>
      </g>
     </g>
     <g id="text_26">
      <!-- 4 -->
      <g transform="translate(563.772843 363.078438)scale(0.1 -0.1)">
       <use xlink:href="#DejaVuSans-34"/>
      </g>
     </g>
    </g>
    <g id="xtick_10">
     <g id="line2d_34">
      <g>
       <use style="stroke:#000000;stroke-width:0.8;" x="628.441697" xlink:href="#mb252e88682" y="348.48"/>
      </g>
     </g>
     <g id="text_27">
      <!-- 6 -->
      <g transform="translate(625.260447 363.078438)scale(0.1 -0.1)">
       <use xlink:href="#DejaVuSans-36"/>
      </g>
     </g>
    </g>
    <g id="xtick_11">
     <g id="line2d_35">
      <g>
       <use style="stroke:#000000;stroke-width:0.8;" x="689.9293" xlink:href="#mb252e88682" y="348.48"/>
      </g>
     </g>
     <g id="text_28">
      <!-- 8 -->
      <g transform="translate(686.74805 363.078438)scale(0.1 -0.1)">
       <use xlink:href="#DejaVuSans-38"/>
      </g>
     </g>
    </g>
    <g id="text_29">
     <!-- $i$ -->
     <g transform="translate(580.925994 376.756562)scale(0.1 -0.1)">
      <defs>
       <path d="M 1172 4863 
L 1747 4863 
L 1606 4134 
L 1031 4134 
L 1172 4863 
z
M 909 3500 
L 1484 3500 
L 800 0 
L 225 0 
L 909 3500 
z
" id="DejaVuSans-Oblique-69" transform="scale(0.015625)"/>
      </defs>
      <use transform="translate(0 0.015625)" xlink:href="#DejaVuSans-Oblique-69"/>
     </g>
    </g>
   </g>
   <g id="matplotlib.axis_4">
    <g id="ytick_10">
     <g id="line2d_36">
      <g>
       <use style="stroke:#000000;stroke-width:0.8;" x="430.144176" xlink:href="#mfd46d4aa70" y="314.401301"/>
      </g>
     </g>
     <g id="text_30">
      <!-- 5 -->
      <g transform="translate(416.781676 318.200519)scale(0.1 -0.1)">
       <use xlink:href="#DejaVuSans-35"/>
      </g>
     </g>
    </g>
    <g id="ytick_11">
     <g id="line2d_37">
      <g>
       <use style="stroke:#000000;stroke-width:0.8;" x="430.144176" xlink:href="#mfd46d4aa70" y="262.071171"/>
      </g>
     </g>
     <g id="text_31">
      <!-- 10 -->
      <g transform="translate(410.419176 265.870389)scale(0.1 -0.1)">
       <use xlink:href="#DejaVuSans-31"/>
       <use x="63.623047" xlink:href="#DejaVuSans-30"/>
      </g>
     </g>
    </g>
    <g id="ytick_12">
     <g id="line2d_38">
      <g>
       <use style="stroke:#000000;stroke-width:0.8;" x="430.144176" xlink:href="#mfd46d4aa70" y="209.741041"/>
      </g>
     </g>
     <g id="text_32">
      <!-- 15 -->
      <g transform="translate(410.419176 213.540259)scale(0.1 -0.1)">
       <use xlink:href="#DejaVuSans-31"/>
       <use x="63.623047" xlink:href="#DejaVuSans-35"/>
      </g>
     </g>
    </g>
    <g id="ytick_13">
     <g id="line2d_39">
      <g>
       <use style="stroke:#000000;stroke-width:0.8;" x="430.144176" xlink:href="#mfd46d4aa70" y="157.410911"/>
      </g>
     </g>
     <g id="text_33">
      <!-- 20 -->
      <g transform="translate(410.419176 161.21013)scale(0.1 -0.1)">
       <use xlink:href="#DejaVuSans-32"/>
       <use x="63.623047" xlink:href="#DejaVuSans-30"/>
      </g>
     </g>
    </g>
    <g id="ytick_14">
     <g id="line2d_40">
      <g>
       <use style="stroke:#000000;stroke-width:0.8;" x="430.144176" xlink:href="#mfd46d4aa70" y="105.080781"/>
      </g>
     </g>
     <g id="text_34">
      <!-- 25 -->
      <g transform="translate(410.419176 108.88)scale(0.1 -0.1)">
       <use xlink:href="#DejaVuSans-32"/>
       <use x="63.623047" xlink:href="#DejaVuSans-35"/>
      </g>
     </g>
    </g>
    <g id="ytick_15">
     <g id="line2d_41">
      <g>
       <use style="stroke:#000000;stroke-width:0.8;" x="430.144176" xlink:href="#mfd46d4aa70" y="52.750651"/>
      </g>
     </g>
     <g id="text_35">
      <!-- 30 -->
      <g transform="translate(410.419176 56.54987)scale(0.1 -0.1)">
       <use xlink:href="#DejaVuSans-33"/>
       <use x="63.623047" xlink:href="#DejaVuSans-30"/>
      </g>
     </g>
    </g>
    <g id="text_36">
     <!-- $\lambda_i$ -->
     <g transform="translate(404.339489 189.5)rotate(-90)scale(0.1 -0.1)">
      <defs>
       <path d="M 2350 4316 
L 3125 0 
L 2516 0 
L 2038 2588 
L 328 0 
L -281 0 
L 1903 3356 
L 1794 3975 
Q 1725 4369 1391 4369 
L 1091 4369 
L 1184 4863 
L 1550 4856 
Q 2253 4847 2350 4316 
z
" id="DejaVuSans-Oblique-3bb" transform="scale(0.015625)"/>
      </defs>
      <use transform="translate(0 0.015625)" xlink:href="#DejaVuSans-Oblique-3bb"/>
      <use transform="translate(59.179688 -16.390625)scale(0.7)" xlink:href="#DejaVuSans-Oblique-69"/>
     </g>
    </g>
   </g>
   <g id="line2d_42">
    <path clip-path="url(#p654cf2f128)" d="M 443.978887 333.654545 
L 474.722689 300.709225 
L 505.46649 267.738435 
L 536.210292 234.76657 
L 566.954093 201.799938 
L 597.697895 168.841971 
L 628.441697 135.895286 
L 659.185498 102.962197 
L 689.9293 70.044883 
L 720.673102 37.145455 
" style="fill:none;"/>
    <defs>
     <path d="M 0 1.5 
C 0.397805 1.5 0.77937 1.341951 1.06066 1.06066 
C 1.341951 0.77937 1.5 0.397805 1.5 0 
C 1.5 -0.397805 1.341951 -0.77937 1.06066 -1.06066 
C 0.77937 -1.341951 0.397805 -1.5 0 -1.5 
C -0.397805 -1.5 -0.77937 -1.341951 -1.06066 -1.06066 
C -1.341951 -0.77937 -1.5 -0.397805 -1.5 0 
C -1.5 0.397805 -1.341951 0.77937 -1.06066 1.06066 
C -0.77937 1.341951 -0.397805 1.5 0 1.5 
z
" id="mfe47cf1e8c" style="stroke:#1f77b4;"/>
    </defs>
    <g clip-path="url(#p654cf2f128)">
     <use style="fill:#1f77b4;stroke:#1f77b4;" x="443.978887" xlink:href="#mfe47cf1e8c" y="333.654545"/>
     <use style="fill:#1f77b4;stroke:#1f77b4;" x="474.722689" xlink:href="#mfe47cf1e8c" y="300.709225"/>
     <use style="fill:#1f77b4;stroke:#1f77b4;" x="505.46649" xlink:href="#mfe47cf1e8c" y="267.738435"/>
     <use style="fill:#1f77b4;stroke:#1f77b4;" x="536.210292" xlink:href="#mfe47cf1e8c" y="234.76657"/>
     <use style="fill:#1f77b4;stroke:#1f77b4;" x="566.954093" xlink:href="#mfe47cf1e8c" y="201.799938"/>
     <use style="fill:#1f77b4;stroke:#1f77b4;" x="597.697895" xlink:href="#mfe47cf1e8c" y="168.841971"/>
     <use style="fill:#1f77b4;stroke:#1f77b4;" x="628.441697" xlink:href="#mfe47cf1e8c" y="135.895286"/>
     <use style="fill:#1f77b4;stroke:#1f77b4;" x="659.185498" xlink:href="#mfe47cf1e8c" y="102.962197"/>
     <use style="fill:#1f77b4;stroke:#1f77b4;" x="689.9293" xlink:href="#mfe47cf1e8c" y="70.044883"/>
     <use style="fill:#1f77b4;stroke:#1f77b4;" x="720.673102" xlink:href="#mfe47cf1e8c" y="37.145455"/>
    </g>
   </g>
   <g id="patch_9">
    <path d="M 430.144176 348.48 
L 430.144176 22.32 
" style="fill:none;stroke:#000000;stroke-linecap:square;stroke-linejoin:miter;stroke-width:0.8;"/>
   </g>
   <g id="patch_10">
    <path d="M 734.507812 348.48 
L 734.507812 22.32 
" style="fill:none;stroke:#000000;stroke-linecap:square;stroke-linejoin:miter;stroke-width:0.8;"/>
   </g>
   <g id="patch_11">
    <path d="M 430.144176 348.48 
L 734.507812 348.48 
" style="fill:none;stroke:#000000;stroke-linecap:square;stroke-linejoin:miter;stroke-width:0.8;"/>
   </g>
   <g id="patch_12">
    <path d="M 430.144176 22.32 
L 734.507812 22.32 
" style="fill:none;stroke:#000000;stroke-linecap:square;stroke-linejoin:miter;stroke-width:0.8;"/>
   </g>
   <g id="text_37">
    <!-- Eigenvalues -->
    <g transform="translate(546.049432 16.32)scale(0.12 -0.12)">
     <defs>
      <path d="M 191 3500 
L 800 3500 
L 1894 563 
L 2988 3500 
L 3597 3500 
L 2284 0 
L 1503 0 
L 191 3500 
z
" id="DejaVuSans-76" transform="scale(0.015625)"/>
     </defs>
     <use xlink:href="#DejaVuSans-45"/>
     <use x="63.183594" xlink:href="#DejaVuSans-69"/>
     <use x="90.966797" xlink:href="#DejaVuSans-67"/>
     <use x="154.443359" xlink:href="#DejaVuSans-65"/>
     <use x="215.966797" xlink:href="#DejaVuSans-6e"/>
     <use x="279.345703" xlink:href="#DejaVuSans-76"/>
     <use x="338.525391" xlink:href="#DejaVuSans-61"/>
     <use x="399.804688" xlink:href="#DejaVuSans-6c"/>
     <use x="427.587891" xlink:href="#DejaVuSans-75"/>
     <use x="490.966797" xlink:href="#DejaVuSans-65"/>
     <use x="552.490234" xlink:href="#DejaVuSans-73"/>
    </g>
   </g>
  </g>
 </g>
 <defs>
  <clipPath id="p5ea7da5671">
   <rect height="326.16" width="304.363636" x="64.907813" y="22.32"/>
  </clipPath>
  <clipPath id="p654cf2f128">
   <rect height="326.16" width="304.363636" x="430.144176" y="22.32"/>
  </clipPath>
 </defs>
</svg>
